<svg width="32" height="32" viewBox="0 0 32 32" fill="none" xmlns="http://www.w3.org/2000/svg">
<path d="M28.3248 7.99987L30.6654 5.81432V5.33594H22.5571L16.7785 19.375L10.2041 5.33594H1.70236V5.81432L4.43648 9.02702C4.70292 9.26443 4.84225 9.61159 4.80681 9.96113V22.5865C4.89114 23.041 4.73959 23.5086 4.41203 23.8391L1.33203 27.4825V27.9549H10.0648V27.4765L6.98481 23.8391C6.65114 23.5074 6.49348 23.0481 6.5607 22.5865V11.6659L14.2265 27.9608H15.1175L21.7089 11.6659V24.6467C21.7089 24.9891 21.7089 25.0595 21.4791 25.2838L19.108 27.523V28.0026H30.6116V27.5242L28.326 25.3399C28.1256 25.1919 28.0217 24.9438 28.0645 24.7028V8.63692C28.0217 8.39474 28.1244 8.1466 28.3248 7.99987Z" fill="currentColor"/>
</svg>
