<svg width="249" height="89" viewBox="0 0 249 89" fill="none" xmlns="http://www.w3.org/2000/svg">
<g filter="url(#filter0_f_7114_660940)">
<path d="M28.2992 74.6948C23.8051 74.6948 20.4065 73.4303 18.1033 70.9014C15.8 68.3162 14.6484 64.6352 14.6484 59.8583V56.4863H23.4119V60.5327C23.4119 64.3542 25.0129 66.265 28.2149 66.265C29.7878 66.265 30.9675 65.8154 31.754 64.9162C32.5966 63.9608 33.0179 62.4434 33.0179 60.3641C33.0179 57.8913 32.4562 55.7277 31.3327 53.8731C30.2091 51.9623 28.1306 49.6863 25.0971 47.0449C21.2772 43.673 18.6088 40.6383 17.0921 37.9407C15.5753 35.187 14.817 32.096 14.817 28.6679C14.817 24.0034 15.9967 20.4067 18.356 17.8777C20.7154 15.2926 24.1422 14 28.6362 14C33.0741 14 36.4166 15.2926 38.6636 17.8777C40.9668 20.4067 42.1184 24.0596 42.1184 28.8365V31.2812H33.355V28.2464C33.355 26.2233 32.9618 24.7621 32.1753 23.8629C31.3888 22.9075 30.2372 22.4298 28.7205 22.4298C25.6308 22.4298 24.086 24.3125 24.086 28.0778C24.086 30.2134 24.6477 32.2084 25.7713 34.063C26.9509 35.9176 29.0575 38.1655 32.091 40.8069C35.9672 44.1788 38.6355 47.2416 40.0961 49.9954C41.5567 52.7491 42.2869 55.9806 42.2869 59.6897C42.2869 64.5228 41.0792 68.2319 38.6636 70.8171C36.3042 73.4022 32.8494 74.6948 28.2992 74.6948Z" fill="#B1F1FF"/>
<path d="M61.0837 74.6948C56.5896 74.6948 53.1629 73.4303 50.8035 70.9014C48.4441 68.3162 47.2644 64.6352 47.2644 59.8583V14.843H56.5334V60.5327C56.5334 62.5558 56.9267 64.017 57.7131 64.9162C58.5558 65.8154 59.7355 66.265 61.2522 66.265C62.769 66.265 63.9206 65.8154 64.707 64.9162C65.5497 64.017 65.971 62.5558 65.971 60.5327V14.843H74.9029V59.8583C74.9029 64.6352 73.7232 68.3162 71.3639 70.9014C69.0045 73.4303 65.5778 74.6948 61.0837 74.6948Z" fill="#B1F1FF"/>
<path d="M94.5654 74.6948C90.1275 74.6948 86.7288 73.4303 84.3695 70.9014C82.0662 68.3724 80.9146 64.8038 80.9146 60.1955V28.4993C80.9146 23.891 82.0662 20.3224 84.3695 17.7934C86.7288 15.2645 90.1275 14 94.5654 14C99.0033 14 102.374 15.2645 104.677 17.7934C107.036 20.3224 108.216 23.891 108.216 28.4993V34.7374H99.4527V27.9092C99.4527 24.2563 97.9078 22.4298 94.8182 22.4298C91.7285 22.4298 90.1836 24.2563 90.1836 27.9092V60.8699C90.1836 64.4666 91.7285 66.265 94.8182 66.265C97.9078 66.265 99.4527 64.4666 99.4527 60.8699V51.8499H108.216V60.1955C108.216 64.8038 107.036 68.3724 104.677 70.9014C102.374 73.4303 99.0033 74.6948 94.5654 74.6948Z" fill="#B1F1FF"/>
<path d="M126.987 74.6948C122.549 74.6948 119.151 73.4303 116.791 70.9014C114.488 68.3724 113.336 64.8038 113.336 60.1955V28.4993C113.336 23.891 114.488 20.3224 116.791 17.7934C119.151 15.2645 122.549 14 126.987 14C131.425 14 134.796 15.2645 137.099 17.7934C139.458 20.3224 140.638 23.891 140.638 28.4993V34.7374H131.874V27.9092C131.874 24.2563 130.33 22.4298 127.24 22.4298C124.15 22.4298 122.605 24.2563 122.605 27.9092V60.8699C122.605 64.4666 124.15 66.265 127.24 66.265C130.33 66.265 131.874 64.4666 131.874 60.8699V51.8499H140.638V60.1955C140.638 64.8038 139.458 68.3724 137.099 70.9014C134.796 73.4303 131.425 74.6948 126.987 74.6948Z" fill="#B1F1FF"/>
<path d="M146.183 14.843H171.463V23.2728H155.452V38.868H168.176V47.2978H155.452V65.422H171.463V73.8518H146.183V14.843Z" fill="#B1F1FF"/>
<path d="M189.009 74.6948C184.515 74.6948 181.117 73.4303 178.813 70.9014C176.51 68.3162 175.358 64.6352 175.358 59.8583V56.4863H184.122V60.5327C184.122 64.3542 185.723 66.265 188.925 66.265C190.498 66.265 191.678 65.8154 192.464 64.9162C193.307 63.9608 193.728 62.4434 193.728 60.3641C193.728 57.8913 193.166 55.7277 192.043 53.8731C190.919 51.9623 188.841 49.6863 185.807 47.0449C181.987 43.673 179.319 40.6383 177.802 37.9407C176.285 35.187 175.527 32.096 175.527 28.6679C175.527 24.0034 176.707 20.4067 179.066 17.8777C181.425 15.2926 184.852 14 189.346 14C193.784 14 197.127 15.2926 199.374 17.8777C201.677 20.4067 202.828 24.0596 202.828 28.8365V31.2812H194.065V28.2464C194.065 26.2233 193.672 24.7621 192.885 23.8629C192.099 22.9075 190.947 22.4298 189.431 22.4298C186.341 22.4298 184.796 24.3125 184.796 28.0778C184.796 30.2134 185.358 32.2084 186.481 34.063C187.661 35.9176 189.768 38.1655 192.801 40.8069C196.677 44.1788 199.346 47.2416 200.806 49.9954C202.267 52.7491 202.997 55.9806 202.997 59.6897C202.997 64.5228 201.789 68.2319 199.374 70.8171C197.014 73.4022 193.559 74.6948 189.009 74.6948Z" fill="#B1F1FF"/>
<path d="M220.361 74.6948C215.867 74.6948 212.469 73.4303 210.165 70.9014C207.862 68.3162 206.711 64.6352 206.711 59.8583V56.4863H215.474V60.5327C215.474 64.3542 217.075 66.265 220.277 66.265C221.85 66.265 223.03 65.8154 223.816 64.9162C224.659 63.9608 225.08 62.4434 225.08 60.3641C225.08 57.8913 224.518 55.7277 223.395 53.8731C222.271 51.9623 220.193 49.6863 217.159 47.0449C213.339 43.673 210.671 40.6383 209.154 37.9407C207.637 35.187 206.879 32.096 206.879 28.6679C206.879 24.0034 208.059 20.4067 210.418 17.8777C212.778 15.2926 216.204 14 220.698 14C225.136 14 228.479 15.2926 230.726 17.8777C233.029 20.4067 234.181 24.0596 234.181 28.8365V31.2812H225.417V28.2464C225.417 26.2233 225.024 24.7621 224.237 23.8629C223.451 22.9075 222.299 22.4298 220.783 22.4298C217.693 22.4298 216.148 24.3125 216.148 28.0778C216.148 30.2134 216.71 32.2084 217.833 34.063C219.013 35.9176 221.12 38.1655 224.153 40.8069C228.029 44.1788 230.698 47.2416 232.158 49.9954C233.619 52.7491 234.349 55.9806 234.349 59.6897C234.349 64.5228 233.141 68.2319 230.726 70.8171C228.366 73.4022 224.911 74.6948 220.361 74.6948Z" fill="#B1F1FF"/>
</g>
<path d="M28.2992 74.6948C23.8051 74.6948 20.4065 73.4303 18.1033 70.9014C15.8 68.3162 14.6484 64.6352 14.6484 59.8583V56.4863H23.4119V60.5327C23.4119 64.3542 25.0129 66.265 28.2149 66.265C29.7878 66.265 30.9675 65.8154 31.754 64.9162C32.5966 63.9608 33.0179 62.4434 33.0179 60.3641C33.0179 57.8913 32.4562 55.7277 31.3327 53.8731C30.2091 51.9623 28.1306 49.6863 25.0971 47.0449C21.2772 43.673 18.6088 40.6383 17.0921 37.9407C15.5753 35.187 14.817 32.096 14.817 28.6679C14.817 24.0034 15.9967 20.4067 18.356 17.8777C20.7154 15.2926 24.1422 14 28.6362 14C33.0741 14 36.4166 15.2926 38.6636 17.8777C40.9668 20.4067 42.1184 24.0596 42.1184 28.8365V31.2812H33.355V28.2464C33.355 26.2233 32.9618 24.7621 32.1753 23.8629C31.3888 22.9075 30.2372 22.4298 28.7205 22.4298C25.6308 22.4298 24.086 24.3125 24.086 28.0778C24.086 30.2134 24.6477 32.2084 25.7713 34.063C26.9509 35.9176 29.0575 38.1655 32.091 40.8069C35.9672 44.1788 38.6355 47.2416 40.0961 49.9954C41.5567 52.7491 42.2869 55.9806 42.2869 59.6897C42.2869 64.5228 41.0792 68.2319 38.6636 70.8171C36.3042 73.4022 32.8494 74.6948 28.2992 74.6948Z" fill="#F5FDFF"/>
<path d="M61.0837 74.6948C56.5896 74.6948 53.1629 73.4303 50.8035 70.9014C48.4441 68.3162 47.2644 64.6352 47.2644 59.8583V14.843H56.5334V60.5327C56.5334 62.5558 56.9267 64.017 57.7131 64.9162C58.5558 65.8154 59.7355 66.265 61.2522 66.265C62.769 66.265 63.9206 65.8154 64.707 64.9162C65.5497 64.017 65.971 62.5558 65.971 60.5327V14.843H74.9029V59.8583C74.9029 64.6352 73.7232 68.3162 71.3639 70.9014C69.0045 73.4303 65.5778 74.6948 61.0837 74.6948Z" fill="#F5FDFF"/>
<path d="M94.5654 74.6948C90.1275 74.6948 86.7288 73.4303 84.3695 70.9014C82.0662 68.3724 80.9146 64.8038 80.9146 60.1955V28.4993C80.9146 23.891 82.0662 20.3224 84.3695 17.7934C86.7288 15.2645 90.1275 14 94.5654 14C99.0033 14 102.374 15.2645 104.677 17.7934C107.036 20.3224 108.216 23.891 108.216 28.4993V34.7374H99.4527V27.9092C99.4527 24.2563 97.9078 22.4298 94.8182 22.4298C91.7285 22.4298 90.1836 24.2563 90.1836 27.9092V60.8699C90.1836 64.4666 91.7285 66.265 94.8182 66.265C97.9078 66.265 99.4527 64.4666 99.4527 60.8699V51.8499H108.216V60.1955C108.216 64.8038 107.036 68.3724 104.677 70.9014C102.374 73.4303 99.0033 74.6948 94.5654 74.6948Z" fill="#F5FDFF"/>
<path d="M126.987 74.6948C122.549 74.6948 119.151 73.4303 116.791 70.9014C114.488 68.3724 113.336 64.8038 113.336 60.1955V28.4993C113.336 23.891 114.488 20.3224 116.791 17.7934C119.151 15.2645 122.549 14 126.987 14C131.425 14 134.796 15.2645 137.099 17.7934C139.458 20.3224 140.638 23.891 140.638 28.4993V34.7374H131.874V27.9092C131.874 24.2563 130.33 22.4298 127.24 22.4298C124.15 22.4298 122.605 24.2563 122.605 27.9092V60.8699C122.605 64.4666 124.15 66.265 127.24 66.265C130.33 66.265 131.874 64.4666 131.874 60.8699V51.8499H140.638V60.1955C140.638 64.8038 139.458 68.3724 137.099 70.9014C134.796 73.4303 131.425 74.6948 126.987 74.6948Z" fill="#F5FDFF"/>
<path d="M146.183 14.843H171.463V23.2728H155.452V38.868H168.176V47.2978H155.452V65.422H171.463V73.8518H146.183V14.843Z" fill="#F5FDFF"/>
<path d="M189.009 74.6948C184.515 74.6948 181.117 73.4303 178.813 70.9014C176.51 68.3162 175.358 64.6352 175.358 59.8583V56.4863H184.122V60.5327C184.122 64.3542 185.723 66.265 188.925 66.265C190.498 66.265 191.678 65.8154 192.464 64.9162C193.307 63.9608 193.728 62.4434 193.728 60.3641C193.728 57.8913 193.166 55.7277 192.043 53.8731C190.919 51.9623 188.841 49.6863 185.807 47.0449C181.987 43.673 179.319 40.6383 177.802 37.9407C176.285 35.187 175.527 32.096 175.527 28.6679C175.527 24.0034 176.707 20.4067 179.066 17.8777C181.425 15.2926 184.852 14 189.346 14C193.784 14 197.127 15.2926 199.374 17.8777C201.677 20.4067 202.828 24.0596 202.828 28.8365V31.2812H194.065V28.2464C194.065 26.2233 193.672 24.7621 192.885 23.8629C192.099 22.9075 190.947 22.4298 189.431 22.4298C186.341 22.4298 184.796 24.3125 184.796 28.0778C184.796 30.2134 185.358 32.2084 186.481 34.063C187.661 35.9176 189.768 38.1655 192.801 40.8069C196.677 44.1788 199.346 47.2416 200.806 49.9954C202.267 52.7491 202.997 55.9806 202.997 59.6897C202.997 64.5228 201.789 68.2319 199.374 70.8171C197.014 73.4022 193.559 74.6948 189.009 74.6948Z" fill="#F5FDFF"/>
<path d="M220.361 74.6948C215.867 74.6948 212.469 73.4303 210.165 70.9014C207.862 68.3162 206.711 64.6352 206.711 59.8583V56.4863H215.474V60.5327C215.474 64.3542 217.075 66.265 220.277 66.265C221.85 66.265 223.03 65.8154 223.816 64.9162C224.659 63.9608 225.08 62.4434 225.08 60.3641C225.08 57.8913 224.518 55.7277 223.395 53.8731C222.271 51.9623 220.193 49.6863 217.159 47.0449C213.339 43.673 210.671 40.6383 209.154 37.9407C207.637 35.187 206.879 32.096 206.879 28.6679C206.879 24.0034 208.059 20.4067 210.418 17.8777C212.778 15.2926 216.204 14 220.698 14C225.136 14 228.479 15.2926 230.726 17.8777C233.029 20.4067 234.181 24.0596 234.181 28.8365V31.2812H225.417V28.2464C225.417 26.2233 225.024 24.7621 224.237 23.8629C223.451 22.9075 222.299 22.4298 220.783 22.4298C217.693 22.4298 216.148 24.3125 216.148 28.0778C216.148 30.2134 216.71 32.2084 217.833 34.063C219.013 35.9176 221.12 38.1655 224.153 40.8069C228.029 44.1788 230.698 47.2416 232.158 49.9954C233.619 52.7491 234.349 55.9806 234.349 59.6897C234.349 64.5228 233.141 68.2319 230.726 70.8171C228.366 73.4022 224.911 74.6948 220.361 74.6948Z" fill="#F5FDFF"/>
<defs>
<filter id="filter0_f_7114_660940" x="0.648438" y="0" width="247.699" height="88.6943" filterUnits="userSpaceOnUse" color-interpolation-filters="sRGB">
<feFlood flood-opacity="0" result="BackgroundImageFix"/>
<feBlend mode="normal" in="SourceGraphic" in2="BackgroundImageFix" result="shape"/>
<feGaussianBlur stdDeviation="7" result="effect1_foregroundBlur_7114_660940"/>
</filter>
</defs>
</svg>
