<svg width="24" height="24" viewBox="0 0 24 24" fill="none" xmlns="http://www.w3.org/2000/svg">
<g clip-path="url(#clip0_1046_3564)">
<path d="M23.2536 16.173C23.736 14.8731 24 13.467 24 11.9991C24 10.5313 23.736 9.12525 23.2536 7.82522L12 6.78174L0.746391 7.82522C0.264047 9.12525 0 10.5313 0 11.9991C0 13.467 0.264047 14.8731 0.746391 16.173L12 17.2165L23.2536 16.173Z" fill="#F0F0F0"/>
<path d="M11.9998 23.9996C17.1593 23.9996 21.5578 20.7431 23.2533 16.1735H0.746094C2.44166 20.7431 6.84013 23.9996 11.9998 23.9996Z" fill="#D80027"/>
<path d="M11.9997 0C6.84012 0 2.44166 3.2565 0.746094 7.82611H23.2534C21.5578 3.2565 17.1593 0 11.9997 0Z" fill="#D80027"/>
</g>
<defs>
<clipPath id="clip0_1046_3564">
<rect width="24" height="24" fill="white"/>
</clipPath>
</defs>
</svg>
