<svg width="24" height="24" viewBox="0 0 24 24" fill="none" xmlns="http://www.w3.org/2000/svg">
<g clip-path="url(#clip0_1046_3605)">
<path d="M12 24C18.6274 24 24 18.6274 24 12C24 5.37258 18.6274 0 12 0C5.37258 0 0 5.37258 0 12C0 18.6274 5.37258 24 12 24Z" fill="#F0F0F0"/>
<path d="M10.9565 11.9993C10.9565 11.9993 3.52168 20.4863 3.51465 20.4846C5.68618 22.6562 8.68623 23.9993 12 23.9993C18.6273 23.9993 24 18.6267 24 11.9993H10.9565Z" fill="#D80027"/>
<path d="M3.51471 3.51459C-1.17157 8.20087 -1.17157 15.7989 3.51471 20.4852C5.45126 18.5487 7.31375 16.6862 12 11.9999L3.51471 3.51459Z" fill="#0052B4"/>
</g>
<defs>
<clipPath id="clip0_1046_3605">
<rect width="24" height="24" fill="white"/>
</clipPath>
</defs>
</svg>
