<svg width="24" height="24" viewBox="0 0 24 24" fill="none" xmlns="http://www.w3.org/2000/svg">
<g clip-path="url(#clip0_1046_3617)">
<path d="M0 11.9995C0 13.4673 0.264047 14.8734 0.746391 16.1734L12 16.6951L23.2536 16.1734C23.736 14.8734 24 13.4673 24 11.9995C24 10.5316 23.736 9.12558 23.2536 7.8256L12 7.30383L0.746391 7.82555C0.264047 9.12558 0 10.5316 0 11.9995Z" fill="currentColor"/>
<path d="M11.9997 -0.000366211C6.84013 -0.000366211 2.44161 3.25613 0.746094 7.82574H23.2534C21.5578 3.25613 17.1593 -0.000366211 11.9997 -0.000366211Z" fill="#0052B4"/>
<path d="M23.2533 16.1742H0.746094C2.44161 20.7438 6.84012 24.0003 11.9997 24.0003C17.1593 24.0003 21.5578 20.7438 23.2533 16.1742Z" fill="#F0F0F0"/>
</g>
<defs>
<clipPath id="clip0_1046_3617">
<rect width="24" height="24" fill="white"/>
</clipPath>
</defs>
</svg>
