<svg width="24" height="24" viewBox="0 0 24 24" fill="none" xmlns="http://www.w3.org/2000/svg">
<g clip-path="url(#clip0_1046_3656)">
<path d="M0 11.9999C0 13.8697 0.427828 15.6396 1.19072 17.2173L12 17.739L22.8093 17.2173C23.5722 15.6396 24 13.8697 24 11.9999C24 10.13 23.5722 8.36013 22.8093 6.78251L12 6.26074L1.19072 6.78246C0.427828 8.36013 0 10.13 0 11.9999Z" fill="#F0F0F0"/>
<path d="M12.0007 24C16.7582 24 20.869 21.2314 22.81 17.2174H1.19141C3.13241 21.2314 7.24316 24 12.0007 24Z" fill="#6DA544"/>
<path d="M12.0007 -0.000732422C7.24316 -0.000732422 3.13241 2.76794 1.19141 6.78189H22.8099C20.869 2.76794 16.7582 -0.000732422 12.0007 -0.000732422Z" fill="#0052B4"/>
<path d="M12.7828 11.7392V8.86963H11.2176V11.7392L9.32715 13.6297C9.87694 14.5297 10.8684 15.1305 12.0002 15.1305C13.1321 15.1305 14.1235 14.5297 14.6733 13.6297L12.7828 11.7392Z" fill="currentColor"/>
</g>
<defs>
<clipPath id="clip0_1046_3656">
<rect width="24" height="24" fill="white"/>
</clipPath>
</defs>
</svg>
