<svg width="24" height="24" viewBox="0 0 24 24" fill="none" xmlns="http://www.w3.org/2000/svg">
<g clip-path="url(#clip0_1046_3745)">
<path d="M12 24C18.6274 24 24 18.6274 24 12C24 5.37258 18.6274 0 12 0C5.37258 0 0 5.37258 0 12C0 18.6274 5.37258 24 12 24Z" fill="#338AF3"/>
<path d="M11.6216 19.5561C11.2981 19.5405 11.0304 19.3302 10.9256 19.0448C10.7404 19.2864 10.4221 19.408 10.1085 19.3271C9.79442 19.2462 9.57482 18.9864 9.52939 18.6848C9.29877 18.8841 8.96277 18.9383 8.67219 18.796C8.38105 18.653 8.2183 18.354 8.23499 18.0498C7.96944 18.199 7.62927 18.1844 7.3731 17.9861C7.11744 17.7879 7.01778 17.4628 7.09499 17.168C6.80488 17.2609 6.47516 17.1785 6.26385 16.9327C6.05253 16.6875 6.02014 16.3489 6.15482 16.076C5.85219 16.1083 5.54544 15.9612 5.38785 15.6785C5.22974 15.3957 5.2663 15.0571 5.45357 14.8165C5.15043 14.7873 4.87911 14.5812 4.78208 14.2723C4.68453 13.9635 4.78888 13.639 5.02105 13.4412C4.72991 13.3514 4.5066 13.0947 4.47374 12.7728C4.44088 12.451 4.60785 12.1551 4.87442 12.008C4.6078 11.8619 4.4398 11.5661 4.47163 11.2447C4.47163 11.2447 4.47163 11.2447 4.47214 11.2447C4.50397 10.9222 4.72728 10.6651 5.01786 10.5742C4.78569 10.377 4.68032 10.053 4.77683 9.74411C4.87335 9.43474 5.1441 9.22811 5.44728 9.19783C5.25997 8.95783 5.22243 8.61916 5.37946 8.33594C5.53649 8.05315 5.84328 7.90549 6.14643 7.93732C6.01077 7.66446 6.0426 7.32583 6.25339 7.0796C6.46367 6.83388 6.79339 6.75091 7.08402 6.84274C7.00574 6.54846 7.10488 6.22291 7.36053 6.02416C7.61567 5.82532 7.95585 5.81018 8.22139 5.95835C8.20419 5.65422 8.36642 5.35521 8.65705 5.21172C8.94716 5.06875 9.28368 5.122 9.51477 5.32127C9.55911 5.01977 9.77877 4.75891 10.0923 4.67744C10.4053 4.59607 10.7236 4.71658 10.9093 4.95761C11.0142 4.67224 11.2813 4.46144 11.6048 4.44527C11.9278 4.42863 12.2147 4.61013 12.3483 4.88308C12.508 4.62429 12.8116 4.47091 13.1315 4.51943C13.4518 4.56743 13.6976 4.80321 13.7737 5.09805C13.9824 4.87572 14.3111 4.7876 14.6148 4.89921C14.9189 5.01138 15.112 5.29207 15.1266 5.59675C15.3755 5.42149 15.7156 5.4011 15.9906 5.57224C16.2656 5.74286 16.3976 6.05641 16.3506 6.35744C16.6297 6.2359 16.9668 6.28441 17.2016 6.50664C17.4364 6.72944 17.5031 7.06282 17.3967 7.34819C17.6946 7.28505 18.015 7.39985 18.2007 7.66539C18.3864 7.93043 18.3849 8.2706 18.2237 8.52888C18.5278 8.52677 18.8185 8.70419 18.9473 9.00105C19.0757 9.29843 19.0052 9.63185 18.795 9.85254C19.094 9.91202 19.3428 10.1442 19.4085 10.4614C19.4737 10.7786 19.3376 11.0901 19.0877 11.2638C19.3673 11.3823 19.5645 11.6593 19.5651 11.9828C19.5651 11.9864 19.5651 11.9896 19.5651 11.9933C19.5651 11.9954 19.5651 11.998 19.5651 12.0001C19.5651 12.3235 19.3689 12.6011 19.0892 12.7206C19.3397 12.8933 19.4769 13.2048 19.4117 13.522C19.347 13.8392 19.0986 14.0719 18.7997 14.1324C19.0105 14.3526 19.082 14.6854 18.9541 14.9834C18.8263 15.2808 18.5357 15.4587 18.231 15.4571C18.3927 15.7154 18.3953 16.0556 18.2101 16.3211C18.0249 16.5867 17.7051 16.7025 17.4072 16.6399C17.5141 16.9248 17.4478 17.2587 17.2136 17.482C16.9788 17.7048 16.6423 17.7538 16.3632 17.6333C16.4106 17.9338 16.2792 18.2479 16.0047 18.4196C15.7303 18.5913 15.3901 18.5714 15.1407 18.3966C15.1266 18.7013 14.9346 18.9826 14.631 19.0953C14.631 19.0953 14.631 19.0953 14.6305 19.0953C14.3268 19.2074 13.9981 19.1198 13.7889 18.8981C13.7138 19.1934 13.4686 19.4297 13.1482 19.4788C12.8284 19.5273 12.5242 19.375 12.3641 19.1162C12.2368 19.3786 11.9676 19.557 11.6608 19.557C11.6477 19.5572 11.6346 19.5567 11.6216 19.5561Z" fill="#F3F3F3"/>
<path d="M12.0006 17.2183C14.8821 17.2183 17.218 14.8824 17.218 12.0009C17.218 9.11941 14.8821 6.78351 12.0006 6.78351C9.1191 6.78351 6.7832 9.11941 6.7832 12.0009C6.7832 14.8824 9.1191 17.2183 12.0006 17.2183Z" fill="#338AF3"/>
<path d="M13.142 10.2289C13.3983 10.0388 13.5652 9.73488 13.5652 9.39119V8.86947C13.5652 8.29315 13.0981 7.82599 12.5217 7.82599H11.4783C10.902 7.82599 10.4348 8.29315 10.4348 8.86947V9.39119C10.4348 9.73488 10.6017 10.0388 10.858 10.2289L9.91309 19.8259C9.91309 19.8259 10.4348 20.3478 12.0001 20.3478C13.5653 20.3478 14.087 19.8259 14.087 19.8259L13.142 10.2289Z" fill="#BDBCC1"/>
<path d="M12.0002 7.82599L12.9067 10.6159H15.8404L13.4671 12.3403L14.3735 15.1303L12.0002 13.406L9.62687 15.1303L10.5335 12.3403L8.16016 10.6159H11.0937L12.0002 7.82599Z" fill="#F0F0F0"/>
</g>
<defs>
<clipPath id="clip0_1046_3745">
<rect width="24" height="24" fill="white"/>
</clipPath>
</defs>
</svg>
