<svg width="24" height="24" viewBox="0 0 24 24" fill="none" xmlns="http://www.w3.org/2000/svg">
<g clip-path="url(#clip0_1046_3750)">
<path d="M12 24C18.6274 24 24 18.6274 24 12C24 5.37258 18.6274 0 12 0C5.37258 0 0 5.37258 0 12C0 18.6274 5.37258 24 12 24Z" fill="#F0F0F0"/>
<path d="M7.30388 7.82696H23.2531C21.5576 3.25735 17.1591 0.000854492 11.9995 0.000854492C8.68576 0.000854492 5.68609 1.34424 3.51465 3.51596L7.30388 7.82696Z" fill="currentColor"/>
<path d="M7.30388 16.1736H23.2531C21.5576 20.7432 17.1591 23.9997 11.9995 23.9997C8.68576 23.9997 5.68609 22.6563 3.51465 20.4846L7.30388 16.1736Z" fill="#6DA544"/>
<path d="M3.51471 3.51489C-1.17157 8.20117 -1.17157 15.7992 3.51471 20.4855C5.45126 18.549 7.31375 16.6865 12 12.0002L3.51471 3.51489Z" fill="#D80027"/>
</g>
<defs>
<clipPath id="clip0_1046_3750">
<rect width="24" height="24" fill="white"/>
</clipPath>
</defs>
</svg>
