<svg width="56" height="56" viewBox="0 0 56 56" fill="none" xmlns="http://www.w3.org/2000/svg">
<path d="M39.0152 43.1922C39.0152 43.1922 46.0196 38.2029 46.8841 27.1123C46.8841 27.1123 43.6554 27.4477 42.7556 19.7461C42.7556 19.7461 42.1675 26.2239 38.0742 26.4475C38.0742 26.4534 43.7377 31.6604 39.0152 43.1922Z" fill="#AA3073"/>
<path d="M17.073 43.1922C17.073 43.1922 10.0686 38.2029 9.2041 27.1123C9.2041 27.1123 12.4328 27.4477 13.3326 19.7461C13.3326 19.7461 13.9207 26.2239 18.014 26.4475C18.014 26.4534 12.3505 31.6604 17.073 43.1922Z" fill="#AA3073"/>
<path d="M27.9885 12.6445C27.9885 12.6445 30.041 21.5405 36.2455 26.5592C36.2455 26.5592 29.594 33.2606 27.9885 43.1921C26.383 33.2606 19.7314 26.5592 19.7314 26.5592C25.9419 21.5405 27.9885 12.6445 27.9885 12.6445Z" fill="#AA3073"/>
<path d="M27.9998 56C12.5678 56 0.0117188 43.4385 0.0117188 28C0.0117188 12.5615 12.5678 0 27.9998 0C43.4317 0 55.9879 12.5615 55.9879 28C55.9879 43.4385 43.4317 56 27.9998 56ZM27.9998 2.94179C14.191 2.94179 2.95226 14.1794 2.95226 28C2.95226 41.8205 14.191 53.0582 27.9998 53.0582C41.8086 53.0582 53.0473 41.8205 53.0473 28C53.0473 14.1794 41.8086 2.94179 27.9998 2.94179Z" fill="#AA3073"/>
</svg>
