<svg width="56" height="56" viewBox="0 0 56 56" fill="none" xmlns="http://www.w3.org/2000/svg">
<path d="M44.0974 20.8672C36.4873 20.8672 31.1296 17.4724 28.1479 10.418C28.1244 10.4709 28.1009 10.518 28.0773 10.5709C28.0656 10.5415 28.0538 10.518 28.0421 10.4886C28.0303 10.518 28.0185 10.5415 28.0068 10.5709C27.9832 10.518 27.9597 10.4709 27.9362 10.418C24.9545 17.4724 19.5968 20.8672 11.9867 20.8672C11.9867 20.8672 11.5574 29.9633 14.2039 36.194C17.7443 44.5193 23.7606 45.4959 23.7606 45.4959C23.7606 45.4959 16.2387 41.1421 16.7269 25.4976C24.7957 24.6563 28.0362 20.0671 28.0362 20.0671C28.0362 20.0671 31.2767 24.6563 39.3573 25.4976C39.8454 41.1421 32.3235 45.4959 32.3235 45.4959C32.3235 45.4959 38.3398 44.5193 41.8802 36.194C44.5208 29.9633 44.0974 20.8672 44.0974 20.8672Z" fill="#38A1D6"/>
<path d="M35.2295 29.0289C29.7365 28.0875 28.0428 25.3458 28.0369 25.3281C28.0252 25.3399 26.3314 28.0875 20.8443 29.0289C20.2268 42.4847 28.0369 46.3973 28.0369 46.3973C28.0369 46.3973 35.8529 42.4847 35.2295 29.0289Z" fill="#38A1D6"/>
<path d="M27.9998 56C12.5678 56 0.0117188 43.4385 0.0117188 28C0.0117188 12.5615 12.5678 0 27.9998 0C43.4317 0 55.9879 12.5615 55.9879 28C55.9879 43.4385 43.4317 56 27.9998 56ZM27.9998 2.94768C14.191 2.94768 2.95226 14.1853 2.95226 28.0059C2.95226 41.8264 14.191 53.0641 27.9998 53.0641C41.8086 53.0641 53.0473 41.8264 53.0473 28.0059C53.0473 14.1853 41.8086 2.94768 27.9998 2.94768Z" fill="#38A1D6"/>
</svg>
