<svg width="22" height="22" viewBox="0 0 22 22" fill="none" xmlns="http://www.w3.org/2000/svg">
<path d="M11.4167 22C9.59353 22 7.9729 21.7566 6.55485 21.2698C5.14259 20.7886 3.95028 20.0782 2.9779 19.1386C2.00552 18.2046 1.26756 17.0639 0.76401 15.7167C0.260458 14.3695 0.00578794 12.8298 0 11.0976C0.00578794 9.40512 0.263352 7.87958 0.772691 6.52103C1.28203 5.15683 2.02578 3.99074 3.00395 3.02277C3.98211 2.04915 5.17732 1.30194 6.58958 0.781167C8.00184 0.260389 9.608 0 11.4081 0C13.1039 0 14.6059 0.251898 15.914 0.755693C17.2278 1.25949 18.3362 1.96141 19.2391 2.86144C20.1479 3.75582 20.8337 4.80304 21.2968 6.00309C21.7656 7.19748 22 8.49376 22 9.89193C22 10.8599 21.9248 11.7769 21.7743 12.643C21.6238 13.5034 21.3662 14.2676 21.0016 14.9355C20.6427 15.6035 20.1536 16.1356 19.5343 16.5318C18.915 16.9224 18.1394 17.1347 17.2076 17.1687C16.623 17.197 16.1108 17.1432 15.6709 17.0073C15.231 16.8715 14.875 16.6592 14.603 16.3705C14.3368 16.0762 14.1689 15.7167 14.0994 15.2922H13.9953C13.8621 15.6318 13.6104 15.9431 13.2399 16.2262C12.8753 16.5035 12.4238 16.7215 11.8856 16.88C11.3473 17.0328 10.7482 17.0951 10.0884 17.0668C9.38227 17.0328 8.72823 16.8743 8.12628 16.5913C7.53012 16.3026 7.00921 15.9007 6.56354 15.3856C6.12365 14.8648 5.78216 14.2365 5.53907 13.5006C5.29597 12.7647 5.17443 11.9298 5.17443 10.9958C5.17443 10.0844 5.30755 9.28059 5.5738 8.58433C5.84004 7.88807 6.196 7.29371 6.64167 6.80124C7.09313 6.30876 7.60247 5.92384 8.16969 5.64647C8.73691 5.36344 9.32149 5.1823 9.92344 5.10305C10.5485 5.01814 11.136 5.02663 11.6859 5.12852C12.2357 5.23041 12.693 5.38608 13.0576 5.59552C13.428 5.80497 13.6596 6.03422 13.7522 6.28329H13.8737V5.3323H16.296V13.4157C16.3018 13.8402 16.4059 14.1827 16.6085 14.4431C16.8169 14.7035 17.1063 14.8337 17.4767 14.8337C17.9398 14.8337 18.3131 14.6553 18.5967 14.2987C18.8861 13.9364 19.0944 13.3817 19.2218 12.6345C19.3549 11.8816 19.4186 10.9193 19.4128 9.74759C19.4186 8.78528 19.2883 7.91355 19.0221 7.13238C18.7616 6.34556 18.3912 5.65496 17.9108 5.06059C17.4304 4.46623 16.8545 3.97093 16.1831 3.57468C15.5175 3.17278 14.7766 2.86993 13.9605 2.66615C13.1444 2.46237 12.2733 2.36048 11.3473 2.36048C9.92923 2.36048 8.68192 2.57275 7.60537 2.9973C6.52881 3.41618 5.62589 4.01338 4.89661 4.78889C4.17311 5.56439 3.62615 6.48424 3.25572 7.54844C2.89108 8.60697 2.70876 9.77872 2.70876 11.0637C2.70876 12.4392 2.89976 13.6591 3.28177 14.7233C3.66956 15.7818 4.23678 16.6734 4.98343 17.3979C5.73007 18.1225 6.65325 18.6716 7.75296 19.0452C8.85846 19.4188 10.1289 19.6056 11.5643 19.6056C12.2242 19.6056 12.8695 19.5546 13.5004 19.4527C14.1313 19.3508 14.6985 19.232 15.2021 19.0961C15.7056 18.9602 16.0934 18.8414 16.3654 18.7395L17.1034 20.8962C16.7445 21.0773 16.2584 21.2528 15.6448 21.4226C15.0371 21.5924 14.3657 21.7311 13.6306 21.8387C12.9013 21.9462 12.1634 22 11.4167 22ZM10.809 14.6299C11.5441 14.6299 12.1315 14.4912 12.5714 14.2138C13.0113 13.9308 13.3268 13.5119 13.5178 12.9572C13.7088 12.4024 13.8014 11.7118 13.7956 10.8854C13.7956 10.1155 13.6972 9.48437 13.5004 8.99189C13.3036 8.49942 12.9882 8.13431 12.5541 7.89657C12.12 7.65882 11.5441 7.53995 10.8264 7.53995C10.1781 7.53995 9.62536 7.68429 9.16811 7.97298C8.71665 8.26167 8.36938 8.66075 8.12628 9.1702C7.88898 9.674 7.77032 10.2486 7.77032 10.8939C7.77032 11.5392 7.86582 12.1477 8.05683 12.7194C8.25362 13.2855 8.57195 13.7468 9.01184 14.1034C9.45751 14.4544 10.0566 14.6299 10.809 14.6299Z" fill="currentColor"/>
</svg>
