<svg width="32" height="32" viewBox="0 0 32 32" fill="none" xmlns="http://www.w3.org/2000/svg">
<rect x="2" y="2" width="28" height="28" rx="14" fill="#784589"/>
<path d="M13.4824 18.2716C13.2433 18.2716 13.0087 18.2484 12.7785 18.2019C12.5483 18.1554 12.3335 18.0879 12.1343 17.9994C11.9129 17.8975 11.727 17.7747 11.5765 17.6308C11.4259 17.4869 11.3175 17.3242 11.2511 17.1427C11.1979 16.9789 11.199 16.8251 11.2544 16.6812C11.3097 16.5373 11.4082 16.4344 11.5499 16.3724C11.6916 16.3105 11.8166 16.2806 11.9251 16.2828C12.0336 16.285 12.1243 16.3105 12.1974 16.3591C12.2704 16.4078 12.3335 16.461 12.3867 16.5185C12.4486 16.5894 12.5128 16.6513 12.5792 16.7045C12.8537 16.9258 13.1592 17.0365 13.4957 17.0365C13.6684 17.0409 13.8333 17.021 13.9904 16.9767C14.1476 16.9324 14.2306 16.8351 14.2395 16.6845C14.2395 16.5606 14.1919 16.4676 14.0967 16.4056C14.0015 16.3437 13.8587 16.2839 13.6684 16.2263L13.0308 16.0072C12.2383 15.7372 11.7558 15.4416 11.5831 15.1207C11.4104 14.7997 11.3418 14.5109 11.3772 14.2541V14.2475C11.3949 13.8357 11.6097 13.486 12.0214 13.1983C12.4331 12.9105 12.9356 12.76 13.5289 12.7467C14.0026 12.7467 14.4121 12.822 14.7575 12.9725C15.1028 13.123 15.3618 13.3377 15.5345 13.6166C15.6496 13.7981 15.6894 13.9597 15.654 14.1014C15.6319 14.1766 15.5953 14.2386 15.5444 14.2873C15.4935 14.336 15.4437 14.3736 15.395 14.4002C15.2002 14.4976 15.0408 14.5463 14.9169 14.5463C14.8239 14.5463 14.7376 14.5242 14.6579 14.4799C14.5782 14.4356 14.4918 14.3803 14.3989 14.3139L14.3457 14.274C14.1199 14.1102 13.8919 14.0283 13.6617 14.0283C13.4625 14.0283 13.3064 14.0593 13.1935 14.1213C13.0806 14.1833 13.0242 14.2663 13.0242 14.3703C13.0242 14.4743 13.0696 14.5562 13.1603 14.616C13.2511 14.6758 13.3717 14.7278 13.5223 14.7721L14.3789 15.0443C14.9678 15.2258 15.3884 15.5003 15.6407 15.8677C15.747 16.0271 15.8156 16.1743 15.8466 16.3093C15.8776 16.4444 15.8909 16.5495 15.8864 16.6248C15.8864 16.8815 15.8222 17.1151 15.6939 17.3253C15.5655 17.5356 15.3773 17.716 15.1294 17.8665C14.908 17.9949 14.6557 18.0945 14.3723 18.1654C14.089 18.2362 13.7923 18.2716 13.4824 18.2716ZM19.9573 18.9423C19.9529 18.8228 19.9773 18.7331 20.0304 18.6734C20.0835 18.6136 20.1411 18.5749 20.2031 18.5572C20.3093 18.5173 20.4034 18.462 20.4853 18.3911C20.5672 18.3203 20.6303 18.2362 20.6746 18.1388C20.7188 18.0281 20.7543 17.8975 20.7808 17.747C20.7941 17.685 20.803 17.6253 20.8074 17.5677C20.8162 17.5323 20.8207 17.4969 20.8207 17.4615L20.8406 17.3552L20.8804 17.0498L20.9004 16.9435C20.9004 16.9081 20.9048 16.8727 20.9136 16.8373L20.9336 16.7045C20.9336 16.6779 20.938 16.6513 20.9468 16.6248L20.9535 16.5584L21.0265 16.0404L21.0465 15.8677L21.0929 15.5623C21.1018 15.549 21.1018 15.5424 21.0929 15.5424C21.0974 15.5379 21.0907 15.5357 21.073 15.5357H20.8671C20.7919 15.5357 20.7388 15.5025 20.7078 15.4361C20.6989 15.414 20.6945 15.3896 20.6945 15.3631C20.7033 15.2701 20.7166 15.1771 20.7343 15.0842C20.7476 15.031 20.7764 14.9912 20.8207 14.9646C20.8649 14.9381 20.9114 14.9226 20.9601 14.9182H21.1793C21.1881 14.8916 21.1926 14.8672 21.1926 14.8451C21.2014 14.7831 21.2125 14.7256 21.2258 14.6725C21.2567 14.5175 21.3121 14.3781 21.3918 14.2541C21.4936 14.0947 21.6242 13.9752 21.7836 13.8955L21.9031 13.8424C21.943 13.8203 21.9873 13.8048 22.036 13.7959C22.0979 13.7782 22.1776 13.7627 22.275 13.7494C22.3813 13.7361 22.4809 13.7295 22.5739 13.7295H22.6336C22.7133 13.7339 22.7908 13.7428 22.8661 13.7561C22.9059 13.7605 22.9413 13.7804 22.9723 13.8158C23.0033 13.8512 23.0177 13.8966 23.0155 13.952C23.0133 14.0073 23.0055 14.066 22.9923 14.1279C22.9878 14.1678 22.9812 14.2076 22.9723 14.2475L22.9657 14.2807C22.9613 14.3117 22.9458 14.3382 22.9192 14.3604C22.8926 14.3825 22.8639 14.3936 22.8329 14.3936H22.6071C22.5761 14.3891 22.5407 14.3869 22.5008 14.3869H22.4344C22.3769 14.3913 22.3171 14.409 22.2551 14.44C22.171 14.4799 22.1068 14.5463 22.0625 14.6393C22.0271 14.7101 22.0028 14.8031 21.9895 14.9182H23.0719V14.9248H23.0786V14.9182H23.0852C23.1428 14.9226 23.1904 14.9447 23.228 14.9846C23.2656 15.0244 23.2845 15.0753 23.2845 15.1373C23.28 15.1594 23.2778 15.1816 23.2778 15.2037V15.217C23.2867 15.2081 23.2933 15.2037 23.2977 15.2037L23.3708 15.1373C23.4151 15.1019 23.4638 15.0665 23.5169 15.031C23.57 14.9956 23.6276 14.9669 23.6896 14.9447C23.7737 14.9137 23.8556 14.8938 23.9353 14.885C24.015 14.8761 24.0836 14.8717 24.1411 14.8717C24.2297 14.8717 24.2762 14.8739 24.2806 14.8783C24.3647 14.8827 24.4533 14.9093 24.5462 14.958C24.6525 15.0155 24.7366 15.1019 24.7986 15.217L24.8252 15.2834L24.865 15.2435C24.8783 15.2258 24.896 15.2103 24.9181 15.1971C25.1262 15.0155 25.3277 14.9093 25.5225 14.8783C25.5756 14.8695 25.6331 14.865 25.6951 14.865C25.7571 14.865 25.8235 14.8695 25.8943 14.8783C26.0006 14.8916 26.098 14.9204 26.1865 14.9646C26.2839 15.0178 26.3581 15.0952 26.409 15.1971C26.4599 15.2989 26.4898 15.414 26.4987 15.5424C26.5031 15.653 26.4965 15.7659 26.4787 15.881V15.901L26.4522 16.1334L26.4323 16.2463L26.419 16.3459C26.4101 16.3813 26.4035 16.4178 26.3991 16.4554C26.3946 16.4931 26.3924 16.5296 26.3924 16.565L26.3659 16.7111L26.3526 16.8173L26.3393 16.8837L26.3326 16.9568L26.2928 17.2357L26.2662 17.4615L26.2397 17.6076L26.1932 17.9794L26.1865 17.9927C26.1821 18.0458 26.1711 18.0968 26.1533 18.1454C26.1268 18.2074 26.0825 18.2473 26.0205 18.265C25.9851 18.2738 25.9453 18.2783 25.901 18.2783H25.549C25.4693 18.2783 25.414 18.2451 25.383 18.1787C25.3697 18.1432 25.3631 18.1167 25.3631 18.099L25.383 17.9462L25.3963 17.8865V17.8665C25.4051 17.8356 25.4096 17.8068 25.4096 17.7802C25.4184 17.7404 25.4228 17.7005 25.4228 17.6607C25.4361 17.5943 25.445 17.5301 25.4494 17.4681C25.4627 17.3884 25.4738 17.3087 25.4826 17.2291L25.5025 17.1095L25.549 16.7576L25.5623 16.6779C25.5667 16.6115 25.5756 16.5495 25.5889 16.492C25.5977 16.4521 25.6021 16.4145 25.6021 16.3791C25.6154 16.3171 25.6243 16.2573 25.6287 16.1998L25.6353 16.1865C25.6486 16.0714 25.6597 15.9541 25.6686 15.8345C25.6774 15.7593 25.6641 15.6951 25.6287 15.642C25.5933 15.5888 25.549 15.5579 25.4959 15.549C25.4605 15.5402 25.4251 15.5357 25.3896 15.5357C25.3409 15.5357 25.2922 15.5446 25.2435 15.5623L25.2037 15.5822C25.1063 15.6221 25.0111 15.6907 24.9181 15.7881C24.9137 15.7969 24.9048 15.8058 24.8916 15.8146C24.8783 15.8323 24.8694 15.8523 24.865 15.8744L24.8318 16.1799L24.7654 16.6248C24.7654 16.6602 24.7632 16.6967 24.7587 16.7343C24.7543 16.772 24.7477 16.8085 24.7388 16.8439L24.7189 16.99L24.7056 17.063C24.7056 17.1029 24.7012 17.1383 24.6923 17.1693L24.6791 17.2689C24.6658 17.3574 24.6547 17.4416 24.6458 17.5212L24.6259 17.674C24.6215 17.7271 24.6126 17.7824 24.5994 17.84C24.5994 17.8577 24.5971 17.8776 24.5927 17.8997C24.5883 17.9573 24.5794 18.0171 24.5662 18.079C24.5352 18.2074 24.4577 18.2738 24.3337 18.2783H23.9485C23.8511 18.2783 23.7914 18.2362 23.7692 18.1521C23.7604 18.1211 23.7582 18.0857 23.7626 18.0458V18.0326C23.7715 18.006 23.7759 17.9794 23.7759 17.9529L23.7892 17.8997L23.829 17.5876C23.8379 17.5124 23.8489 17.4371 23.8622 17.3619L23.8755 17.2423L23.9286 16.897L23.9751 16.5384L24.0216 16.2529C24.0216 16.2131 24.026 16.1776 24.0349 16.1467C24.057 16.0183 24.0637 15.8921 24.0548 15.7681C24.0504 15.6663 24.0105 15.5999 23.9353 15.5689C23.8866 15.5468 23.8379 15.5357 23.7892 15.5357L23.7294 15.5424C23.6276 15.5601 23.539 15.5966 23.4638 15.6519C23.3885 15.7073 23.3221 15.7659 23.2645 15.8279C23.2512 15.8412 23.2424 15.8589 23.238 15.881L23.2313 15.9674C23.2225 16.0028 23.218 16.0382 23.218 16.0736L23.1782 16.2994V16.3259L23.1649 16.399L23.1516 16.5185C23.1472 16.5805 23.1384 16.6425 23.1251 16.7045C23.1162 16.7841 23.1051 16.8638 23.0919 16.9435L23.0786 17.0564L22.9657 17.8466C22.9568 17.9263 22.9436 18.0082 22.9258 18.0923C22.917 18.1366 22.8982 18.1742 22.8694 18.2052C22.8406 18.2362 22.8063 18.2561 22.7665 18.265C22.7399 18.2738 22.7089 18.2783 22.6735 18.2783H22.295C22.2108 18.2783 22.1577 18.2406 22.1356 18.1654C22.1267 18.1255 22.1245 18.0813 22.1289 18.0326C22.1289 18.0016 22.1334 17.9728 22.1422 17.9462L22.1489 17.8997C22.1666 17.7802 22.1821 17.6651 22.1953 17.5544C22.2042 17.519 22.2086 17.4836 22.2086 17.4482L22.2285 17.3287C22.2285 17.2888 22.233 17.2512 22.2418 17.2158C22.2507 17.1804 22.2551 17.1472 22.2551 17.1162L22.275 17.0033C22.275 16.9723 22.2795 16.9369 22.2883 16.897L22.3746 16.2595L22.4012 16.0935L22.4211 15.9408C22.43 15.9054 22.4344 15.8677 22.4344 15.8279C22.4433 15.7969 22.4477 15.7615 22.4477 15.7217L22.4809 15.5357H21.9297C21.9164 15.5357 21.9076 15.5446 21.9031 15.5623L21.8766 15.7283L21.8699 15.7947C21.8655 15.8036 21.8633 15.8146 21.8633 15.8279L21.85 15.8943C21.85 15.9342 21.8456 15.9718 21.8367 16.0072C21.8323 16.0692 21.8234 16.1334 21.8102 16.1998L21.7703 16.4986L21.7504 16.6115C21.7504 16.6513 21.746 16.689 21.7371 16.7244C21.7283 16.7598 21.7238 16.7974 21.7238 16.8373L21.7039 16.9435L21.6441 17.3619L21.591 17.7802C21.4759 18.431 21.2944 18.8394 21.0465 19.0054C20.7985 19.1714 20.5904 19.2522 20.4222 19.2478C20.3292 19.2611 20.2407 19.25 20.1566 19.2146C20.1079 19.1969 20.0647 19.1659 20.0271 19.1216C19.9894 19.0773 19.9662 19.0176 19.9573 18.9423ZM10.1487 12.8065C9.76791 12.8242 9.53659 12.9249 9.45468 13.1086C9.37278 13.2923 9.34068 13.4572 9.35839 13.6033V13.7162L9.31854 13.61C9.31854 13.6055 9.29641 13.5701 9.25213 13.5037C9.20786 13.4373 9.1326 13.3598 9.02634 13.2713C8.92894 13.1872 8.78284 13.1097 8.58804 13.0389C8.39324 12.9681 8.1431 12.9304 7.83761 12.926C7.16466 12.9437 6.61014 13.196 6.17406 13.683C5.73797 14.17 5.51328 14.7898 5.5 15.5424C5.51328 16.3215 5.7269 16.9579 6.14085 17.4515C6.5548 17.9451 7.0894 18.2008 7.74464 18.2185H7.83097C8.1763 18.2008 8.48843 18.1189 8.76735 17.9728C9.00199 17.8488 9.18572 17.6806 9.31854 17.4681L9.35839 17.3951V17.5345C9.34953 17.7027 9.39381 17.8654 9.49121 18.0226C9.58861 18.1798 9.80776 18.2628 10.1487 18.2716C10.4851 18.2716 10.7131 18.1499 10.8327 17.9064C10.8814 17.8046 10.9102 17.7039 10.919 17.6042C10.9279 17.5046 10.9323 17.4261 10.9323 17.3685V13.9088C10.95 13.6697 10.9179 13.4307 10.836 13.1916C10.7541 12.9526 10.525 12.8242 10.1487 12.8065ZM8.10325 16.7908C7.79777 16.7864 7.56201 16.6779 7.39599 16.4654C7.22997 16.2529 7.14695 15.974 7.14695 15.6287C7.14695 15.2258 7.22997 14.9314 7.39599 14.7455C7.56201 14.5596 7.79777 14.4688 8.10325 14.4732C8.37774 14.4688 8.59468 14.5562 8.75406 14.7355C8.91345 14.9148 8.99535 15.2126 8.99978 15.6287C8.99535 15.9784 8.91345 16.2584 8.75406 16.4687C8.59468 16.679 8.37774 16.7864 8.10325 16.7908ZM16.9756 18.2716C16.6125 18.2539 16.3878 18.1366 16.3015 17.9197C16.2152 17.7027 16.1764 17.4858 16.1853 17.2689V13.776C16.1764 13.5546 16.2152 13.3322 16.3015 13.1086C16.3878 12.885 16.6125 12.7644 16.9756 12.7467C17.25 12.7467 17.4515 12.8131 17.5799 12.9459C17.6729 13.0477 17.7282 13.1617 17.7459 13.2879C17.7636 13.4141 17.7703 13.5281 17.7658 13.6299C17.7614 13.6565 17.7592 13.6808 17.7592 13.7029V14.3936L18.7487 13.2713C18.8151 13.196 18.8771 13.1341 18.9346 13.0854C19.1162 12.926 19.2888 12.8463 19.4526 12.8463C19.5854 12.8463 19.7205 12.8928 19.8577 12.9858C19.9153 13.0256 19.964 13.0654 20.0038 13.1053C20.1632 13.2868 20.2296 13.4628 20.2031 13.6332C20.1765 13.8037 20.1034 13.9464 19.9839 14.0615L18.9014 15.2236L20.2429 17.156C20.3536 17.311 20.3979 17.4781 20.3757 17.6574C20.3536 17.8367 20.2673 17.9905 20.1167 18.1189C19.9883 18.2207 19.8378 18.2716 19.6651 18.2716H19.6386C19.519 18.2672 19.4072 18.2351 19.3032 18.1753C19.1992 18.1156 19.1117 18.0348 19.0409 17.933L17.7592 16.047V17.2556C17.7725 17.5124 17.7326 17.7426 17.6396 17.9462C17.5467 18.1499 17.3253 18.2583 16.9756 18.2716Z" fill="white"/>
</svg>
