<svg width="32" height="32" viewBox="0 0 32 32" fill="none" xmlns="http://www.w3.org/2000/svg">
<path d="M16 2C8.27812 2 2 8.27812 2 16C2 23.7219 8.27812 30 16 30C23.7219 30 30 23.7219 30 16C30 8.27812 23.7219 2 16 2Z" fill="white"/>
<path d="M16.0022 6C10.0803 6 5.44525 13.801 5 20.3895C6.85671 23.7275 11.3404 25 16.0022 25C20.664 25 25.1433 23.7459 27 20.3895C26.5592 13.801 21.9197 6 16.0022 6Z" fill="#B3DCFF"/>
<path d="M22.8543 14.193C21.5542 12.4548 19.8979 10.6106 18.9361 10.6106C17.9744 10.6106 15.2895 15.5346 14.0383 15.5346C12.7871 15.5346 12.1638 13.2939 10.6499 13.3031C8.58395 13.3031 6.5625 19.5965 6.5625 19.5965C6.5625 19.5965 7.39958 23.4371 16.1533 23.4371C24.907 23.4371 25.606 19.6611 25.606 19.6611C24.9706 17.7006 24.042 15.8555 22.8543 14.193Z" fill="#5ECC62"/>
<path d="M11.3096 19.0708C11.3096 18.8437 11.3746 18.6217 11.4964 18.4329C11.6182 18.2442 11.7914 18.097 11.994 18.0101C12.1966 17.9232 12.4195 17.9005 12.6345 17.9448C12.8496 17.9891 13.0472 18.0984 13.2022 18.259C13.3573 18.4195 13.4629 18.6241 13.5056 18.8468C13.5484 19.0695 13.5265 19.3003 13.4425 19.5101C13.3586 19.7199 13.2165 19.8992 13.0342 20.0253C12.8519 20.1514 12.6375 20.2188 12.4183 20.2188C12.1242 20.2188 11.8422 20.0978 11.6343 19.8825C11.4264 19.6672 11.3096 19.3752 11.3096 19.0708ZM18.4737 19.0708C18.4737 19.2978 18.5387 19.5198 18.6606 19.7086C18.7824 19.8974 18.9555 20.0445 19.1581 20.1314C19.3607 20.2183 19.5836 20.241 19.7987 20.1967C20.0137 20.1524 20.2113 20.0431 20.3663 19.8825C20.5214 19.722 20.627 19.5174 20.6698 19.2947C20.7125 19.072 20.6906 18.8412 20.6067 18.6314C20.5228 18.4216 20.3807 18.2424 20.1983 18.1162C20.016 17.9901 19.8017 17.9227 19.5824 17.9227C19.4368 17.9227 19.2926 17.9524 19.1581 18.0101C19.0236 18.0678 18.9014 18.1524 18.7984 18.259C18.6955 18.3656 18.6138 18.4921 18.5581 18.6314C18.5024 18.7707 18.4737 18.92 18.4737 19.0708ZM18.2733 20.7536C18.3063 20.6716 18.3083 20.5798 18.2791 20.4963C18.2499 20.4128 18.1915 20.3437 18.1155 20.3026C18.0394 20.2615 17.9513 20.2514 17.8684 20.2743C17.7855 20.2972 17.7139 20.3514 17.6678 20.4262C17.4925 20.7084 17.2481 20.9373 16.9594 21.0896C16.6708 21.2419 16.3483 21.3121 16.0248 21.293C15.6923 21.301 15.3631 21.2245 15.0658 21.0702C14.7685 20.9158 14.5122 20.6884 14.3195 20.4078C14.2688 20.3357 14.1938 20.286 14.1093 20.2686C14.0248 20.2511 13.9371 20.2673 13.8636 20.3137C13.7901 20.3602 13.7362 20.4337 13.7126 20.5194C13.689 20.6052 13.6974 20.697 13.7362 20.7766C13.9903 21.1605 14.3324 21.473 14.7318 21.6862C15.1312 21.8995 15.5755 22.0067 16.0248 21.9984C16.473 22.0192 16.9184 21.9145 17.314 21.6955C17.7097 21.4764 18.0411 21.1511 18.2733 20.7536Z" fill="currentColor"/>
<path d="M14.1945 17.6463C12.8365 17.6463 12.1374 16.2631 11.759 15.4009C11.4206 14.631 11.3582 13.4092 10.3965 13.3769C10.4826 13.3396 10.5747 13.3192 10.6681 13.317C12.182 13.317 12.8231 15.5485 14.0565 15.5485C15.2898 15.5485 17.9792 10.6106 18.9365 10.6106C19.1494 10.6223 19.3568 10.6855 19.542 10.795C19.447 10.7765 19.349 10.7814 19.2562 10.8095C19.1634 10.8375 19.0782 10.8878 19.0077 10.9564C18.7005 11.2837 15.8776 17.6463 14.1945 17.6463Z" fill="#00AD45"/>
</svg>
