<svg width="32" height="32" viewBox="0 0 32 32" fill="none" xmlns="http://www.w3.org/2000/svg">
<path fill-rule="evenodd" clip-rule="evenodd" d="M15.0119 12.5602C14.9119 12.4947 14.812 12.4291 14.7125 12.363C14.2929 12.6326 13.8746 12.9033 13.4563 13.1741C12.6694 13.6835 11.8824 14.1929 11.0872 14.694C10.8003 13.8245 10.1818 13.1263 9.30955 12.8545C8.69412 12.6628 7.93087 12.6878 7.14163 12.7137C6.66572 12.7293 6.18037 12.7452 5.71228 12.7141V18.5695C6.19148 18.5473 6.66757 18.5608 7.12891 18.5739C7.62581 18.5881 8.10559 18.6017 8.55369 18.5695C9.93927 18.4699 10.7767 17.6265 11.1292 16.5054C11.7229 16.8938 12.3066 17.2923 12.8903 17.6909C13.5032 18.1093 14.116 18.5278 14.7405 18.9346C15.1418 18.6778 15.5457 18.4147 15.9501 18.1513C16.7255 17.6463 17.5029 17.14 18.2678 16.6738V18.5695H22.2291V16.7019C21.9948 16.6984 21.755 16.7003 21.5152 16.7021C21.1248 16.7052 20.7344 16.7082 20.3674 16.688V12.7141H18.2678V14.7081C18.008 14.8743 17.7489 15.0411 17.4897 15.2079C16.7969 15.6541 16.104 16.1002 15.3984 16.5335C15.3431 16.4973 15.2855 16.4635 15.2279 16.4297C15.1265 16.3703 15.0252 16.3108 14.9365 16.2386C15.3335 15.9812 15.7263 15.7196 16.1191 15.4581C16.6546 15.1016 17.19 14.7451 17.736 14.3991C17.345 14.1033 16.9279 13.8337 16.5042 13.5706C15.6325 14.1302 14.7575 14.6863 13.8825 15.2424C13.8092 15.2889 13.736 15.3355 13.6627 15.382C13.5913 15.3272 13.515 15.2773 13.4387 15.2275C13.3625 15.1777 13.2862 15.1278 13.2149 15.0731C13.6058 14.8232 13.9945 14.571 14.3832 14.3187C14.9294 13.9643 15.4757 13.6098 16.0283 13.2617C15.7035 13.0138 15.3577 12.787 15.0119 12.5602ZM7.71382 16.702V14.5957C7.71261 14.5758 7.71159 14.5559 7.72776 14.5536C8.33395 14.5146 8.77078 14.5774 9.02951 14.8765C9.41722 15.3248 9.32874 16.1661 8.88955 16.5054C8.62333 16.7112 8.28779 16.7077 7.85761 16.7032C7.81081 16.7027 7.76289 16.7022 7.71382 16.702Z" fill="#0083CA"/>
<path d="M24.8744 12.7141H22.7749C22.7586 12.7164 22.7597 12.7361 22.7607 12.756L22.7607 18.5696H26.7221V16.702H24.8744V12.7141Z" fill="#0083CA"/>
<path fill-rule="evenodd" clip-rule="evenodd" d="M16.434 2H15.5662C11.3729 2.23159 8.33207 3.85109 6.10414 6.08629C3.88642 8.31113 2.22799 11.3142 2.01693 15.5507C2.01929 15.567 2.01391 15.5757 2.00293 15.5788V16.4213C2.22334 20.674 3.87278 23.6461 6.10408 25.8997C8.33539 28.1533 11.3456 29.7607 15.5662 29.9999H16.42C20.7246 29.7875 23.5763 28.1177 25.8961 25.9138C28.1044 23.5936 29.783 20.7419 29.9973 16.4213V15.5788C29.7769 11.3261 28.1275 8.35388 25.8961 6.10033C23.6648 3.84679 20.6551 2.2388 16.434 2ZM10.5692 4.85053C11.2452 4.51516 11.9911 4.23144 12.8227 4.00803C13.6607 3.78291 14.5789 3.66134 15.5524 3.61484C17.5324 3.52026 19.3812 3.9611 20.8014 4.55567C22.2651 5.16846 23.5071 6.0163 24.5386 7.01301C26.6233 9.0274 28.2029 11.6689 28.3878 15.5647C28.4855 17.6212 28.0336 19.3189 27.436 20.7884C26.2543 23.6935 24.1224 25.7989 21.4171 27.1635C20.0368 27.8597 18.3707 28.2933 16.4481 28.3852C14.4436 28.4809 12.6637 28.0536 11.2271 27.4444C8.32217 26.2124 6.2231 24.1854 4.84434 21.4343C4.14618 20.041 3.70422 18.4065 3.61266 16.4634C3.46745 13.3812 4.47015 11.0308 5.6282 9.20359C6.81468 7.33167 8.51156 5.87129 10.5692 4.85053Z" fill="#0083CA"/>
</svg>
