<svg width="32" height="33" viewBox="0 0 32 33" fill="none" xmlns="http://www.w3.org/2000/svg">
<g filter="url(#filter0_d_1334_1346)">
<path d="M2 11.9556C2 8.47078 2 6.7284 2.67818 5.39739C3.27473 4.22661 4.22661 3.27473 5.39739 2.67818C6.7284 2 8.47078 2 11.9556 2H20.0444C23.5292 2 25.2716 2 26.6026 2.67818C27.7734 3.27473 28.7253 4.22661 29.3218 5.39739C30 6.7284 30 8.47078 30 11.9556V20.0444C30 23.5292 30 25.2716 29.3218 26.6026C28.7253 27.7734 27.7734 28.7253 26.6026 29.3218C25.2716 30 23.5292 30 20.0444 30H11.9556C8.47078 30 6.7284 30 5.39739 29.3218C4.22661 28.7253 3.27473 27.7734 2.67818 26.6026C2 25.2716 2 23.5292 2 20.0444V11.9556Z" fill="white"/>
<path d="M24.4925 6H21.2412V10.7112H25.9987V7.32845C26 7.32845 25.7636 6.12848 24.4925 6Z" fill="#1967D2"/>
<path d="M21.2422 25.9781V25.9897V25.9999L25.9997 21.2887H25.957L21.2422 25.9781Z" fill="#1967D2"/>
<path d="M25.9993 21.2886V21.2463L25.957 21.2886H25.9993Z" fill="#FBBC05"/>
<path d="M25.9997 10.7113H21.2422V21.2464H25.9997V10.7113Z" fill="#FBBC05"/>
<path d="M25.957 21.2887H21.2422V25.9781L25.957 21.2887Z" fill="#EA4335"/>
<path d="M21.2422 21.2886H25.957L25.9997 21.2463H21.2422V21.2886Z" fill="#EA4335"/>
<path d="M21.2305 25.9898H21.242V25.9783L21.2305 25.9898Z" fill="#34A853"/>
<path d="M10.6504 21.2463V25.9897H21.231L21.2427 21.2463H10.6504Z" fill="#34A853"/>
<path d="M21.242 21.2887V21.2463L21.2305 25.9897L21.242 25.9781V21.2887Z" fill="#34A853"/>
<path d="M6 21.2463V24.5443C6.04263 25.6146 7.20002 25.9897 7.20002 25.9897H10.6503V21.2463H6Z" fill="#188038"/>
<path d="M10.6503 10.7114H21.2425V6.00012H7.33437C7.33437 6.00012 6.08525 6.1286 6 7.45577V21.2465H10.6503V10.7114Z" fill="#4285F4"/>
<path d="M14.1155 19.1139C13.8732 19.1139 13.6395 19.0823 13.4145 19.0192C13.1952 18.956 12.9933 18.8614 12.8087 18.7351C12.624 18.6031 12.4596 18.4396 12.3153 18.2445C12.1769 18.0493 12.0701 17.8227 11.9951 17.5644L13.0596 17.1426C13.1346 17.4296 13.2616 17.6476 13.4404 17.7968C13.6193 17.9403 13.8443 18.012 14.1155 18.012C14.2367 18.012 14.3521 17.9948 14.4617 17.9604C14.5713 17.9202 14.6665 17.8657 14.7473 17.7968C14.8281 17.728 14.8915 17.6476 14.9377 17.5558C14.9896 17.4583 15.0156 17.3492 15.0156 17.2287C15.0156 16.9762 14.9204 16.7782 14.73 16.6348C14.5454 16.4913 14.2886 16.4196 13.9597 16.4196H13.4491V15.3952H13.9165C14.0318 15.3952 14.1444 15.3809 14.254 15.3522C14.3636 15.3235 14.4588 15.2804 14.5396 15.2231C14.6261 15.1599 14.6925 15.0825 14.7386 14.9906C14.7906 14.8931 14.8165 14.7812 14.8165 14.6549C14.8165 14.4598 14.7473 14.302 14.6088 14.1815C14.4703 14.0552 14.2828 13.9921 14.0463 13.9921C13.7924 13.9921 13.5962 14.061 13.4578 14.1987C13.325 14.3307 13.2327 14.4799 13.1808 14.6463L12.1422 14.2245C12.1942 14.0811 12.2721 13.9347 12.3759 13.7855C12.4798 13.6306 12.6096 13.4929 12.7654 13.3724C12.9269 13.2461 13.1145 13.1457 13.3279 13.0711C13.5414 12.9907 13.7866 12.9506 14.0636 12.9506C14.3463 12.9506 14.6031 12.9907 14.8338 13.0711C15.0704 13.1514 15.2723 13.2633 15.4397 13.4068C15.607 13.5445 15.7368 13.7109 15.8291 13.906C15.9214 14.0954 15.9676 14.302 15.9676 14.5258C15.9676 14.698 15.9445 14.8529 15.8984 14.9906C15.858 15.1284 15.8032 15.2518 15.7339 15.3608C15.6647 15.4698 15.5839 15.5645 15.4916 15.6449C15.4051 15.7195 15.3156 15.7797 15.2233 15.8256V15.8945C15.5003 16.0035 15.7282 16.1785 15.907 16.4196C16.0917 16.6606 16.184 16.9647 16.184 17.332C16.184 17.5902 16.1349 17.8284 16.0368 18.0465C15.9388 18.2588 15.7974 18.4453 15.6128 18.606C15.4339 18.7667 15.2175 18.89 14.9637 18.9761C14.7098 19.0679 14.4271 19.1139 14.1155 19.1139Z" fill="#4285F4"/>
<path d="M18.2507 18.9761V14.4139L17.2035 14.8529L16.7881 13.8974L18.5277 13.0883H19.3845V18.9761H18.2507Z" fill="#4285F4"/>
</g>
<defs>
<filter id="filter0_d_1334_1346" x="-2" y="-1" width="36" height="36" filterUnits="userSpaceOnUse" color-interpolation-filters="sRGB">
<feFlood flood-opacity="0" result="BackgroundImageFix"/>
<feColorMatrix in="SourceAlpha" type="matrix" values="0 0 0 0 0 0 0 0 0 0 0 0 0 0 0 0 0 0 127 0" result="hardAlpha"/>
<feOffset dy="1"/>
<feGaussianBlur stdDeviation="1"/>
<feColorMatrix type="matrix" values="0 0 0 0 0.0627451 0 0 0 0 0.0941176 0 0 0 0 0.156863 0 0 0 0.05 0"/>
<feBlend mode="normal" in2="BackgroundImageFix" result="effect1_dropShadow_1334_1346"/>
<feBlend mode="normal" in="SourceGraphic" in2="effect1_dropShadow_1334_1346" result="shape"/>
</filter>
</defs>
</svg>
