<svg width="32" height="32" viewBox="0 0 32 32" fill="none" xmlns="http://www.w3.org/2000/svg">
<path fill-rule="evenodd" clip-rule="evenodd" d="M14.6384 8.62816C14.1139 8.34219 13.4565 8.42341 12.9421 8.69415C12.184 9.1028 11.6628 9.83296 11.2812 10.586C10.876 11.3602 10.7084 12.2249 10.6289 13.0862C10.255 13.0363 9.95375 12.7461 9.86746 12.3822C9.72689 11.953 9.81966 11.515 9.91053 11.086C9.93234 10.983 9.95403 10.8806 9.97237 10.7789C10.0046 10.6629 9.94499 10.5631 9.88746 10.4668C9.86948 10.4366 9.8517 10.4069 9.837 10.3771C9.51888 10.3576 9.19399 10.5141 9.04931 10.806C8.61612 11.6157 8.65419 12.708 9.25321 13.4263C9.59671 13.8612 10.139 14.0761 10.678 14.1336C10.8599 14.6937 11.2152 15.2403 11.7863 15.4602C12.4852 15.742 13.2526 15.4467 13.86 15.0795C13.8571 15.11 13.8543 15.1406 13.8515 15.1713C13.8336 15.3668 13.8155 15.5647 13.7475 15.7504C13.6008 15.8687 13.432 15.9532 13.2632 16.0377C13.1868 16.076 13.1104 16.1143 13.036 16.1557L12.9697 16.1906C11.8193 16.7969 10.6518 17.4121 9.68555 18.2946C8.96809 18.968 8.40376 19.8639 8.29546 20.8564C8.24301 21.6365 8.55351 22.4927 9.23714 22.9216C9.95122 23.3946 10.8929 23.3684 11.6713 23.0749C12.6527 22.7009 13.3846 21.8683 13.8685 20.9597C14.5843 19.6736 14.707 18.1736 14.811 16.7344C14.8174 16.6973 14.8206 16.6567 14.8239 16.6152C14.8355 16.4688 14.848 16.3114 15.0022 16.2547C16.1715 15.5973 17.3077 14.8815 18.394 14.0938C18.5227 14.2521 18.6496 14.4111 18.7706 14.5744C18.2114 14.9078 17.6537 15.2673 17.2316 15.7724C15.6529 17.4993 15.6266 20.463 17.2815 22.1483C18.1276 23.041 19.4281 23.4225 20.6321 23.2441C21.7387 23.0867 22.7455 22.3903 23.3039 21.4259C24.0484 20.1973 23.9266 18.479 22.9587 17.407C22.0534 16.407 20.291 16.4265 19.4061 17.4417C18.7098 18.1744 18.6869 19.4698 19.4137 20.1871C19.7082 20.4808 20.2209 20.6584 20.5906 20.4054C20.8292 20.2337 20.8063 19.8666 20.6142 19.6677L20.6028 19.6539C20.3567 19.3567 20.0722 19.0132 20.1456 18.5999C20.2199 18.0542 20.83 17.72 21.3436 17.836C21.7835 17.9045 22.1346 18.248 22.2979 18.6507C22.6829 19.567 22.4646 20.7024 21.7734 21.4157C21.0407 22.1798 19.7664 22.2999 18.8824 21.7338C18.0972 21.2507 17.6505 20.3547 17.5125 19.4655C17.3679 18.3936 17.5735 17.237 18.2384 16.363C18.6666 15.8096 19.264 15.3552 19.9509 15.1911C20.0485 15.1985 20.1467 15.2077 20.2452 15.2169C20.7293 15.2621 21.2217 15.308 21.6913 15.1547C21.957 15.0642 22.2158 14.7664 22.0804 14.4753C21.9341 14.1767 21.5745 14.087 21.275 14.0244C20.8901 13.948 20.507 14.0255 20.1291 14.102C20.0676 14.1144 20.0061 14.1269 19.9449 14.1386C19.6395 14.0337 19.4779 13.713 19.3646 13.4304C20.214 12.7959 21.0533 12.1063 21.6302 11.2036C21.9654 10.6613 22.1837 9.99541 22.0263 9.35832C21.902 8.93613 21.556 8.5774 21.1142 8.49702C20.3782 8.31173 19.6252 8.68315 19.1251 9.21026C18.3214 10.0826 17.9136 11.2916 17.9508 12.471C17.9465 12.5666 17.9584 12.6641 17.9704 12.7613C17.9888 12.9119 18.0073 13.0621 17.9652 13.2045C17.5077 13.5733 17.0093 13.8874 16.5118 14.201C16.3541 14.3004 16.1965 14.3997 16.0404 14.5007C15.926 14.5671 15.8134 14.6365 15.7007 14.706C15.4457 14.8633 15.1906 15.0206 14.9159 15.142C14.9227 14.7664 14.9422 14.3857 15.0496 14.0235C15.1509 13.8849 15.2616 13.7527 15.3723 13.6204C15.573 13.3805 15.7741 13.1403 15.9202 12.861C16.0861 12.5624 16.2426 12.1842 16.07 11.8542C15.9118 11.6097 15.5615 11.6334 15.3322 11.7552C14.8432 12.0006 14.575 12.5184 14.3778 13.004C14.3365 13.0989 14.3063 13.2008 14.2761 13.3028C14.2075 13.5345 14.1388 13.7667 13.9379 13.9195C13.5352 14.2714 13.0495 14.6251 12.4894 14.6048C12.1696 14.6064 11.9564 14.3053 11.8887 14.0227C12.7737 13.6792 13.5123 13.0379 14.1113 12.3136C14.6655 11.6012 15.1063 10.7603 15.1808 9.84819C15.2222 9.38878 15.0581 8.86844 14.6384 8.62816ZM12.3574 10.9811C12.6265 10.4404 12.9378 9.88457 13.4489 9.53684C13.6545 9.38116 13.9937 9.44715 14.091 9.69844C14.1663 10.0081 14.0521 10.322 13.9201 10.5987C13.5453 11.3635 12.9861 12.0268 12.3464 12.5835C12.1882 12.7282 12.0038 12.8407 11.8083 12.927C11.8346 12.2468 12.0681 11.5911 12.3574 10.9811ZM19.1471 12.3365C19.1371 11.4202 19.4652 10.498 20.0626 9.8025C20.2445 9.59268 20.5575 9.38285 20.835 9.52584C21.1397 9.70605 20.9806 10.1096 20.8604 10.3567C20.4417 11.1291 19.8207 11.7806 19.1471 12.3365ZM9.63233 20.6109C9.84546 19.8318 10.4183 19.2175 11.0054 18.6904C11.7948 18.0264 12.6705 17.456 13.608 17.0228C13.509 18.0592 13.2662 19.0863 12.8745 20.0508C12.5386 20.8275 12.0402 21.6271 11.2145 21.9452C10.7864 22.1059 10.228 22.2066 9.85739 21.8682C9.50627 21.5569 9.52996 21.0289 9.63233 20.6109Z" fill="#FEFFFE"/>
<path fill-rule="evenodd" clip-rule="evenodd" d="M22.3613 4.29799C20.1276 3.06696 17.5268 2.50348 14.9836 2.71077C13.3422 2.82837 11.7279 3.26748 10.2439 3.97733C7.85634 5.12798 5.81478 6.99779 4.49069 9.29571C2.5185 12.6106 2.13777 16.8054 3.43056 20.4342C4.25971 22.7939 5.77417 24.8989 7.73206 26.4522C10.0071 28.2568 12.8846 29.2967 15.7909 29.3212C17.9127 29.3678 20.0448 28.8856 21.9391 27.9304C24.353 26.7357 26.381 24.7821 27.6772 22.4232C28.9725 20.0813 29.541 17.3376 29.2526 14.675C28.8693 10.3541 26.1703 6.35055 22.3613 4.29799ZM6.83176 7.91747C8.19223 5.94613 10.3336 4.59665 12.6273 3.97733C14.954 3.32755 17.4719 3.35547 19.773 4.09823C19.8601 4.12553 19.9298 4.18502 19.9984 4.24356C20.0085 4.25214 20.0185 4.2607 20.0286 4.26914C19.8113 4.25318 19.6044 4.19021 19.3973 4.12718C19.2421 4.07996 19.0868 4.03271 18.927 4.00516C17.9861 3.81734 17.0115 3.72427 16.058 3.86641C15.4606 3.97386 14.8336 4.20484 14.4547 4.70402C14.1695 5.07459 14.1391 5.65669 14.4699 6.00865C14.8371 6.397 15.4886 6.37585 15.8955 6.06195C15.9759 6.00294 16.0559 5.94203 16.1361 5.8809C16.5357 5.57657 16.9425 5.26671 17.442 5.15751C18.6612 4.85538 19.9397 5.09828 21.1207 5.4494C22.5387 5.83605 23.8799 6.53575 24.9679 7.52819C26.7809 9.1298 27.8707 11.4294 28.2844 13.7874C28.6448 15.7993 28.5366 17.9018 27.9121 19.8512C27.8902 19.9425 27.8318 19.9958 27.7371 20.0102C28.0993 18.6828 28.3682 17.274 28.0976 15.9034C27.9554 15.2418 27.6295 14.4956 26.9333 14.2697C26.4004 14.081 25.7514 14.4473 25.7083 15.0269C25.6287 15.5129 25.9227 15.8924 26.2056 16.2574C26.2836 16.3581 26.3609 16.4578 26.4291 16.5583C27.1068 17.5312 27.0231 18.7928 26.8573 19.9088C26.5459 21.4199 26.0416 22.9242 25.1262 24.1831C23.7133 26.2111 21.4628 27.5496 19.0844 28.1216C17.0176 28.6157 14.8271 28.6123 12.7635 28.1038C12.7048 28.0862 12.6443 28.0707 12.5834 28.0552C12.3629 27.9988 12.1375 27.9412 11.9725 27.7781C12.2119 27.7775 12.4407 27.8406 12.6699 27.9038C12.8173 27.9444 12.9648 27.9851 13.1155 28.0089C14.1671 28.2002 15.2662 28.3186 16.317 28.0555C16.7933 27.9243 17.2756 27.6976 17.575 27.2898C17.8526 26.9091 17.8467 26.3262 17.5057 25.986C17.2105 25.6746 16.7189 25.6104 16.3415 25.8066C16.1267 25.923 15.9361 26.0752 15.7456 26.2275C15.5384 26.3931 15.3312 26.5587 15.0928 26.6782C14.1697 27.1266 13.0986 27.0606 12.1138 26.8948C10.4808 26.5741 8.86739 25.9819 7.55091 24.9403C5.80294 23.5969 4.59221 21.6373 3.99912 19.5272C3.37134 17.3181 3.36711 14.9441 3.9399 12.7231C3.97137 12.65 3.98899 12.5634 4.00681 12.4758C4.04504 12.2879 4.08421 12.0953 4.26309 12.0209C3.92805 13.29 3.66323 14.62 3.86713 15.9348C3.97036 16.5186 4.1751 17.1371 4.65821 17.516C4.99325 17.7927 5.51697 17.8943 5.88754 17.6285C6.28266 17.3977 6.41295 16.8494 6.22936 16.4441C6.12507 16.1971 5.96267 15.9865 5.80004 15.7756C5.66186 15.5963 5.52351 15.4169 5.42052 15.2148C4.93572 14.329 4.98902 13.2714 5.11762 12.3018C5.38836 10.7484 5.91546 9.21364 6.83176 7.91747Z" fill="#FEFFFE"/>
<path d="M13.4488 9.53701C13.6544 9.38134 13.9937 9.44733 14.091 9.69861C14.1663 10.0083 14.0521 10.3222 13.9201 10.5988C13.5453 11.3637 12.986 12.027 12.3464 12.5837C12.1882 12.7284 12.0037 12.8409 11.8083 12.9272C11.8345 12.247 12.068 11.5913 12.3574 10.9813C12.6264 10.4406 12.9378 9.88475 13.4488 9.53701Z" fill="#3A73B8"/>
<path d="M20.0625 9.80268C20.2444 9.59285 20.5575 9.38303 20.835 9.52601C21.1397 9.70623 20.9805 10.1098 20.8604 10.3569C20.4417 11.1293 19.8206 11.7808 19.1471 12.3367C19.137 11.4204 19.4651 10.4981 20.0625 9.80268Z" fill="#3A73B8"/>
<path d="M13.6079 17.023C12.6704 17.4562 11.7948 18.0265 11.0054 18.6906C10.4182 19.2177 9.84542 19.832 9.63221 20.6112C9.52984 21.0292 9.50615 21.5571 9.85727 21.8685C10.2278 22.2069 10.7862 22.1061 11.2144 21.9454C12.0401 21.6273 12.5385 20.8278 12.8743 20.0511C13.2661 19.0866 13.5089 18.0595 13.6079 17.023Z" fill="#3A73B8"/>
<path fill-rule="evenodd" clip-rule="evenodd" d="M12.6273 3.97739C14.954 3.32762 17.4719 3.35554 19.7732 4.09838C19.8603 4.12569 19.9299 4.18517 19.9985 4.24371L20.0287 4.26929C19.8116 4.25333 19.6047 4.19038 19.3976 4.12737C19.2424 4.08013 19.087 4.03286 18.9271 4.00532C17.9863 3.81749 17.0115 3.72442 16.0581 3.86656C15.4608 3.97401 14.8338 4.20499 14.4548 4.70417C14.1697 5.07474 14.1392 5.65684 14.47 6.0088C14.8372 6.39715 15.4887 6.376 15.8956 6.06211C15.9761 6.00302 16.0562 5.94203 16.1366 5.88082C16.5361 5.57656 16.9428 5.26684 17.4422 5.15766C18.6614 4.85561 19.9399 5.09843 21.1209 5.44955C22.5389 5.83621 23.8799 6.5359 24.968 7.52834C26.7812 9.12995 27.8709 11.4296 28.2845 13.7875C28.645 15.7995 28.5367 17.902 27.9123 19.8513C27.8903 19.9427 27.832 19.996 27.7372 20.0104C28.0993 18.683 28.3684 17.2742 28.0977 15.9036C27.9555 15.2419 27.6298 14.4957 26.9334 14.2698C26.4004 14.0811 25.7515 14.4475 25.7084 15.027C25.6288 15.5131 25.9229 15.8927 26.2058 16.2577C26.2838 16.3584 26.361 16.458 26.4293 16.5584C27.107 17.5314 27.0232 18.7929 26.8575 19.9089C26.546 21.4199 26.0418 22.9243 25.1263 24.1833C23.7135 26.2113 21.4629 27.5498 19.0846 28.1217C17.0176 28.6158 14.8272 28.6124 12.7637 28.1039C12.7049 28.0864 12.6445 28.0709 12.5836 28.0554C12.3631 27.999 12.1377 27.9413 11.9726 27.7782C12.212 27.7776 12.4407 27.8407 12.6698 27.9039C12.8172 27.9446 12.9649 27.9853 13.1156 28.0091C14.1673 28.2003 15.2663 28.3188 16.3172 28.0556C16.7934 27.9245 17.2758 27.6978 17.5752 27.2899C17.8527 26.9092 17.8469 26.3263 17.5058 25.9862C17.2106 25.6748 16.719 25.6106 16.3416 25.8068C16.1268 25.9231 15.9362 26.0754 15.7456 26.2277C15.5385 26.3933 15.3313 26.5589 15.0929 26.6783C14.1698 27.1267 13.0987 27.0607 12.1139 26.8949C10.481 26.5743 8.86754 25.982 7.55105 24.9404C5.80291 23.5969 4.59219 21.6374 3.99909 19.5273C3.37131 17.3182 3.36708 14.9441 3.93987 12.7232C3.97134 12.65 3.98896 12.5634 4.00678 12.4758C4.04501 12.2879 4.08418 12.0954 4.26307 12.021C3.92802 13.2901 3.6632 14.6201 3.86711 15.9349C3.97033 16.5187 4.17507 17.1371 4.65818 17.5161C4.99322 17.7928 5.51694 17.8944 5.88752 17.6286C6.28263 17.3977 6.41292 16.8495 6.22933 16.4441C6.12502 16.1971 5.96259 15.9865 5.79994 15.7755C5.66178 15.5963 5.52346 15.4169 5.42049 15.2149C4.93569 14.329 4.98899 13.2714 5.11759 12.3019C5.38834 10.7485 5.91544 9.21371 6.83173 7.91753C8.1922 5.94619 10.3336 4.59672 12.6273 3.97739ZM12.942 8.69422C12.184 9.10287 11.6628 9.83303 11.2812 10.586C10.8759 11.3602 10.7084 12.2249 10.6289 13.0862C10.2549 13.0362 9.95372 12.746 9.86742 12.3822C9.72685 11.953 9.81962 11.515 9.9105 11.086C9.9323 10.983 9.95399 10.8806 9.97233 10.7789C10.0046 10.6629 9.94495 10.5631 9.88742 10.4667C9.86944 10.4366 9.85166 10.4069 9.83696 10.3771C9.51884 10.3576 9.19395 10.5141 9.04927 10.806C8.61608 11.6157 8.65416 12.708 9.25317 13.4263C9.59676 13.8612 10.139 14.0761 10.6779 14.1336C10.8599 14.6937 11.2152 15.2402 11.7863 15.4602C12.4852 15.742 13.2525 15.4467 13.86 15.0795C13.857 15.11 13.8542 15.1405 13.8514 15.1712C13.8336 15.3668 13.8155 15.5646 13.7475 15.7504C13.6007 15.8686 13.432 15.9532 13.2632 16.0377C13.1868 16.076 13.1103 16.1143 13.0359 16.1557L12.9697 16.1906C11.8192 16.7968 10.6518 17.412 9.68551 18.2945C8.96805 18.9679 8.40372 19.8639 8.29542 20.8564C8.24297 21.6365 8.55347 22.4927 9.2371 22.9216C9.95109 23.3946 10.8929 23.3683 11.6712 23.0748C12.6527 22.7009 13.3845 21.8683 13.8685 20.9597C14.5842 19.6736 14.7069 18.1735 14.811 16.7344C14.8173 16.6972 14.8206 16.6567 14.8238 16.6152C14.8354 16.4688 14.8479 16.3114 15.0022 16.2547C16.1715 15.5972 17.3077 14.8815 18.394 14.0938C18.5227 14.252 18.6496 14.4111 18.7706 14.5744C18.2113 14.9077 17.6537 15.2673 17.2316 15.7724C15.6528 17.4992 15.6266 20.4629 17.2815 22.1483C18.1276 23.041 19.428 23.4226 20.632 23.244C21.7387 23.0867 22.7454 22.3903 23.3039 21.4258C24.0484 20.1973 23.9265 18.479 22.9587 17.407C22.0533 16.407 20.291 16.4264 19.4061 17.4417C18.7098 18.1744 18.6869 19.4697 19.4137 20.1871C19.7081 20.4808 20.2208 20.6584 20.5906 20.4054C20.8292 20.2337 20.8063 19.8665 20.6142 19.6676L20.6028 19.6539C20.3566 19.3567 20.0721 19.0132 20.1455 18.5999C20.2199 18.0542 20.83 17.72 21.3436 17.836C21.7834 17.9045 22.1346 18.2479 22.2978 18.6507C22.6829 19.567 22.4646 20.7024 21.7734 21.4157C21.0407 22.1797 19.7664 22.2998 18.8824 21.7338C18.0971 21.2507 17.6504 20.3547 17.5125 19.4655C17.3679 18.3935 17.5735 17.237 18.2384 16.363C18.6666 15.8096 19.2639 15.3553 19.9509 15.1911C20.0484 15.1985 20.1466 15.2077 20.2451 15.2169C20.7293 15.262 21.2217 15.308 21.6912 15.1547C21.957 15.0642 22.2157 14.7664 22.0804 14.4753C21.9341 14.1767 21.5745 14.087 21.2749 14.0244C20.8901 13.948 20.507 14.0255 20.1291 14.102C20.0675 14.1144 20.0061 14.1269 19.9448 14.1386C19.6395 14.0337 19.4778 13.713 19.3645 13.4304C20.214 12.7959 21.0533 12.1063 21.6302 11.2036C21.9653 10.6612 22.1836 9.99539 22.0263 9.3583C21.9019 8.93611 21.5558 8.57738 21.1142 8.497C20.3782 8.31171 19.6251 8.68314 19.1251 9.21024C18.3213 10.0825 17.9135 11.2916 17.9507 12.471C17.9464 12.5666 17.9584 12.664 17.9703 12.7613C17.9888 12.9119 18.0072 13.0621 17.9651 13.2045C17.5077 13.5733 17.0093 13.8874 16.5118 14.201C16.3541 14.3004 16.1965 14.3997 16.0403 14.5007C15.9262 14.5669 15.8138 14.6363 15.7014 14.7056C15.4461 14.863 15.1908 15.0204 14.9159 15.142C14.9227 14.7664 14.9421 14.3856 15.0496 14.0235C15.1509 13.8849 15.2615 13.7527 15.3722 13.6204C15.573 13.3805 15.774 13.1403 15.9202 12.861C16.086 12.5624 16.2425 12.1842 16.0699 11.8542C15.9117 11.6097 15.5615 11.6334 15.3322 11.7552C14.8431 12.0006 14.5749 12.5184 14.3778 13.004C14.3364 13.0989 14.3063 13.2008 14.2761 13.3028C14.2075 13.5344 14.1388 13.7667 13.9378 13.9194C13.5351 14.2714 13.0495 14.6251 12.4894 14.6048C12.1696 14.6065 11.9564 14.3053 11.8887 14.0227C12.7737 13.6791 13.5123 13.0378 14.1113 12.3136C14.6655 11.6012 15.1063 10.7602 15.1807 9.84817C15.2222 9.38876 15.058 8.86843 14.6384 8.62814C14.1138 8.34226 13.4564 8.42348 12.942 8.69422Z" fill="#3A73B8"/>
<path fill-rule="evenodd" clip-rule="evenodd" d="M22.9662 3.86068C20.5685 2.47397 17.7494 1.82842 14.987 2.03909C12.2296 2.2303 9.54084 3.27351 7.37152 4.98426C5.50002 6.45387 4.00502 8.40152 3.08703 10.5988C2.09798 12.961 1.76294 15.6016 2.1682 18.133C2.58024 20.9749 3.92887 23.6612 5.92136 25.7248C7.80132 27.6767 10.2591 29.0685 12.9048 29.6582C15.4278 30.2233 18.1074 30.0905 20.5524 29.2444C23.3055 28.3086 25.7447 26.4794 27.4225 24.1046C29.0765 21.7888 29.9818 18.9554 29.9995 16.1117C30.0224 13.3908 29.2339 10.6656 27.7431 8.38883C26.5426 6.52664 24.8843 4.96649 22.9662 3.86068ZM10.2438 3.97743C11.7279 3.26758 13.3422 2.82847 14.9836 2.71087C17.5268 2.50358 20.1277 3.06707 22.3612 4.29818C26.1701 6.35074 28.8692 10.3543 29.2524 14.6752C29.5409 17.3378 28.9725 20.0815 27.6771 22.4234C26.3809 24.7823 24.3529 26.7359 21.939 27.9305C20.0448 28.8857 17.9127 29.368 15.7907 29.3214C12.8845 29.2969 10.007 28.257 7.73195 26.4524C5.77414 24.8991 4.25968 22.7941 3.43054 20.4343C2.13775 16.8055 2.51848 12.6107 4.49058 9.29582C5.81467 6.9979 7.85623 5.12809 10.2438 3.97743Z" fill="#3A73B8"/>
</svg>
