<svg width="32" height="32" viewBox="0 0 32 32" fill="none" xmlns="http://www.w3.org/2000/svg">
<path d="M27.8141 14.4263L5.84852 2.36263C4.91007 1.85315 4.0704 1.90087 3.55986 2.37838C3.19776 2.71269 3 3.2539 3 3.95425V28.0337C3 28.7345 3.21401 29.2757 3.55986 29.6097C4.08676 30.1032 4.91007 30.1508 5.84852 29.6254L27.8141 17.5616C29.3953 16.7022 29.3953 15.3018 27.8141 14.4263Z" fill="#F1471D"/>
<path d="M25.9361 18.6213C26.1999 17.7461 26.3317 16.8068 26.3317 15.8522C26.3317 10.234 21.6055 5.66638 15.7931 5.66638C9.98063 5.66638 5.25488 10.234 5.25488 15.8522C5.25488 20.5631 8.56472 24.526 13.06 25.6881L25.9361 18.6213Z" fill="#FCD117"/>
<path d="M22.5858 16.0021C22.5858 19.518 19.6374 22.3682 15.9995 22.3682C12.3617 22.3682 9.41309 19.518 9.41309 16.0021C9.41309 12.486 12.3617 9.63599 15.9995 9.63599C19.6373 9.63588 22.5858 12.4859 22.5858 16.0021Z" fill="#F48B15"/>
<path d="M15.9996 12.66V16.5747C15.769 16.4479 15.5056 16.368 15.2257 16.368C14.3696 16.368 13.6943 17.0369 13.6943 17.848C13.6943 18.6761 14.3858 19.3285 15.2257 19.3285C16.0822 19.3285 16.823 18.6597 16.823 17.848V14.2515H18.3048V12.66H15.9996Z" fill="white"/>
</svg>
