<svg width="32" height="32" viewBox="0 0 32 32" fill="none" xmlns="http://www.w3.org/2000/svg">
<circle cx="16" cy="16" r="14" fill="#F8591A"/>
<path d="M22.449 18.2072C21.6175 17.8564 20.9244 17.1435 20.4076 16.4214C19.8146 15.5923 19.2072 14.7775 18.5427 14.0047C17.9178 13.2788 17.2533 12.5832 16.5315 11.9547C15.8113 11.327 15.0274 10.73 14.1641 10.3154C13.5854 10.0363 12.9892 9.82649 12.3723 9.64951C12.3023 9.63006 12.1139 9.54452 12.0583 9.63046C12.0241 9.6837 12.0503 9.78315 12.0574 9.84198C12.0726 9.96999 12.0877 10.0976 12.1036 10.2251C12.288 11.7563 12.358 13.3726 11.8826 14.8594C11.6274 15.6607 11.1623 16.393 10.5423 16.9606C10.028 17.4305 9.29422 17.9064 8.56528 17.8724C6.45645 17.7833 7.40284 14.303 7.80052 13.1309C8.99498 9.66855 12.3535 7.2705 16.0004 7.2705C20.7525 7.2705 24.7007 11.2809 24.67 16.0001C24.6589 17.4025 24.209 18.9495 22.449 18.2072ZM26.5668 12.9437C25.2424 8.35633 21.0151 5 16.0004 5C10.9865 5 6.75839 8.35633 5.43396 12.9437C4.9612 14.5823 4.87602 16.3183 5.18492 17.9948C6.12334 23.1182 10.6071 27 16.0004 27C21.3946 27 25.8775 23.1182 26.8174 17.9948C27.125 16.318 27.0383 14.5825 26.5668 12.9437Z" fill="white"/>
</svg>
