<svg width="32" height="32" viewBox="0 0 32 32" fill="none" xmlns="http://www.w3.org/2000/svg">
<path fill-rule="evenodd" clip-rule="evenodd" d="M25.8451 14.0544C27.3224 14.9958 27.8764 16.6904 27.6302 18.2594L25.9066 27.7364C25.5373 29.6192 23.9369 31 22.0287 31H9.96385C8.05563 31 6.4552 29.6192 6.08588 27.7364L4.36233 18.2594C4.11611 16.7531 4.73167 15.0586 6.20899 14.1172C7.07077 13.4895 7.25544 12.4226 6.20899 12.046C4.73167 11.4812 5.03944 9.66109 6.51678 9.66109H15.5038C16.9196 9.66109 18.6431 10.728 18.6431 14.1799C18.6431 17.6318 17.0427 17.318 17.0427 19.7657C17.0427 20.8326 17.9045 21.9623 18.9509 22.0879C20.736 22.2761 21.7825 21.5858 21.7825 19.0753C21.7825 16.5021 20.3051 15.3096 20.3051 13.1757C20.3051 10.6025 21.9056 9.5983 22.952 9.5983H25.5373C27.0147 9.5983 27.3224 11.4184 25.8451 11.9832C24.7987 12.4226 24.9833 13.4895 25.8451 14.0544ZM7.44009 8.3431C6.82454 8.3431 6.27053 7.77824 6.27053 7.15062C6.27053 5.70711 9.84074 4.64016 13.9034 4.64016C14.2727 4.64016 14.5189 4.64016 14.5189 4.32636C14.5189 3.7615 13.2878 3.57323 13.2878 2.63181C13.2878 1.62762 14.4574 1 15.9347 1C17.412 1 18.5816 1.62762 18.5816 2.63181C18.5816 3.57323 17.3505 3.69876 17.3505 4.32636C17.3505 4.51465 17.5351 4.64016 17.966 4.64016C22.0287 4.64016 25.6604 5.64434 25.6604 7.15062C25.6604 7.77824 25.168 8.3431 24.4909 8.3431H7.44009Z" fill="#2CACF4"/>
</svg>
