<svg width="32" height="32" viewBox="0 0 32 32" fill="none" xmlns="http://www.w3.org/2000/svg">
<g clip-path="url(#clip0_1334_1566)">
<path d="M30.7657 7.31429L19.9771 0L0 14.2171L5.07429 32L26.9257 27.5657L30.7657 7.31429Z" fill="url(#paint0_linear_1334_1566)"/>
<path d="M30.7654 7.31429L19.9768 0L17.3711 7.17714V21.8514H31.9997L30.7654 7.31429Z" fill="url(#paint1_linear_1334_1566)"/>
<path d="M6.12598 6.12567H25.8745V25.8742H6.12598V6.12567Z" fill="currentColor"/>
<path d="M7.9541 22.1714H15.3598V23.4057H7.9541V22.1714Z" fill="white"/>
<path d="M7.9541 8.73138H11.1084C13.6684 8.73138 15.4512 10.4685 15.4512 12.8C15.4512 15.0857 13.6684 16.8685 11.1084 16.8685H7.9541V8.73138ZM9.78267 10.3771V15.2685H11.1541C12.617 15.2685 13.6227 14.2628 13.6227 12.8457V12.8C13.6227 11.3371 12.617 10.3314 11.1541 10.3314H9.78267V10.3771Z" fill="white"/>
<path d="M18.4227 10.3771H15.9541V8.73138H22.6741V10.3771H20.2055V16.9142H18.4227V10.3771Z" fill="white"/>
</g>
<defs>
<linearGradient id="paint0_linear_1334_1566" x1="-0.608914" y1="19.9941" x2="30.6478" y2="11.9301" gradientUnits="userSpaceOnUse">
<stop offset="0.124" stop-color="#7866FF"/>
<stop offset="0.538" stop-color="#FE2EB6"/>
<stop offset="0.855" stop-color="#FD0486"/>
</linearGradient>
<linearGradient id="paint1_linear_1334_1566" x1="20.9894" y1="17.7874" x2="30.929" y2="4.15954" gradientUnits="userSpaceOnUse">
<stop offset="0.124" stop-color="#FF0080"/>
<stop offset="0.259" stop-color="#FE0385"/>
<stop offset="0.411" stop-color="#FA0C92"/>
<stop offset="0.571" stop-color="#F41BA9"/>
<stop offset="0.736" stop-color="#EB2FC8"/>
<stop offset="0.866" stop-color="#E343E6"/>
</linearGradient>
<clipPath id="clip0_1334_1566">
<rect width="32" height="32" fill="white"/>
</clipPath>
</defs>
</svg>
