<svg width="32" height="32" viewBox="0 0 32 32" fill="none" xmlns="http://www.w3.org/2000/svg">
<g clip-path="url(#clip0_1334_1536)">
<path d="M19.5657 0L0 2.19429V12.2514L4.89143 28.6171L29.5314 22.3543L19.5657 0Z" fill="url(#paint0_linear_1334_1536)"/>
<path d="M31.9999 18.8801L30.1256 10.1486L25.9199 15.9543L22.9942 24.7772L22.0342 32.0001L29.257 27.4286L31.9999 18.8801Z" fill="url(#paint1_linear_1334_1536)"/>
<path d="M30.1252 10.1486L23.9995 7.22284L16.8224 7.86284L9.78238 12.7543L8.36523 21.5314L14.5367 29.9428L22.0338 32L30.1252 10.1486Z" fill="url(#paint2_linear_1334_1536)"/>
<path d="M6.12598 6.12567H25.8745V25.8742H6.12598V6.12567Z" fill="currentColor"/>
<path d="M8 8.73138H11.2C13.76 8.73138 15.5429 10.5142 15.5429 12.8V12.8457C15.5429 15.1314 13.76 16.9142 11.2 16.9142H8V8.73138ZM9.78286 10.3771V15.3142H11.1543C12.6171 15.3142 13.6229 14.3085 13.6229 12.8914V12.8457C13.6229 11.3828 12.6171 10.3771 11.1543 10.3771H9.78286Z" fill="white"/>
<path d="M8 22.1714H15.4057V23.4057H8V22.1714Z" fill="white"/>
<path d="M16.1826 12.8457C16.1826 10.5142 17.9198 8.59424 20.434 8.59424C21.9883 8.59424 22.9026 9.0971 23.6798 9.87424L22.5369 11.2C21.8969 10.6057 21.2569 10.2857 20.434 10.2857C19.0626 10.2857 18.0569 11.4285 18.0569 12.8457V12.8914C18.0569 14.3085 19.0169 15.4514 20.434 15.4514C21.3483 15.4514 21.9426 15.0857 22.5826 14.4914L23.7255 15.6342C22.9026 16.5485 21.9426 17.0971 20.3883 17.0971C18.0112 17.0514 16.1826 15.2228 16.1826 12.8457Z" fill="white"/>
</g>
<defs>
<linearGradient id="paint0_linear_1334_1536" x1="16.9367" y1="25.4341" x2="10.7694" y2="2.47863" gradientUnits="userSpaceOnUse">
<stop offset="0.048" stop-color="#7866FF"/>
<stop offset="0.135" stop-color="#8265FA"/>
<stop offset="0.281" stop-color="#9C64EE"/>
<stop offset="0.467" stop-color="#C661D9"/>
<stop offset="0.608" stop-color="#EB5FC7"/>
<stop offset="0.729" stop-color="#FA6398"/>
<stop offset="0.769" stop-color="#FF6488"/>
<stop offset="0.995" stop-color="#FF7500"/>
</linearGradient>
<linearGradient id="paint1_linear_1334_1536" x1="31.593" y1="23.0634" x2="26.1343" y2="21.089" gradientUnits="userSpaceOnUse">
<stop offset="0.247" stop-color="#7866FF"/>
<stop offset="0.346" stop-color="#8F5FFA"/>
<stop offset="0.531" stop-color="#B353F1"/>
<stop offset="0.705" stop-color="#CD4AEB"/>
<stop offset="0.859" stop-color="#DD45E7"/>
<stop offset="0.979" stop-color="#E343E6"/>
</linearGradient>
<linearGradient id="paint2_linear_1334_1536" x1="26.0622" y1="21.4126" x2="10.8475" y2="15.0249" gradientUnits="userSpaceOnUse">
<stop offset="0.006" stop-color="#E343E6"/>
<stop offset="0.064" stop-color="#E649CA"/>
<stop offset="0.19" stop-color="#EF5982"/>
<stop offset="0.372" stop-color="#FD7110"/>
<stop offset="0.398" stop-color="#FF7500"/>
</linearGradient>
<clipPath id="clip0_1334_1536">
<rect width="32" height="32" fill="white"/>
</clipPath>
</defs>
</svg>
