<svg width="32" height="32" viewBox="0 0 32 32" fill="none" xmlns="http://www.w3.org/2000/svg">
<g clip-path="url(#clip0_1334_1588)">
<path d="M28.0227 0.411447C27.2455 0.0457328 26.3769 -0.0456958 25.5084 0.0457328C25.3712 0.0457328 4.7998 1.78288 4.7998 1.78288L19.3369 18.9257L21.9884 19.0629L30.3084 10.0572C33.097 7.26859 32.5027 2.28573 28.0227 0.411447Z" fill="url(#paint0_linear_1334_1588)"/>
<path d="M24.5031 21.5771L23.9088 22.4914L16.5945 13.5771L9.50879 18.3314L21.2574 31.0857C21.4859 31.3143 21.8059 31.4972 22.1259 31.68C22.7659 32 23.4974 32.0914 24.2288 31.8629C24.9145 31.68 25.4174 31.3143 25.8288 30.9029C25.8745 30.8571 30.7659 26.0114 30.7659 26.0114L24.5031 21.5771Z" fill="url(#paint1_linear_1334_1588)"/>
<path d="M20.891 19.0171L8.95959 3.83998C8.45673 3.10855 7.67958 2.51426 6.67387 2.10283C5.89673 1.78283 4.98244 1.69141 4.15958 1.87426C-0.228986 2.83426 -1.2347 7.63426 1.59958 10.1943L9.87387 18.6971L20.891 19.0171Z" fill="url(#paint2_linear_1334_1588)"/>
<path d="M28.8917 18.5143C27.3375 18.0571 26.4689 18.1943 24.4117 18.1486L7.04031 15.68L2.05746 20.4343C-1.09683 23.5429 -0.593972 28.9829 4.06888 31.3143C5.25746 31.9086 6.58317 32.0914 7.81746 31.9086C16.6403 30.2629 27.7032 27.6114 27.7946 27.6114C27.9775 27.5657 28.206 27.52 28.3889 27.4743C31.2689 26.6057 32.4575 23.9086 31.7717 21.6229C31.406 20.3429 30.4003 18.9714 28.8917 18.5143Z" fill="url(#paint3_linear_1334_1588)"/>
<path d="M6.12598 6.12567H25.8745V25.8742H6.12598V6.12567Z" fill="currentColor"/>
<path d="M7.9541 8.73145H9.78267V12.0229H13.1655V8.73145H14.9941V17.0057H13.1655V13.6686H9.78267V17.0057H7.9541V8.73145Z" fill="white"/>
<path d="M16.3201 8.73145H20.1601C21.1201 8.73145 21.8516 9.00573 22.3087 9.46287C22.6744 9.82859 22.8573 10.2857 22.8573 10.88V10.9257C22.8573 11.84 22.3544 12.3886 21.7601 12.7086C22.7201 13.0743 23.3144 13.6229 23.3144 14.7657V14.8114C23.3144 16.32 22.0801 17.0972 20.2058 17.0972H16.2744V8.73145H16.3201ZM21.1201 11.1543C21.1201 10.6057 20.7087 10.2857 19.9316 10.2857H18.1487V12.0229H19.8401C20.6173 12.0686 21.1201 11.7943 21.1201 11.1543ZM20.2058 13.5772H18.103V15.4057H20.2516C21.0744 15.4057 21.5316 15.1314 21.5316 14.4914V14.4457C21.5773 13.9429 21.1658 13.5772 20.2058 13.5772Z" fill="white"/>
<path d="M8 22.1714H15.4057V23.4057H8V22.1714Z" fill="white"/>
</g>
<defs>
<linearGradient id="paint0_linear_1334_1588" x1="18.4752" y1="0.406419" x2="18.0958" y2="17.9767" gradientUnits="userSpaceOnUse">
<stop offset="0.328" stop-color="#00B8F1"/>
<stop offset="0.973" stop-color="#9758FB"/>
</linearGradient>
<linearGradient id="paint1_linear_1334_1588" x1="26.6722" y1="29.2649" x2="5.45484" y2="6.23361" gradientUnits="userSpaceOnUse">
<stop stop-color="#FFEE45"/>
<stop offset="1" stop-color="#9758FB"/>
</linearGradient>
<linearGradient id="paint2_linear_1334_1588" x1="14.1824" y1="4.33781" x2="9.77879" y2="13.7517" gradientUnits="userSpaceOnUse">
<stop offset="0.328" stop-color="#00B8F1"/>
<stop offset="0.79" stop-color="#9758FB"/>
</linearGradient>
<linearGradient id="paint3_linear_1334_1588" x1="-1.48952" y1="23.8281" x2="31.4591" y2="23.8281" gradientUnits="userSpaceOnUse">
<stop stop-color="#00B8F1"/>
<stop offset="0.306" stop-color="#9758FB"/>
<stop offset="0.989" stop-color="#FFEE45"/>
</linearGradient>
<clipPath id="clip0_1334_1588">
<rect width="32" height="32" fill="white"/>
</clipPath>
</defs>
</svg>
