<svg width="32" height="32" viewBox="0 0 32 32" fill="none" xmlns="http://www.w3.org/2000/svg">
<g clip-path="url(#clip0_1334_1460)">
<path d="M9.23429 6.94861L15.5429 16.7772L5.30286 32L0 10.56L9.23429 6.94861Z" fill="url(#paint0_linear_1334_1460)"/>
<path d="M8.63988 7.17714L9.59988 0L23.4056 15.36L19.3827 19.3371L22.4913 32H5.30273L8.63988 7.17714Z" fill="url(#paint1_linear_1334_1460)"/>
<path d="M16.1368 21.5314H31.9996L26.6968 0H9.59961L16.1368 21.5314Z" fill="url(#paint2_linear_1334_1460)"/>
<path d="M6.12598 6.12567H25.8745V25.8742H6.12598V6.12567Z" fill="currentColor"/>
<path d="M7.95489 8.68567H11.7035C12.7549 8.68567 13.532 8.95995 14.0806 9.50853C14.5378 9.96567 14.7663 10.6057 14.7663 11.3828V11.4285C14.7663 12.1142 14.5835 12.6171 14.2635 13.0285C13.9435 13.44 13.532 13.76 12.9835 13.9428L14.9949 16.8685H12.892L11.2006 14.3542H9.69204V16.8685H7.90918V8.68567H7.95489ZM11.612 12.6628C12.0692 12.6628 12.3892 12.5714 12.6178 12.3428C12.8463 12.1142 12.9835 11.84 12.9835 11.52V11.4742C12.9835 11.0628 12.8463 10.7885 12.6178 10.6057C12.3892 10.4228 12.0235 10.3314 11.5663 10.3314H9.78347V12.6628H11.612Z" fill="white"/>
<path d="M7.9541 22.1714H15.3598V23.4057H7.9541V22.1714Z" fill="white"/>
<path d="M19.977 11.1542H18.1484V9.5085H19.977V7.67993H21.6684V9.5085H23.497V11.1542H21.6684V12.9828H19.977V11.1542Z" fill="white"/>
<path d="M16.9604 15.8171H15.1318V14.1714H16.9604V12.3428H18.6518V14.1714H20.4804V15.8171H18.6518V17.6457H16.9604V15.8171Z" fill="white"/>
</g>
<defs>
<linearGradient id="paint0_linear_1334_1460" x1="3.68594" y1="7.37878" x2="13.376" y2="31.889" gradientUnits="userSpaceOnUse">
<stop offset="0.22" stop-color="#C40B55"/>
<stop offset="0.683" stop-color="#E343E6"/>
<stop offset="0.925" stop-color="#F59252"/>
</linearGradient>
<linearGradient id="paint1_linear_1334_1460" x1="23.8998" y1="33.5049" x2="0.202847" y2="8.29806" gradientUnits="userSpaceOnUse">
<stop offset="0.113" stop-color="#FFBD00"/>
<stop offset="0.586" stop-color="#E343E6"/>
<stop offset="0.817" stop-color="#EC841B"/>
<stop offset="0.935" stop-color="#FFBD00"/>
</linearGradient>
<linearGradient id="paint2_linear_1334_1460" x1="11.6568" y1="-0.882286" x2="31.9813" y2="23.3911" gradientUnits="userSpaceOnUse">
<stop offset="0.129" stop-color="#FFBD00"/>
<stop offset="0.64" stop-color="#E343E6"/>
<stop offset="0.909" stop-color="#C40B55"/>
</linearGradient>
<clipPath id="clip0_1334_1460">
<rect width="32" height="32" fill="white"/>
</clipPath>
</defs>
</svg>
