<svg width="32" height="32" viewBox="0 0 32 32" fill="none" xmlns="http://www.w3.org/2000/svg">
<g clip-path="url(#clip0_1334_1627)">
<path d="M27.6567 10.9714L4.38812 12.2971L4.25098 3.38286L25.2338 0.0914307L27.6567 10.9714Z" fill="url(#paint0_linear_1334_1627)"/>
<path d="M9.28039 19.7486L16.7775 10.24L8.64039 4.66285C7.22325 3.38285 5.07468 2.83428 2.88039 3.74857C1.78325 4.20571 0.914679 5.07428 0.457536 6.17142C-0.502464 8.45714 0.0918217 10.6971 1.55468 12.0686L9.28039 19.7486Z" fill="url(#paint1_linear_1334_1627)"/>
<path d="M9.28027 19.7486L20.8003 31.1314L27.9774 17.7371L16.7774 10.24L9.28027 19.7486Z" fill="url(#paint2_linear_1334_1627)"/>
<path d="M24.6398 16.7314L5.48549 15.8171C4.75406 15.68 3.9312 15.7257 3.06263 16.0914C2.23977 16.4571 1.59977 17.0514 1.27977 17.8743C0.319774 20.1143 1.46263 22.2629 3.33692 22.9943L20.4798 31.0857C20.7083 31.2229 21.8512 31.5429 21.8512 31.5429C22.7655 31.8171 23.7712 31.9543 24.6855 31.9543C25.8283 31.9543 27.1083 31.6343 28.3883 30.9943C29.5769 30.4 30.3083 29.44 30.9483 28.2514C31.7255 26.88 31.9541 25.6 31.9541 24.32C31.9083 20.3429 28.6169 17.0057 24.6398 16.7314Z" fill="url(#paint3_linear_1334_1627)"/>
<path d="M23.8169 0.502901C23.4969 0.640043 23.1769 0.8229 22.9026 1.00576L12.2969 9.00576L17.554 16.6858L29.074 10.24C29.9426 9.82861 30.6283 9.09719 31.0397 8.27433C33.5997 3.33719 28.8454 -1.59996 23.8169 0.502901Z" fill="url(#paint4_linear_1334_1627)"/>
<path d="M6.62881 22.7657L17.5545 16.6857L12.2974 9.00574L2.24023 16.5486L6.62881 22.7657Z" fill="#905CFB"/>
<path d="M9.32549 25.7829V16L5.48549 15.8171C4.75406 15.68 3.9312 15.7257 3.06263 16.0914C2.23977 16.4571 1.59977 17.0514 1.27977 17.8743C0.319774 20.1143 1.46263 22.2629 3.33692 22.9943H3.38263L9.32549 25.7829Z" fill="url(#paint5_linear_1334_1627)"/>
<path d="M6.12598 6.12567H25.8745V25.8742H6.12598V6.12567Z" fill="currentColor"/>
<path d="M8 13.44V8.68567H9.82857V13.3942C9.82857 14.7657 10.5143 15.4514 11.6114 15.4514C12.7086 15.4514 13.3943 14.7657 13.3943 13.44V8.68567H15.2229V13.3485C15.2229 15.8628 13.8057 17.0971 11.5657 17.0971C9.37143 17.1428 8 15.8628 8 13.44Z" fill="white"/>
<path d="M16.1826 8.68567H19.5655C21.5312 8.68567 22.7198 9.87424 22.7198 11.5657V11.6114C22.7198 13.5314 21.2112 14.5371 19.3826 14.5371H18.0112V17.0057H16.1826V8.68567ZM19.474 12.8914C20.3883 12.8914 20.9369 12.3428 20.9369 11.6571V11.6114C20.9369 10.7885 20.3883 10.3771 19.474 10.3771H18.0569V12.8914H19.474Z" fill="white"/>
<path d="M8 22.1714H15.4057V23.4057H8V22.1714Z" fill="white"/>
</g>
<defs>
<linearGradient id="paint0_linear_1334_1627" x1="29.6741" y1="5.03314" x2="8.00549" y2="8.28343" gradientUnits="userSpaceOnUse">
<stop stop-color="#FF8200"/>
<stop offset="0.973" stop-color="#905CFB"/>
</linearGradient>
<linearGradient id="paint1_linear_1334_1627" x1="7.16611" y1="15.9095" x2="9.18576" y2="4.62628" gradientUnits="userSpaceOnUse">
<stop stop-color="#0CB0F2"/>
<stop offset="0.973" stop-color="#905CFB"/>
</linearGradient>
<linearGradient id="paint2_linear_1334_1627" x1="26.6677" y1="24.533" x2="12.3331" y2="17.5323" gradientUnits="userSpaceOnUse">
<stop stop-color="#0CB0F2"/>
<stop offset="0.973" stop-color="#905CFB"/>
</linearGradient>
<linearGradient id="paint3_linear_1334_1627" x1="27.7383" y1="25.6265" x2="3.36069" y2="16.8626" gradientUnits="userSpaceOnUse">
<stop stop-color="#0CB0F2"/>
<stop offset="0.973" stop-color="#905CFB"/>
</linearGradient>
<linearGradient id="paint4_linear_1334_1627" x1="29.3456" y1="2.71319" x2="8.46785" y2="19.5402" gradientUnits="userSpaceOnUse">
<stop stop-color="#FF8200"/>
<stop offset="0.973" stop-color="#905CFB"/>
</linearGradient>
<linearGradient id="paint5_linear_1334_1627" x1="13.9189" y1="22.5111" x2="1.0352" y2="17.9323" gradientUnits="userSpaceOnUse">
<stop stop-color="#0CB0F2"/>
<stop offset="0.973" stop-color="#905CFB"/>
</linearGradient>
<clipPath id="clip0_1334_1627">
<rect width="32" height="32" fill="white"/>
</clipPath>
</defs>
</svg>
