<svg width="32" height="32" viewBox="0 0 32 32" fill="none" xmlns="http://www.w3.org/2000/svg">
<path d="M16 30C23.732 30 30 23.732 30 16C30 8.26801 23.732 2 16 2C8.26801 2 2 8.26801 2 16C2 23.732 8.26801 30 16 30Z" fill="url(#paint0_linear_1334_471)"/>
<path d="M15.9998 28.95C23.1519 28.95 28.9498 23.1521 28.9498 16C28.9498 8.8479 23.1519 3.04999 15.9998 3.04999C8.84772 3.04999 3.0498 8.8479 3.0498 16C3.0498 23.1521 8.84772 28.95 15.9998 28.95Z" fill="url(#paint1_radial_1334_471)"/>
<path d="M16.0215 6.20001C15.934 6.20001 15.8574 6.13441 15.8574 6.04691V3.76095C15.8574 3.67345 15.934 3.60785 16.0215 3.60785C16.109 3.60785 16.1855 3.67345 16.1855 3.76095V6.04691C16.1746 6.13441 16.109 6.20001 16.0215 6.20001Z" fill="#F3F3F3"/>
<path d="M16.0217 6.21096C15.9232 6.21096 15.8467 6.13441 15.8467 6.04691V3.76097C15.8467 3.67347 15.9232 3.59692 16.0217 3.59692C16.1201 3.59692 16.1967 3.67347 16.1967 3.76097V6.04691C16.1967 6.13441 16.1092 6.21096 16.0217 6.21096ZM16.0217 3.61871C15.9451 3.61871 15.8686 3.68442 15.8686 3.76097V6.04691C15.8686 6.12346 15.9342 6.18917 16.0217 6.18917C16.0982 6.18917 16.1748 6.12346 16.1748 6.04691V3.76097C16.1639 3.68442 16.0982 3.61871 16.0217 3.61871Z" fill="white"/>
<path d="M17.116 4.975C17.0285 4.96405 16.9629 4.89845 16.9629 4.81095L17.0394 3.79367C17.0503 3.70628 17.1269 3.64057 17.2144 3.65152C17.3019 3.66248 17.3675 3.72819 17.3675 3.81569L17.291 4.83285C17.28 4.92035 17.2035 4.98595 17.116 4.97511V4.975Z" fill="#F3F3F3"/>
<path d="M17.1152 4.98598C17.0168 4.97503 16.9512 4.89848 16.9512 4.81098L17.0277 3.79371C17.0387 3.70632 17.1152 3.62978 17.2137 3.64061C17.312 3.65157 17.3777 3.72823 17.3777 3.81562L17.3012 4.83288C17.2902 4.93133 17.2137 4.99693 17.1152 4.98598ZM17.2137 3.66252C17.1371 3.66252 17.0605 3.71728 17.0605 3.79383L16.9839 4.81109C16.9839 4.88753 17.0387 4.95324 17.1262 4.96407C17.2027 4.96407 17.2793 4.90943 17.2793 4.83288L17.3558 3.81562C17.3558 3.73907 17.2902 3.67347 17.2136 3.66252H17.2137Z" fill="white"/>
<path d="M17.9354 6.39693C17.8478 6.37502 17.7932 6.29847 17.8041 6.21097L18.2525 3.9687C18.2745 3.88131 18.351 3.82656 18.4385 3.84846C18.526 3.87036 18.5806 3.94691 18.5697 4.03441L18.1213 6.27668C18.1103 6.35312 18.0228 6.40788 17.9353 6.39693H17.9354Z" fill="#F3F3F3"/>
<path d="M17.9356 6.40784C17.8371 6.38593 17.7824 6.29843 17.7934 6.21093L18.2418 3.96869C18.2637 3.8813 18.3512 3.81559 18.4495 3.8375C18.548 3.8594 18.6027 3.9469 18.5918 4.0344L18.1433 6.27664C18.1214 6.36403 18.034 6.41879 17.9356 6.40784ZM18.4495 3.8594C18.373 3.84845 18.2964 3.89214 18.2745 3.9688L17.8262 6.21105C17.8153 6.28748 17.859 6.36403 17.9465 6.38605C18.023 6.39689 18.0995 6.35308 18.1214 6.27653L18.5699 4.0344C18.5808 3.9469 18.5262 3.8813 18.4495 3.8594Z" fill="white"/>
<path d="M19.2489 5.41257C19.228 5.40755 19.2084 5.39847 19.1911 5.38586C19.1737 5.37324 19.1591 5.35734 19.1479 5.33905C19.1367 5.32076 19.1293 5.30045 19.126 5.27928C19.1227 5.25811 19.1236 5.23649 19.1286 5.21567L19.4021 4.23138C19.4239 4.14388 19.5114 4.10007 19.5989 4.12198C19.6864 4.14388 19.7411 4.23138 19.7192 4.31888L19.4458 5.30328C19.4239 5.39067 19.3364 5.43448 19.2489 5.41257Z" fill="#F3F3F3"/>
<path d="M19.249 5.42346C19.1615 5.40155 19.0959 5.3031 19.1287 5.21572L19.4022 4.23121C19.4239 4.14383 19.5224 4.08907 19.6099 4.11097C19.6974 4.13287 19.7629 4.23132 19.7302 4.31871L19.4568 5.30321C19.4349 5.3906 19.3474 5.44536 19.2491 5.42346H19.249ZM19.6099 4.14383C19.5333 4.12192 19.4458 4.16573 19.4239 4.24228L19.1506 5.22655C19.1287 5.3031 19.1724 5.37976 19.2599 5.40155C19.3364 5.42346 19.4239 5.37976 19.4458 5.30321L19.7193 4.31871C19.7302 4.24228 19.6865 4.16573 19.6099 4.14371V4.14383Z" fill="white"/>
<path d="M19.7845 6.95468C19.697 6.92182 19.6643 6.82337 19.697 6.74682L20.572 4.63588C20.6047 4.55934 20.7033 4.51553 20.7797 4.55934C20.8673 4.59208 20.9002 4.69064 20.8673 4.76708L19.9924 6.87801C19.9596 6.95467 19.8611 6.99837 19.7846 6.95468H19.7845Z" fill="#F3F3F3"/>
<path d="M19.7842 6.96578C19.7422 6.94977 19.7082 6.91774 19.6898 6.87673C19.6713 6.83571 19.6699 6.78905 19.6858 6.74698L20.5608 4.63601C20.5936 4.54851 20.6921 4.51565 20.7905 4.54851C20.8326 4.56453 20.8665 4.59655 20.885 4.63757C20.9034 4.67858 20.9049 4.72524 20.889 4.76732L20.014 6.87828C19.9702 6.96578 19.8717 7.00948 19.7842 6.96578ZM20.7796 4.57041C20.703 4.53767 20.6155 4.57041 20.5827 4.64696L19.7077 6.75793C19.6749 6.83448 19.7186 6.91103 19.7952 6.94388C19.8717 6.97662 19.9592 6.94388 19.9921 6.86733L20.8671 4.75637C20.889 4.69066 20.8561 4.60316 20.7796 4.57041Z" fill="white"/>
<path d="M21.2612 6.25474C21.1846 6.21093 21.1517 6.12343 21.1846 6.04689L21.6439 5.13916C21.6876 5.0625 21.7751 5.02965 21.8627 5.07345C21.9392 5.11726 21.972 5.20476 21.9392 5.28119L21.4798 6.18903C21.4361 6.26558 21.3486 6.29854 21.2611 6.25474H21.2612Z" fill="#F3F3F3"/>
<path d="M21.261 6.26571C21.1734 6.2219 21.1406 6.12345 21.1843 6.03595L21.6437 5.12822C21.6874 5.04061 21.786 5.00786 21.8734 5.05156C21.9609 5.09536 21.9937 5.19381 21.9499 5.28131L21.4906 6.18905C21.4468 6.27655 21.3484 6.3094 21.2609 6.2656L21.261 6.26571ZM21.8625 5.07346C21.7859 5.04072 21.6984 5.06251 21.6656 5.13906L21.2062 6.04691C21.1735 6.1125 21.2062 6.2 21.2718 6.24381C21.3484 6.27655 21.4359 6.25476 21.4687 6.17821L21.9281 5.27036C21.9609 5.20477 21.9281 5.11727 21.8625 5.07346Z" fill="white"/>
<path d="M21.4794 7.87353C21.4029 7.81888 21.381 7.72043 21.4356 7.65483L22.7044 5.76256C22.7481 5.68601 22.8467 5.67506 22.9231 5.71887C22.9998 5.77351 23.0216 5.87196 22.9669 5.93756L21.6981 7.82983C21.6544 7.90638 21.556 7.92828 21.4794 7.87353Z" fill="#F3F3F3"/>
<path d="M21.4793 7.88442C21.4028 7.82977 21.3809 7.72037 21.4247 7.64382L22.6934 5.75161C22.748 5.67506 22.8465 5.65316 22.934 5.70791C23.0105 5.76256 23.0324 5.87196 22.9887 5.94851L21.7199 7.84072C21.6653 7.91727 21.5559 7.93906 21.4793 7.88442ZM22.923 5.72982C22.8575 5.68601 22.759 5.69696 22.7153 5.76256L21.4465 7.65478C21.4028 7.72026 21.4246 7.80787 21.4903 7.85156C21.5559 7.89537 21.6543 7.88442 21.698 7.81882L22.9668 5.93755C23.0105 5.87196 22.9887 5.77351 22.923 5.72982Z" fill="white"/>
<path d="M23.0764 7.46886C23.0109 7.4141 22.989 7.31565 23.0437 7.25005L23.678 6.4516C23.7326 6.38612 23.8311 6.37505 23.8967 6.42981C23.9624 6.48445 23.9842 6.58291 23.9294 6.6485L23.2952 7.44695C23.2405 7.51255 23.1421 7.5235 23.0765 7.46886H23.0764Z" fill="#F3F3F3"/>
<path d="M23.066 7.47974C22.9894 7.42498 22.9785 7.31557 23.0333 7.23902L23.6675 6.44066C23.7222 6.364 23.8316 6.35305 23.9081 6.41876C23.9846 6.4734 23.9956 6.58281 23.9408 6.65936L23.3066 7.45783C23.2519 7.53439 23.1425 7.54534 23.066 7.47974ZM23.8862 6.44055C23.8207 6.3859 23.7331 6.39685 23.6785 6.46245L23.0441 7.26093C23.0004 7.32652 23.0114 7.41403 23.0768 7.46867C23.1425 7.52343 23.23 7.51248 23.2847 7.44688L23.919 6.64841C23.9629 6.58281 23.9518 6.48436 23.8863 6.44066L23.8862 6.44055Z" fill="white"/>
<path d="M22.9672 9.10941C22.9016 9.04382 22.9016 8.94537 22.9672 8.89061L24.5858 7.28289C24.6515 7.2173 24.7498 7.22814 24.8046 7.28289C24.8592 7.33754 24.8702 7.44694 24.8046 7.50158L23.1969 9.10941C23.1312 9.17501 23.0328 9.17501 22.9672 9.10941Z" fill="#F3F3F3"/>
<path d="M22.9565 9.12031C22.9249 9.08822 22.9072 9.04502 22.9072 9.00001C22.9072 8.95501 22.9249 8.91181 22.9565 8.87972L24.5752 7.27187C24.6073 7.24029 24.6505 7.2226 24.6955 7.2226C24.7406 7.2226 24.7838 7.24029 24.8159 7.27187C24.8474 7.30397 24.8651 7.34717 24.8651 7.39217C24.8651 7.43717 24.8474 7.48037 24.8159 7.51247L23.1971 9.1202C23.165 9.15174 23.1218 9.16942 23.0768 9.16942C23.0317 9.16942 22.9885 9.15174 22.9565 9.1202V9.12031ZM24.8049 7.28282C24.7503 7.22807 24.6518 7.22807 24.5972 7.28282L22.9784 8.89055C22.9236 8.94531 22.9236 9.04376 22.9784 9.09841C23.033 9.15317 23.1315 9.15317 23.1861 9.09841L24.8049 7.49068C24.8596 7.43592 24.8596 7.34842 24.8049 7.28282Z" fill="white"/>
<path d="M24.6081 9.02186C24.5534 8.95627 24.5534 8.85782 24.619 8.80306L25.3955 8.14689C25.4611 8.09225 25.5596 8.10308 25.6143 8.16879C25.6689 8.23439 25.6689 8.33284 25.6034 8.38748L24.8269 9.04376C24.7612 9.09841 24.6627 9.08746 24.6081 9.02186Z" fill="#F3F3F3"/>
<path d="M24.5968 9.03285C24.5312 8.95631 24.5422 8.8469 24.6077 8.79226L25.3842 8.13596C25.4498 8.07036 25.5592 8.08131 25.6248 8.15786C25.6905 8.23441 25.6796 8.34381 25.614 8.39846L24.8374 9.05476C24.7719 9.12024 24.6624 9.1094 24.5969 9.03285H24.5968ZM25.603 8.16881C25.5483 8.10322 25.4608 8.10322 25.3953 8.14691L24.6187 8.80321C24.5641 8.85786 24.5531 8.94535 24.6077 9.01095C24.6624 9.07655 24.75 9.07655 24.8155 9.03285L25.5921 8.37655C25.6577 8.32191 25.6577 8.23441 25.603 8.16881Z" fill="white"/>
<path d="M24.17 10.5969C24.1153 10.5204 24.1372 10.4219 24.2138 10.3781L26.1168 9.1094C26.1933 9.06559 26.2918 9.0875 26.3355 9.15321C26.3902 9.22976 26.3683 9.32821 26.2918 9.3719L24.3888 10.6406C24.3231 10.6844 24.2246 10.6625 24.17 10.5969Z" fill="#F3F3F3"/>
<path d="M24.1592 10.5969C24.1046 10.5204 24.1265 10.411 24.2031 10.3563L26.1061 9.08751C26.1827 9.03287 26.2921 9.05477 26.3467 9.14227C26.4015 9.21882 26.3795 9.32822 26.303 9.38275L24.4 10.6517C24.3233 10.7064 24.214 10.6845 24.1592 10.597V10.5969ZM26.3248 9.16417C26.2811 9.09847 26.1936 9.07656 26.128 9.12037L24.2248 10.389C24.1594 10.4329 24.1373 10.5204 24.1921 10.5969C24.2358 10.6625 24.3233 10.6844 24.389 10.6407L26.2921 9.37191C26.3577 9.31727 26.3686 9.22966 26.3248 9.16417Z" fill="white"/>
<path d="M25.8007 10.8267C25.7568 10.75 25.7787 10.6517 25.8553 10.6079L26.7413 10.1048C26.8178 10.061 26.9163 10.0938 26.96 10.1703C27.0038 10.2469 26.9819 10.3452 26.9053 10.3891L26.0193 10.8922C25.9428 10.9359 25.8443 10.9032 25.8005 10.8265L25.8007 10.8267Z" fill="#F3F3F3"/>
<path d="M25.7889 10.8375C25.7451 10.75 25.767 10.6516 25.8436 10.6079L26.7295 10.1048C26.8061 10.061 26.9155 10.0938 26.9592 10.1703C27.003 10.2579 26.9811 10.3563 26.9046 10.4L26.0186 10.9033C25.942 10.9469 25.8326 10.9141 25.7889 10.8375ZM26.9482 10.1813C26.9045 10.1048 26.817 10.0829 26.7515 10.1266L25.8655 10.6298C25.7999 10.6735 25.778 10.761 25.8107 10.8266C25.8545 10.9031 25.942 10.925 26.0076 10.8813L26.8936 10.3781C26.9592 10.3454 26.9811 10.2579 26.9482 10.1813Z" fill="white"/>
<path d="M25.0671 12.2813C25.0344 12.1938 25.0671 12.1063 25.1546 12.0736L27.2656 11.1986C27.3421 11.1658 27.4406 11.2095 27.4733 11.286C27.5062 11.3735 27.4733 11.461 27.3858 11.4937L25.275 12.3687C25.1983 12.4016 25.1 12.3687 25.0671 12.2813Z" fill="#F3F3F3"/>
<path d="M25.0564 12.2922C25.0237 12.2048 25.0564 12.1063 25.1439 12.0625L27.2548 11.1876C27.2969 11.1717 27.3435 11.1732 27.3845 11.1916C27.4255 11.2101 27.4575 11.244 27.4735 11.286C27.5064 11.3735 27.4735 11.4719 27.386 11.5156L25.2752 12.3906C25.2331 12.4065 25.1865 12.4051 25.1455 12.3866C25.1045 12.3682 25.0724 12.3343 25.0564 12.2923V12.2922ZM27.4517 11.297C27.4189 11.2204 27.3314 11.1876 27.2658 11.2095L25.1548 12.0844C25.0783 12.1172 25.0454 12.2048 25.0783 12.2813C25.111 12.3579 25.1985 12.3907 25.2642 12.3688L27.3751 11.4938C27.4517 11.4611 27.4846 11.3735 27.4517 11.297Z" fill="white"/>
<path d="M26.6095 12.8283C26.5768 12.7406 26.6204 12.6533 26.7079 12.6204L27.6703 12.3031C27.7469 12.2704 27.8453 12.325 27.8672 12.4016C27.9 12.4891 27.8563 12.5766 27.7688 12.6094L26.8064 12.9267C26.7298 12.9594 26.6423 12.9158 26.6095 12.8281V12.8283Z" fill="#F3F3F3"/>
<path d="M26.5986 12.8391C26.5659 12.7516 26.6096 12.6531 26.7081 12.6204L27.6704 12.3031C27.7579 12.2704 27.8564 12.325 27.8892 12.4126C27.9219 12.5 27.8783 12.5985 27.7797 12.6313L26.8174 12.9486C26.7299 12.9704 26.6315 12.9266 26.5986 12.8391ZM27.8673 12.4236C27.8454 12.3469 27.7579 12.3031 27.6814 12.325L26.719 12.6423C26.6424 12.6641 26.6096 12.7516 26.6315 12.8282C26.6534 12.9048 26.7409 12.9485 26.8174 12.9266L27.7798 12.6094C27.8564 12.5767 27.8892 12.5 27.8673 12.4235V12.4236Z" fill="white"/>
<path d="M25.625 14.1297C25.6031 14.0422 25.6577 13.9547 25.7452 13.9438L27.9873 13.5063C28.0747 13.4844 28.1513 13.55 28.1731 13.6375C28.195 13.725 28.1404 13.8125 28.0529 13.8234L25.8108 14.2609C25.7233 14.2719 25.6358 14.2172 25.6248 14.1297H25.625Z" fill="#F3F3F3"/>
<path d="M25.6029 14.1299C25.581 14.0314 25.6466 13.9439 25.7341 13.922L27.9763 13.4844C28.0638 13.4625 28.1513 13.5283 28.1731 13.6267C28.195 13.7251 28.1294 13.8126 28.0419 13.8345L25.7997 14.272C25.7123 14.2939 25.6247 14.2283 25.6029 14.1297V14.1299ZM28.1513 13.6376C28.1404 13.561 28.0638 13.5064 27.9873 13.5173L25.745 13.9548C25.6685 13.9658 25.6138 14.0532 25.6356 14.1299C25.6466 14.2064 25.7231 14.2611 25.7998 14.2501L28.0419 13.8126C28.1185 13.7907 28.1731 13.7141 28.1513 13.6376Z" fill="white"/>
<path d="M27.0248 14.9719C27.0139 14.8844 27.0685 14.8079 27.156 14.7969L28.1622 14.6765C28.2497 14.6657 28.3264 14.7313 28.3372 14.8188C28.3482 14.9063 28.2935 14.9829 28.206 14.9938L27.1997 15.1141C27.1232 15.125 27.0357 15.0594 27.0247 14.9719H27.0248Z" fill="#F3F3F3"/>
<path d="M27.0139 14.9719C27.0029 14.8734 27.0685 14.7859 27.156 14.775L28.1622 14.6548C28.2497 14.6438 28.3372 14.7094 28.3481 14.8078C28.3591 14.9063 28.2935 14.9938 28.206 15.0047L27.1997 15.125C27.1123 15.1359 27.0247 15.0703 27.0139 14.9719ZM28.3372 14.8188C28.3263 14.7423 28.2498 14.6765 28.1731 14.6875L27.167 14.8078C27.0904 14.8188 27.0357 14.8953 27.0466 14.9719C27.0576 15.0484 27.1341 15.1141 27.2107 15.1032L28.2169 14.9828C28.2935 14.9719 28.3481 14.8953 28.3373 14.8188H28.3372Z" fill="white"/>
<path d="M25.7998 16.0329C25.7998 15.9454 25.8653 15.8688 25.9529 15.8688H28.2389C28.3264 15.8688 28.392 15.9454 28.392 16.0329C28.392 16.1204 28.3264 16.1969 28.2389 16.1969H25.9529C25.8654 16.1969 25.7998 16.1204 25.7998 16.0329Z" fill="#F3F3F3"/>
<path d="M25.7891 16.0328C25.7891 15.9344 25.8656 15.8578 25.9531 15.8578H28.2391C28.3266 15.8578 28.4031 15.9344 28.4031 16.0328C28.4031 16.1313 28.3266 16.2078 28.2391 16.2078H25.9531C25.8656 16.2078 25.7891 16.1313 25.7891 16.0328ZM28.3812 16.0438C28.3812 15.9672 28.3156 15.8907 28.2389 15.8907H25.9532C25.8767 15.8907 25.811 15.9562 25.811 16.0438C25.811 16.1203 25.8767 16.1969 25.9532 16.1969H28.2392C28.3157 16.1859 28.3813 16.1203 28.3813 16.0438H28.3812Z" fill="white"/>
<path d="M27.0138 17.1375C27.0246 17.05 27.0903 16.9844 27.1778 16.9844L28.195 17.0609C28.2824 17.0719 28.348 17.1484 28.3371 17.2359C28.3262 17.3234 28.2605 17.389 28.173 17.389L27.1559 17.3125C27.0794 17.3015 27.0137 17.225 27.0137 17.1375H27.0138Z" fill="#F3F3F3"/>
<path d="M27.0029 17.1376C27.0139 17.0391 27.0904 16.9735 27.1779 16.9735L28.1953 17.0501C28.2827 17.061 28.3593 17.1376 28.3483 17.236C28.3375 17.3345 28.2608 17.4001 28.1733 17.4001L27.156 17.3235C27.0685 17.3126 27.0029 17.2251 27.0029 17.1376ZM28.3375 17.236C28.3483 17.1595 28.2827 17.0829 28.2061 17.0829L27.1888 17.0064C27.1123 17.0064 27.0466 17.061 27.0357 17.1486C27.0248 17.2251 27.0904 17.3016 27.167 17.3016L28.1843 17.3782C28.2608 17.3782 28.3265 17.3127 28.3375 17.236Z" fill="white"/>
<path d="M25.603 17.936C25.6249 17.8485 25.7014 17.7937 25.7889 17.8048L28.0311 18.2532C28.1186 18.275 28.1733 18.3516 28.1514 18.4391C28.1295 18.5266 28.053 18.5813 27.9655 18.5704L25.7232 18.1219C25.6467 18.111 25.592 18.0235 25.603 17.936Z" fill="#F3F3F3"/>
<path d="M25.5922 17.936C25.6141 17.8375 25.7016 17.7829 25.7891 17.7937L28.0314 18.2422C28.1189 18.264 28.1845 18.3515 28.1626 18.45C28.1408 18.5484 28.0533 18.6032 27.9658 18.5922L25.7234 18.1438C25.6359 18.1219 25.5813 18.0344 25.5922 17.9361V17.936ZM28.1408 18.45C28.1518 18.3734 28.1081 18.2969 28.0314 18.275L25.789 17.8266C25.7126 17.8157 25.6359 17.8594 25.614 17.9469C25.6032 18.0235 25.6469 18.1 25.7235 18.1219L27.9658 18.5703C28.0533 18.5813 28.1189 18.5265 28.1408 18.45Z" fill="white"/>
<path d="M26.5877 19.2485C26.5927 19.2277 26.6018 19.208 26.6144 19.1907C26.627 19.1734 26.6429 19.1587 26.6612 19.1476C26.6794 19.1364 26.6997 19.1289 26.7209 19.1256C26.7421 19.1223 26.7637 19.1232 26.7845 19.1282L27.7689 19.4016C27.8564 19.4235 27.9001 19.5111 27.8783 19.5985C27.8733 19.6193 27.8642 19.639 27.8516 19.6563C27.839 19.6737 27.8231 19.6883 27.8048 19.6995C27.7865 19.7107 27.7662 19.7182 27.745 19.7215C27.7238 19.7248 27.7022 19.7239 27.6814 19.7189L26.697 19.4454C26.6095 19.4235 26.5658 19.336 26.5876 19.2485H26.5877Z" fill="#F3F3F3"/>
<path d="M26.577 19.2485C26.5989 19.161 26.6974 19.0954 26.7849 19.1282L27.7693 19.4015C27.8568 19.4234 27.9115 19.5219 27.8896 19.6094C27.8677 19.6969 27.7693 19.7624 27.6818 19.7297L26.6974 19.4563C26.6099 19.4344 26.5551 19.3469 26.5771 19.2486L26.577 19.2485ZM27.8568 19.6094C27.8787 19.5328 27.8349 19.4453 27.7583 19.4234L26.7739 19.15C26.6974 19.1281 26.6208 19.1719 26.5989 19.2594C26.5771 19.336 26.6208 19.4234 26.6974 19.4453L27.6818 19.7188C27.7583 19.7297 27.8349 19.686 27.8568 19.6094Z" fill="white"/>
<path d="M25.0457 19.7735C25.0784 19.686 25.177 19.6531 25.2534 19.686L27.3644 20.5609C27.441 20.5937 27.4847 20.6922 27.4519 20.7687C27.4191 20.8563 27.3206 20.889 27.2441 20.8563L25.1332 19.9813C25.0457 19.9486 25.0128 19.85 25.0457 19.7736V19.7735Z" fill="#F3F3F3"/>
<path d="M25.0339 19.7626C25.05 19.7205 25.082 19.6866 25.123 19.6681C25.164 19.6496 25.2107 19.6482 25.2527 19.6641L27.3636 20.5391C27.4511 20.572 27.4839 20.6704 27.4511 20.7689C27.4351 20.8109 27.4031 20.8449 27.3621 20.8633C27.321 20.8818 27.2744 20.8832 27.2323 20.8674L25.1214 19.9923C25.0339 19.9485 25.0012 19.8501 25.0339 19.7626ZM27.4292 20.7579C27.462 20.6814 27.4292 20.5939 27.3527 20.561L25.2418 19.686C25.1652 19.6533 25.0887 19.697 25.0558 19.7735C25.0231 19.8501 25.0558 19.9376 25.1324 19.9704L27.2433 20.8454C27.3198 20.8674 27.4073 20.8345 27.4292 20.7579Z" fill="white"/>
<path d="M25.7559 21.25C25.7997 21.1735 25.8871 21.1406 25.9637 21.1735L26.8714 21.6329C26.9479 21.6656 26.9808 21.7641 26.9371 21.8516C26.8933 21.9281 26.8058 21.9611 26.7293 21.9281L25.8216 21.4688C25.745 21.425 25.7121 21.3266 25.7559 21.25Z" fill="#F3F3F3"/>
<path d="M25.7449 21.2391C25.7887 21.1516 25.8871 21.1188 25.9746 21.1625L26.8824 21.6219C26.9699 21.6657 27.0027 21.7642 26.9589 21.8516C26.9152 21.9391 26.8167 21.9719 26.7293 21.9281L25.8215 21.4688C25.7339 21.4361 25.7012 21.3266 25.7449 21.2391ZM26.9262 21.8406C26.9589 21.7641 26.937 21.6766 26.8605 21.6438L25.9527 21.1844C25.887 21.1517 25.7996 21.1844 25.7558 21.25C25.7231 21.3266 25.7449 21.4141 25.8214 21.4469L26.7292 21.9063C26.8058 21.9391 26.8933 21.9173 26.9262 21.8406Z" fill="white"/>
<path d="M24.1485 21.4579C24.2033 21.3813 24.2908 21.3594 24.3673 21.4141L26.2705 22.6829C26.347 22.7266 26.358 22.8251 26.3143 22.9016C26.2595 22.9782 26.172 23 26.0954 22.9454L24.1923 21.6766C24.1158 21.6219 24.0939 21.5235 24.1485 21.4579Z" fill="#F3F3F3"/>
<path d="M24.1379 21.4469C24.1926 21.3704 24.3021 21.3485 24.3786 21.3923L26.2818 22.6609C26.3583 22.7156 26.3802 22.814 26.3255 22.9015C26.2708 22.9782 26.1614 23 26.085 22.9563L24.1817 21.6875C24.0942 21.6329 24.0832 21.5235 24.1379 21.4469ZM26.2927 22.8906C26.3364 22.8251 26.3255 22.7265 26.26 22.6828L24.3567 21.4141C24.2911 21.3704 24.2036 21.3923 24.1598 21.4579C24.1161 21.5235 24.127 21.6219 24.1925 21.6656L26.0958 22.9344C26.1614 22.9782 26.2489 22.9563 26.2927 22.8907V22.8906Z" fill="white"/>
<path d="M24.5536 23.0438C24.6082 22.9781 24.7067 22.9563 24.7723 23.0111L25.5708 23.6344C25.6364 23.6891 25.6473 23.7875 25.5927 23.8532C25.538 23.9187 25.4396 23.9407 25.3738 23.886L24.5754 23.2625C24.5099 23.2078 24.4988 23.1094 24.5536 23.0438Z" fill="#F3F3F3"/>
<path d="M24.542 23.0329C24.5966 22.9563 24.706 22.9454 24.7826 23.0001L25.581 23.6235C25.6575 23.6781 25.6685 23.7875 25.6137 23.8641C25.5591 23.9407 25.4497 23.9516 25.3733 23.8969L24.5747 23.2735C24.4982 23.2188 24.4874 23.1094 24.542 23.0329ZM25.592 23.8532C25.6466 23.7875 25.6356 23.7 25.57 23.6454L24.7716 23.0219C24.706 22.9782 24.6185 22.9892 24.5639 23.0546C24.5091 23.1204 24.5201 23.2079 24.5857 23.2625L25.3841 23.886C25.4497 23.9298 25.5372 23.9187 25.5918 23.8532H25.592Z" fill="white"/>
<path d="M22.9238 22.9344C22.9895 22.8688 23.088 22.8688 23.1426 22.9344L24.7613 24.5421C24.8271 24.6078 24.8161 24.7063 24.7613 24.7609C24.6959 24.8265 24.5973 24.8265 24.5426 24.7609L22.9238 23.1532C22.8692 23.0984 22.8692 22.989 22.9238 22.9344Z" fill="#F3F3F3"/>
<path d="M22.9236 22.9234C22.9557 22.8918 22.999 22.8741 23.044 22.8741C23.089 22.8741 23.1322 22.8918 23.1643 22.9234L24.7831 24.5311C24.8147 24.5632 24.8324 24.6064 24.8324 24.6515C24.8324 24.6965 24.8147 24.7397 24.7831 24.7718C24.751 24.8034 24.7078 24.8211 24.6628 24.8211C24.6178 24.8211 24.5746 24.8034 24.5425 24.7718L22.9236 23.1641C22.8471 23.0984 22.8471 22.9891 22.9236 22.9234ZM24.7612 24.7499C24.816 24.6953 24.816 24.5968 24.7612 24.5422L23.1424 22.9344C23.0878 22.8797 22.9893 22.8797 22.9347 22.9344C22.8799 22.989 22.8799 23.0875 22.9347 23.1421L24.5534 24.7499C24.6081 24.8156 24.6957 24.8156 24.7612 24.7499Z" fill="white"/>
<path d="M23.0217 24.5641C23.0874 24.5094 23.1858 24.5094 23.2405 24.575L23.9078 25.3406C23.9624 25.4063 23.9515 25.5048 23.8858 25.5594C23.8203 25.6141 23.7217 25.6141 23.6671 25.5485L22.9998 24.7829C22.9452 24.7282 22.9561 24.6298 23.0217 24.5641Z" fill="#F3F3F3"/>
<path d="M23.0108 24.564C23.0874 24.4986 23.1858 24.5094 23.2513 24.575L23.9185 25.3406C23.9841 25.4063 23.9732 25.5156 23.8966 25.5813C23.8201 25.6469 23.7216 25.6359 23.656 25.5703L22.9888 24.8047C22.9341 24.7282 22.9341 24.6188 23.0107 24.564H23.0108ZM23.8858 25.5594C23.9513 25.5047 23.9513 25.4171 23.9076 25.3516L23.2403 24.5859C23.1857 24.5313 23.0982 24.5203 23.0326 24.575C22.967 24.6297 22.967 24.7172 23.0107 24.7827L23.6779 25.5484C23.7326 25.614 23.8202 25.614 23.8857 25.5594H23.8858Z" fill="white"/>
<path d="M21.4465 24.1484C21.523 24.0938 21.6215 24.1157 21.6653 24.1922L22.934 26.0844C22.9778 26.1609 22.9559 26.2593 22.8903 26.3032C22.8137 26.3578 22.7153 26.3359 22.6715 26.2593L21.4027 24.3671C21.3589 24.2907 21.3808 24.1921 21.4464 24.1484H21.4465Z" fill="#F3F3F3"/>
<path d="M21.4467 24.1375C21.5233 24.0829 21.6327 24.1048 21.6873 24.1813L22.956 26.0735C23.0107 26.1499 22.9887 26.2593 22.9014 26.3139C22.8247 26.3687 22.7154 26.3468 22.6607 26.2702L21.3921 24.3781C21.3374 24.2907 21.3593 24.1923 21.4467 24.1376V24.1375ZM22.8904 26.2921C22.956 26.2483 22.9779 26.1608 22.9341 26.0952L21.6655 24.2031C21.6217 24.1376 21.5342 24.1266 21.4578 24.1704C21.3921 24.2141 21.3702 24.3016 21.414 24.3673L22.6826 26.2593C22.7264 26.3139 22.8248 26.3358 22.8903 26.292L22.8904 26.2921Z" fill="white"/>
<path d="M21.2171 25.7671C21.2936 25.7234 21.3921 25.7453 21.4358 25.8219L21.939 26.7078C21.9827 26.7844 21.9498 26.8828 21.8733 26.9265C21.7967 26.9703 21.6983 26.9484 21.6546 26.8719L21.1515 25.9859C21.1187 25.9094 21.1406 25.8109 21.217 25.7672L21.2171 25.7671Z" fill="#F3F3F3"/>
<path d="M21.2174 25.7563C21.3049 25.7125 21.4033 25.7344 21.447 25.811L21.9501 26.697C21.9939 26.7736 21.972 26.883 21.8847 26.9267C21.797 26.9705 21.6986 26.9486 21.6549 26.8721L21.1518 25.986C21.108 25.9095 21.1299 25.811 21.2173 25.7563H21.2174ZM21.8736 26.9159C21.9393 26.8721 21.972 26.7845 21.9283 26.7189L21.4252 25.8329C21.3814 25.7673 21.2939 25.7454 21.2283 25.7781C21.1626 25.8219 21.1299 25.9095 21.1736 25.9751L21.6768 26.8611C21.7095 26.9267 21.808 26.9596 21.8736 26.9158V26.9159Z" fill="white"/>
<path d="M19.7625 25.0454C19.85 25.0126 19.9375 25.0454 19.9704 25.1219L20.8563 27.2328C20.8891 27.3094 20.8454 27.4078 20.7688 27.4405C20.6923 27.4734 20.5938 27.4405 20.5611 27.364L19.6751 25.2532C19.6423 25.1765 19.686 25.0782 19.7625 25.0454Z" fill="#F3F3F3"/>
<path d="M19.7626 25.0344C19.8501 25.0017 19.9485 25.0344 19.9923 25.1219L20.8782 27.2329C20.8941 27.2749 20.8926 27.3216 20.8742 27.3626C20.8557 27.4035 20.8218 27.4356 20.7798 27.4516C20.6923 27.4844 20.5938 27.4516 20.5501 27.3641L19.6642 25.2532C19.6314 25.1766 19.6752 25.0782 19.7626 25.0344ZM20.7579 27.4298C20.8344 27.3969 20.8673 27.3094 20.8344 27.2438L19.9485 25.1329C19.9158 25.0563 19.8283 25.0235 19.7517 25.0563C19.6752 25.0891 19.6422 25.1766 19.6752 25.2423L20.561 27.3532C20.6048 27.4298 20.6813 27.4625 20.7579 27.4298Z" fill="white"/>
<path d="M19.2264 26.5984C19.314 26.5657 19.4014 26.6094 19.4342 26.6969L19.7515 27.6594C19.7842 27.736 19.7296 27.8344 19.6531 27.8563C19.5656 27.8891 19.4781 27.8454 19.4453 27.7579L19.1281 26.7954C19.0953 26.7188 19.139 26.6313 19.2265 26.5984H19.2264Z" fill="#F3F3F3"/>
<path d="M19.2156 26.5876C19.2577 26.5718 19.3043 26.5732 19.3453 26.5917C19.3863 26.6101 19.4183 26.6441 19.4343 26.6861L19.7516 27.6485C19.7844 27.736 19.7297 27.8345 19.6421 27.8673C19.6 27.8832 19.5534 27.8817 19.5124 27.8633C19.4714 27.8448 19.4394 27.8109 19.4234 27.7689L19.1062 26.8064C19.0843 26.7189 19.1281 26.6205 19.2156 26.5876ZM19.6422 27.8453C19.7188 27.8235 19.7625 27.736 19.7407 27.6595L19.4234 26.697C19.4016 26.6205 19.3141 26.5876 19.2375 26.6095C19.1608 26.6314 19.1171 26.7189 19.139 26.7955L19.4562 27.7579C19.4618 27.7765 19.4712 27.7937 19.4839 27.8084C19.4965 27.8231 19.5121 27.8349 19.5297 27.8432C19.5472 27.8514 19.5663 27.8559 19.5857 27.8563C19.6051 27.8567 19.6243 27.853 19.6422 27.8454V27.8453Z" fill="white"/>
<path d="M17.9355 25.6032C18.0229 25.5813 18.1106 25.636 18.1214 25.7235L18.5809 27.9658C18.6028 28.0532 18.5371 28.1299 18.4495 28.1516C18.3621 28.1735 18.2745 28.1189 18.2637 28.0314L17.8041 25.7891C17.7933 25.7125 17.8479 25.625 17.9354 25.6031L17.9355 25.6032Z" fill="#F3F3F3"/>
<path d="M17.936 25.592C18.0343 25.5702 18.1218 25.6359 18.1437 25.7234L18.603 27.9658C18.6249 28.0532 18.5592 28.1517 18.4717 28.1626C18.3733 28.1845 18.2858 28.1189 18.264 28.0314L17.8046 25.789C17.7828 25.7015 17.8375 25.6139 17.9358 25.5922L17.936 25.592ZM18.4498 28.1407C18.5265 28.1299 18.5811 28.0532 18.5702 27.9657L18.1108 25.7234C18.1 25.6468 18.0125 25.5922 17.9358 25.6139C17.8593 25.6249 17.8047 25.7015 17.8156 25.789L18.275 28.0314C18.2967 28.108 18.3733 28.1517 18.4499 28.1408L18.4498 28.1407Z" fill="white"/>
<path d="M17.1052 27.025C17.1927 27.0141 17.2693 27.0688 17.2912 27.1563L17.4224 28.1625C17.4333 28.25 17.3677 28.3265 17.2801 28.3375C17.1927 28.3484 17.1162 28.2938 17.0943 28.2063L16.9631 27.2C16.9522 27.1125 17.0178 27.036 17.1052 27.025Z" fill="#F3F3F3"/>
<path d="M17.1046 27.0141C17.2031 27.0032 17.2906 27.0688 17.3015 27.1563L17.4328 28.1626C17.4438 28.2501 17.3781 28.3376 17.2796 28.3485C17.1811 28.3595 17.0936 28.2939 17.0826 28.2063L16.9514 27.2C16.9404 27.1125 17.0061 27.025 17.1046 27.0141ZM17.2687 28.3266C17.3453 28.3158 17.411 28.2391 17.4 28.1626L17.2687 27.1563C17.2577 27.0798 17.1811 27.025 17.1046 27.036C17.028 27.0469 16.9622 27.1235 16.9732 27.2L17.1046 28.2064C17.1155 28.2829 17.1921 28.3376 17.2687 28.3266Z" fill="white"/>
<path d="M15.9785 25.7999C16.066 25.7999 16.1425 25.8656 16.1425 25.9531V28.239C16.1425 28.3265 16.066 28.3922 15.9785 28.3922C15.891 28.3922 15.8145 28.3265 15.8145 28.239V25.9531C15.8254 25.8656 15.891 25.7999 15.9785 25.7999Z" fill="#F3F3F3"/>
<path d="M15.9777 25.7889C16.0762 25.7889 16.1527 25.8655 16.1527 25.953V28.2389C16.1527 28.3264 16.0762 28.403 15.9777 28.403C15.8793 28.403 15.8027 28.3264 15.8027 28.2389V25.9531C15.8027 25.8656 15.8902 25.7889 15.9777 25.7889ZM15.9777 28.3812C16.0543 28.3812 16.1308 28.3156 16.1308 28.2389V25.9531C16.1308 25.8764 16.0652 25.8108 15.9777 25.8108C15.9012 25.8108 15.8246 25.8764 15.8246 25.9531V28.2389C15.8355 28.3156 15.9012 28.3812 15.9777 28.3812Z" fill="white"/>
<path d="M14.8844 27.025C14.9719 27.0359 15.0375 27.1015 15.0375 27.189L14.9609 28.2063C14.9501 28.2938 14.8734 28.3594 14.7859 28.3485C14.6984 28.3375 14.6328 28.2719 14.6328 28.1844L14.7094 27.1671C14.7203 27.0798 14.7969 27.014 14.8844 27.025Z" fill="#F3F3F3"/>
<path d="M14.8846 27.014C14.983 27.025 15.0486 27.1016 15.0486 27.1891L14.9721 28.2064C14.9611 28.2939 14.8846 28.3704 14.7861 28.3595C14.6878 28.3485 14.6221 28.272 14.6221 28.1845L14.6986 27.1672C14.7096 27.0688 14.7861 27.0032 14.8846 27.014ZM14.7861 28.3376C14.8627 28.3376 14.9393 28.2829 14.9393 28.2064L15.0159 27.1891C15.0159 27.1125 14.9611 27.0469 14.8736 27.036C14.7971 27.036 14.7205 27.0906 14.7205 27.1673L14.644 28.1845C14.644 28.261 14.7096 28.3267 14.7862 28.3376H14.7861Z" fill="white"/>
<path d="M14.0645 25.6031C14.152 25.6249 14.2066 25.7014 14.1957 25.7889L13.7472 28.0314C13.7253 28.1189 13.6488 28.1737 13.5613 28.1516C13.4738 28.1298 13.4192 28.0533 13.4301 27.9657L13.8785 25.7233C13.8895 25.6468 13.977 25.5921 14.0645 25.6031Z" fill="#F3F3F3"/>
<path d="M14.0639 25.592C14.1623 25.6139 14.217 25.7015 14.2061 25.7889L13.7576 28.0313C13.7357 28.1188 13.6482 28.1844 13.5499 28.1624C13.4514 28.1405 13.3967 28.053 13.4076 27.9655L13.8561 25.7233C13.878 25.6358 13.9655 25.581 14.0638 25.5921L14.0639 25.592ZM13.5499 28.1405C13.6264 28.1515 13.703 28.1078 13.7249 28.0313L14.1732 25.7889C14.1842 25.7124 14.1405 25.6358 14.053 25.6139C13.9764 25.6031 13.8999 25.6468 13.878 25.7234L13.4295 27.9655C13.4186 28.053 13.4732 28.1188 13.5499 28.1405Z" fill="white"/>
<path d="M12.7522 26.5876C12.8398 26.6095 12.8944 26.697 12.8725 26.7845L12.5991 27.7688C12.5773 27.8563 12.4898 27.9 12.4023 27.8782C12.3814 27.8732 12.3618 27.8641 12.3445 27.8515C12.3271 27.8389 12.3125 27.823 12.3013 27.8047C12.2901 27.7864 12.2826 27.7661 12.2793 27.7449C12.276 27.7238 12.2769 27.7022 12.2819 27.6813L12.5554 26.697C12.5773 26.6095 12.6648 26.5658 12.7523 26.5876H12.7522Z" fill="#F3F3F3"/>
<path d="M12.7515 26.5768C12.8391 26.5986 12.9047 26.697 12.8718 26.7845L12.5984 27.7689C12.5766 27.8564 12.4781 27.9112 12.3906 27.8891C12.3031 27.8674 12.2375 27.7689 12.2703 27.6814L12.5437 26.697C12.5656 26.6095 12.6531 26.5548 12.7515 26.5767V26.5768ZM12.3906 27.8564C12.4672 27.8783 12.5547 27.8345 12.5766 27.758L12.8499 26.7736C12.8718 26.697 12.8281 26.6205 12.7406 26.5986C12.6641 26.5767 12.5766 26.6205 12.5547 26.697L12.2812 27.6814C12.2703 27.758 12.314 27.8345 12.3906 27.8564Z" fill="white"/>
<path d="M12.2159 25.0454C12.3034 25.0781 12.3362 25.1766 12.3034 25.2531L11.4285 27.3641C11.3957 27.4407 11.2972 27.4844 11.2207 27.4407C11.1441 27.3969 11.1003 27.3094 11.1331 27.2329L12.0081 25.1219C12.0408 25.0454 12.1394 25.0016 12.2158 25.0454H12.2159Z" fill="#F3F3F3"/>
<path d="M12.2153 25.0344C12.2573 25.0504 12.2913 25.0825 12.3098 25.1235C12.3282 25.1645 12.3296 25.2111 12.3138 25.2532L11.4387 27.364C11.4059 27.4515 11.3074 27.4844 11.209 27.4515C11.167 27.4355 11.133 27.4035 11.1146 27.3625C11.0961 27.3215 11.0947 27.2749 11.1105 27.2328L11.9855 25.1219C12.0294 25.0344 12.1278 24.9907 12.2153 25.0344ZM11.2199 27.4297C11.2965 27.4625 11.384 27.4297 11.4168 27.3532L12.2919 25.2423C12.3246 25.1657 12.2809 25.0891 12.2044 25.0563C12.1278 25.0236 12.0403 25.0563 12.0074 25.1329L11.1324 27.2438C11.1105 27.3094 11.1434 27.3969 11.2199 27.4297Z" fill="white"/>
<path d="M10.7387 25.7455C10.8152 25.7892 10.848 25.8767 10.8152 25.9532L10.3558 26.8609C10.312 26.9374 10.2245 26.9703 10.137 26.9265C10.0605 26.8828 10.0277 26.7953 10.0605 26.7188L10.52 25.8112C10.5637 25.7346 10.6512 25.7017 10.7387 25.7455Z" fill="#F3F3F3"/>
<path d="M10.7396 25.7344C10.8271 25.7781 10.8599 25.8767 10.8162 25.964L10.3568 26.8718C10.313 26.9593 10.2145 26.9922 10.1271 26.9484C10.0396 26.9047 10.0068 26.8061 10.0506 26.7187L10.5099 25.8111C10.5537 25.7235 10.6521 25.6907 10.7396 25.7344ZM10.1381 26.9266C10.2146 26.9593 10.3021 26.9374 10.3349 26.8609L10.7943 25.9532C10.827 25.8875 10.7943 25.8 10.7287 25.7563C10.6521 25.7236 10.5646 25.7454 10.5318 25.8219L10.0724 26.7296C10.0396 26.7953 10.0724 26.8828 10.1381 26.9265V26.9266Z" fill="white"/>
<path d="M10.5198 24.1267C10.5963 24.1813 10.6182 24.2798 10.5636 24.3454L9.29479 26.2378C9.2511 26.3142 9.15253 26.3252 9.0761 26.2815C8.99955 26.2267 8.97765 26.1284 9.03229 26.0626L10.3011 24.1702C10.3448 24.0938 10.4432 24.0719 10.5198 24.1265V24.1267Z" fill="#F3F3F3"/>
<path d="M10.52 24.1156C10.5965 24.1704 10.6184 24.2798 10.5746 24.3563L9.3059 26.2486C9.25125 26.325 9.15279 26.3469 9.06529 26.2923C8.98874 26.2375 8.96684 26.1282 9.01053 26.0516L10.2794 24.1594C10.334 24.0829 10.4434 24.061 10.52 24.1156ZM9.07624 26.2704C9.14173 26.3141 9.2403 26.3031 9.28399 26.2377L10.5528 24.3454C10.5965 24.2798 10.5747 24.1923 10.509 24.1485C10.4434 24.1048 10.345 24.1157 10.3013 24.1812L9.03244 26.0625C8.98874 26.1282 9.01053 26.2266 9.07624 26.2703V26.2704Z" fill="white"/>
<path d="M8.92307 24.5313C8.98878 24.586 9.01057 24.6844 8.95593 24.75L8.32154 25.5484C8.26689 25.614 8.16844 25.625 8.10285 25.5703C8.03725 25.5157 8.01535 25.4172 8.0701 25.3515L8.70438 24.5531C8.75903 24.4876 8.85748 24.4766 8.92307 24.5313Z" fill="#F3F3F3"/>
<path d="M8.93452 24.5203C9.01107 24.575 9.02203 24.6844 8.96727 24.7609L8.33297 25.5594C8.27832 25.636 8.16892 25.6469 8.09237 25.5813C8.01582 25.5266 8.00486 25.4173 8.05962 25.3406L8.69392 24.5422C8.74857 24.4656 8.85797 24.4547 8.93452 24.5203ZM8.11427 25.5594C8.17975 25.6141 8.26737 25.6032 8.32201 25.5375L8.95643 24.739C9.00023 24.6736 8.98917 24.5859 8.92368 24.5313C8.85797 24.4765 8.77047 24.4875 8.71583 24.5532L8.08141 25.3516C8.03772 25.4173 8.04867 25.5156 8.11416 25.5594H8.11427Z" fill="white"/>
<path d="M9.03301 22.8907C9.09861 22.9562 9.09861 23.0548 9.03301 23.1094L7.41437 24.7171C7.34866 24.7829 7.25033 24.7719 7.19557 24.7171C7.14093 24.6625 7.12998 24.5531 7.19557 24.4985L8.80326 22.8907C8.86897 22.825 8.96742 22.825 9.03301 22.8907Z" fill="#F3F3F3"/>
<path d="M9.04327 22.8798C9.07478 22.9119 9.09244 22.9551 9.09244 23C9.09244 23.045 9.07478 23.0882 9.04327 23.1203L7.42452 24.7283C7.39243 24.7598 7.34925 24.7775 7.30428 24.7775C7.25931 24.7775 7.21613 24.7598 7.18404 24.7283C7.15246 24.6962 7.13477 24.653 7.13477 24.6079C7.13477 24.5629 7.15246 24.5197 7.18404 24.4876L8.80268 22.8798C8.83478 22.8482 8.87798 22.8306 8.92298 22.8306C8.96798 22.8306 9.01118 22.8482 9.04327 22.8798ZM7.19488 24.7172C7.24952 24.7719 7.34797 24.7719 7.40262 24.7172L9.02137 23.1093C9.07613 23.0547 9.07613 22.9562 9.02137 22.9016C8.96673 22.8468 8.86828 22.8468 8.81364 22.9016L7.19488 24.5094C7.14024 24.564 7.14024 24.6516 7.19488 24.7171V24.7172Z" fill="white"/>
<path d="M7.39172 22.9782C7.44636 23.0437 7.44636 23.1423 7.38077 23.1969L6.60422 23.8533C6.53862 23.908 6.44017 23.897 6.38541 23.8314C6.33077 23.7657 6.33077 23.6673 6.39636 23.6126L7.17291 22.9563C7.23862 22.9016 7.33696 22.9125 7.39172 22.9782Z" fill="#F3F3F3"/>
<path d="M7.40332 22.9671C7.46891 23.0438 7.45796 23.1531 7.39236 23.2078L6.61581 23.864C6.55021 23.9297 6.44081 23.9187 6.37521 23.8422C6.3095 23.7655 6.32045 23.6562 6.38605 23.6015L7.16272 22.9453C7.2282 22.8798 7.33772 22.8907 7.4032 22.9672L7.40332 22.9671ZM6.397 23.8312C6.45176 23.8968 6.53926 23.8968 6.60475 23.8531L7.38141 23.1969C7.43606 23.1422 7.44701 23.0546 7.39236 22.9891C7.33761 22.9234 7.25011 22.9234 7.18462 22.9672L6.40796 23.6234C6.34236 23.678 6.34236 23.7656 6.397 23.8311V23.8312Z" fill="white"/>
<path d="M7.82979 21.4031C7.88444 21.4798 7.86254 21.5781 7.78599 21.6219L5.8829 22.8906C5.80636 22.9343 5.70791 22.9124 5.66421 22.8468C5.60945 22.7703 5.63136 22.6719 5.70791 22.628L7.6111 21.3594C7.67681 21.3157 7.77515 21.3375 7.82991 21.4031H7.82979Z" fill="#F3F3F3"/>
<path d="M7.84089 21.4031C7.89554 21.4797 7.87364 21.589 7.79709 21.6438L5.89403 22.9125C5.81748 22.9672 5.70808 22.9452 5.65344 22.8578C5.59868 22.7813 5.6207 22.6719 5.69713 22.6172L7.6003 21.3484C7.67685 21.2938 7.78614 21.3157 7.84078 21.4031H7.84089ZM5.67534 22.8359C5.71904 22.9015 5.80653 22.9234 5.87213 22.8797L7.77519 21.6109C7.84089 21.5672 7.86268 21.4797 7.80804 21.4032C7.76435 21.3375 7.67685 21.3157 7.61114 21.3594L5.70808 22.6282C5.64249 22.6828 5.63154 22.7703 5.67534 22.8359Z" fill="white"/>
<path d="M6.20019 21.1735C6.244 21.25 6.2221 21.3485 6.14555 21.3923L5.25958 21.8953C5.18303 21.939 5.08458 21.9063 5.04089 21.8297C4.99708 21.7532 5.01898 21.6547 5.09553 21.6109L5.9815 21.1079C6.05804 21.0641 6.1565 21.0969 6.2003 21.1735H6.20019Z" fill="#F3F3F3"/>
<path d="M6.21123 21.1625C6.25492 21.25 6.23302 21.3484 6.15647 21.3922L5.27053 21.8953C5.19398 21.939 5.08458 21.9062 5.04089 21.8297C4.99708 21.7422 5.01898 21.6437 5.09553 21.5999L5.98147 21.0969C6.05802 21.0531 6.16742 21.0859 6.21111 21.1625H6.21123ZM5.05172 21.8187C5.09553 21.8953 5.18303 21.9172 5.24862 21.8734L6.13457 21.3703C6.20016 21.3265 6.22206 21.239 6.18932 21.1734C6.14552 21.0969 6.05802 21.075 5.99242 21.1188L5.10648 21.6218C5.04089 21.6546 5.01898 21.7422 5.05184 21.8187H5.05172Z" fill="white"/>
<path d="M6.93236 19.7188C6.96511 19.8063 6.93236 19.8939 6.84486 19.9266L4.73391 20.8016C4.65736 20.8345 4.55891 20.7908 4.52617 20.7141C4.49332 20.6266 4.52617 20.5391 4.61367 20.5064L6.72462 19.6313C6.80117 19.5986 6.89962 19.6313 6.93236 19.7188Z" fill="#F3F3F3"/>
<path d="M6.94332 19.7079C6.97606 19.7954 6.94332 19.8938 6.85582 19.9375L4.74486 20.8125C4.7028 20.8284 4.65617 20.8269 4.61518 20.8085C4.5742 20.79 4.54219 20.7561 4.52617 20.7141C4.49332 20.6266 4.52617 20.5281 4.61367 20.4844L6.72462 19.6094C6.76668 19.5936 6.81331 19.595 6.8543 19.6135C6.89529 19.6319 6.9273 19.6659 6.94332 19.7079ZM4.54796 20.7031C4.58082 20.7798 4.66832 20.8126 4.73391 20.7906L6.84486 19.9156C6.92141 19.8829 6.95427 19.7954 6.92141 19.7188C6.88867 19.6423 6.80117 19.6094 6.73546 19.6313L4.62451 20.5063C4.54796 20.5391 4.51522 20.6266 4.54796 20.7032V20.7031Z" fill="white"/>
<path d="M5.3908 19.1719C5.42354 19.2594 5.37985 19.3469 5.29234 19.3797L4.32984 19.6969C4.25329 19.7297 4.15484 19.675 4.13293 19.5985C4.10019 19.511 4.14389 19.4235 4.23139 19.3907L5.19389 19.0735C5.27044 19.0407 5.35794 19.0844 5.3908 19.1719Z" fill="#F3F3F3"/>
<path d="M5.40093 19.161C5.43379 19.2485 5.39009 19.347 5.29164 19.3798L4.32915 19.697C4.24166 19.7297 4.1432 19.6751 4.11035 19.5876C4.07761 19.5001 4.1213 19.4016 4.21987 19.3689L5.18224 19.0516C5.26974 19.0298 5.36819 19.0735 5.40104 19.1611L5.40093 19.161ZM4.13237 19.5767C4.15427 19.6533 4.24177 19.6971 4.31832 19.6752L5.2808 19.3579C5.35735 19.3361 5.39021 19.2486 5.3683 19.172C5.3464 19.0955 5.2589 19.0517 5.18235 19.0736L4.21987 19.3909C4.14332 19.4236 4.11046 19.5002 4.13237 19.5767Z" fill="white"/>
<path d="M6.37554 17.8703C6.39733 17.9578 6.34268 18.0453 6.25518 18.0563L4.01294 18.4938C3.92544 18.5157 3.84889 18.45 3.8271 18.3625C3.8052 18.275 3.85984 18.1875 3.94734 18.1765L6.18959 17.739C6.27709 17.7282 6.36459 17.7828 6.37543 17.8703H6.37554Z" fill="#F3F3F3"/>
<path d="M6.39676 17.8704C6.41866 17.9688 6.35307 18.0563 6.26557 18.0781L4.02331 18.5156C3.93581 18.5375 3.84831 18.4719 3.82652 18.3735C3.80461 18.275 3.87021 18.1875 3.95771 18.1657L6.19997 17.7282C6.28736 17.7063 6.37497 17.7719 6.39676 17.8704ZM3.84831 18.3626C3.85926 18.4391 3.93581 18.4938 4.01236 18.4829L6.25461 18.0454C6.33116 18.0344 6.38581 17.9469 6.36402 17.8704C6.35307 17.7938 6.27652 17.7391 6.19986 17.75L3.95771 18.1875C3.88116 18.2094 3.82652 18.286 3.84831 18.3625V18.3626Z" fill="white"/>
<path d="M4.97502 17.0283C4.98586 17.1157 4.93122 17.1923 4.84372 17.2033L3.83752 17.3236C3.74991 17.3345 3.67336 17.2689 3.66252 17.1813C3.65157 17.0939 3.70622 17.0173 3.79372 17.0062L4.80002 16.886C4.87657 16.875 4.96407 16.9406 4.97502 17.0283Z" fill="#F3F3F3"/>
<path d="M4.98599 17.0282C4.99683 17.1265 4.93123 17.214 4.84373 17.225L3.83754 17.3453C3.74993 17.3563 3.66254 17.2907 3.65159 17.1922C3.64063 17.0938 3.70623 17.0063 3.79373 16.9954L4.80004 16.875C4.88743 16.8641 4.97504 16.9298 4.98588 17.0281L4.98599 17.0282ZM3.66243 17.1813C3.67338 17.2578 3.75004 17.3235 3.82659 17.3125L4.83278 17.1922C4.90933 17.1813 4.96409 17.1048 4.95314 17.0282C4.94218 16.9516 4.86564 16.886 4.78909 16.8969L3.78278 17.0173C3.70623 17.0282 3.65159 17.1048 3.66243 17.1813Z" fill="white"/>
<path d="M6.19944 15.9671C6.19944 16.0547 6.13396 16.1313 6.04634 16.1313H3.76052C3.67302 16.1313 3.60742 16.0547 3.60742 15.9672C3.60742 15.8798 3.67302 15.8031 3.76052 15.8031H6.04646C6.13396 15.8031 6.19966 15.8798 6.19966 15.9672L6.19944 15.9671Z" fill="#F3F3F3"/>
<path d="M6.21073 15.9671C6.21073 16.0657 6.13407 16.1421 6.04657 16.1421H3.76073C3.67323 16.1421 3.59668 16.0656 3.59668 15.9671C3.59668 15.8688 3.67323 15.7921 3.76073 15.7921H6.04668C6.13418 15.7921 6.21073 15.8688 6.21073 15.9671ZM3.61847 15.9563C3.61847 16.0328 3.68407 16.1094 3.76073 16.1094H6.04657C6.12312 16.1094 6.18882 16.0438 6.18882 15.9563C6.18882 15.8797 6.12312 15.8031 6.04657 15.8031H3.76073C3.68418 15.814 3.61858 15.8797 3.61858 15.9563H3.61847Z" fill="white"/>
<path d="M4.98589 14.8625C4.97482 14.95 4.90922 15.0156 4.82172 15.0156L3.80445 14.9391C3.71706 14.9281 3.65147 14.8516 3.66231 14.7641C3.67326 14.6766 3.73897 14.611 3.82647 14.611L4.84363 14.6875C4.92018 14.6985 4.98589 14.775 4.98589 14.8625Z" fill="#E2E2E2"/>
<path d="M4.99667 14.8625C4.98572 14.961 4.90917 15.0266 4.82167 15.0266L3.80442 14.95C3.71703 14.9391 3.64049 14.8625 3.65144 14.7641C3.66228 14.6657 3.73894 14.6 3.82644 14.6L4.84358 14.6766C4.93108 14.6875 4.99667 14.775 4.99667 14.8625ZM3.66228 14.7641C3.65144 14.8406 3.71703 14.9173 3.79358 14.9173L4.81083 14.9938C4.88727 14.9938 4.95298 14.9391 4.96393 14.8516C4.97488 14.775 4.90917 14.6985 4.83263 14.6985L3.81537 14.6219C3.73894 14.6219 3.67323 14.6875 3.66228 14.7642V14.7641Z" fill="white"/>
<path d="M6.39703 14.064C6.37513 14.1515 6.29858 14.2063 6.21108 14.1953L3.96893 13.736C3.88144 13.7141 3.82668 13.6375 3.84858 13.55C3.87048 13.4625 3.94703 13.4078 4.03453 13.4188L6.27679 13.8673C6.35334 13.889 6.40798 13.9765 6.39703 14.064Z" fill="#F3F3F3"/>
<path d="M6.40749 14.064C6.38558 14.1625 6.29808 14.2172 6.21058 14.2063L3.96845 13.7578C3.88095 13.7359 3.81536 13.6484 3.83726 13.5501C3.85905 13.4515 3.94655 13.3969 4.03405 13.4078L6.27629 13.8563C6.36379 13.8782 6.41844 13.9657 6.40749 14.064ZM3.85905 13.55C3.8481 13.6265 3.89179 13.7031 3.96845 13.725L6.2107 14.1734C6.28724 14.1844 6.36379 14.1407 6.38569 14.0531C6.39653 13.9765 6.35284 13.9 6.27618 13.8781L4.03416 13.4297C3.94666 13.4188 3.88106 13.4734 3.85916 13.55H3.85905Z" fill="white"/>
<path d="M5.41248 12.7516C5.40746 12.7725 5.39838 12.7921 5.38576 12.8094C5.37315 12.8268 5.35724 12.8414 5.33895 12.8526C5.32066 12.8637 5.30035 12.8712 5.27918 12.8745C5.25801 12.8778 5.2364 12.8769 5.21557 12.8719L4.23116 12.5984C4.14366 12.5765 4.09996 12.4891 4.12175 12.4016C4.12677 12.3807 4.13585 12.3611 4.14847 12.3438C4.16109 12.3265 4.17699 12.3118 4.19528 12.3006C4.21357 12.2895 4.23388 12.282 4.25505 12.2787C4.27622 12.2754 4.29783 12.2763 4.31866 12.2813L5.30307 12.5548C5.39057 12.5765 5.43427 12.664 5.41248 12.7515V12.7516Z" fill="#F3F3F3"/>
<path d="M5.4238 12.7517C5.40201 12.8391 5.30356 12.9048 5.21605 12.8719L4.23163 12.5985C4.14413 12.5766 4.08937 12.4781 4.11128 12.3907C4.13318 12.3031 4.23163 12.2375 4.31913 12.2704L5.30356 12.5438C5.39106 12.5657 5.44582 12.6532 5.4238 12.7516V12.7517ZM4.14413 12.3905C4.12223 12.4672 4.16603 12.5547 4.24258 12.5765L5.22701 12.8499C5.30356 12.8718 5.3801 12.828 5.40201 12.7405C5.4238 12.664 5.3801 12.5765 5.30356 12.5547L4.31913 12.2812C4.24258 12.2703 4.16603 12.314 4.14413 12.3906V12.3905Z" fill="white"/>
<path d="M6.95441 12.2267C6.92167 12.3141 6.8231 12.3469 6.74667 12.3141L4.6356 11.4391C4.55905 11.4063 4.51536 11.3079 4.5481 11.2313C4.58096 11.1438 4.67941 11.111 4.75596 11.1438L6.86691 12.0188C6.95441 12.0516 6.98726 12.15 6.95441 12.2266V12.2267Z" fill="#F3F3F3"/>
<path d="M6.96586 12.2375C6.94984 12.2796 6.91782 12.3135 6.8768 12.332C6.83578 12.3504 6.78913 12.3519 6.74705 12.336L4.63608 11.461C4.54858 11.4283 4.51584 11.3298 4.54858 11.2314C4.5646 11.1893 4.59663 11.1554 4.63764 11.1369C4.67866 11.1185 4.72532 11.117 4.76739 11.1329L6.87836 12.0079C6.96586 12.0516 6.9986 12.1501 6.96586 12.2375ZM4.57049 11.2423C4.53775 11.3189 4.57049 11.4064 4.64704 11.4391L6.758 12.3141C6.83455 12.3469 6.9111 12.3031 6.94395 12.2266C6.9767 12.15 6.94395 12.0625 6.86741 12.0298L4.75644 11.1548C4.67989 11.1329 4.59239 11.1658 4.57049 11.2423Z" fill="white"/>
<path d="M6.24379 10.75C6.20009 10.8266 6.11259 10.8594 6.03604 10.8266L5.12819 10.3673C5.05164 10.3344 5.01879 10.236 5.06259 10.1484C5.10629 10.0719 5.19379 10.039 5.27033 10.0719L6.17808 10.5313C6.25474 10.575 6.28759 10.6736 6.24379 10.75Z" fill="#F3F3F3"/>
<path d="M6.25485 10.761C6.21104 10.8485 6.11259 10.8814 6.02509 10.8375L5.11735 10.3781C5.02985 10.3344 4.997 10.236 5.04081 10.1485C5.0845 10.061 5.18306 10.0281 5.27045 10.0719L6.17819 10.5313C6.2658 10.5641 6.29854 10.6736 6.25485 10.761ZM5.07355 10.1594C5.04081 10.236 5.06271 10.3235 5.13926 10.3563L6.04699 10.8158C6.1127 10.8485 6.2002 10.8158 6.2439 10.75C6.27664 10.6735 6.25485 10.586 6.1783 10.5531L5.25939 10.094C5.19379 10.0612 5.10629 10.083 5.07344 10.1595L5.07355 10.1594Z" fill="white"/>
<path d="M7.85114 10.5422C7.79649 10.6188 7.70899 10.6407 7.63244 10.586L5.74014 9.32823C5.6637 9.28442 5.65275 9.18597 5.69645 9.10942C5.74025 9.03287 5.83871 9.01097 5.91526 9.06562L7.8184 10.3344C7.88399 10.3782 7.9059 10.4767 7.85114 10.5422Z" fill="#F3F3F3"/>
<path d="M7.86214 10.5531C7.8075 10.6298 7.6981 10.6516 7.62166 10.6079L5.72942 9.33905C5.65287 9.28441 5.63097 9.18596 5.68561 9.09857C5.74037 9.02191 5.84977 9 5.92632 9.04381L7.81845 10.3125C7.90595 10.3673 7.9169 10.4766 7.86214 10.5531ZM5.70751 9.10941C5.66382 9.175 5.67477 9.27346 5.74026 9.31715L7.64345 10.5861C7.70905 10.6299 7.79655 10.608 7.84035 10.5424C7.88405 10.4767 7.8731 10.3782 7.80761 10.3345L5.9043 9.06571C5.83871 9.02191 5.75121 9.04381 5.7074 9.10941H5.70751Z" fill="white"/>
<path d="M7.44709 8.95623C7.39244 9.02183 7.29399 9.04373 7.22839 8.98897L6.42993 8.36565C6.36433 8.3109 6.35338 8.21245 6.40802 8.14685C6.46267 8.08126 6.56112 8.05935 6.62683 8.11411L7.42518 8.73743C7.49089 8.79219 7.50185 8.89053 7.44709 8.95623Z" fill="#F3F3F3"/>
<path d="M7.45756 8.96712C7.40292 9.04378 7.29352 9.05473 7.21697 8.99998L6.41854 8.37665C6.34199 8.322 6.33104 8.2126 6.38579 8.13617C6.44044 8.05951 6.54984 8.04856 6.62627 8.10332L7.42471 8.72664C7.50137 8.7814 7.51232 8.89069 7.45756 8.96735V8.96712ZM6.40758 8.14689C6.35294 8.21249 6.36389 8.29999 6.42949 8.35463L7.22792 8.97819C7.29352 9.02188 7.38101 9.01093 7.43566 8.94533C7.49042 8.87974 7.47946 8.79224 7.41387 8.73759L6.61543 8.11404C6.54984 8.07035 6.46223 8.0813 6.4077 8.14689H6.40758Z" fill="white"/>
<path d="M9.07611 9.06562C9.01063 9.13133 8.91206 9.13133 8.85741 9.06562L7.22784 7.45786C7.16224 7.39227 7.17308 7.29381 7.22784 7.23905C7.29344 7.17357 7.39189 7.17357 7.44654 7.23905L9.06539 8.84692C9.13099 8.90157 9.13099 9.01097 9.07634 9.06573L9.07611 9.06562Z" fill="#F3F3F3"/>
<path d="M9.07664 9.07666C9.04455 9.10817 9.00137 9.12582 8.95639 9.12582C8.91142 9.12582 8.86824 9.10817 8.83615 9.07666L7.21725 7.4687C7.18567 7.4366 7.16797 7.39338 7.16797 7.34835C7.16797 7.30332 7.18567 7.26009 7.21725 7.22799C7.24934 7.19645 7.29254 7.17877 7.33754 7.17877C7.38255 7.17877 7.42575 7.19645 7.45784 7.22799L9.07664 8.83584C9.15318 8.90143 9.15318 9.01083 9.07664 9.07643V9.07666ZM7.23938 7.2499C7.18462 7.30466 7.18462 7.40311 7.23938 7.45764L8.85806 9.06548C8.91281 9.12024 9.01115 9.12024 9.0658 9.06548C9.12055 9.01083 9.12055 8.91238 9.0658 8.85774L7.44712 7.23906C7.39247 7.18441 7.30486 7.18441 7.23938 7.25001V7.2499Z" fill="white"/>
<path d="M8.97859 7.43599C8.91299 7.49075 8.81454 7.49075 8.75978 7.42504L8.09254 6.65944C8.03801 6.59384 8.04884 6.49539 8.11455 6.44075C8.18004 6.38599 8.2786 6.38599 8.33324 6.45158L9.00049 7.21729C9.05513 7.27194 9.04418 7.37039 8.97859 7.43599Z" fill="#F3F3F3"/>
<path d="M8.989 7.43599C8.91245 7.50159 8.814 7.49075 8.74829 7.42504L8.08115 6.65944C8.01555 6.59384 8.0265 6.48444 8.10305 6.41884C8.1796 6.35313 8.27805 6.36408 8.34365 6.42979L9.01091 7.19528C9.06555 7.27195 9.06555 7.38135 8.989 7.43599ZM8.114 6.44075C8.04829 6.49539 8.04829 6.58289 8.0921 6.64849L8.75936 7.41409C8.814 7.46885 8.9015 7.4798 8.9671 7.42504C9.0327 7.3704 9.0327 7.28278 8.989 7.2173L8.32175 6.45158C8.2671 6.3861 8.17949 6.3861 8.114 6.44075Z" fill="white"/>
<path d="M10.5535 7.85165C10.4769 7.90629 10.3785 7.88439 10.3347 7.80784L9.05502 5.91559C9.01122 5.83905 9.03312 5.7406 9.09871 5.6969C9.17526 5.64226 9.27371 5.66416 9.31752 5.74071L10.5862 7.63284C10.641 7.70939 10.6191 7.80784 10.5535 7.85153V7.85165Z" fill="#F3F3F3"/>
<path d="M10.5528 7.86258C10.4762 7.91733 10.3668 7.89532 10.3121 7.81888L9.04345 5.92661C8.98881 5.85006 9.01071 5.74077 9.09809 5.68612C9.17464 5.63137 9.28404 5.65327 9.33879 5.72982L10.6074 7.62198C10.6621 7.70948 10.6402 7.80793 10.5528 7.86258ZM9.10893 5.70792C9.04334 5.75161 9.02144 5.83911 9.06524 5.90482L10.3339 7.79698C10.3777 7.86258 10.4652 7.87353 10.5416 7.82972C10.6073 7.78603 10.6292 7.69853 10.5854 7.63293L9.31689 5.75161C9.27309 5.68612 9.17464 5.66411 9.10916 5.70792H9.10893Z" fill="white"/>
<path d="M10.7824 6.23289C10.7059 6.27658 10.6075 6.25479 10.5638 6.17824L10.0606 5.29229C10.0169 5.21574 10.0496 5.11729 10.1263 5.07349C10.2028 5.02979 10.3013 5.05158 10.345 5.12824L10.848 6.01408C10.8809 6.09063 10.859 6.18908 10.7826 6.23289H10.7824Z" fill="#F3F3F3"/>
<path d="M10.783 6.24385C10.6955 6.28754 10.597 6.26575 10.5534 6.18909L10.0501 5.30324C10.0065 5.22658 10.0284 5.11729 10.1159 5.07349C10.2034 5.02979 10.3018 5.05158 10.3455 5.12824L10.8486 6.01409C10.8924 6.09064 10.8705 6.18909 10.7831 6.24385H10.783ZM10.1268 5.08444C10.0611 5.12813 10.0284 5.21563 10.0721 5.28134L10.5753 6.1673C10.6189 6.23278 10.7064 6.2548 10.772 6.22194C10.8378 6.17825 10.8705 6.09064 10.8268 6.02504L10.3236 5.13908C10.2909 5.0736 10.1924 5.04063 10.1268 5.08444Z" fill="white"/>
<path d="M12.2374 6.95474C12.1501 6.98748 12.0625 6.95474 12.0297 6.87819L11.1438 4.76713C11.1111 4.69058 11.1548 4.59213 11.2313 4.55927C11.3188 4.52653 11.4063 4.55927 11.439 4.63582L12.3249 6.74677C12.3578 6.82332 12.3141 6.92177 12.2374 6.95451V6.95474Z" fill="#F3F3F3"/>
<path d="M12.2379 6.96577C12.1505 6.99851 12.0521 6.96577 12.0082 6.87815L11.1223 4.76733C11.1064 4.72525 11.1078 4.67859 11.1263 4.63758C11.1447 4.59656 11.1787 4.56454 11.2207 4.54852C11.3082 4.51578 11.4067 4.54852 11.4505 4.63602L12.3363 6.74696C12.3692 6.82351 12.3255 6.92196 12.238 6.96577H12.2379ZM11.2426 4.57043C11.1661 4.60317 11.1332 4.69078 11.1661 4.75638L12.0519 6.8672C12.0847 6.94375 12.1722 6.97649 12.2487 6.94375C12.3253 6.91101 12.3583 6.8234 12.3253 6.7578L11.4394 4.64686C11.3956 4.57031 11.3191 4.53746 11.2425 4.57031L11.2426 4.57043Z" fill="white"/>
<path d="M12.7729 5.40168C12.6854 5.43442 12.5979 5.39062 12.5652 5.30323L12.248 4.34063C12.2152 4.26408 12.2699 4.16563 12.3464 4.14384C12.4229 4.12194 12.5214 4.15479 12.5541 4.24229L12.8714 5.20478C12.9041 5.28133 12.8604 5.36883 12.7729 5.40157V5.40168Z" fill="#F3F3F3"/>
<path d="M12.7848 5.41257C12.7428 5.42843 12.6961 5.42697 12.6551 5.40852C12.6142 5.39006 12.5821 5.35612 12.5661 5.31412L12.2489 4.35162C12.2161 4.26412 12.2708 4.16578 12.3584 4.13293C12.4004 4.11707 12.4471 4.11853 12.4881 4.13699C12.5291 4.15544 12.5611 4.18938 12.5771 4.23138L12.8942 5.19388C12.9161 5.28138 12.8723 5.37983 12.7848 5.41257ZM12.3583 4.15483C12.2817 4.17662 12.2379 4.26412 12.2598 4.34067L12.5771 5.30328C12.5989 5.37983 12.6864 5.41257 12.763 5.39067C12.8396 5.36888 12.8833 5.28138 12.8614 5.20483L12.5442 4.24222C12.5386 4.22365 12.5292 4.20647 12.5166 4.19178C12.5039 4.1771 12.4883 4.16524 12.4708 4.15699C12.4532 4.14873 12.4341 4.14427 12.4148 4.14387C12.3954 4.14348 12.3761 4.14718 12.3583 4.15472V4.15483Z" fill="white"/>
<path d="M14.0636 6.3969C13.9761 6.4188 13.8886 6.36416 13.8777 6.27655L13.4183 4.03441C13.3964 3.94692 13.4621 3.87037 13.5495 3.84846C13.6371 3.82656 13.7245 3.88121 13.7354 3.96882L14.1949 6.21106C14.2058 6.2875 14.1511 6.375 14.0636 6.3969Z" fill="#F3F3F3"/>
<path d="M14.0641 6.40785C13.9656 6.42976 13.8781 6.36405 13.8562 6.27655L13.3968 4.0344C13.3749 3.9469 13.4406 3.84845 13.5281 3.8375C13.6266 3.81559 13.7141 3.8813 13.7359 3.9688L14.1954 6.21106C14.2172 6.29845 14.1625 6.38606 14.0641 6.40785ZM13.55 3.8594C13.4734 3.87035 13.4187 3.9469 13.4297 4.0344L13.8891 6.27666C13.9 6.35309 13.9874 6.40785 14.0641 6.38595C14.1406 6.375 14.1953 6.29845 14.1843 6.21095L13.7249 3.96869C13.7031 3.89226 13.6266 3.84845 13.5499 3.8594H13.55Z" fill="white"/>
<path d="M14.8955 4.97504C14.808 4.98599 14.7314 4.93134 14.7095 4.84384L14.5783 3.83752C14.5674 3.75002 14.633 3.67347 14.7206 3.66252C14.808 3.65157 14.8845 3.70633 14.9064 3.79383L15.0376 4.80003C15.0486 4.88754 14.983 4.96409 14.8955 4.97504Z" fill="#F3F3F3"/>
<path d="M14.8957 4.98597C14.7972 4.99693 14.7097 4.93133 14.6988 4.84372L14.5676 3.83752C14.5566 3.75002 14.6222 3.66252 14.7207 3.65156C14.8191 3.64072 14.9066 3.70632 14.9176 3.79382L15.0488 4.80002C15.0597 4.88752 14.9941 4.97502 14.8957 4.98597ZM14.7316 3.67347C14.6551 3.68442 14.5894 3.76097 14.6003 3.83752L14.7316 4.84383C14.7426 4.92038 14.8191 4.97502 14.8957 4.96407C14.9722 4.95323 15.0379 4.87657 15.027 4.80002L14.8957 3.79382C14.8847 3.71727 14.8082 3.66252 14.7316 3.67347Z" fill="white"/>
<path d="M16.077 28.9391C23.229 28.9391 29.027 23.1411 29.027 15.9891C29.027 8.83697 23.229 3.03906 16.077 3.03906C8.92487 3.03906 3.12695 8.83697 3.12695 15.9891C3.12695 23.1411 8.92487 28.9391 16.077 28.9391Z" fill="url(#paint2_linear_1334_471)" fill-opacity="0.2"/>
<path d="M25.0454 7.77502L14.6001 14.4688H14.5891V14.4797L14.5782 14.4906L8.05957 25.2423L17.6408 17.5313L17.6517 17.5205V17.5095L25.0455 7.77514L25.0454 7.77502Z" fill="currentColor" fill-opacity="0.05"/>
<path d="M24.8484 7.15155L14.5234 14.4906L17.5859 17.5312L24.8484 7.15155Z" fill="#CD151E"/>
<path d="M14.5342 14.4688L16.0764 15.989L24.8482 7.15155L14.5342 14.4688Z" fill="#FA5153"/>
<path d="M14.534 14.4688L17.5965 17.5093L7.27148 24.8484L14.534 14.4687V14.4688Z" fill="#ACACAC"/>
<path d="M7.27148 24.8484L16.0761 15.989L14.5339 14.4687L7.27148 24.8484Z" fill="#EEEEEE"/>
<defs>
<linearGradient id="paint0_linear_1334_471" x1="16" y1="30" x2="16" y2="2" gradientUnits="userSpaceOnUse">
<stop offset="0.25" stop-color="#DBDBDA"/>
<stop offset="1" stop-color="white"/>
</linearGradient>
<radialGradient id="paint1_radial_1334_471" cx="0" cy="0" r="1" gradientUnits="userSpaceOnUse" gradientTransform="translate(17.8193 13.1554) scale(15.8073 15.8073)">
<stop stop-color="#2ABCE1"/>
<stop offset="0.11363" stop-color="#2ABBE1"/>
<stop offset="1" stop-color="#3375F8"/>
</radialGradient>
<linearGradient id="paint2_linear_1334_471" x1="15.8309" y1="12.2861" x2="9.78662" y2="23.1302" gradientUnits="userSpaceOnUse">
<stop stop-opacity="0"/>
<stop offset="1"/>
</linearGradient>
</defs>
</svg>
