<svg width="32" height="32" viewBox="0 0 32 32" fill="none" xmlns="http://www.w3.org/2000/svg">
<circle cx="16" cy="16" r="14" fill="#3C60A7"/>
<path d="M7.96729 14.9095C7.96466 14.1085 8.55704 13.6076 9.23816 13.5919C9.40237 13.5901 9.59872 13.6692 9.76282 13.7352C9.82297 13.7595 9.87878 13.782 9.92709 13.7981C10.0967 13.8555 10.1359 13.8424 10.2063 13.8476C10.3603 13.8581 10.556 13.8503 10.5925 13.6911H10.7622L10.3629 15.0451H10.2063C10.1411 14.5103 9.92969 13.9989 9.44431 14.0042C9.18335 14.0094 8.92239 14.1111 8.8389 14.4764C8.73712 14.9173 8.95892 15.1834 9.52783 15.7339C9.89578 16.0939 10.1776 16.4018 10.1802 16.8583C10.1854 17.7375 9.47562 18.2097 8.75278 18.2123C8.44586 18.2139 8.2677 18.1453 8.12238 18.0894C8.01688 18.0488 7.92871 18.0149 7.82114 18.0193C7.80551 18.0199 7.78726 18.0202 7.76715 18.0206C7.61234 18.0233 7.3457 18.028 7.30182 18.1758H7.1322L7.57843 16.5557H7.74808C7.58627 17.2366 7.99597 17.8001 8.58313 17.8001C8.9798 17.8001 9.34775 17.4532 9.35818 17.2314C9.37494 16.7979 9.29877 16.7279 9.05679 16.5058C8.95947 16.4164 8.83536 16.3025 8.67969 16.1304L8.61475 16.0585C8.28683 15.6958 7.96973 15.3451 7.96729 14.9095Z" fill="white"/>
<path d="M10.8953 14.0407L10.9448 13.7746H12.4297L12.3566 14.0407C12.1002 14.0407 12.102 14.1778 12.1033 14.2745C12.1034 14.2811 12.1035 14.2876 12.1035 14.2938V16.3L12.14 16.2765L13.1186 14.6955V14.3199C13.1212 14.1137 13.0221 14.0459 12.7924 14.0407L12.842 13.7746H14.366L14.3164 14.0407C14.0972 14.0407 14.019 14.0459 14.0268 14.3303C14.0294 14.3877 14.0268 14.4607 14.0268 14.5364V16.2035L14.0503 16.24L15.175 14.4033C15.2246 14.3094 15.2402 14.2494 15.235 14.1737C15.2265 14.0269 15.0931 14.0311 14.8814 14.0376C14.8335 14.0391 14.7816 14.0407 14.7261 14.0407L14.7757 13.7746H16.1432L16.0831 14.0407C15.8248 14.0459 15.7491 14.1711 15.6473 14.3538C15.6473 14.3538 13.4292 18.0141 13.3248 18.1732C13.2204 18.3324 13.1186 18.1732 13.1186 18.1732L13.1317 15.4417V15.3582C13.1317 15.3582 11.5268 18.0167 11.4276 18.1758C11.3285 18.335 11.258 18.1758 11.258 18.1758V14.5364C11.258 14.0406 11.1634 14.0406 10.9034 14.0407H10.8953Z" fill="white"/>
<path d="M16.2997 14.0407L16.3493 13.7746H18.1212L18.0612 14.0407C17.7429 14.0459 17.5315 14.0746 17.4454 14.3668L16.5999 17.4871C16.5922 17.5134 16.5835 17.538 16.575 17.5617C16.5576 17.6109 16.5416 17.6561 16.5398 17.7036L16.5391 17.7176C16.5337 17.8231 16.5294 17.9047 16.8295 17.9097L16.7695 18.1758H14.9923L15.0419 17.9097C15.3733 17.9123 15.6212 17.8028 15.6708 17.5966L16.5059 14.4894C16.5346 14.3746 16.5711 14.2833 16.5659 14.2233C16.5529 14.0824 16.425 14.0355 16.2997 14.0407Z" fill="white"/>
<path d="M18.3091 14.0407L18.3691 13.7746H21.4276L21.1145 14.946H20.9448C20.9866 14.2259 20.6813 14.1424 20.1698 14.1476C20.153 14.1479 20.137 14.1482 20.1218 14.1483C19.8727 14.1516 19.8317 14.1521 19.7235 14.5233L19.4574 15.5878H19.627C19.7601 15.593 20.1306 15.5878 20.3055 15.1417L20.4751 15.1651L20.162 16.4592H19.9558C19.9508 16.4241 19.9494 16.3824 19.9484 16.3344C19.9474 16.2824 19.9468 16.223 19.9427 16.1565C19.9323 15.9583 19.8279 15.9113 19.46 15.9139H19.3765L18.9902 17.2444C18.9726 17.3304 18.9456 17.4295 18.9267 17.4991L18.9172 17.534C18.8337 17.8523 19.0007 17.9097 19.413 17.9097L19.3399 18.1758H17.4532L17.5262 17.9097C17.7637 17.9019 17.9594 17.8158 18.0221 17.534L18.8311 14.5129C18.8571 14.4033 18.8337 14.4346 18.8546 14.3668C18.943 14.0848 18.6328 14.0633 18.3775 14.0456C18.3542 14.044 18.3312 14.0424 18.3091 14.0407Z" fill="white"/>
<path d="M21.3441 14.946L21.6703 13.7746H24.6818L24.3686 14.946H24.186C24.2251 14.3981 24.0999 14.1476 23.4735 14.1476L22.6515 17.2784C22.6342 17.3555 22.614 17.426 22.5967 17.4864C22.5854 17.5261 22.5753 17.5614 22.568 17.5914C22.5184 17.7871 22.675 17.9541 22.9308 17.9306L22.8812 18.1732H20.8848L20.9448 17.9071L20.9635 17.9067C21.3383 17.8992 21.6347 17.8933 21.6938 17.3749L22.5758 14.1476C22.2392 14.1476 22.0252 14.2181 21.8269 14.3903C21.6496 14.5484 21.6329 14.6075 21.5586 14.8706C21.552 14.894 21.5449 14.9191 21.5372 14.946H21.3441Z" fill="white"/>
<path d="M13.8702 17.9697C13.8989 17.8106 14.0085 17.6801 14.1129 17.6801C14.2173 17.6801 14.2851 17.8106 14.259 17.9697C14.2303 18.1289 14.1207 18.2593 14.0163 18.2593C13.9093 18.2593 13.8441 18.1289 13.8702 17.9697Z" fill="white"/>
<path d="M16.9652 17.9697C16.9939 17.8106 17.1035 17.6801 17.2079 17.6801C17.3123 17.6801 17.3801 17.8106 17.354 17.9697C17.3253 18.1289 17.2157 18.2593 17.1113 18.2593C17.0043 18.2593 16.9391 18.1289 16.9652 17.9697Z" fill="white"/>
<path d="M19.627 17.9697C19.6557 17.8106 19.7653 17.6801 19.8697 17.6801C19.9741 17.6801 20.0289 17.8106 20.0028 17.9697C19.9741 18.1289 19.8645 18.2593 19.7601 18.2593C19.6557 18.2593 19.6009 18.1289 19.627 17.9697Z" fill="white"/>
<path d="M10.1098 17.9802C10.1359 17.821 10.235 17.6906 10.3394 17.6906C10.4438 17.6932 10.5116 17.821 10.4855 17.9802C10.4568 18.1393 10.3472 18.2697 10.2429 18.2697C10.1385 18.2697 10.0837 18.1393 10.1098 17.9802Z" fill="white"/>
<path d="M23.1813 17.9802C23.21 17.821 23.3196 17.6906 23.424 17.6906C23.5284 17.6932 23.5962 17.821 23.5701 17.9802C23.5414 18.1393 23.4318 18.2697 23.3274 18.2697C23.2204 18.2697 23.1552 18.1393 23.1813 17.9802Z" fill="white"/>
<path fill-rule="evenodd" clip-rule="evenodd" d="M12.1065 25.2147C13.3408 25.7365 14.6508 26 16 26C17.3492 26 18.6592 25.7339 19.8935 25.2095C21.0835 24.706 22.1534 23.9859 23.072 23.0676C23.9906 22.1492 24.7108 21.0796 25.2145 19.8899C25.7364 18.6559 26 17.3462 26 15.9974C26 14.6486 25.7364 13.3389 25.2145 12.1049C24.7108 10.9152 23.9906 9.84555 23.072 8.92722C22.1534 8.00888 21.0835 7.28882 19.8935 6.78528C18.6592 6.26349 17.3492 6 16 6C14.6508 6 13.3408 6.26349 12.1065 6.78528C10.9139 7.28882 9.84656 8.0141 8.92798 8.93243C8.0094 9.85077 7.28915 10.9204 6.78549 12.1101C6.26358 13.3441 6 14.6538 6 16.0026C6 17.3514 6.26358 18.6611 6.78549 19.8951C7.28915 21.0848 8.0094 22.1544 8.92798 23.0728C9.84656 23.9911 10.9165 24.7112 12.1065 25.2147ZM16.2453 25.426V22.7806H19.2098C18.9097 23.1745 18.5757 23.5528 18.2077 23.9129C17.3257 24.7738 16.501 25.2773 16.2453 25.426ZM13.7949 23.8946C13.4348 23.5424 13.106 23.1693 12.8137 22.7806H15.7234V25.4C15.4285 25.2278 14.6378 24.7242 13.7949 23.8946ZM14.7683 25.3973C12.7406 25.1364 10.8617 24.2311 9.37683 22.7806H12.1691C12.5345 23.3076 12.9624 23.8085 13.4426 24.2807C13.9384 24.7686 14.4134 25.1417 14.7683 25.3973ZM18.56 24.2964C19.048 23.8216 19.4812 23.3128 19.8544 22.7806H22.6206C21.1409 24.2259 19.2698 25.1312 17.2474 25.3947C17.618 25.1286 18.0799 24.7634 18.56 24.2964ZM23.119 22.2588H20.1962C20.2014 22.2484 20.2067 22.2405 20.2145 22.2301C20.739 21.3587 21.107 20.43 21.3079 19.4647H24.8309C24.4316 20.4795 23.8549 21.424 23.119 22.2588ZM19.5778 22.2588H16.2453V19.462H20.773C20.5799 20.3282 20.2432 21.1657 19.7709 21.951C19.7083 22.0553 19.6456 22.157 19.5778 22.2588ZM15.7234 22.2588H12.4457C12.3967 22.1853 12.35 22.1106 12.3041 22.0363C12.2816 21.9998 12.2593 21.9635 12.2369 21.9275C11.7751 21.1474 11.4462 20.3204 11.2584 19.4647H15.7234V22.2588ZM11.8299 22.2588H8.88101C8.14249 21.424 7.56836 20.4795 7.1691 19.462H10.726C10.9217 20.4169 11.2818 21.3379 11.7959 22.2014C11.8064 22.2223 11.8194 22.2405 11.8299 22.2588ZM25.0162 18.9429H6.9812C6.6785 18.0037 6.51932 17.0149 6.51932 16C6.51932 14.9904 6.67587 14.0068 6.97861 13.0728H25.0214C25.3241 14.0042 25.4807 14.9904 25.4807 16C25.4807 17.0149 25.3215 18.0063 25.0162 18.9429ZM24.8361 12.5484H21.2218C21.0261 11.5909 20.6686 10.6648 20.1545 9.79599C20.1469 9.78647 20.1407 9.77557 20.1348 9.76532C20.1326 9.76151 20.1305 9.75778 20.1284 9.75424H23.132C23.868 10.5891 24.4395 11.5335 24.8361 12.5484ZM20.6895 12.5484H16.2453V9.75162H19.5151C19.5802 9.85312 19.6458 9.95544 19.7056 10.0595C20.1701 10.8474 20.5016 11.6848 20.6895 12.5484ZM15.7234 12.5484H11.1879C11.381 11.6796 11.7202 10.8395 12.1978 10.049C12.2578 9.94992 12.3205 9.85339 12.3857 9.75424H15.7234V12.5484ZM10.6529 12.5484H7.16388C7.56055 11.5335 8.13205 10.5891 8.86795 9.75424H11.7698C11.7646 9.75946 11.762 9.76468 11.7594 9.7699C11.2244 10.6465 10.8539 11.5805 10.6529 12.5484ZM22.6388 9.23245H19.7944C19.4264 8.69763 18.9984 8.18887 18.5183 7.70883C18.0433 7.23663 17.5866 6.86615 17.2187 6.59744C19.2594 6.85834 21.1487 7.77145 22.6388 9.23245ZM19.1524 9.23245H16.2453V6.57397C16.535 6.74615 17.3126 7.24966 18.1503 8.07932C18.5183 8.44717 18.8549 8.83069 19.1524 9.23245ZM15.7234 9.23245H12.7589C13.0642 8.83328 13.4061 8.44717 13.7845 8.08453C14.6247 7.26794 15.4154 6.76962 15.7234 6.58963V9.23245ZM12.1117 9.23245H9.36118C10.8434 7.7793 12.7197 6.86877 14.7448 6.60266C14.3716 6.86877 13.9123 7.23141 13.4322 7.6958C12.9337 8.17844 12.4927 8.69241 12.1117 9.23245Z" fill="white"/>
</svg>
