<svg width="32" height="32" viewBox="0 0 32 32" fill="none" xmlns="http://www.w3.org/2000/svg">
<path fill-rule="evenodd" clip-rule="evenodd" d="M8.11832 2H23.798C25.8918 2 27.6041 3.62845 27.6578 5.67089L28 18.6758L27.2532 26.878C27.0923 28.6452 25.5751 30 23.7569 30H8.12255C6.29065 30 4.7668 28.6253 4.62328 26.8433L4 19.104L4.25794 5.69687C4.29744 3.64401 6.01417 2 8.11832 2ZM7.85112 6.63669H23.98C24.555 6.63669 25.0238 7.08688 25.0328 7.64797L25.2228 19.3728C25.2302 19.8238 24.8778 20.2029 24.4171 20.2398L21.3335 20.4864C20.5139 20.552 19.883 21.2201 19.883 22.0226V25.6459C19.883 26.4025 19.2544 27.0159 18.479 27.0159H13.4333C12.6579 27.0159 12.0293 26.4025 12.0293 25.6459V22.0226C12.0293 21.2201 11.3983 20.552 10.5788 20.4864L7.48995 20.2394C7.03144 20.2027 6.6798 19.8267 6.68416 19.3778L6.79815 7.65446C6.80363 7.09081 7.27345 6.63669 7.85112 6.63669Z" fill="#2274E5"/>
<path d="M23.9804 6.63672H7.85157C7.2739 6.63672 6.80408 7.09084 6.7986 7.65449L6.68461 19.3779C6.68025 19.8268 7.03189 20.2027 7.4904 20.2394L10.5792 20.4865C11.3988 20.552 12.0297 21.2202 12.0297 22.0226V22.4006H19.8834V22.0226C19.8834 21.2202 20.5144 20.552 21.3339 20.4865L24.4176 20.2398C24.8782 20.203 25.2306 19.8238 25.2233 19.3729L25.0333 7.648C25.0242 7.08691 24.5555 6.63672 23.9804 6.63672Z" fill="white"/>
<path d="M19.883 22.4006V25.6459C19.883 26.4025 19.2544 27.0159 18.479 27.0159H13.4333C12.6579 27.0159 12.0293 26.4025 12.0293 25.6459V22.4006H19.883Z" fill="#BEC2C8"/>
<path d="M12.7756 13.367L11.6787 14.4159C12.7171 15.315 15.044 17.3401 16.0443 18.2477C17.4133 16.1242 20.9877 12.2253 22.6038 10.5413C22.4868 10.4129 22.1738 10.0746 21.8579 9.74927C19.3482 11.7187 16.5416 14.4088 15.452 15.5077L12.7756 13.367Z" fill="#2C3B4A"/>
</svg>
