<svg width="32" height="32" viewBox="0 0 32 32" fill="none" xmlns="http://www.w3.org/2000/svg">
<circle cx="16" cy="16" r="14" fill="#1A1919"/>
<path d="M25.7525 15.4383L26 14.5895L25.1337 14.6144C25.0594 14.6144 24.5396 14.5895 24.0198 14.215H24.1436C24.6634 14.215 25.1832 13.8904 25.3812 13.4411L25.7525 12.6172C25.2822 12.6172 24.8614 12.5673 24.8614 12.5673C24.8614 12.5673 24.5149 12.5173 24.1436 12.1179C23.8713 11.8433 23.5248 11.6935 23.1535 11.6935C22.9802 11.6935 22.8564 11.7184 22.7327 11.7684C22.7574 11.6935 22.7822 11.6436 22.7822 11.5687C22.9059 10.7947 22.4109 10.1956 22.4109 10.1956L21.7673 9.39667L21.3713 10.3454C21.3713 10.3454 21.2723 10.57 21.099 10.6699C21.0495 10.3953 20.901 10.0707 20.6287 9.77115C20.0842 9.19695 19.4406 9.12205 19.0941 9.12205C18.9455 9.12205 18.8218 9.14702 18.797 9.14702L18.0049 9.29681C18.0545 9.12205 18.1535 8.82247 18.3267 8.54785L18.7475 7.87379L17.6337 7.99861L17.2871 7.24965L16.6188 7.59917L16 7L15.4059 7.62413L14.7376 7.27462L14.3911 8.02358L13.302 7.89875L13.7228 8.57282C13.896 8.84743 13.995 9.14702 14.0446 9.32178L13.302 9.17198H13.2772C13.2277 9.17198 13.1287 9.14702 12.9554 9.14702C12.6089 9.14702 11.9653 9.22191 11.4208 9.79612C11.1238 10.0957 11 10.4202 10.9505 10.6949C10.7772 10.595 10.6782 10.3703 10.6782 10.3703L10.2822 9.42164L9.61386 10.2455C9.5396 10.3454 9.14356 10.8946 9.24257 11.5936C9.24257 11.6685 9.26733 11.7184 9.29208 11.7933C9.16832 11.7434 9.0198 11.7184 8.87129 11.7184C8.5 11.7184 8.15347 11.8682 7.88119 12.1429C7.48515 12.5423 7.16337 12.5922 7.16337 12.5922C7.16337 12.5922 6.81683 12.6671 6.27228 12.6422L6.64356 13.466C6.84158 13.9154 7.36139 14.2399 7.88119 14.2399H8.00495C7.48515 14.6144 6.96535 14.6394 6.89109 14.6394L6 14.5895L6.27228 15.4383C6.39604 15.8627 6.84158 16.5867 7.70792 16.6616C7.60891 17.061 7.41089 17.4854 6.96535 17.6852L6.32178 17.9598L6.66832 18.5839C6.86634 18.9085 7.33663 19.3079 8.00495 19.3079C8.15347 19.3079 8.30198 19.2829 8.42574 19.258C8.4505 19.4078 8.5 19.5576 8.5495 19.7074C8.74752 20.3065 8.57426 20.7309 8.57426 20.7309L8.25248 21.405L8.9703 21.6047C8.9703 21.6047 9.19307 21.6796 9.46535 21.6796C9.58911 21.6796 9.71287 21.6546 9.81188 21.6297C9.88614 21.6047 9.98515 21.5798 10.0594 21.5548C10.1584 21.7295 10.2574 21.8793 10.4059 22.0042C10.8762 22.4785 11.5198 22.7282 12.3366 22.7282H12.9307L11.7178 23.2275L12.6337 23.6768C12.9802 23.8516 13.3762 24.0264 13.7723 24.1761L13.6485 24.5007L13.9703 24.6505C13.995 24.6755 14.6139 24.9501 15.6287 25H16.3713C17.3861 24.9501 18.0049 24.6755 18.0297 24.6505L18.3515 24.5007L18.2277 24.1761C18.6485 24.0264 19.0693 23.8266 19.3911 23.6519L20.3069 23.2025L19.0941 22.7032H19.6881C20.5049 22.7032 21.1733 22.4535 21.6188 21.9792C21.7426 21.8544 21.8663 21.6796 21.9653 21.5298C22.0396 21.5548 22.1139 21.5798 22.2129 21.6047C22.3119 21.6297 22.4356 21.6546 22.5594 21.6546C22.8317 21.6546 23.0545 21.6047 23.0545 21.6047L23.7723 21.405L23.4505 20.7309C23.4505 20.706 23.2772 20.3065 23.4752 19.7074C23.5248 19.5576 23.5743 19.4078 23.599 19.258C23.7228 19.2829 23.8713 19.3079 24.0198 19.3079C24.8861 19.3079 25.2822 18.7087 25.3564 18.5589L25.703 17.9348L25.0594 17.6602C24.6139 17.4605 24.3911 17.0361 24.3168 16.6366C25.1584 16.5867 25.6287 15.8627 25.7525 15.4383ZM16 9.57143C15.3069 9.57143 14.7871 9.79612 14.6881 10.0707L16 10.595L17.3119 10.0707C17.2129 9.79612 16.6931 9.57143 16 9.57143ZM16.0248 23.4771H16C15.5792 23.4771 15.0099 23.4022 14.7376 23.3024L14.3911 24.2261C14.6139 24.301 15.3564 24.4508 16 24.4508C16.6436 24.4508 17.4109 24.301 17.6089 24.2261L17.2871 23.3024C17.0149 23.4022 16.4455 23.4771 16.0248 23.4771Z" fill="white"/>
<path fill-rule="evenodd" clip-rule="evenodd" d="M17.5592 9.39687C17.2621 9.14722 16.6928 8.92253 15.9998 8.92253C15.3067 8.92253 14.7621 9.14722 14.4404 9.39687C14.4404 9.39687 14.3661 8.84764 14.0443 8.34833L14.6136 8.42322L14.9106 7.79909L15.4304 8.09868L15.975 7.54944L16.5196 8.09868L17.0889 7.79909L17.3859 8.42322L17.9552 8.34833C17.6582 8.84764 17.5592 9.39687 17.5592 9.39687ZM14.7374 8.67288L14.5889 8.64791L14.4651 8.59798C14.5394 8.74777 14.5889 8.89757 14.6136 9.02239C14.9849 8.79771 15.5047 8.67288 16.0245 8.67288C16.5691 8.67288 17.0641 8.79771 17.4602 9.02239C17.4849 8.89757 17.5344 8.74777 17.6087 8.59798L17.3116 8.64791L17.2374 8.49812L17.0394 8.07371L16.6681 8.27343L16.5196 8.34833L16.3958 8.24847L16.0245 7.84902L15.6285 8.24847L15.5295 8.37329L15.3809 8.2984L15.0097 8.09868L14.8116 8.52309L14.7374 8.67288Z" fill="currentColor"/>
<path d="M20.0592 12.3428C21.371 13.0668 22.5592 14.2651 22.7572 15.8879C23.0542 17.5106 23.7473 17.91 23.7473 17.91C23.2027 17.6354 22.8562 16.9114 22.7819 16.6618C22.6829 18.0848 21.9899 19.0585 21.1978 20.0071C20.777 20.5064 20.6285 20.9808 20.6285 20.9808C20.6285 20.9808 20.7027 20.4565 21.074 20.0071C21.8166 19.1084 22.5344 17.96 22.5839 16.6618C22.6087 15.7381 22.3859 14.9891 22.0146 14.3899C22.2126 15.039 22.1879 15.813 21.4948 16.537C21.4948 16.537 22.8809 14.8643 20.9503 13.1666C20.4017 12.7026 19.8152 12.3662 19.3716 12.1117C19.1947 12.0102 19.0405 11.9218 18.9205 11.8435C20.48 12.3677 21.2473 11.7935 21.2473 11.7935C20.7522 12.2429 20.1087 12.2429 19.7126 12.168C19.8364 12.218 19.9354 12.2679 20.0592 12.3428Z" fill="currentColor"/>
<path fill-rule="evenodd" clip-rule="evenodd" d="M24.1681 16.2873C25.0592 16.2873 25.3809 15.3636 25.3809 15.3137L25.48 14.9891H25.1334C25.0097 14.9891 24.0196 14.9641 23.3265 14.0654L23.277 13.9905L23.2534 13.9604C22.7925 13.373 22.3726 12.8379 21.5938 12.5924C21.6186 12.5675 21.6433 12.5425 21.6928 12.5175C22.1136 12.2429 22.3364 11.9184 22.4106 11.5189C22.5097 10.9447 22.1384 10.4704 22.1136 10.4454L21.8661 10.1209L21.7176 10.4953C21.7176 10.5203 21.4453 11.1195 20.9007 11.1195H20.7522C20.777 10.8449 20.7275 10.4454 20.3562 10.0709C19.9106 9.5966 19.3661 9.54666 19.0938 9.54666C18.9884 9.54666 18.9079 9.55925 18.8612 9.56655C18.8421 9.56953 18.8287 9.57163 18.8215 9.57163L18.4503 9.64653L18.673 9.94611C18.8463 10.1958 19.0196 10.6202 18.8215 10.8698C18.7715 10.9203 18.6989 10.9595 18.619 11.0026C18.5804 11.0234 18.5401 11.0452 18.4998 11.0695L18.4605 11.0892C18.2173 11.2106 17.9057 11.3662 17.9057 11.7686C17.9057 12.0432 18.1037 12.3178 18.4998 12.5675C19.6136 13.2665 20.3067 14.0155 20.6037 14.8393C21.074 16.0876 20.4552 16.8116 19.8859 17.1861L19.6136 17.3608L19.8364 17.5855C19.8611 17.6105 20.1582 17.8601 20.5542 17.91H20.777C21.0493 17.91 21.272 17.8601 21.4453 17.8102C21.4111 17.8791 21.3651 17.9362 21.3155 17.9978C21.2933 18.0254 21.2703 18.0539 21.2473 18.0848C20.9007 18.4843 20.5047 18.659 19.9106 18.659H19.6879L19.6631 18.8837L19.663 18.8921C19.6618 18.9681 19.6555 19.3482 20.0344 19.6826C20.0839 19.7325 20.1582 19.7824 20.2324 19.8074C19.9602 20.0571 19.7126 20.4565 19.6631 21.1805C19.6136 21.7797 19.4899 22.0044 19.4651 22.0044L19.2176 22.3788H19.6631C20.3809 22.3788 20.9503 22.1791 21.3215 21.7797C21.5443 21.555 21.6681 21.2804 21.7671 21.0307C21.8908 21.1306 22.0641 21.2304 22.2621 21.2804C22.3364 21.3053 22.4354 21.3053 22.5344 21.3053C22.6807 21.3053 22.8135 21.2781 22.8829 21.2638C22.9074 21.2588 22.924 21.2554 22.9305 21.2554L23.2027 21.1805L23.079 20.9059C23.079 20.903 23.0757 20.8935 23.0702 20.8777C23.0284 20.7569 22.86 20.2702 23.079 19.6077C23.178 19.2831 23.2522 18.9836 23.277 18.7589C23.4503 18.8587 23.6978 18.9336 23.9948 18.9336C24.6236 18.9336 24.9264 18.5021 24.9957 18.4034C25.0027 18.3933 25.0074 18.3867 25.0097 18.3844L25.1582 18.1347L24.9106 18.0349C24.0938 17.6854 23.8958 16.7616 23.871 16.2623C23.9453 16.2873 24.0196 16.2873 24.1186 16.2873H24.1681ZM24.8364 18.2596C24.8364 18.2596 24.5889 18.684 24.0443 18.684C23.376 18.684 23.1037 18.2596 23.1037 18.2596C23.1037 18.2596 23.1532 18.7838 22.9057 19.5078C22.6087 20.3816 22.9057 21.0057 22.9057 21.0057C22.9057 21.0057 22.7572 21.0557 22.5592 21.0557C22.4849 21.0557 22.4106 21.0557 22.3611 21.0307C21.7918 20.9059 21.6681 20.3816 21.6681 20.3816C21.6681 20.3816 21.7176 22.1042 19.7126 22.1042H19.6879C19.6879 22.1042 19.8611 21.8546 19.9106 21.1555C20.0097 19.8823 20.876 19.7076 20.876 19.7076C20.876 19.7076 20.4057 19.6576 20.2077 19.4579C19.8859 19.1833 19.9106 18.8338 19.9106 18.8338C20.6037 18.8338 21.074 18.5841 21.4205 18.1847C21.7918 17.7353 21.8661 17.261 21.8661 17.261C21.8661 17.261 21.4948 17.6105 20.7522 17.6105H20.5542C20.2077 17.5855 19.9602 17.3608 19.9602 17.3608C20.7275 16.8615 21.2473 16.0127 20.777 14.7145C20.4057 13.6659 19.4899 12.892 18.574 12.3178C18.3017 12.1431 18.1285 11.9184 18.1285 11.7436C18.1285 11.4864 18.3558 11.3759 18.59 11.262C18.7422 11.1881 18.8973 11.1127 18.9948 10.9947C19.2918 10.6451 19.0938 10.0959 18.8463 9.77135C18.8463 9.77135 18.9205 9.74639 19.0691 9.74639C19.3413 9.74639 19.7869 9.82128 20.1582 10.1958C20.6532 10.72 20.4552 11.2942 20.4552 11.2942L20.579 11.3192C20.6532 11.3442 20.7275 11.3442 20.8265 11.3442H20.876C21.5938 11.3442 21.9156 10.5702 21.9156 10.5702C21.9156 10.5702 22.6829 11.5189 21.5443 12.2679C21.3463 12.3927 21.272 12.5175 21.2968 12.6424L21.3215 12.7173L21.3958 12.7422C22.1677 12.9546 22.5859 13.479 23.0683 14.0838L23.1532 14.1902C23.9205 15.1888 25.0097 15.2138 25.1582 15.2138H25.1829C25.1829 15.2138 24.9354 16.0127 24.1928 16.0127H24.1681C23.8215 16.0127 23.6483 15.8629 23.6483 15.8629C23.6483 15.8629 23.4998 17.7103 24.8364 18.2596Z" fill="currentColor"/>
<path fill-rule="evenodd" clip-rule="evenodd" d="M23.2619 13.2895C23.101 13.079 22.9287 12.8537 22.6087 12.6923L22.2621 12.4926L22.5592 12.2929C22.5645 12.2929 22.5804 12.2846 22.6053 12.2717C22.6949 12.2252 22.9013 12.1181 23.1532 12.1181C23.4255 12.1181 23.673 12.2429 23.871 12.4426C24.3661 12.9419 24.8116 12.9919 24.8364 12.9919L25.1829 13.0168L25.0344 13.3414C24.8859 13.6659 24.5146 13.8906 24.1433 13.8906C24.0613 13.8906 23.9963 13.8735 23.9201 13.8534L23.9023 13.8487L23.871 13.8407C23.6528 13.7527 23.5116 13.587 23.3625 13.4122C23.3424 13.3887 23.3223 13.3651 23.3017 13.3414L23.2619 13.2895ZM23.7225 12.5675C23.5493 12.3677 23.3512 12.3178 23.178 12.3178C22.9646 12.3178 22.7969 12.4098 22.7462 12.4376C22.7322 12.4453 22.7271 12.448 22.7324 12.4426C23.104 12.6434 23.3191 12.916 23.4997 13.1449C23.6559 13.3429 23.7864 13.5082 23.9701 13.5661C24.0196 13.591 24.0938 13.591 24.1681 13.591C24.4651 13.591 24.7374 13.4163 24.8364 13.1916C24.8364 13.1916 24.2918 13.1666 23.7225 12.5675Z" fill="currentColor"/>
<path d="M9.44032 16.6616C9.39082 15.7379 9.63834 15.0139 10.0096 14.3897C9.81161 15.0139 9.83636 15.8127 10.5294 16.5367C10.5294 16.5367 9.16805 14.889 11.074 13.1664C11.6225 12.7024 12.209 12.366 12.6526 12.1115C12.8295 12.01 12.9837 11.9216 13.1037 11.8433C11.5443 12.3675 10.777 11.7933 10.777 11.7933C11.272 12.2177 11.9156 12.2177 12.3116 12.1678C12.2803 12.1836 12.2464 12.1994 12.2109 12.216C12.1342 12.2519 12.0496 12.2914 11.9651 12.3426C10.6532 13.0666 9.46508 14.2649 9.26706 15.8876V15.8627C8.97003 17.4854 8.27696 17.8849 8.27696 17.8849C8.82151 17.6103 9.16805 16.9112 9.2423 16.6366C9.34131 18.0596 10.0096 19.0333 10.8265 19.982C11.2473 20.4813 11.3958 20.9556 11.3958 20.9556C11.3958 20.9556 11.3215 20.4064 10.9502 19.982C10.2076 19.1082 9.48983 17.9847 9.44032 16.6616Z" fill="currentColor"/>
<path fill-rule="evenodd" clip-rule="evenodd" d="M12.3611 21.1553C12.3859 21.7545 12.5344 21.9792 12.5344 21.9792L12.7572 22.3786H12.3116C11.5938 22.3786 11.0492 22.1789 10.6532 21.7795C10.4057 21.5298 10.2819 21.2552 10.2076 21.0305C10.0839 21.1304 9.93537 21.2302 9.7126 21.2802C9.61359 21.3051 9.53933 21.3051 9.44032 21.3051C9.29403 21.3051 9.16124 21.2779 9.09187 21.2636C9.06735 21.2586 9.05075 21.2552 9.04428 21.2552L8.77201 21.1803L8.89577 20.9057C8.92052 20.9057 9.14329 20.3564 8.89577 19.6075C8.77201 19.2829 8.7225 18.9833 8.69775 18.7587C8.52448 18.8585 8.27696 18.9334 7.97993 18.9334C7.28686 18.9334 6.98983 18.4091 6.98983 18.4091L6.84131 18.1595L7.08884 18.0596C7.90567 17.7101 8.07894 16.7864 8.12844 16.2871C8.09398 16.2871 8.05952 16.2925 8.02258 16.2982C7.97993 16.3049 7.93398 16.3121 7.88092 16.3121H7.83141C6.94032 16.3121 6.61854 15.3883 6.61854 15.3384L6.51953 15.0139H6.86607C6.98983 15.0139 7.97993 14.9889 8.64824 14.0402L8.7225 13.9653C8.75651 13.9238 8.79026 13.8823 8.82391 13.8409C9.2556 13.3098 9.67087 12.7989 10.4057 12.5673C10.3809 12.5423 10.3562 12.5173 10.3067 12.4924C9.88587 12.2177 9.63834 11.8932 9.58884 11.4937C9.48983 10.8946 9.86112 10.4452 9.88587 10.4202L10.1334 10.0957L10.2819 10.4702C10.2819 10.4951 10.5542 11.0943 11.0987 11.0943H11.2473C11.2225 10.8446 11.272 10.4202 11.6433 10.0458C12.0888 9.59638 12.6334 9.52148 12.9057 9.52148C13.0789 9.52148 13.1779 9.54645 13.1779 9.54645L13.5492 9.62135L13.3265 9.92093C13.1532 10.1706 12.9799 10.62 13.1779 10.8446C13.2522 10.9195 13.376 10.9944 13.4997 11.0444L13.5389 11.064C13.7822 11.1855 14.0938 11.341 14.0938 11.7434C14.0938 12.018 13.871 12.2926 13.4997 12.5423C12.3859 13.2413 11.6928 13.9903 11.3958 14.8141C10.9255 16.0624 11.5195 16.7864 12.1136 17.1609L12.3859 17.3356L12.1631 17.5603C12.1383 17.6103 11.8661 17.8599 11.4453 17.8849H11.2225C10.975 17.8849 10.7275 17.8349 10.5542 17.785C10.5884 17.854 10.6343 17.911 10.684 17.9726C10.7062 18.0002 10.7292 18.0287 10.7522 18.0596C11.074 18.4341 11.4948 18.6338 12.0888 18.6338H12.3116L12.3364 18.8585L12.3364 18.8628C12.3376 18.914 12.3468 19.3205 11.9651 19.6574C11.9156 19.7073 11.8413 19.7573 11.7671 19.7822C12.0393 20.0319 12.3116 20.4313 12.3611 21.1553ZM10.3562 20.3814C10.3562 20.3814 10.3067 22.104 12.3116 22.104C12.3176 22.104 12.3119 22.0907 12.2991 22.0609C12.2594 21.9681 12.151 21.7153 12.1136 21.2053C12.0146 19.932 11.1482 19.7573 11.1482 19.7573C11.1482 19.7573 11.6185 19.6824 11.8166 19.5076C12.1383 19.208 12.1136 18.8835 12.1136 18.8835C11.4205 18.8835 10.9502 18.6338 10.6037 18.2344C10.2324 17.785 10.1581 17.3107 10.1581 17.3107C10.1581 17.3107 10.5294 17.6602 11.272 17.6602H11.47C11.8166 17.6352 12.0641 17.4105 12.0641 17.4105C11.2968 16.9112 10.777 16.0624 11.2473 14.7642C11.6185 13.7157 12.5344 12.9417 13.4502 12.3675C13.7473 12.1678 13.9205 11.9431 13.9205 11.7684C13.9205 11.4945 13.6906 11.3875 13.455 11.2779C13.3041 11.2077 13.1508 11.1364 13.0542 11.0194C12.7819 10.6699 12.9552 10.1207 13.2027 9.7961C13.2027 9.7961 13.1037 9.77114 12.9799 9.77114C12.7324 9.77114 12.2621 9.82107 11.8908 10.2205C11.3958 10.7448 11.5938 11.319 11.5938 11.319L11.47 11.344C11.3958 11.3689 11.2968 11.3689 11.2225 11.3689H11.173C10.4552 11.3689 10.1334 10.595 10.1334 10.595C10.1334 10.595 9.36607 11.5437 10.5047 12.2926C10.6779 12.4175 10.777 12.5423 10.7522 12.6671L10.7275 12.742L10.6532 12.767C9.88047 12.9733 9.54939 13.3909 9.02117 14.0573C8.98001 14.1092 8.93828 14.1619 8.89577 14.215C8.12844 15.2136 7.01458 15.2385 6.89082 15.2385H6.86607C6.86607 15.2385 7.11359 16.0374 7.85616 16.0374H7.88092C8.22745 16.0125 8.40072 15.8876 8.40072 15.8876C8.40072 15.8876 8.52448 17.7101 7.18785 18.2593C7.18785 18.2593 7.43537 18.6838 7.97993 18.6838C8.64824 18.6588 8.92052 18.2593 8.92052 18.2593C8.92052 18.2593 8.87102 18.7836 9.11854 19.5076C9.41557 20.3814 9.11854 21.0055 9.11854 21.0055C9.11854 21.0055 9.29181 21.0555 9.46508 21.0555C9.51458 21.0555 9.58884 21.0555 9.6631 21.0305C10.2077 20.9057 10.3562 20.3814 10.3562 20.3814Z" fill="currentColor"/>
<path fill-rule="evenodd" clip-rule="evenodd" d="M7.85616 13.8655C7.95517 13.8655 8.05418 13.8405 8.12844 13.8155C8.37597 13.7406 8.54923 13.5409 8.69775 13.3162C8.87102 13.0915 9.06904 12.8668 9.39082 12.6671L9.73735 12.4924L9.41557 12.2677C9.39082 12.2427 9.14329 12.0929 8.82151 12.0929C8.54923 12.0929 8.30171 12.1928 8.10369 12.4175C7.60864 12.9417 7.1631 12.9667 7.13834 12.9667L6.81656 12.9917L6.96508 13.3162C7.11359 13.6158 7.48488 13.8655 7.85616 13.8655ZM8.30171 12.5922C8.47498 12.3925 8.673 12.3426 8.84626 12.3426C9.09379 12.3426 9.29181 12.4924 9.29181 12.4924C8.91465 12.6961 8.69875 12.9665 8.51647 13.1947C8.3638 13.3859 8.2347 13.5475 8.05418 13.6158C7.97993 13.6408 7.93042 13.6408 7.85616 13.6408C7.55914 13.6408 7.28686 13.441 7.18785 13.2413C7.18785 13.2364 7.20895 13.2305 7.24719 13.2199C7.40321 13.1764 7.84448 13.0534 8.30171 12.5922Z" fill="currentColor"/>
<path d="M15.3562 11.4188C15.5047 11.5436 15.6037 11.5686 15.6037 11.5686L15.6532 11.5935V11.294L15.1092 11.0695C15.113 11.0913 15.1416 11.2457 15.3562 11.4188Z" fill="currentColor"/>
<path d="M14.9354 19.0583C14.9106 19.0583 14.8611 19.0833 14.8611 19.1083C14.8611 19.1332 14.8859 19.1832 14.9106 19.1832C14.9354 19.1832 14.9849 19.1582 14.9849 19.1332C15.0096 19.0833 14.9849 19.0583 14.9354 19.0583Z" fill="currentColor"/>
<path d="M15.5542 13.3411V13.6657C15.6779 13.5408 15.876 13.5658 15.876 13.5658V14.0402C15.876 14.0402 15.876 14.2648 15.777 14.3647H16.2225C16.1482 14.2648 16.1235 14.0402 16.1235 14.0402V13.5658C16.1235 13.5658 16.3463 13.5408 16.4453 13.6657V13.3411H15.5542Z" fill="currentColor"/>
<path d="M16.668 11.4188C16.9156 11.2191 16.9156 11.0443 16.9156 11.0443L16.371 11.269V11.5686L16.4205 11.5436C16.4205 11.5436 16.5195 11.5187 16.668 11.4188Z" fill="currentColor"/>
<path fill-rule="evenodd" clip-rule="evenodd" d="M17.6584 10.1704C17.6584 9.69608 16.891 9.29663 16.0247 9.29663C15.1584 9.29663 14.391 9.72104 14.391 10.1704L14.4158 10.2952L14.7623 12.2925L14.4158 12.4922L13.4999 12.9915C13.4999 12.9915 13.3019 13.0914 13.2029 13.1663C12.8564 13.4159 12.7821 13.7405 12.9801 13.8903C13.0296 13.6156 13.2524 13.316 13.6732 13.316C13.9702 13.316 14.193 13.4658 14.391 13.7155C14.4405 13.7654 14.49 13.8403 14.5148 13.9152L14.6633 14.1399H12.3613C12.5346 14.4894 12.6831 14.8389 12.6831 15.2384V20.3563C12.6831 21.6045 13.6237 22.1787 14.6633 22.1787L14.788 22.1786C15.4673 22.1774 15.5789 22.1772 15.9999 22.5782C16.4017 22.1729 16.5217 22.1738 17.1223 22.1778C17.1876 22.1783 17.2589 22.1787 17.3366 22.1787C18.3514 22.1787 19.3168 21.5796 19.3168 20.3563V15.2134C19.3168 14.814 19.4653 14.4645 19.6386 14.1149H17.3366L17.4851 13.8903C17.4999 13.8679 17.5146 13.8478 17.5288 13.8285C17.5619 13.7833 17.5915 13.7431 17.6089 13.6905C17.7821 13.4658 18.0296 13.2911 18.3267 13.2911C18.7475 13.2911 18.9702 13.5907 19.0197 13.8653C19.2178 13.7155 19.1435 13.366 18.797 13.1413C18.698 13.0664 18.4999 12.9665 18.4999 12.9665L17.2871 12.2675L17.6336 10.2703L17.6584 10.1704ZM14.7128 10.3951L15.9257 10.8195V12.7418L15.0346 12.2425L14.7128 10.3951ZM14.9603 14.4395C15.1584 14.6392 15.3564 14.764 15.5296 14.8389C15.5049 14.9388 15.4801 15.1385 15.5544 15.3382C15.6287 15.488 15.7524 15.6129 15.9504 15.7127C15.9752 15.9124 16.099 16.212 16.4455 16.3369L16.099 16.6864L14.7128 16.6614C14.7053 16.6538 14.6956 16.6463 14.6849 16.638C14.6604 16.619 14.6311 16.5964 14.6138 16.5615V16.5366L14.8366 16.5615H14.8613C14.9108 16.5615 14.9356 16.5366 14.9603 16.4866C14.9603 16.4367 14.9356 16.3868 14.8861 16.3868L14.6138 16.3369L14.9108 15.2633L14.6138 14.6392L14.1435 15.1385L14.1188 16.262L13.797 16.212C13.7475 16.212 13.698 16.237 13.698 16.2869C13.698 16.3369 13.7227 16.3868 13.7722 16.3868L13.896 16.4118C13.8465 16.4367 13.8217 16.4617 13.8217 16.4617L13.7722 16.4866V16.5116C13.698 16.8362 13.8712 17.1108 14.0445 17.2606V17.3105C14.0445 17.3604 14.0445 17.4104 14.0692 17.4353C14.094 17.4853 14.1435 17.5102 14.193 17.5102H14.2178C14.292 17.5102 14.3663 17.4603 14.391 17.3604H14.5891L16.396 17.685L16.4207 17.66C16.5692 17.5602 17.1138 17.1607 17.2871 17.0109C17.3233 17.0475 17.3596 17.0706 17.4055 17.1C17.4223 17.1108 17.4405 17.1224 17.4603 17.1357C17.4108 17.3355 17.3861 17.6351 17.6336 17.8847H13.0296V15.2134C13.0296 14.9638 12.9554 14.6891 12.8564 14.4395H14.9603ZM16.7796 17.2106C16.6189 17.3291 16.4578 17.4479 16.3712 17.5102L14.7128 17.2106V17.1607C14.7376 17.0858 14.7623 16.961 14.7623 16.8112L16.1485 16.8362L16.1732 16.8112C16.1769 16.8075 16.1899 16.7949 16.2101 16.7754C16.3256 16.6638 16.6767 16.3247 16.8663 16.1122C16.8986 16.1611 16.9415 16.1994 16.9881 16.2409C17.0128 16.263 17.0386 16.2859 17.0643 16.3119C17.0643 16.4866 17.0643 16.7113 17.1881 16.9111C17.1015 16.9734 16.9403 17.0922 16.7796 17.2106ZM14.4405 16.6115C14.49 16.6864 14.5395 16.7363 14.589 16.7862C14.589 16.8611 14.589 16.986 14.5643 17.0858C14.5643 17.1108 14.5643 17.1357 14.5395 17.1607V17.1857C14.4653 17.1857 14.3168 17.1857 14.2178 17.1357C14.094 17.0858 13.896 16.8362 13.9455 16.5865C13.995 16.5615 14.1435 16.4866 14.2425 16.4866C14.3415 16.4866 14.391 16.5116 14.4405 16.6115ZM14.2673 16.2869L14.292 15.2134L14.5395 14.9638L14.6881 15.2883L14.391 16.3119L14.2673 16.2869ZM16.9405 21.8292L17.1386 21.2301C17.1562 21.1767 17.0859 21.098 17.0172 21.0211C16.9894 20.99 16.9619 20.9592 16.9405 20.9305C16.9753 20.948 17.0283 20.9778 17.0878 21.0113C17.198 21.0732 17.3305 21.1477 17.4108 21.1801C17.3861 21.2051 17.1881 21.8292 17.1881 21.8292H16.9405ZM17.8069 21.1302L17.6831 21.8043C17.646 21.8043 17.6027 21.8105 17.5593 21.8167C17.516 21.823 17.4727 21.8292 17.4356 21.8292L17.5593 21.1801C17.5838 21.0817 17.4698 21.0196 17.3183 20.9371C17.1625 20.8523 16.967 20.7459 16.8415 20.556C16.7178 20.7058 16.495 20.7308 16.2475 20.7308C16.0247 20.7308 15.8267 20.7058 15.7029 20.6808H15.6039C15.5296 20.6808 15.4554 20.7058 15.4059 20.7807L15.3564 20.8556L14.6633 20.6559L14.49 20.9554C14.4653 21.0054 14.4653 21.0303 14.5148 21.0803L14.5643 21.1302C14.5395 21.2301 14.391 21.3799 14.391 21.3799L14.292 21.255C14.2178 21.1552 14.2178 20.9804 14.3168 20.8306L14.5891 20.3563L15.1831 20.4312L15.0841 20.2314C15.0041 20.054 15.0585 19.8453 15.107 19.6591C15.1336 19.5572 15.1584 19.4621 15.1584 19.3826C15.1584 19.4326 15.0841 19.4575 15.0346 19.4575H14.8118L14.6633 19.5574L14.5395 19.4326C14.5148 19.4076 14.5148 19.3577 14.5643 19.3327L14.8613 19.0081L14.5148 18.6087L15.0098 18.8584L15.1584 18.6836C15.2079 18.7335 15.1831 18.8334 15.1831 18.8334C15.3316 18.8334 15.7524 19.083 15.7772 19.6323V19.7072C15.8019 19.7571 15.9009 19.857 15.9999 19.857L16.6683 19.9319C16.6976 19.9319 16.7386 19.9201 16.7882 19.906C16.8639 19.8843 16.9596 19.857 17.0643 19.857C17.1633 19.857 17.2871 19.8819 17.4108 19.9568C17.4108 19.9568 17.4603 19.9069 17.5593 19.9069H17.5841C17.8254 19.9069 17.9523 20.0881 18.0844 20.2766C18.1149 20.3201 18.1456 20.364 18.1782 20.4062C18.3019 20.581 18.4504 20.8306 18.4504 20.8306C18.4009 20.9055 18.3267 20.9305 18.2524 20.9305H18.1782C17.9903 20.9013 17.8953 20.6595 17.8142 20.4533C17.7564 20.3063 17.7057 20.1773 17.6336 20.1566H17.6089C17.5593 20.1566 17.5346 20.2065 17.5346 20.2065C17.5672 20.305 17.5759 20.3795 17.5838 20.4469C17.594 20.5331 17.6028 20.6077 17.6584 20.7058C17.7021 20.7794 17.7631 20.8443 17.8159 20.9005C17.8527 20.9397 17.8856 20.9746 17.9059 21.0054C17.8316 20.9554 17.8069 21.0553 17.8069 21.1302ZM14.193 20.5061L14.2178 20.581C14.193 20.6559 13.9702 20.7557 13.9702 20.7557L13.9207 20.6309C13.8712 20.5061 13.8712 20.3063 14.0445 20.1815L14.4158 19.9568L14.8118 20.0317C14.8118 20.1566 14.8861 20.2564 14.8861 20.2564L14.4653 20.1815L14.2178 20.3563C14.193 20.3812 14.193 20.4561 14.193 20.5061ZM17.8564 21.7793L17.9801 21.1801C17.9801 21.1676 17.9863 21.1489 17.9925 21.1302C17.9987 21.1115 18.0049 21.0928 18.0049 21.0803C18.0296 21.1052 18.0792 21.1052 18.1039 21.1052H18.2277C18.4009 21.1052 18.4999 21.0054 18.5742 20.9305L18.6732 20.8306L18.599 20.7058C18.599 20.7058 18.4257 20.4312 18.3019 20.2564C18.2895 20.2439 18.2772 20.2252 18.2648 20.2065C18.2524 20.1878 18.24 20.169 18.2277 20.1566L18.194 20.1109C18.0524 19.9175 17.8801 19.6822 17.5593 19.6822H17.5346C17.5098 19.6822 17.4851 19.6884 17.4603 19.6947C17.4356 19.7009 17.4108 19.7072 17.3861 19.7072C17.2871 19.6572 17.1633 19.6323 17.0395 19.6323C16.9083 19.6323 16.7964 19.6713 16.7209 19.6975L16.693 19.7072C16.6683 19.7321 16.6435 19.7321 16.6188 19.7321L15.9752 19.6572C15.9752 19.6572 15.9504 19.6323 15.9009 19.6073L16.0494 19.5574C15.9999 19.083 15.5544 18.7835 15.3069 18.6836C15.3069 18.6337 15.2821 18.5837 15.2326 18.5588L15.0841 18.4339L14.9603 18.5837L14.9108 18.6337L13.995 18.2592L14.5891 19.0081L14.3663 19.3577C14.292 19.4575 14.3663 19.5324 14.3663 19.5324L14.6138 19.7072L14.8613 19.6073H14.8861C14.8861 19.6572 14.8613 19.807 14.8366 19.832L14.4158 19.7821L13.9455 20.0317C13.698 20.2065 13.6732 20.5061 13.7722 20.6808L13.896 20.9305L14.0445 20.8556C13.995 21.0303 14.0197 21.2301 14.1188 21.3299L14.2178 21.4547L14.3415 21.6295L14.49 21.4797C14.5395 21.4298 14.6633 21.28 14.7128 21.1552L14.7376 21.0553L14.6633 20.9804V20.9554L14.7376 20.8306L15.3069 20.9554L15.4306 20.9804L15.5049 20.8556L15.5296 20.8056C15.5296 20.7931 15.5296 20.7869 15.5328 20.7838C15.5359 20.7807 15.5421 20.7807 15.5544 20.7807H15.6287C15.8514 20.8306 16.0494 20.8306 16.2227 20.8306C16.396 20.8306 16.495 20.8306 16.6188 20.7807C16.6188 20.7807 16.9158 21.1302 16.9405 21.1552L16.7425 21.7294V21.7543C16.396 21.7793 16.2227 21.8542 15.9999 22.0789C15.7029 21.7793 15.4801 21.7543 14.6633 21.7543C13.698 21.7543 13.0296 21.1801 13.0296 20.2564V18.0095H18.9702V20.2564C18.9702 21.0803 18.5494 21.6045 17.8564 21.7793ZM19.1435 14.4395C19.0445 14.6891 18.9702 14.9388 18.9702 15.2134V16.8861C18.6237 16.8362 18.5742 16.4367 18.5742 16.4367V16.3618H18.4999C18.3514 16.3369 18.2524 16.2869 18.1534 16.212C17.9801 16.0373 17.9801 15.7627 17.9801 15.7627C17.9801 15.7665 17.9753 15.7759 17.9681 15.79C17.9286 15.8666 17.8168 16.084 18.0049 16.3369C18.1039 16.4617 18.2277 16.5366 18.4009 16.5615C18.4504 16.7613 18.599 17.0608 18.9702 17.1108V17.9346H17.9306C17.5093 17.6886 17.6244 17.3022 17.6529 17.2066C17.6562 17.1955 17.6584 17.1883 17.6584 17.1857L17.7079 17.0858L17.6336 17.0109C17.158 16.8282 17.2419 16.3947 17.2596 16.3031C17.2612 16.2946 17.2623 16.289 17.2623 16.2869L17.2871 16.212L17.2128 16.1871C16.8135 15.9976 16.8377 15.5158 16.8412 15.4457L16.8415 15.4381C16.7178 15.538 16.6683 15.7627 16.7425 15.9873C16.693 16.0373 16.6188 16.1122 16.5692 16.1871C16.1485 16.0622 16.1485 15.6378 16.1485 15.6378V15.5629L16.099 15.538C15.9257 15.4631 15.8019 15.3882 15.7524 15.2384C15.6782 15.0886 15.7029 14.9388 15.7277 14.8639C15.7524 14.8639 15.7772 14.8701 15.8019 14.8764C15.8267 14.8826 15.8514 14.8889 15.8762 14.8889H16.1732C16.4455 14.8639 16.7425 14.7391 17.0643 14.4145H19.1435V14.4395ZM17.5346 12.7418L17.9306 12.9915L18.0296 13.0414C17.8069 13.1163 17.6336 13.2162 17.4851 13.366L17.4603 13.3909C17.4356 13.4159 17.3861 13.4658 17.3613 13.5158C17.3613 13.5158 17.3613 13.5407 17.3366 13.5407C17.3118 13.5907 17.2871 13.6156 17.2376 13.6656C17.2376 13.6656 17.2376 13.6905 17.2128 13.6905C17.2004 13.7155 17.1819 13.7405 17.1633 13.7654C17.1447 13.7904 17.1262 13.8154 17.1138 13.8403C16.8168 14.3396 16.3712 14.6392 15.9504 14.6392C15.5296 14.6392 15.0841 14.3396 14.7871 13.8403C14.7747 13.8154 14.7561 13.7904 14.7376 13.7654C14.719 13.7405 14.7004 13.7155 14.6881 13.6905L14.6633 13.6656C14.6509 13.6406 14.6386 13.6219 14.6262 13.6032C14.6138 13.5844 14.6014 13.5657 14.5891 13.5407L14.5643 13.5158C14.5519 13.4908 14.5334 13.4721 14.5148 13.4534C14.4962 13.4346 14.4777 13.4159 14.4653 13.3909L14.4405 13.366C14.292 13.2162 14.1188 13.0914 13.896 13.0414L13.995 12.9915L14.391 12.7418L14.8118 12.4922L15.9257 13.1163L17.0395 12.4922L17.5346 12.7418ZM16.99 12.2425L16.099 12.7169V10.7946L17.3118 10.3701L16.99 12.2425ZM15.9999 10.5948L14.6881 10.0706C14.8118 9.79594 15.3069 9.57125 15.9999 9.57125C16.693 9.57125 17.2128 9.79594 17.3118 10.0706L15.9999 10.5948Z" fill="currentColor"/>
<path fill-rule="evenodd" clip-rule="evenodd" d="M18.97 23.1527L18.6235 23.0029L18.7225 22.6534L18.8215 22.2539C18.8215 22.2539 18.2274 22.5785 17.3611 22.8281C17.1136 22.903 16.9403 22.928 16.9403 22.928V23.2276C16.9403 23.2276 16.4948 23.3025 16.0245 23.3025C15.5542 23.3025 15.1086 23.2276 15.1086 23.2276V22.9529C15.1086 22.9529 14.9354 22.928 14.6878 22.8531C13.8215 22.6034 13.2274 22.2789 13.2274 22.2789L13.3265 22.6783L13.4255 23.0278L13.0789 23.1527L12.7076 23.3025C13.1532 23.5271 13.7472 23.8267 14.2918 23.9765L14.168 24.326C14.168 24.326 14.8611 24.6506 16.0492 24.6506C17.2126 24.6506 17.9304 24.326 17.9304 24.326L17.8067 23.9765C18.2582 23.8523 18.7609 23.6079 19.1593 23.4142C19.2413 23.3743 19.319 23.3365 19.3908 23.3025L18.97 23.1527ZM13.0789 23.3025L13.6482 23.1027L13.475 22.5535C13.7225 22.7033 14.267 22.903 14.5888 23.0029L14.3166 23.7518C13.8215 23.652 13.4255 23.4772 13.0789 23.3025ZM15.9997 24.4509C15.3562 24.4509 14.5888 24.3011 14.3908 24.2262L14.7126 23.3025C14.9849 23.3774 15.5542 23.4772 15.975 23.4772H15.9997C16.4205 23.4772 16.9898 23.4023 17.2621 23.3025L17.6334 24.2262C17.4106 24.3011 16.668 24.4509 15.9997 24.4509ZM17.7076 23.7768L17.4354 23.0278C17.7571 22.928 18.3017 22.7033 18.574 22.5785L18.376 23.1277L18.9453 23.3274L18.9068 23.3441C18.5694 23.49 18.1845 23.6566 17.7076 23.7768Z" fill="currentColor"/>
<path d="M15.5244 14.8618C15.3523 14.7866 15.1562 14.6623 14.9601 14.4645H12.8809C12.9799 14.7141 13.0541 14.9638 13.0541 15.2384V17.8847H17.6336C17.3918 17.6408 17.4098 17.3493 17.457 17.1497C17.3976 17.1227 17.3546 17.0793 17.3116 17.0359C17.1383 17.1607 16.569 17.5851 16.4452 17.685L16.4205 17.71L14.6135 17.3854H14.4155C14.3908 17.4603 14.3165 17.5352 14.2422 17.5352H14.2175C14.1755 17.5352 14.1334 17.5172 14.1065 17.4812C14.0915 17.4695 14.0786 17.4542 14.0692 17.4353C14.0445 17.4104 14.0445 17.3604 14.0445 17.3105V17.2691C13.9235 17.1831 13.8159 17.0325 13.7803 16.8528C13.7514 16.7488 13.7443 16.6337 13.7722 16.5116V16.4866L13.8217 16.4617C13.8217 16.4617 13.8356 16.4477 13.8633 16.4302L13.7719 16.4118C13.7224 16.4118 13.6977 16.3618 13.6977 16.3119C13.6977 16.308 13.698 16.3042 13.6986 16.3006C13.6982 16.2961 13.698 16.2915 13.698 16.2869C13.698 16.237 13.7475 16.212 13.797 16.212L14.1188 16.262L14.1435 15.1385L14.6138 14.6392L14.9108 15.2633L14.9064 15.2795L14.9106 15.2883L14.6201 16.338L14.8861 16.3868C14.9356 16.3868 14.9603 16.4367 14.9603 16.4866L14.9585 16.4902C14.9596 16.4973 14.9601 16.5045 14.9601 16.5116C14.9601 16.5616 14.9106 16.5865 14.8611 16.5865H14.8363L14.6138 16.5616C14.6311 16.5964 14.6604 16.6191 14.6849 16.638C14.6956 16.6463 14.7053 16.6538 14.7128 16.6614L16.099 16.6864L16.4273 16.3552C16.0944 16.2266 15.9745 15.934 15.9502 15.7377C15.7521 15.6628 15.6284 15.538 15.5541 15.3632C15.4774 15.2084 15.4899 15.0536 15.5109 14.9453C15.5145 14.9139 15.5193 14.8858 15.5244 14.8618Z" fill="#FCE527"/>
<path d="M17.8578 21.7724L17.9801 21.1801C17.9801 21.1676 17.9863 21.1489 17.9925 21.1302C17.998 21.1137 18.0035 21.0971 18.0047 21.0849C18.0077 21.0857 18.0108 21.0867 18.014 21.0877C18.0286 21.0974 18.0479 21.1018 18.066 21.1037C18.0708 21.1047 18.0751 21.1053 18.0789 21.1053H18.2026L18.2072 21.1052H18.2277C18.4009 21.1052 18.4999 21.0054 18.5742 20.9305L18.6732 20.8306L18.599 20.7058C18.599 20.7058 18.4257 20.4312 18.3019 20.2564C18.2895 20.2439 18.2772 20.2252 18.2648 20.2065C18.2524 20.1878 18.24 20.169 18.2277 20.1566L18.194 20.1109C18.0524 19.9175 17.8801 19.6822 17.5593 19.6822H17.5346L17.532 19.6822H17.5096C17.4644 19.6822 17.4192 19.6822 17.374 19.7012C17.2771 19.6553 17.1583 19.6323 17.0395 19.6323C17.0354 19.6323 17.0314 19.6323 17.0273 19.6324C17.0231 19.6323 17.0188 19.6323 17.0145 19.6323C16.8833 19.6323 16.7714 19.6713 16.6959 19.6976C16.686 19.701 16.6766 19.7043 16.668 19.7072C16.6537 19.7216 16.6477 19.7277 16.6404 19.7303C16.6367 19.7316 16.6327 19.732 16.6272 19.7321C16.6244 19.7321 16.6216 19.7321 16.6188 19.7321L15.9752 19.6572C15.9752 19.6572 15.9505 19.6323 15.901 19.6073H16.0739C16.062 19.4935 16.0274 19.3897 15.9781 19.2964C15.8352 18.981 15.5229 18.775 15.3232 18.6904C15.3189 18.6801 15.3129 18.6704 15.3051 18.6604C15.2986 18.6188 15.2744 18.5799 15.2326 18.5588L15.0841 18.4339L14.9603 18.5837L14.9108 18.6337L13.995 18.2592L14.0712 18.3552L14.0195 18.3341L14.5735 19.0326L14.3663 19.3577C14.3195 19.4205 14.3316 19.4735 14.347 19.5041C14.3427 19.5589 14.3908 19.6073 14.3908 19.6073L14.6383 19.7821L14.8783 19.6853C14.869 19.7456 14.8528 19.8156 14.8366 19.832L14.4158 19.7821L13.9455 20.0317C13.7575 20.1645 13.698 20.3692 13.7236 20.5366C13.7261 20.6049 13.7424 20.6712 13.7719 20.7308L13.8957 20.9804L14.0312 20.9121C14.0224 20.959 14.0186 21.0067 14.02 21.053C14.0147 21.1753 14.0475 21.2904 14.1185 21.3799L14.2175 21.5047L14.3413 21.6795L14.4898 21.5297C14.5393 21.4797 14.663 21.3299 14.7125 21.2051L14.7373 21.1053L14.7276 21.0955L14.7376 21.0553L14.6738 20.991L14.7373 20.9055L15.3066 21.0304L15.4304 21.0553L15.5046 20.9305L15.5294 20.8806C15.5294 20.868 15.5294 20.8618 15.5325 20.8587C15.5356 20.8556 15.5418 20.8556 15.5541 20.8556H15.6284C15.6535 20.8584 15.6782 20.8612 15.7026 20.864C15.8954 20.8859 16.0687 20.9055 16.2224 20.9055C16.3957 20.9055 16.4947 20.9055 16.6185 20.8556C16.6185 20.8556 16.8584 21.1162 16.9239 21.2034L16.7425 21.7294V21.7543C16.396 21.7793 16.2227 21.8542 15.9999 22.0789C15.7029 21.7793 15.4801 21.7543 14.6633 21.7543C13.698 21.7543 13.0296 21.1801 13.0296 20.2564V18.0845H18.97L18.9452 20.3313C18.9452 21.0707 18.5351 21.5911 17.8578 21.7724Z" fill="#FCE527"/>
</svg>
