<svg width="32" height="32" viewBox="0 0 32 32" fill="none" xmlns="http://www.w3.org/2000/svg">
<path d="M5.79779 6.99579L2.0459 10.3966L3.34409 12.0312C3.92221 11.6719 5.07846 10.7344 5.59409 10.7344C6.75034 10.7344 7.78977 13.8672 8.78159 17.3125C9.67221 20.4062 10.5941 28.0938 14.8441 28.0938C19.7347 28.0938 30.016 14.8906 30.016 9.01435C30.016 6.88807 29.5941 3.82812 25.3597 3.82812C20.8222 3.82812 18.5898 8.20714 18.0408 10.3966C18.4358 10.1333 19.5109 9.95781 20.1033 9.95781C22.5168 9.95781 22.0013 12.4595 21.6722 13.4688C21.3431 14.478 18.8128 19.3924 17.4484 19.3924C15.7809 19.3924 14.7936 12.1519 14.3109 9.01435C13.8282 5.87679 12.5776 4.16541 10.6687 4.16541C9.1416 4.16541 6.78514 6.05233 5.79779 6.99579Z" fill="#3CB9E6"/>
</svg>
