<svg width="20" height="20" viewBox="0 0 20 20" fill="none" xmlns="http://www.w3.org/2000/svg">
<rect width="20" height="20" rx="10" fill="white"/>
<path d="M5.81173 9.61375C5.81174 9.5336 5.82773 9.45424 5.85879 9.38022C5.88984 9.30621 5.93533 9.239 5.99266 9.18245C6.04999 9.12591 6.11802 9.08115 6.19285 9.05073C6.26769 9.02032 6.34785 9.00486 6.42873 9.00523L7.45169 9.00853C7.6148 9.00853 7.77122 9.07275 7.88655 9.18704C8.00187 9.30134 8.06667 9.45636 8.06667 9.61801V13.4514C8.18182 13.4175 8.32973 13.3814 8.49157 13.3436C8.60399 13.3175 8.70419 13.2544 8.7759 13.1647C8.84761 13.075 8.88662 12.9639 8.8866 12.8495V8.09433C8.8866 7.93268 8.95138 7.77765 9.0667 7.66333C9.18203 7.54902 9.33845 7.48478 9.50157 7.48474H10.5266C10.6897 7.48478 10.8461 7.54902 10.9614 7.66333C11.0767 7.77765 11.1415 7.93268 11.1415 8.09433V12.5076C11.1415 12.5076 11.3982 12.4047 11.6481 12.3001C11.741 12.2611 11.8202 12.196 11.876 12.1127C11.9317 12.0295 11.9615 11.9318 11.9616 11.8319V6.57066C11.9616 6.40904 12.0263 6.25404 12.1416 6.13975C12.257 6.02545 12.4133 5.96123 12.5764 5.96119H13.6014C13.7645 5.96119 13.921 6.02541 14.0362 6.1397C14.1516 6.254 14.2164 6.40902 14.2164 6.57066V10.9032C15.105 10.2649 16.0056 9.49727 16.7202 8.57421C16.8239 8.44023 16.8925 8.2829 16.9199 8.11627C16.9473 7.94963 16.9326 7.77885 16.8773 7.61918C16.5465 6.67591 16.0207 5.81147 15.3335 5.08118C14.6462 4.35088 13.8126 3.77081 12.8862 3.37809C11.9598 2.98536 10.9608 2.78864 9.95329 2.80049C8.94573 2.81235 7.95176 3.03254 7.03501 3.44695C6.11824 3.86137 5.29886 4.46089 4.62931 5.20716C3.95977 5.95342 3.45479 6.83 3.14669 7.78078C2.8386 8.73157 2.73417 9.73561 2.8401 10.7287C2.94603 11.7218 3.25998 12.682 3.76186 13.548C3.84929 13.6973 3.97791 13.8188 4.13262 13.8983C4.28734 13.9777 4.4617 14.0118 4.63525 13.9964C4.82913 13.9795 5.07052 13.9555 5.35753 13.9222C5.48246 13.9081 5.59781 13.849 5.6816 13.7561C5.76538 13.6632 5.81174 13.543 5.81185 13.4184V9.61375" fill="#0A0B0D"/>
<path d="M5.81173 9.61375C5.81174 9.5336 5.82773 9.45423 5.85879 9.38022C5.88984 9.3062 5.93533 9.239 5.99266 9.18245C6.04999 9.12591 6.11802 9.08115 6.19285 9.05073C6.26769 9.02032 6.34785 9.00486 6.42873 9.00523L7.45169 9.00853C7.6148 9.00853 7.77122 9.07275 7.88655 9.18704C8.00187 9.30134 8.06667 9.45636 8.06667 9.61801V13.4514C8.18182 13.4175 8.32973 13.3814 8.49157 13.3436C8.60399 13.3175 8.70419 13.2544 8.7759 13.1647C8.84761 13.075 8.88662 12.9639 8.8866 12.8495V8.09433C8.8866 7.93268 8.95138 7.77765 9.0667 7.66333C9.18203 7.54902 9.33845 7.48478 9.50157 7.48474H10.5266C10.6897 7.48478 10.8461 7.54902 10.9614 7.66333C11.0767 7.77765 11.1415 7.93268 11.1415 8.09433V12.5076C11.1415 12.5076 11.3982 12.4047 11.6481 12.3001C11.741 12.2611 11.8202 12.196 11.876 12.1127C11.9317 12.0295 11.9615 11.9318 11.9616 11.8319V6.57066C11.9616 6.40904 12.0263 6.25404 12.1416 6.13975C12.257 6.02545 12.4133 5.96123 12.5764 5.96119H13.6014C13.7645 5.96119 13.921 6.02541 14.0362 6.1397C14.1516 6.254 14.2164 6.40902 14.2164 6.57066V10.9032C15.105 10.2649 16.0056 9.49727 16.7202 8.57421C16.8239 8.44023 16.8925 8.2829 16.9199 8.11626C16.9473 7.94963 16.9326 7.77885 16.8773 7.61918C16.5465 6.67591 16.0207 5.81147 15.3335 5.08118C14.6462 4.35088 13.8126 3.77081 12.8862 3.37808C11.9598 2.98536 10.9608 2.78864 9.95329 2.80049C8.94573 2.81235 7.95176 3.03254 7.03501 3.44695C6.11824 3.86137 5.29886 4.46089 4.62931 5.20716C3.95977 5.95342 3.45479 6.83 3.14669 7.78078C2.8386 8.73157 2.73417 9.73561 2.8401 10.7287C2.94603 11.7218 3.25998 12.682 3.76186 13.548C3.84929 13.6973 3.97791 13.8188 4.13262 13.8983C4.28734 13.9777 4.4617 14.0118 4.63525 13.9964C4.82913 13.9795 5.07052 13.9555 5.35753 13.9222C5.48246 13.9081 5.59781 13.849 5.6816 13.7561C5.76538 13.6632 5.81174 13.543 5.81185 13.4184V9.61375" fill="black"/>
<path d="M5.73334 15.8154C6.81045 16.6008 8.08335 17.0722 9.4112 17.1775C10.739 17.2828 12.0701 17.0178 13.2569 16.412C14.4439 15.806 15.4405 14.8828 16.1364 13.7445C16.8322 12.6061 17.2004 11.297 17.2 9.96195C17.2 9.79535 17.1923 9.63054 17.1812 9.46667C14.5433 13.4099 9.67271 15.2535 5.73358 15.8147" fill="#C0D0DB"/>
</svg>
