<svg width="20" height="20" viewBox="0 0 20 20" fill="none" xmlns="http://www.w3.org/2000/svg">
<rect width="20" height="20" rx="10" fill="black"/>
<path d="M5.77045 9.7144C5.77046 9.63463 5.78623 9.55565 5.81685 9.48198C5.84747 9.40832 5.89234 9.34145 5.94889 9.28517C6.00544 9.2289 6.07253 9.18435 6.14634 9.15408C6.22015 9.12381 6.29921 9.10842 6.37899 9.1088L7.38793 9.11209C7.54879 9.11209 7.70307 9.176 7.81681 9.28974C7.93057 9.40349 7.99447 9.55776 7.99447 9.71863V13.5336C8.10805 13.4999 8.25393 13.4639 8.41356 13.4264C8.52443 13.4003 8.62325 13.3376 8.69398 13.2483C8.7647 13.159 8.80318 13.0485 8.80316 12.9346V8.20228C8.80316 8.0414 8.86705 7.88711 8.9808 7.77334C9.09454 7.65957 9.24882 7.59565 9.4097 7.59562H10.4206C10.5815 7.59565 10.7358 7.65957 10.8495 7.77334C10.9633 7.88711 11.0272 8.0414 11.0272 8.20228V12.5943C11.0272 12.5943 11.2803 12.4919 11.5268 12.3878C11.6184 12.3491 11.6966 12.2842 11.7516 12.2014C11.8065 12.1185 11.8359 12.0213 11.836 11.9219V6.68592C11.836 6.52508 11.8999 6.37081 12.0136 6.25707C12.1273 6.14332 12.2816 6.07941 12.4424 6.07938H13.4534C13.6142 6.07938 13.7685 6.14327 13.8822 6.25703C13.996 6.37077 14.0599 6.52505 14.0599 6.68592V10.9976C14.9363 10.3624 15.8246 9.59847 16.5294 8.67985C16.6317 8.54652 16.6994 8.38994 16.7264 8.2241C16.7534 8.05826 16.7389 7.8883 16.6843 7.7294C16.358 6.79067 15.8395 5.93037 15.1616 5.20358C14.4838 4.4768 13.6617 3.89951 12.748 3.50867C11.8342 3.11783 10.849 2.92205 9.85522 2.93385C8.86147 2.94565 7.88114 3.16478 6.97695 3.57721C6.07275 3.98964 5.26461 4.58628 4.60424 5.32896C3.94387 6.07164 3.44581 6.94401 3.14194 7.89023C2.83807 8.83644 2.73508 9.83568 2.83955 10.824C2.94403 11.8123 3.25368 12.7679 3.74867 13.6297C3.8349 13.7783 3.96177 13.8993 4.11435 13.9784C4.26694 14.0574 4.43892 14.0913 4.6101 14.076C4.80132 14.0592 5.0394 14.0354 5.32247 14.0021C5.44569 13.9881 5.55946 13.9293 5.64209 13.8368C5.72473 13.7444 5.77046 13.6247 5.77056 13.5007L5.77045 9.7144Z" fill="#21325B"/>
<path d="M5.74835 15.8333C6.81395 16.6085 8.07325 17.0738 9.38691 17.1778C10.7006 17.2816 12.0174 17.0201 13.1916 16.4221C14.3659 15.824 15.3518 14.9128 16.0403 13.7891C16.7287 12.6655 17.0929 11.3733 17.0926 10.0556C17.0926 9.89112 17.0849 9.72845 17.074 9.56671C14.4643 13.459 9.64565 15.2786 5.74858 15.8327" fill="#979695"/>
</svg>
