<svg width="20" height="20" viewBox="0 0 20 20" fill="none" xmlns="http://www.w3.org/2000/svg">
<rect width="20" height="20" rx="10" fill="#101828"/>
<path d="M11.4848 9.41593L12.513 7.67131L15.2843 11.9878L15.2856 12.8161L15.2766 7.11588C15.27 6.97654 15.196 6.84906 15.078 6.7739L10.0886 3.9039C9.97185 3.84654 9.82382 3.84715 9.70734 3.90568C9.69161 3.91358 9.67679 3.92214 9.66267 3.93149L9.64529 3.94243L4.80223 6.74896L4.78342 6.75747C4.75926 6.7686 4.73485 6.78272 4.71191 6.79914C4.6201 6.86501 4.5591 6.96237 4.53937 7.0716C4.53642 7.08816 4.53425 7.10501 4.5332 7.122L4.54081 11.7672L7.12218 7.76616C7.44717 7.23562 8.15529 7.06474 8.81261 7.07403L9.58412 7.09441L5.03842 14.3844L5.57426 14.6929L10.1744 7.1018L12.2077 7.09441L7.6194 14.8771L9.53146 15.9769L9.75991 16.1083C9.85654 16.1475 9.97046 16.1495 10.0679 16.1143L15.1275 13.1823L14.1601 13.7428L11.4848 9.41593ZM11.8771 15.0659L9.94587 12.0348L11.1247 10.0344L13.661 14.032L11.8771 15.0659Z" fill="#2D374B"/>
<path d="M9.94727 12.0336L11.8785 15.0647L13.6625 14.0308L11.1262 10.0332L9.94727 12.0336Z" fill="#28A0F0"/>
<path d="M15.2852 12.8147L15.2839 11.9864L12.5126 7.66992L11.4844 9.41453L14.1597 13.7414L15.1271 13.1809C15.2219 13.1038 15.2793 12.9907 15.2854 12.8687L15.2852 12.8147Z" fill="#28A0F0"/>
<path d="M3.67192 13.5979L5.03792 14.385L9.58363 7.09495L8.81212 7.07458C8.1548 7.06528 7.44672 7.23616 7.12169 7.7667L4.54031 11.7677L3.67188 13.102V13.5979H3.67192Z" fill="white"/>
<path d="M12.2076 7.09375L10.1744 7.10114L5.57422 14.6923L7.1821 15.6181L7.61936 14.8765L12.2076 7.09375Z" fill="white"/>
<path d="M16.142 7.08287C16.125 6.65765 15.8948 6.26835 15.5341 6.04173L10.4793 3.13484C10.1225 2.95518 9.67682 2.95497 9.31951 3.13471C9.27728 3.156 4.40376 5.98247 4.40376 5.98247C4.33633 6.01479 4.27137 6.05333 4.21024 6.09704C3.88829 6.32779 3.69203 6.68632 3.67188 7.08027V13.1005L4.54031 11.7661L4.53271 7.12098C4.53375 7.10399 4.53588 7.08731 4.53888 7.0708C4.55848 6.96148 4.61952 6.86398 4.71141 6.79812C4.73435 6.78169 9.69107 3.91256 9.70685 3.90465C9.82337 3.84613 9.9714 3.84552 10.0881 3.90287L15.0775 6.77287C15.1955 6.84804 15.2695 6.97551 15.2761 7.11485V12.8691C15.2701 12.9911 15.2218 13.1042 15.1269 13.1812L14.1596 13.7418L13.6605 14.031L11.8766 15.0648L10.0674 16.1133C9.96992 16.1485 9.856 16.1466 9.75937 16.1072L7.61887 14.8761L7.1816 15.6177L9.10522 16.7252C9.16883 16.7613 9.22553 16.7934 9.27202 16.8196C9.34406 16.86 9.39311 16.887 9.41044 16.8953C9.54717 16.9617 9.74386 17.0004 9.92113 17.0004C10.0837 17.0004 10.2421 16.9706 10.3921 16.9118L15.6469 13.8686C15.9485 13.6349 16.126 13.2825 16.142 12.9007V7.08287Z" fill="#96BEDC"/>
</svg>
