<svg width="16" height="16" viewBox="0 0 16 16" fill="none" xmlns="http://www.w3.org/2000/svg">
<rect width="16" height="16" rx="8" fill="#1D9AEE"/>
<path d="M9.45607 7.58371L10.3116 6.13208L12.6175 9.72368L12.6186 10.4129L12.6111 5.66992C12.6056 5.55398 12.5441 5.44791 12.4459 5.38537L8.2943 2.99733C8.1972 2.94961 8.07403 2.95012 7.97711 2.99882C7.96402 3.00539 7.95169 3.01252 7.93994 3.02029L7.92548 3.0294L3.89573 5.36462L3.88007 5.3717C3.85997 5.38096 3.83966 5.39271 3.82057 5.40637C3.74418 5.46118 3.69342 5.54219 3.67701 5.63308C3.67455 5.64685 3.67274 5.66088 3.67188 5.67501L3.6782 9.5401L5.82608 6.211C6.0965 5.76955 6.6857 5.62737 7.23263 5.6351L7.87458 5.65206L4.09225 11.7178L4.53811 11.9746L8.36577 5.6582L10.0576 5.65206L6.2398 12.1278L7.83076 13.0429L8.02085 13.1522C8.10125 13.1849 8.19604 13.1865 8.27713 13.1573L12.487 10.7176L11.6821 11.184L9.45607 7.58371ZM9.78249 12.2848L8.17558 9.76283L9.15648 8.09833L11.2668 11.4246L9.78249 12.2848Z" fill="#2D374B"/>
<path d="M8.17578 9.76313L9.78269 12.2851L11.2671 11.4249L9.15672 8.09863L8.17578 9.76313Z" fill="#28A0F0"/>
<path d="M12.6157 10.4127L12.6146 9.72343L10.3087 6.13184L9.45312 7.58347L11.6792 11.1837L12.4841 10.7173C12.563 10.6532 12.6108 10.5591 12.6158 10.4576L12.6157 10.4127Z" fill="#28A0F0"/>
<path d="M2.95316 11.0639L4.08977 11.7188L7.8721 5.65299L7.23016 5.63604C6.68322 5.6283 6.09406 5.77049 5.8236 6.21194L3.67572 9.54103L2.95312 10.6513V11.0639H2.95316Z" fill="white"/>
<path d="M10.0507 5.65234L8.35892 5.65849L4.53125 11.9748L5.86912 12.7452L6.23295 12.1281L10.0507 5.65234Z" fill="white"/>
<path d="M13.3291 5.64332C13.315 5.2895 13.1234 4.96559 12.8233 4.77702L8.61733 2.35829C8.32049 2.2088 7.94965 2.20862 7.65234 2.35818C7.6172 2.3759 3.5621 4.72771 3.5621 4.72771C3.50599 4.7546 3.45195 4.78667 3.40108 4.82304C3.1332 5.01504 2.9699 5.31336 2.95312 5.64115V10.6504L3.67572 9.54011L3.6694 5.67503C3.67027 5.66089 3.67204 5.64701 3.67453 5.63327C3.69084 5.54231 3.74163 5.46119 3.81809 5.40638C3.83718 5.39272 7.96151 3.00541 7.97463 2.99883C8.07159 2.95013 8.19476 2.94962 8.29182 2.99734L12.4434 5.38538C12.5416 5.44792 12.6032 5.55399 12.6086 5.66993V10.4578C12.6036 10.5594 12.5635 10.6534 12.4845 10.7176L11.6796 11.184L11.2644 11.4246L9.77997 12.2849L8.27462 13.1573C8.19353 13.1865 8.09874 13.1849 8.01834 13.1522L6.23729 12.1278L5.87346 12.7448L7.47404 13.6664C7.52696 13.6965 7.57414 13.7231 7.61282 13.7449C7.67276 13.7785 7.71358 13.801 7.728 13.808C7.84177 13.8632 8.00543 13.8954 8.15293 13.8954C8.28817 13.8954 8.42002 13.8705 8.54481 13.8217L12.9172 11.2895C13.1681 11.0951 13.3158 10.8018 13.3291 10.4842V5.64332Z" fill="#96BEDC"/>
</svg>
