<svg
  width="20"
  height="20"
  viewBox="0 0 20 20"
  fill="none"
  xmlns="http://www.w3.org/2000/svg"
>
  <path
    fill-rule="evenodd"
    clip-rule="evenodd"
    d="M10 1C14.9709 1 19 5.02909 19 10C19 14.9709 14.9709 19 10 19C5.02909 19 1 14.9709 1 10C1 5.02909 5.02909 1 10 1Z"
    fill="#F0B90B"
  ></path>
  <path
    d="M5.94718 10.0006L5.95367 12.3804L7.97578 13.5703V14.9636L4.77025 13.0835V9.3047L5.94718 10.0006ZM5.94718 7.62081V9.00759L4.76953 8.31095V6.92417L5.94718 6.22754L7.13059 6.92417L5.94718 7.62081ZM8.82025 6.92417L9.9979 6.22754L11.1813 6.92417L9.9979 7.62081L8.82025 6.92417Z"
    fill="white"
  ></path>
  <path
    d="M6.79688 11.8872V10.4939L7.97452 11.1905V12.5773L6.79688 11.8872ZM8.81899 14.0694L9.99663 14.766L11.18 14.0694V15.4561L9.99663 16.1528L8.81899 15.4561V14.0694ZM12.869 6.92417L14.0466 6.22754L15.23 6.92417V8.31095L14.0466 9.00759V7.62081L12.869 6.92417ZM14.0466 12.3804L14.0531 10.0006L15.2308 9.30398V13.0828L12.0252 14.9629V13.5696L14.0466 12.3804Z"
    fill="white"
  ></path>
  <path
    d="M13.203 11.8874L12.0254 12.5776V11.1908L13.203 10.4941V11.8874Z"
    fill="white"
  ></path>
  <path
    d="M13.2022 8.11328L13.2087 9.50655L11.1808 10.6965V13.082L10.0031 13.7722L8.82548 13.082V10.6965L6.7976 9.50655V8.11328L7.98029 7.41665L9.99591 8.61232L12.0238 7.41665L13.2072 8.11328H13.2022ZM6.79688 5.73419L9.99663 3.84766L13.2022 5.73419L12.0245 6.43083L9.99663 5.23516L7.97452 6.43083L6.79688 5.73419Z"
    fill="white"
  ></path>
</svg>
