<svg width="16" height="16" viewBox="0 0 16 16" fill="none" xmlns="http://www.w3.org/2000/svg">
<rect width="16" height="16" rx="8" fill="#CCCCCC"/>
<g clip-path="url(#clip0_3909_307214)">
<path d="M8.01523 1.33398L7.92578 1.63783V10.454L8.01523 10.5433L12.1075 8.12429L8.01523 1.33398Z" fill="#343434"/>
<path d="M8.00647 1.33398L3.91406 8.12429L8.00647 10.5433V6.26414V1.33398Z" fill="#8C8C8C"/>
<path d="M7.99963 11.3299L7.94922 11.3913V14.5318L7.99963 14.679L12.0944 8.91211L7.99963 11.3299Z" fill="#3C3C3B"/>
<path d="M8.00647 14.679V11.3299L3.91406 8.91211L8.00647 14.679Z" fill="#8C8C8C"/>
<path d="M8.00391 10.535L12.0962 8.11601L8.00391 6.25586V10.535Z" fill="#141414"/>
<path d="M3.91406 8.11601L8.00647 10.535V6.25586L3.91406 8.11601Z" fill="#393939"/>
</g>
<defs>
<clipPath id="clip0_3909_307214">
<rect width="13.3333" height="13.3333" fill="white" transform="translate(1.33594 1.33398)"/>
</clipPath>
</defs>
</svg>
