<svg width="20" height="20" viewBox="0 0 21 20" fill="none" xmlns="http://www.w3.org/2000/svg">
    <path d="M10.5548 18.8328C9.1994 18.8328 7.84397 18.8323 6.48855 18.833C6.23724 18.833 6.00666 18.7692 5.80776 18.6132C5.53139 18.3966 5.39445 18.1096 5.39422 17.7588C5.39354 17.1209 5.39878 16.4829 5.39263 15.8449C5.38716 15.291 5.81436 14.7755 6.45733 14.7678C6.489 14.7673 6.52044 14.7678 6.55211 14.7678C9.09869 14.7678 11.6453 14.7673 14.1919 14.7685C14.5213 14.7685 14.7959 14.65 15.0125 14.4036C15.1887 14.2031 15.2711 13.9653 15.2714 13.6993C15.2718 13.1276 15.2714 12.5559 15.2714 11.9842C15.2714 11.6209 15.2759 11.2576 15.2702 10.8946C15.2625 10.4058 15.6111 9.93634 16.1438 9.84409C16.2087 9.83293 16.2757 9.82975 16.3418 9.82975C16.9831 9.82861 17.6245 9.83225 18.2659 9.82815C18.7377 9.82496 19.1383 10.1215 19.2768 10.5322C19.3124 10.6376 19.3313 10.7456 19.331 10.8574C19.3306 11.9628 19.3324 13.0684 19.3301 14.1738C19.329 14.7455 18.8656 15.2094 18.2921 15.214C17.7865 15.2181 17.2812 15.2153 16.7756 15.2147C16.6088 15.2144 16.4475 15.2431 16.2973 15.3147C15.9159 15.4966 15.7173 15.8016 15.7132 16.2241C15.7084 16.7357 15.7109 17.2475 15.7125 17.7591C15.7134 18.0547 15.6156 18.3098 15.4083 18.521C15.216 18.7171 14.979 18.8159 14.7063 18.8316C14.6653 18.8339 14.6243 18.8332 14.5831 18.8332C13.2402 18.8332 11.8975 18.8332 10.5548 18.8332V18.8328Z" fill="black"/>
    <path d="M10.1069 0.833496C11.4655 0.833496 12.8239 0.833952 14.1825 0.833496C14.4628 0.833496 14.7106 0.919365 14.9189 1.10841C15.149 1.31728 15.2648 1.58149 15.2668 1.88989C15.2709 2.5404 15.272 3.19113 15.2668 3.84164C15.2627 4.35617 14.9166 4.77253 14.4176 4.87458C14.3379 4.89097 14.2545 4.89394 14.1727 4.89394C11.6325 4.89485 9.09254 4.89462 6.55234 4.89485C6.4227 4.89485 6.29374 4.89895 6.16729 4.93493C5.70454 5.06658 5.39513 5.47452 5.39445 5.96308C5.39331 6.8917 5.39445 7.82009 5.39605 8.7487C5.3965 8.93274 5.36164 9.10766 5.27187 9.26778C5.06978 9.62857 4.75718 9.82126 4.34547 9.82673C3.69157 9.83539 3.03743 9.83288 2.38353 9.82787C1.89367 9.824 1.48834 9.51696 1.36895 9.06689C1.34571 8.97943 1.33501 8.88627 1.33501 8.79585C1.33273 7.69959 1.33728 6.6038 1.33204 5.50777C1.32931 4.94177 1.79069 4.44887 2.38216 4.44887C2.87817 4.44887 3.37418 4.44887 3.87019 4.44865C4.40653 4.44819 4.8351 4.09014 4.92943 3.56217C4.93991 3.50363 4.94196 3.44282 4.94196 3.38314C4.94287 2.89048 4.94082 2.39781 4.9431 1.90492C4.94469 1.56623 5.07388 1.28448 5.33703 1.06901C5.53275 0.908888 5.76036 0.833952 6.01236 0.833952C6.74213 0.833496 7.47191 0.833952 8.20191 0.833952C8.8369 0.833952 9.4719 0.833952 10.1071 0.833952L10.1069 0.833496Z" fill="black"/>
    <path d="M12.3932 9.82654C12.3932 10.1518 12.4003 10.4771 12.3916 10.8021C12.3761 11.3822 11.9054 11.853 11.3262 11.8605C10.6757 11.8689 10.0248 11.8689 9.37431 11.8605C8.81063 11.853 8.34697 11.3982 8.31166 10.8374C8.30938 10.7996 8.30733 10.7618 8.3071 10.724C8.30687 10.1208 8.30778 9.51769 8.30664 8.91456C8.30596 8.59226 8.41259 8.31439 8.64453 8.08867C8.86372 7.87525 9.13074 7.77617 9.434 7.77526C10.0467 7.77343 10.6596 7.77229 11.2722 7.77526C11.8735 7.77822 12.2253 8.17772 12.3403 8.53487C12.3816 8.66287 12.3957 8.79338 12.3955 8.92663C12.3948 9.2266 12.3955 9.52657 12.3955 9.82654C12.3948 9.82654 12.3941 9.82654 12.3934 9.82654H12.3932Z" fill="black"/>
  </svg>