<svg width="20" height="20" viewBox="0 0 21 20" fill="none" xmlns="http://www.w3.org/2000/svg">
    <path d="M2.16602 6.75869V1.91453C2.16602 1.77825 2.28357 1.66675 2.42725 1.66675H7.53435C7.67803 1.66675 7.79559 1.77825 7.79559 1.91453V6.75869C7.80865 6.89497 7.69109 7.00647 7.53435 7.00647H2.42725C2.28357 7.00647 2.16602 6.89497 2.16602 6.75869ZM18.5714 1.67914H13.4643C13.3207 1.67914 13.2031 1.79064 13.2031 1.92692V6.77108C13.2031 6.90736 13.3207 7.01886 13.4643 7.01886H18.5714C18.7151 7.01886 18.8327 6.90736 18.8327 6.77108V1.92692C18.8327 1.79064 18.7151 1.67914 18.5714 1.67914ZM7.53435 12.1604H2.42725C2.28357 12.1604 2.16602 12.2719 2.16602 12.4081V17.2523C2.16602 17.3886 2.28357 17.5001 2.42725 17.5001H7.53435C7.69109 17.5001 7.80865 17.3762 7.79559 17.2523V12.4081C7.79559 12.2719 7.67803 12.1604 7.53435 12.1604ZM18.5714 12.1604H13.4643C13.3207 12.1604 13.2031 12.2719 13.2031 12.4081V17.2523C13.2031 17.3886 13.3207 17.5001 13.4643 17.5001H18.5714C18.7151 17.5001 18.8327 17.3886 18.8327 17.2523V12.4081C18.8327 12.2719 18.7151 12.1604 18.5714 12.1604ZM13.3207 12.0365V7.19231C13.3207 7.05603 13.2031 6.94453 13.0594 6.94453H7.95233C7.80865 6.94453 7.69109 7.05603 7.69109 7.19231V12.0365C7.69109 12.1727 7.80865 12.2842 7.95233 12.2842H13.0594C13.2031 12.2719 13.3207 12.1604 13.3207 12.0365Z" fill="black"/>
  </svg>