<svg width="20" height="20" viewBox="0 0 21 20" fill="none" xmlns="http://www.w3.org/2000/svg">
    <path d="M10.332 18.8335C15.3026 18.8335 19.332 14.8041 19.332 9.8335C19.332 4.86293 15.3026 0.833496 10.332 0.833496C5.36147 0.833496 1.33203 4.86293 1.33203 9.8335C1.33203 14.8041 5.36147 18.8335 10.332 18.8335Z" fill="#3396FF" stroke="#66B1FF" stroke-width="0.05"/>
    <path d="M6.83748 7.53102C8.76791 5.64851 11.8978 5.64851 13.8283 7.53102L14.0606 7.75758C14.1571 7.85169 14.1571 8.0043 14.0606 8.09841L13.2658 8.87345C13.2176 8.9205 13.1393 8.9205 13.0911 8.87345L12.7713 8.56167C11.4246 7.24839 9.24114 7.24839 7.89439 8.56167L7.55198 8.89555C7.50371 8.9426 7.42548 8.9426 7.37721 8.89555L6.58246 8.12051C6.48592 8.02641 6.48592 7.87379 6.58246 7.77969L6.83748 7.53102ZM15.4719 9.13384L16.1793 9.82361C16.2758 9.91772 16.2758 10.0703 16.1793 10.1644L12.9898 13.2747C12.8933 13.3688 12.7368 13.3688 12.6403 13.2747L10.3766 11.0673C10.3524 11.0437 10.3133 11.0437 10.2892 11.0673L8.02553 13.2747C7.92903 13.3688 7.77254 13.3688 7.676 13.2747L4.48645 10.1644C4.38993 10.0703 4.38993 9.91767 4.48645 9.82357L5.1938 9.13379C5.29032 9.03969 5.44682 9.03969 5.54334 9.13379L7.80705 11.3413C7.83118 11.3648 7.8703 11.3648 7.89443 11.3413L10.1581 9.13379C10.2546 9.03964 10.411 9.03964 10.5076 9.13379L12.7713 11.3413C12.7954 11.3648 12.8346 11.3648 12.8587 11.3413L15.1224 9.13384C15.2189 9.03969 15.3754 9.03969 15.4719 9.13384V9.13384Z" fill="white"/>
  </svg>