<svg width="58" height="40" viewBox="0 0 58 40" fill="none" xmlns="http://www.w3.org/2000/svg">
<rect x="0.5" y="0.5" width="57" height="39" rx="5.5" fill="white"/>
<path fill-rule="evenodd" clip-rule="evenodd" d="M20.9049 26.9226C21.1618 26.7892 21.5984 26.614 22.061 26.614C23.1227 26.614 23.6966 27.331 23.6966 28.665C23.6966 30.2234 22.9261 30.982 21.6843 30.982C21.2303 30.982 20.5281 30.8404 20.0142 30.5732V24.7553L20.9049 24.5469V26.9226ZM20.8965 30.265C21.1703 30.3817 21.4702 30.3983 21.6844 30.3983C22.318 30.3983 22.7976 30.015 22.7976 28.665C22.7976 27.6061 22.4036 27.2643 21.8299 27.2643C21.4872 27.2643 21.2391 27.356 20.8965 27.5394V30.265ZM11.7756 26.7222H11.8356L13 30.8819H13.9247L15.3122 24.9717H14.3102L13.4368 29.3815H13.3771L12.1865 24.9717H11.4244L10.3112 29.3815H10.2512L9.29202 24.9717H8.33301L9.72034 30.8819H10.645L11.7756 26.7222ZM19.107 30.5983V29.9649C18.6359 30.2399 18.2079 30.3983 17.7455 30.3983C16.8635 30.3983 16.4439 29.9563 16.4439 28.9562H19.2354V28.6479C19.2354 27.2894 18.576 26.6141 17.5058 26.6141C16.2213 26.6141 15.5618 27.531 15.5618 28.7978C15.5618 30.1151 16.1527 30.9821 17.5912 30.9821C18.2079 30.9821 18.7217 30.8153 19.107 30.5983ZM18.4218 28.3979H16.4613C16.5552 27.5645 16.9574 27.1726 17.4801 27.1726C17.9425 27.1726 18.3794 27.5225 18.4218 28.3979ZM27.6359 29.6315H27.5929L25.6747 24.9717H24.6386V30.8819H25.4094V26.6975H25.4863L27.2335 30.8819H27.7813L29.5284 26.5974H29.6056V30.8819H30.5304V24.9717H29.4684L27.6359 29.6315ZM31.4725 28.7978C31.4725 27.3391 32.2946 26.6141 33.4249 26.6141C34.5554 26.6141 35.3776 27.3391 35.3776 28.7978C35.3776 30.2234 34.5982 30.9821 33.4249 30.9821C32.2516 30.9821 31.4725 30.2234 31.4725 28.7978ZM34.4782 28.7978C34.4782 27.6727 34.007 27.1977 33.4249 27.1977C32.8596 27.1977 32.3715 27.6727 32.3715 28.7978C32.3715 29.9402 32.8171 30.3983 33.4249 30.3983C34.0328 30.3983 34.4782 29.9402 34.4782 28.7978ZM38.3741 26.6141C37.3898 26.6141 36.5761 27.0058 36.1908 27.2309V30.882H37.0815V27.581C37.3468 27.4312 37.7836 27.2809 38.1264 27.2809C38.563 27.2809 38.8967 27.3976 38.8967 28.0562V30.882H39.7872V27.8642C39.7872 27.0058 39.4022 26.6141 38.3741 26.6141ZM44.1287 29.9649V30.5983C43.7436 30.8153 43.23 30.9821 42.6131 30.9821C41.1747 30.9821 40.5838 30.1151 40.5838 28.7978C40.5838 27.531 41.2434 26.6141 42.5277 26.6141C43.5983 26.6141 44.2579 27.2894 44.2579 28.6479V28.9562H41.4661C41.4661 29.9563 41.8857 30.3983 42.7676 30.3983C43.23 30.3983 43.6582 30.2399 44.1287 29.9649ZM41.4832 28.3979H43.4441C43.4015 27.5225 42.9644 27.1726 42.502 27.1726C41.9795 27.1726 41.5776 27.5645 41.4832 28.3979ZM48.5053 26.7557H47.589L46.6124 29.823H46.5613L45.4652 26.7557H44.5232L46.1674 30.9235C45.9616 31.5402 45.6023 31.9907 45.02 31.9907V32.6739C46.0043 32.6739 46.5268 32.074 46.9551 30.9235L48.5053 26.7557Z" fill="#0068A3"/>
<path fill-rule="evenodd" clip-rule="evenodd" d="M27.8452 7.5C29.0237 7.5 30.1398 7.76713 31.1338 8.24139C31.2899 8.31348 31.4456 8.3928 31.6018 8.48037L30.9108 9.0823L29.8728 8.03751L28.1207 9.55862L27.0801 8.45309L23.8164 11.3166L25.9087 13.5612L25.0865 14.2651L27.1473 16.513L26.3299 17.2154L29.2748 20.406L31.0229 18.8395L32.5343 20.5182C32.2336 20.7457 31.9062 20.9598 31.5454 21.1576C30.4525 21.7642 29.1894 22.1116 27.8452 22.1116C23.7114 22.1116 20.3398 18.8293 20.3398 14.806C20.3398 10.7818 23.7114 7.5 27.8452 7.5ZM26.4774 14.3441L28.2621 12.7797L29.8692 14.5173L28.0846 16.0812L26.4774 14.3441ZM29.5314 15.7819L27.7465 17.3459L29.3539 19.0836L31.1386 17.5192L29.5314 15.7819ZM25.2004 11.3774L26.9851 9.81335L28.5917 11.5506L26.807 13.1146L25.2004 11.3774ZM29.8141 9.36253L28.4755 10.5354L29.6806 11.8388L31.0192 10.6655L29.8141 9.36253ZM30.8538 15.9089L32.1928 14.7355L33.3979 16.0388L32.0593 17.2118L30.8538 15.9089ZM33.3696 17.3672L32.0314 18.5407L33.2365 19.8432L34.5751 18.6701L33.3696 17.3672ZM32.5704 12.5089L33.4628 11.7268L34.2661 12.5954L33.3742 13.3773L32.5704 12.5089ZM32.3227 9.14597L31.4303 9.92791L32.2336 10.7965L33.1262 10.0146L32.3227 9.14597ZM33.7113 15.0897L34.6036 14.3076L35.4071 15.176L34.5147 15.9581L33.7113 15.0897ZM31.0477 11.9823L29.7092 13.1558L30.9147 14.4582L32.2528 13.2852L31.0477 11.9823Z" fill="#0068A3"/>
<rect x="0.5" y="0.5" width="57" height="39" rx="5.5" stroke="#F2F4F7"/>
</svg>
