<svg width="58" height="40" viewBox="0 0 58 40" fill="none" xmlns="http://www.w3.org/2000/svg">
<rect x="0.5" y="0.5" width="57" height="39" rx="5.5" fill="white"/>
<path d="M39.6671 17.9651C39.5503 17.2435 38.9076 16.7623 38.0313 16.7623C37.7392 16.7623 37.5055 16.7623 37.2134 16.7623C36.6876 16.7022 36.5707 16.8826 36.5707 17.3036C36.5707 19.4085 36.5707 21.4533 36.5707 23.5583C36.5707 24.6408 35.5191 25.7835 34.2922 26.0241C30.4363 26.9262 26.5804 27.7682 22.7245 28.6703C22.3155 28.7906 21.8482 28.7906 21.3808 28.7906C21.2055 28.7906 20.9134 28.6703 20.855 28.4899C20.7966 28.3696 20.9718 28.129 21.0887 28.0087C21.2639 27.8884 21.4976 27.7682 21.7313 27.6479C22.4324 27.4073 23.1919 27.1668 23.893 26.9262C26.7557 25.9639 29.6184 25.0017 32.4811 23.9793C33.7664 23.5583 34.4675 22.6562 34.4675 21.5135C34.5259 17.905 34.4675 14.2364 34.4675 10.6279C34.4675 10.0265 34.1754 9.54538 33.5327 9.30482C32.7732 9.00411 32.0722 9.24467 31.4295 9.54538C27.3399 11.53 23.3087 13.5147 19.2191 15.4994C18.0507 16.1008 17.3496 16.9427 17.3496 18.1456C17.3496 21.5736 17.3496 25.0017 17.3496 28.4297C17.3496 28.6101 17.3496 28.7906 17.408 28.9109C17.817 30.0535 18.8686 30.7752 20.2708 30.7752C23.1335 30.7752 25.9962 30.7752 28.8589 30.7752C31.7216 30.7752 34.5259 30.7752 37.3886 30.7752C38.0313 30.7752 38.5571 30.6549 39.0245 30.234C39.6087 29.7528 39.6087 29.0913 39.6087 28.4899C39.6087 25.531 39.6671 17.9651 39.6671 17.9651ZM27.7489 16.8826C28.041 16.1008 28.6836 15.6196 29.6184 15.4994C30.2611 15.4392 30.7869 15.8001 30.9037 16.4015C31.0206 17.3036 29.9689 18.3861 28.8589 18.3861C27.9826 18.3861 27.4568 17.7246 27.7489 16.8826Z" fill="#FD6727"/>
<rect x="0.5" y="0.5" width="57" height="39" rx="5.5" stroke="#F2F4F7"/>
</svg>
