<svg width="58" height="40" viewBox="0 0 58 40" fill="none" xmlns="http://www.w3.org/2000/svg">
<rect x="0.5" y="0.5" width="57" height="39" rx="5.5" fill="white"/>
<path fill-rule="evenodd" clip-rule="evenodd" d="M6.66699 24.0104C6.69584 23.8553 6.72227 23.7052 6.74817 23.558C6.78821 23.3304 6.827 23.11 6.87159 22.8895C7.06045 21.8924 7.25061 20.8966 7.44078 19.9008L7.44078 19.9008L7.44079 19.9008L7.44079 19.9007L7.4408 19.9007L7.4408 19.9007C7.63098 18.9048 7.82115 17.909 8.01001 16.9118C8.03624 16.7855 8.07297 16.7013 8.19887 16.6803C9.17991 16.5329 10.1662 16.4277 11.1472 16.675C12.0023 16.8855 12.6004 17.4906 12.7001 18.201C12.9047 19.6165 12.081 20.7479 10.8587 21.1531C10.2134 21.3635 9.55763 21.4162 8.89137 21.353C8.73398 21.3372 8.68677 21.3793 8.66054 21.5319C8.51889 22.3054 8.372 23.0737 8.21986 23.842C8.20937 23.9051 8.15166 24.0051 8.11494 24.0051C7.75841 24.013 7.40773 24.012 7.04324 24.011H7.04324H7.04323H7.04323H7.04323H7.04322C6.91965 24.0107 6.7945 24.0104 6.66699 24.0104ZM8.92285 20.1006C9.02541 20.1006 9.12474 20.1033 9.22153 20.106C9.42674 20.1116 9.62052 20.1168 9.80945 20.0954C10.3551 20.0375 10.7905 19.7902 11.0371 19.2692C11.3151 18.6799 11.1157 18.0537 10.5911 17.8695C10.2187 17.738 9.83568 17.7643 9.45271 17.8169C9.4055 17.8222 9.34254 17.8958 9.33205 17.9432C9.25867 18.3289 9.18529 18.7162 9.10915 19.1181L9.10915 19.1181L8.92285 20.1006ZM15.9685 23C15.8855 23.0866 15.8077 23.1738 15.7317 23.2589L15.7317 23.2589C15.5676 23.4428 15.4116 23.6175 15.2288 23.7578C14.6779 24.184 14.0484 24.2787 13.4136 23.9841C12.784 23.6946 12.527 23.1316 12.5007 22.4686C12.443 21.0741 12.9309 19.9217 14.1008 19.1219C14.8353 18.6167 15.6799 18.4641 16.556 18.5115C16.8458 18.5286 17.1334 18.579 17.4217 18.6296C17.577 18.6568 17.7324 18.6841 17.8886 18.7062C18.0669 18.7325 18.0932 18.8325 18.0617 18.9851C18.0196 19.2052 17.977 19.425 17.9345 19.6447C17.7756 20.4651 17.617 21.2837 17.4846 22.1055C17.4087 22.576 17.3784 23.0579 17.3484 23.535L17.3484 23.5353L17.3483 23.5357C17.3431 23.6187 17.3379 23.7015 17.3325 23.7841C17.322 23.9525 17.28 24.0209 17.1069 24.0156C16.7816 24.0051 16.4564 24.0051 16.1311 24.0156C15.9632 24.0209 15.9055 23.9577 15.9213 23.7946C15.9362 23.6143 15.9459 23.4287 15.9559 23.2358L15.9559 23.2354L15.956 23.2333C15.96 23.1567 15.964 23.079 15.9685 23ZM16.3357 19.748C15.8268 19.606 15.4019 19.7059 15.0452 20.0059C14.3736 20.5742 14.0694 21.3109 14.1271 22.1896C14.1428 22.458 14.2477 22.7158 14.531 22.8316C14.8143 22.9474 15.0714 22.8632 15.2917 22.6737C15.4229 22.558 15.5488 22.4264 15.6432 22.2791C16.0133 21.7126 16.1143 21.0736 16.217 20.4245L16.217 20.4245C16.2526 20.1993 16.2884 19.973 16.3357 19.748ZM23.7695 22.6948C24.0581 23.621 24.8502 24.1366 26.2405 24.1366C27.1953 24.1103 28.1448 23.5683 28.7376 22.4528C29.0524 21.8529 29.1678 21.2109 29.1259 20.5374C29.0891 19.8901 28.8321 19.3429 28.3074 18.9535C27.7566 18.543 27.1271 18.4589 26.4555 18.5325C24.2102 18.7851 23.2921 21.1688 23.7695 22.6948ZM25.2635 21.9221V21.922V21.922V21.9219V21.9218C25.2641 21.895 25.2647 21.8684 25.2647 21.8424C25.2804 21.2372 25.4273 20.6742 25.7893 20.1743C25.9519 19.9533 26.1565 19.7849 26.4293 19.7217C26.9854 19.5955 27.4418 19.9164 27.4943 20.5216C27.5572 21.2635 27.3789 21.9476 26.912 22.5422C26.7336 22.7632 26.508 22.9158 26.2195 22.9421C25.7001 22.9895 25.3066 22.6369 25.2647 22.0844C25.2612 22.0316 25.2623 21.9764 25.2635 21.9221ZM30.3745 18.643H31.707C31.686 18.9272 31.665 19.2008 31.6388 19.4797C31.6874 19.4343 31.7344 19.3895 31.7804 19.3456L31.7804 19.3455C31.8786 19.2519 31.9726 19.1622 32.069 19.0798C32.5884 18.6273 33.1812 18.4273 33.8684 18.5378C34.435 18.6325 34.8285 19.0482 34.8914 19.6323C34.9598 20.2401 34.8462 20.8296 34.7328 21.4179L34.7078 21.5477C34.6618 21.7866 34.6163 22.0255 34.5709 22.2642L34.5708 22.2645L34.5708 22.2649L34.5707 22.2651L34.5707 22.2653L34.5707 22.2654C34.471 22.7888 34.3716 23.3114 34.2671 23.8314C34.2514 23.8999 34.1727 23.9998 34.1202 24.0051C33.6691 24.0156 33.2179 24.0104 32.7667 24.0051C32.7516 24.0051 32.7365 23.9969 32.7135 23.9844C32.7046 23.9796 32.6945 23.9741 32.6828 23.9683C32.7667 23.5315 32.8507 23.0895 32.9294 22.6475C33.05 21.9687 33.1654 21.2951 33.2704 20.6163C33.2913 20.5006 33.2808 20.3795 33.2651 20.2638C33.2231 19.8586 32.9241 19.6744 32.5359 19.7954C32.1582 19.9165 31.9326 20.2111 31.749 20.5374C31.4762 21.0162 31.3817 21.5477 31.2873 22.0792C31.2636 22.2109 31.2403 22.3423 31.2169 22.4736C31.1366 22.9246 31.0567 23.3738 30.9673 23.8262C30.9515 23.8946 30.8729 23.9998 30.8204 24.0051C30.4525 24.0177 30.0813 24.0169 29.6855 24.0161C29.5846 24.0158 29.4821 24.0156 29.3777 24.0156C29.7239 22.2055 30.0492 20.4321 30.3745 18.643ZM37.9394 22.9106C37.3833 22.8422 37.0108 22.4528 37.0476 21.9055C37.1636 21.9055 37.279 21.9073 37.3938 21.9091C37.6217 21.9126 37.8473 21.916 38.0706 21.9055C38.6109 21.874 39.1408 21.7845 39.6339 21.5372C40.2635 21.2215 40.5572 20.7005 40.51 20.0217C40.4628 19.3324 40.0903 18.8325 39.4241 18.6325C38.4273 18.3326 37.5092 18.5431 36.7275 19.2113C35.778 20.0217 35.4212 21.0952 35.5576 22.3212C35.6521 23.1895 36.1242 23.8104 36.9846 24.0314C37.9079 24.2682 38.8155 24.1419 39.6916 23.7841C39.7546 23.7578 39.828 23.6578 39.8228 23.5947C39.8102 23.3378 39.7842 23.081 39.7581 22.8242C39.7516 22.76 39.7451 22.6959 39.7388 22.6317C39.7216 22.6317 39.7088 22.6308 39.6989 22.6301C39.6848 22.6291 39.6768 22.6286 39.6706 22.6317C39.6129 22.6527 39.5552 22.6738 39.5028 22.6948C38.9991 22.8895 38.4798 22.9737 37.9394 22.9106ZM38.7525 20.5794C38.4325 20.7478 37.6036 20.8478 37.1996 20.7636C37.2836 20.0638 38.0233 19.5165 38.6476 19.6691C38.8574 19.7217 39.0096 19.8322 39.0463 20.0585C39.083 20.2795 38.9728 20.4637 38.7525 20.5794ZM42.2885 21.9266C42.2413 22.4423 42.6085 22.837 43.1699 22.9106C43.6945 22.9738 44.1981 22.8948 44.6913 22.7159C44.7367 22.6988 44.7806 22.6817 44.8288 22.663C44.8696 22.6471 44.9135 22.63 44.9641 22.6107C44.9743 22.7222 44.9857 22.8314 44.9969 22.9391C45.0201 23.1619 45.0426 23.3783 45.0532 23.5947C45.0585 23.6578 44.9851 23.7578 44.9273 23.7841C44.0355 24.1525 43.1174 24.2788 42.1783 24.0209C41.3337 23.7894 40.893 23.1737 40.7881 22.3318C40.657 21.2531 40.935 20.2796 41.6852 19.4798C42.4931 18.622 43.4846 18.3168 44.6283 18.6326C45.326 18.8273 45.6985 19.3324 45.7405 20.0428C45.7825 20.7374 45.4677 21.2583 44.8119 21.5635C44.1509 21.8687 43.4479 21.9161 42.7344 21.9319C42.5928 21.9266 42.4459 21.9266 42.2885 21.9266ZM42.4407 20.8058C42.5361 20.7998 42.6298 20.7951 42.7222 20.7905C42.9549 20.7788 43.1792 20.7675 43.4007 20.7374C43.6106 20.7111 43.8204 20.6479 44.0093 20.5585C44.2139 20.469 44.3135 20.2796 44.2821 20.0481C44.2506 19.8271 44.1037 19.7218 43.8991 19.6692C43.28 19.5008 42.5089 20.0691 42.4407 20.8058ZM46.029 22.9106C45.9608 23.2684 45.8978 23.621 45.8296 24.0104C45.9347 24.0104 46.0383 24.0106 46.1406 24.0108C46.5443 24.0116 46.9293 24.0124 47.3143 23.9998C47.351 23.9998 47.4087 23.8999 47.4192 23.8367C47.4727 23.5739 47.5223 23.3098 47.5719 23.0458C47.6634 22.5591 47.7548 22.0726 47.8704 21.5951C48.1274 20.5321 48.5629 20.1638 49.5964 20.027C49.6383 20.0217 49.7065 19.9743 49.717 19.9375C49.7829 19.6351 49.8419 19.3304 49.903 19.0143C49.9345 18.8518 49.9665 18.6864 50.0003 18.5168C49.0036 18.4115 48.4475 18.9903 47.9648 19.7007L47.9725 19.5987C47.9962 19.2843 48.0204 18.9643 48.0488 18.6273C47.9397 18.6273 47.8327 18.6269 47.7271 18.6266C47.4164 18.6256 47.1188 18.6247 46.8212 18.6325C46.7792 18.6378 46.7005 18.7325 46.6952 18.7904C46.5833 20.1428 46.3184 21.4656 46.0536 22.7875C46.0454 22.8285 46.0372 22.8695 46.029 22.9106Z" fill="currentColor"/>
<path fill-rule="evenodd" clip-rule="evenodd" d="M32.1389 12.2948C32.0857 12.2808 32.0326 12.2667 31.9795 12.2549C31.8169 12.2549 31.6543 12.2549 31.4811 12.2601C31.422 12.272 31.3629 12.2849 31.3033 12.298C31.2306 12.3139 31.1573 12.3299 31.0824 12.3443C30.2798 12.4969 29.5243 12.7758 28.7951 13.1442C27.216 13.944 25.7995 14.9806 24.53 16.2067C23.6853 17.0171 22.8669 17.8643 22.0747 18.7325C20.6845 20.2585 19.4936 21.9371 18.5441 23.7788C18.0562 24.7313 17.6155 25.7048 17.4162 26.7624C17.3794 26.9571 17.4424 27.1834 17.5053 27.3781C17.5316 27.457 17.6785 27.5149 17.7781 27.5465C17.8044 27.557 17.8831 27.4255 17.9198 27.3518C17.9328 27.3233 17.9462 27.294 17.9598 27.2641C18.1876 26.765 18.4957 26.0901 18.763 25.6432C19.3296 24.6961 19.7769 23.963 20.4117 23.0632C21.4295 21.6161 22.6187 20.1963 23.8672 18.9439C25.0476 17.76 26.2297 16.7013 27.7144 15.9015C28.3964 15.5384 29.0941 15.1806 29.8076 14.8859C31.0405 14.3755 32.3258 14.0282 33.6478 13.8335C33.7894 13.8125 33.9783 13.702 34.0255 13.5862C34.0675 13.4809 33.9678 13.281 33.8681 13.181C33.4642 12.7653 32.992 12.4496 32.4045 12.3549C32.3159 12.3417 32.2274 12.3183 32.1389 12.2948ZM20.1284 19.4745C20.3802 18.7904 20.5062 18.08 20.5219 17.3433C20.5149 17.2644 20.5091 17.1855 20.5032 17.1065C20.4916 16.9487 20.4799 16.7908 20.4589 16.6329C20.3173 15.4121 19.7927 14.3755 18.9585 13.4862C18.8589 13.3862 18.7225 13.3073 18.5861 13.2599C18.4497 13.2073 18.3605 13.2862 18.371 13.4441C18.3712 13.4474 18.3715 13.4508 18.3717 13.4541C18.382 13.5878 18.3926 13.7263 18.4182 13.8598C18.455 14.0701 18.4916 14.2806 18.5283 14.4913C18.6585 15.2401 18.789 15.9908 18.9323 16.7382C19.074 17.4907 19.2313 18.2379 19.3992 18.9798C19.4569 19.2166 19.5514 19.4534 19.6668 19.6744C19.756 19.8428 19.8819 19.827 19.9973 19.6744C20.0497 19.6113 20.1022 19.5481 20.1284 19.4745Z" fill="#FC461E"/>
<rect x="0.5" y="0.5" width="57" height="39" rx="5.5" stroke="#F2F4F7"/>
</svg>
