<svg width="58" height="40" viewBox="0 0 58 40" fill="none" xmlns="http://www.w3.org/2000/svg">
<rect x="0.5" y="0.5" width="57" height="39" rx="5.5" fill="white"/>
<path fill-rule="evenodd" clip-rule="evenodd" d="M11.56 22.9446C11.2501 23.1216 10.9201 23.2099 10.5703 23.2099H10.3004C10.2303 23.2099 10.1301 23.2039 9.84093 23.1512L10.8187 18.8685C10.9986 18.7021 11.1926 18.5941 11.4176 18.5419C11.6426 18.4899 11.7874 18.4758 11.9276 18.4758C12.3572 18.4758 12.6897 18.6042 12.8497 18.8854C13.0096 19.1663 13.0896 19.5566 13.0896 20.0562C13.0896 20.4622 13.0245 20.8525 12.8947 21.2272C12.7647 21.6018 12.5873 21.9375 12.3624 22.2342C12.1375 22.5308 11.8698 22.7677 11.56 22.9446ZM13.7646 16.7933C13.4144 16.6164 12.9997 16.5279 12.5198 16.5279C12.2897 16.5279 12.0748 16.5539 11.875 16.6059C11.6749 16.6582 11.4864 16.7255 11.2865 16.8191L12.205 12.7965L9.88047 13.1712L7.28613 24.5214C7.576 24.6672 7.88332 24.7816 8.20842 24.8648C8.53318 24.948 8.8406 25.0104 9.13059 25.0521C9.42046 25.0937 9.67805 25.117 9.90301 25.1224C10.128 25.1275 10.2854 25.1302 10.3754 25.1302C11.0751 25.1302 11.725 24.9921 12.3248 24.7164C12.9247 24.4408 13.4444 24.0662 13.8845 23.5924C14.3244 23.1188 14.6718 22.562 14.9268 21.9219C15.1817 21.2818 15.3092 20.6026 15.3092 19.8844C15.3092 19.4161 15.254 18.979 15.1441 18.5731C15.034 18.1671 14.8641 17.8134 14.6343 17.5114C14.4042 17.2096 14.1143 16.9703 13.7646 16.7933ZM19.9125 15.526L20.254 14.0303H18.0273L17.6858 15.526H19.9125ZM23.1347 23.1479C22.8477 23.1479 22.6222 23.1054 22.4585 23.0199C22.2944 22.9347 22.1792 22.8146 22.1127 22.6599C22.0459 22.5054 22.0205 22.3213 22.0358 22.1079C22.0512 21.8946 22.0896 21.6654 22.1511 21.4199L22.8273 18.4758H25.3632L25.8243 16.5237H23.273L23.857 14.0436L21.4748 14.4277L19.9686 21.0518C19.8457 21.5958 19.7739 22.1134 19.7535 22.6039C19.7328 23.0947 19.8046 23.5294 19.9686 23.9079C20.1324 24.2867 20.409 24.5854 20.7986 24.8039C21.1878 25.0224 21.7361 25.1319 22.4431 25.1319C22.9348 25.1319 23.36 25.0892 23.7187 25.0039C23.7557 24.9951 23.812 24.9809 23.8485 24.9717L24.3123 22.9522C24.1565 23.0075 24.0001 23.0446 23.8493 23.0759C23.6188 23.1239 23.3806 23.1479 23.1347 23.1479ZM50.1909 16.5264H47.9642L46.6691 22.1992H46.6713L46.4934 22.9795C46.3691 23.0159 46.2454 23.0485 46.1226 23.0741C45.8921 23.1221 45.6539 23.1462 45.408 23.1462C45.1209 23.1462 44.8955 23.1036 44.7317 23.0181C44.5677 22.9328 44.4525 22.8129 44.3859 22.6581C44.3192 22.5036 44.2937 22.3196 44.3091 22.1061C44.3245 21.8928 44.3629 21.6636 44.4244 21.4181L45.1005 18.474L45.5463 16.5219L45.5464 16.5214H43.2716L42.2419 21.0501C42.119 21.5941 42.0472 22.1116 42.0268 22.6022C42.0061 23.0929 42.0779 23.5277 42.2419 23.9061C42.4057 24.2849 42.6823 24.5837 43.0719 24.8022C43.4611 25.0206 44.0094 25.1302 44.7163 25.1302C45.2081 25.1302 45.6333 25.0875 45.992 25.0021C46.0045 24.9992 46.0166 24.996 46.0288 24.9929L46.0289 24.9929L46.0346 24.9914L46.0336 24.9956C45.9339 25.4629 45.732 25.8418 45.4081 26.1375C45.0838 26.4335 44.6026 26.5815 43.9645 26.5815C43.6921 26.5815 43.4446 26.5647 43.2203 26.5324L42.782 28.452C43.0785 28.492 43.4071 28.5126 43.77 28.5126C44.4481 28.5126 45.0416 28.4319 45.5502 28.2711C46.0588 28.1101 46.495 27.8662 46.859 27.5391C47.223 27.2121 47.5271 26.8018 47.7716 26.309C48.0158 25.8157 48.2128 25.232 48.3624 24.5569L49.9032 17.8137L49.8976 17.8112L50.1909 16.5264ZM39.2692 18.4758C38.2309 18.4758 38.0327 18.4758 37.6072 18.7055C37.3052 18.8685 37.0552 19.1135 36.8357 19.3994C36.6159 19.6854 36.4438 20.0153 36.3191 20.3895C36.194 20.7639 36.1317 21.1537 36.1317 21.5591C36.1317 22.0581 36.2116 22.4534 36.3715 22.7443C36.531 23.0355 36.8257 23.1809 37.2552 23.1809C37.4848 23.1809 37.6919 23.1342 37.8768 23.0405C38.0614 22.947 38.2588 22.791 38.4684 22.5727C38.4884 22.313 38.5209 22.0402 38.5659 21.7541C38.6069 21.4928 38.658 21.2489 38.7048 21.026L38.7178 20.9639L39.2692 18.4758ZM40.8502 21.372C40.7101 21.9647 40.6703 22.5597 40.7302 23.1575C40.7902 23.7555 41.0099 24.6716 41.2241 25.1302H39.0692C38.8731 24.7848 38.8297 24.5762 38.7997 24.4319C38.7894 24.3826 38.7808 24.3408 38.7681 24.3037C38.4884 24.5429 38.1788 24.7403 37.8394 24.8962C37.4998 25.0521 37.1204 25.1302 36.7009 25.1302C36.2016 25.1302 35.7746 25.0391 35.4203 24.8573C35.0657 24.6755 34.7761 24.4311 34.5515 24.1244C34.3268 23.8179 34.1643 23.4592 34.0648 23.0484C33.9647 22.6378 33.9149 22.1985 33.9149 21.7307C33.9149 21.0134 34.037 20.3376 34.2819 19.7035C34.5265 19.0694 34.8661 18.5158 35.3005 18.0426C35.7348 17.5696 36.7831 16.5266 38.5034 16.5266L41.958 16.5264L40.8502 21.372ZM28.4552 23.2144C28.2037 23.2144 27.9927 23.1935 27.8217 23.1515L28.9 18.4758C28.9 18.4758 29.4486 18.4758 29.7789 18.4771C30.2514 18.4791 30.5863 18.646 30.7774 18.96C30.9683 19.274 31.0639 19.6562 31.0639 20.1061C31.0639 20.5667 31.0009 20.9878 30.8754 21.3698C30.7496 21.752 30.5739 22.0789 30.3477 22.3509C30.1214 22.6232 29.8474 22.8351 29.5258 22.9868C29.2039 23.1386 28.8472 23.2144 28.4552 23.2144ZM32.9337 22.0291C33.175 21.3961 33.2956 20.6975 33.2956 19.9333C33.2956 19.4624 33.2326 19.0204 33.1071 18.6067C32.9813 18.1935 32.7878 17.8324 32.5266 17.5235C32.2651 17.2149 31.931 16.9716 31.5238 16.7936C31.1167 16.6157 30.6315 16.5267 30.0687 16.5267L29.2936 16.5267H29.2914H29.2909H29.2903H29.2893C28.4653 16.5266 27.3649 16.5265 27.0948 16.5267L24.5043 27.8769H26.736L27.4146 25.0354C27.7563 25.0983 28.0981 25.1296 28.44 25.1296C29.1437 25.1296 29.7946 25.0013 30.3928 24.7451C30.9908 24.4887 31.5035 24.1303 31.931 23.6696C32.3582 23.2093 32.6926 22.6625 32.9337 22.0291ZM15.4894 25.1319L17.4551 16.5215H19.6819L17.7161 25.1319H15.4894Z" fill="#002855"/>
<rect x="0.5" y="0.5" width="57" height="39" rx="5.5" stroke="#F2F4F7"/>
</svg>
