<svg width="58" height="40" viewBox="0 0 58 40" fill="none" xmlns="http://www.w3.org/2000/svg">
<rect x="0.5" y="0.5" width="57" height="39" rx="5.5" fill="white"/>
<ellipse cx="28.225" cy="19.8917" rx="13.225" ry="13.225" fill="#6481E7"/>
<path fill-rule="evenodd" clip-rule="evenodd" d="M22.4473 20.4298L28.3795 23.9367V10.5864L22.4473 20.4298Z" fill="white"/>
<path fill-rule="evenodd" clip-rule="evenodd" d="M28.3799 10.5864V23.9367L34.3121 20.4298L28.3799 10.5864Z" fill="#C1CCF5"/>
<path fill-rule="evenodd" clip-rule="evenodd" d="M28.3799 17.7335L22.4473 20.4296L28.3795 23.9365L34.3122 20.43L28.3799 17.7335Z" fill="#8299EC"/>
<path fill-rule="evenodd" clip-rule="evenodd" d="M28.3799 17.7335L22.4473 20.4296L28.3795 23.9365L28.3799 17.7335Z" fill="#C1CCF5"/>
<path fill-rule="evenodd" clip-rule="evenodd" d="M22.4473 21.5549L28.3795 29.9148V25.0598L22.4473 21.5549Z" fill="white"/>
<path fill-rule="evenodd" clip-rule="evenodd" d="M28.3799 25.0598V29.9152L34.3161 21.5549L28.3799 25.0598Z" fill="#C1CCF5"/>
<rect x="0.5" y="0.5" width="57" height="39" rx="5.5" stroke="#F2F4F7"/>
</svg>
