<svg width="58" height="40" viewBox="0 0 58 40" fill="none" xmlns="http://www.w3.org/2000/svg">
<rect x="0.5" y="0.5" width="57" height="39" rx="5.5" fill="white"/>
<path d="M17.5303 8.33411H26.4606C27.7072 8.33411 28.4825 9.38007 28.1917 10.6676L24.034 29.0432C23.7406 30.3262 22.4925 31.3731 21.245 31.3731H12.3156C11.0707 31.3731 10.2936 30.3262 10.5844 29.0432L14.7439 10.6676C15.0347 9.38007 16.2821 8.33411 17.5303 8.33411Z" fill="#E21836"/>
<path d="M25.7172 8.33337H35.9868C37.2332 8.33337 36.6712 9.37934 36.378 10.6668L32.2209 29.0425C31.9293 30.3255 32.0202 31.3724 30.7713 31.3724H20.5016C19.2526 31.3724 18.4797 30.3255 18.7731 29.0425L22.9299 10.6668C23.2251 9.37934 24.47 8.33337 25.7172 8.33337Z" fill="#00447C"/>
<path d="M35.5791 8.33337H44.5094C45.7577 8.33337 46.5331 9.37934 46.2399 10.6668L42.0828 29.0425C41.7894 30.3255 40.5404 31.3724 39.2923 31.3724H30.3661C29.1171 31.3724 28.3425 30.3255 28.635 29.0425L32.7927 10.6668C33.0835 9.37934 34.3301 8.33337 35.5791 8.33337Z" fill="#007B84"/>
<path d="M19.8621 14.2221C18.9438 14.2318 18.6726 14.2221 18.586 14.2011C18.5526 14.364 17.9329 17.3067 17.9312 17.3092C17.7978 17.9045 17.7007 18.3289 17.3709 18.603C17.1837 18.7623 16.9652 18.8391 16.7118 18.8391C16.3046 18.8391 16.0673 18.631 16.0275 18.2361L16.0199 18.1006C16.0199 18.1006 16.1439 17.3031 16.1439 17.2986C16.1439 17.2986 16.7943 14.617 16.9108 14.2625C16.9169 14.2423 16.9186 14.2318 16.9201 14.2221C15.6542 14.2336 15.4298 14.2221 15.4143 14.2011C15.4058 14.23 15.3745 14.3962 15.3745 14.3962L14.7104 17.4187L14.6533 17.6751L14.543 18.5136C14.543 18.7623 14.5904 18.9653 14.6849 19.1369C14.9874 19.6812 15.8505 19.7627 16.3387 19.7627C16.9678 19.7627 17.5579 19.6252 17.9567 19.374C18.6489 18.953 18.83 18.2949 18.9915 17.71L19.0663 17.41C19.0663 17.41 19.7363 14.6248 19.8502 14.2625C19.8545 14.2423 19.8563 14.2318 19.8621 14.2221ZM22.1417 16.469C21.9802 16.469 21.6851 16.5093 21.4199 16.6431C21.3237 16.694 21.2327 16.7527 21.1367 16.8111L21.2234 16.4892L21.1759 16.4349C20.6137 16.5521 20.4879 16.5678 19.9685 16.6431L19.925 16.6729C19.8647 17.1876 19.8111 17.5746 19.5876 18.5862C19.5025 18.9591 19.4141 19.3355 19.3255 19.7075L19.3495 19.7548C19.8817 19.7259 20.0432 19.7259 20.5057 19.7337L20.5432 19.6918C20.6019 19.3819 20.6096 19.3093 20.7397 18.6817C20.8009 18.3841 20.9284 17.7303 20.9913 17.4975C21.1069 17.4424 21.221 17.3881 21.3298 17.3881C21.5891 17.3881 21.5575 17.6209 21.5475 17.7137C21.5364 17.8694 21.4419 18.3781 21.3451 18.8148L21.2804 19.0967C21.2354 19.3048 21.1859 19.5072 21.1409 19.7135L21.1605 19.7548C21.6851 19.7259 21.845 19.7259 22.293 19.7337L22.3457 19.6918C22.4267 19.2078 22.4504 19.0783 22.594 18.3736L22.6663 18.0498C22.8067 17.4161 22.8772 17.0948 22.771 16.8331C22.6587 16.5398 22.3892 16.469 22.1417 16.469ZM24.6883 17.1324C24.4094 17.1876 24.2316 17.2243 24.0549 17.2481C23.8796 17.277 23.7088 17.3032 23.4393 17.3417L23.418 17.3617L23.3984 17.3776C23.3703 17.5842 23.3507 17.7628 23.3135 17.9727C23.2819 18.1898 23.2334 18.4365 23.1544 18.791C23.0932 19.0624 23.0616 19.1569 23.0268 19.2524C22.9929 19.3478 22.9554 19.4406 22.8866 19.7075L22.9027 19.7321L22.9162 19.7547C23.1681 19.7424 23.3329 19.7337 23.5022 19.7321C23.6713 19.7258 23.8466 19.7321 24.1178 19.7337L24.1415 19.7137L24.167 19.6918C24.2061 19.4511 24.212 19.3864 24.236 19.269C24.2597 19.143 24.3006 18.9687 24.401 18.5031C24.4484 18.2844 24.5013 18.0664 24.5505 17.8432C24.6016 17.6209 24.6552 17.402 24.7061 17.1833L24.6985 17.1569L24.6883 17.1324ZM24.6942 16.2379C24.4409 16.084 23.9962 16.1328 23.6969 16.3455C23.3984 16.5538 23.3645 16.8496 23.617 17.0056C23.866 17.1553 24.3124 17.1107 24.6091 16.8962C24.9069 16.6834 24.9441 16.3903 24.6942 16.2379ZM26.2265 19.803C26.7391 19.803 27.2646 19.6576 27.6601 19.226C27.9644 18.876 28.1039 18.3553 28.1522 18.1408C28.3096 17.4301 28.187 17.0982 28.0332 16.8961C27.7994 16.588 27.3862 16.4892 26.9577 16.4892C26.6999 16.4892 26.0861 16.5154 25.6066 16.9705C25.2622 17.2988 25.1031 17.7442 25.0071 18.1713C24.9103 18.6064 24.7988 19.3898 25.4986 19.6813C25.7145 19.7768 26.0258 19.803 26.2265 19.803ZM26.1864 18.2038C26.3046 17.6656 26.4442 17.2138 26.8003 17.2138C27.0793 17.2138 27.0996 17.55 26.9755 18.09C26.9533 18.2098 26.8514 18.6555 26.7136 18.8453C26.6174 18.9854 26.5036 19.0703 26.3778 19.0703C26.3403 19.0703 26.1177 19.0703 26.1142 18.7299C26.1124 18.5619 26.1457 18.3902 26.1864 18.2038ZM29.4336 19.7338L29.4737 19.6919C29.5305 19.382 29.5399 19.3092 29.6657 18.6818C29.7286 18.3842 29.8587 17.7304 29.9199 17.4975C30.0357 17.4422 30.1478 17.388 30.2601 17.388C30.5176 17.388 30.4863 17.6208 30.476 17.7135C30.4667 17.8695 30.3722 18.3779 30.2736 18.8146L30.2125 19.0965C30.1657 19.3049 30.1147 19.507 30.0697 19.7136L30.0893 19.7548C30.6156 19.7259 30.7695 19.7259 31.22 19.7338L31.2745 19.6919C31.3535 19.2077 31.3748 19.0781 31.5228 18.3737L31.5933 18.0497C31.7344 17.416 31.8058 17.0949 31.7013 16.8332C31.5857 16.5399 31.3145 16.4691 31.0705 16.4691C30.9088 16.4691 30.6121 16.5092 30.3485 16.6432C30.2542 16.694 30.1598 16.7525 30.0671 16.8112L30.1478 16.4892L30.1045 16.4348C29.5425 16.5522 29.414 16.5679 28.8953 16.6432L28.8555 16.673C28.7926 17.1877 28.7414 17.5744 28.5179 18.5863C28.4328 18.9592 28.3444 19.3356 28.256 19.7076L28.2798 19.7548C28.8128 19.7259 28.972 19.7259 29.4336 19.7338ZM33.3006 19.7547C33.3337 19.5885 33.5303 18.603 33.532 18.603C33.532 18.603 33.6994 17.8799 33.7096 17.8537C33.7096 17.8537 33.7623 17.7784 33.815 17.7486H33.8925C34.6236 17.7486 35.4492 17.7486 36.0964 17.2586C36.5367 16.9225 36.8378 16.4261 36.9721 15.823C37.0069 15.6751 37.0326 15.4992 37.0326 15.3233C37.0326 15.0923 36.9875 14.8637 36.8573 14.6851C36.5274 14.2099 35.8702 14.2011 35.1116 14.1975C35.1092 14.1975 34.7377 14.2011 34.7377 14.2011C33.7667 14.2134 33.3773 14.2099 33.2173 14.1897C33.2038 14.2625 33.1783 14.392 33.1783 14.392C33.1783 14.392 32.8305 16.0515 32.8305 16.0542C32.8305 16.0542 31.9981 19.5824 31.9589 19.7487C32.8067 19.7381 33.1544 19.7381 33.3006 19.7547ZM33.9451 16.8068C33.9451 16.8068 34.315 15.1507 34.3132 15.157L34.3252 15.0721L34.3304 15.0073L34.4782 15.023C34.4782 15.023 35.2409 15.0905 35.2588 15.0923C35.5598 15.2121 35.6839 15.5211 35.5973 15.9245C35.5182 16.2931 35.286 16.6029 34.9876 16.7526C34.7418 16.8794 34.4408 16.89 34.1306 16.89H33.9299L33.9451 16.8068ZM36.2477 18.2345C36.15 18.6633 36.0377 19.4467 36.734 19.7259C36.956 19.8231 37.155 19.852 37.3572 19.8415C37.5707 19.8296 37.7686 19.7194 37.9519 19.5607C37.9353 19.6259 37.9188 19.6912 37.9022 19.7566L37.9338 19.7985C38.4347 19.7768 38.5901 19.7768 39.1327 19.781L39.1819 19.7425C39.2611 19.263 39.3358 18.7973 39.5417 17.88C39.6421 17.4406 39.7422 17.0054 39.8451 16.5678L39.829 16.5197C39.2688 16.6265 39.119 16.6494 38.5801 16.728L38.5391 16.7623C38.5337 16.8069 38.528 16.8497 38.5228 16.8925C38.439 16.7531 38.3176 16.6342 38.1301 16.56C37.8905 16.463 37.3276 16.588 36.8437 17.0415C36.5037 17.3653 36.3405 17.809 36.2477 18.2345ZM37.4245 18.2607C37.5444 17.7321 37.6822 17.2849 38.0392 17.2849C38.2649 17.2849 38.3837 17.4993 38.3596 17.865C38.3404 17.9562 38.3197 18.0523 38.2951 18.161C38.2594 18.318 38.2207 18.4738 38.183 18.6297C38.1447 18.7364 38.1001 18.837 38.0511 18.904C37.9593 19.038 37.7407 19.1211 37.6149 19.1211C37.5792 19.1211 37.3589 19.1211 37.3513 18.7868C37.3496 18.6203 37.3829 18.4489 37.4245 18.2607ZM43.5694 16.5154L43.526 16.4645C42.9716 16.5801 42.8713 16.5985 42.3619 16.6693L42.3245 16.7079C42.3228 16.7141 42.3212 16.7238 42.3186 16.7325L42.3169 16.7238C41.9377 17.6243 41.9488 17.43 41.6402 18.139C41.6384 18.1067 41.6384 18.0866 41.6367 18.0523L41.5594 16.5154L41.5109 16.4645C40.9301 16.5801 40.9164 16.5985 40.3801 16.6693L40.3383 16.7079C40.3324 16.7262 40.3324 16.7464 40.3289 16.7684L40.3324 16.7762C40.3994 17.1289 40.3833 17.0502 40.4506 17.6068C40.4819 17.88 40.5237 18.1547 40.5551 18.4245C40.608 18.876 40.6376 19.0982 40.7022 19.7873C40.34 20.4026 40.2543 20.6354 39.9056 21.1754L39.9079 21.1808L39.6624 21.5805C39.6343 21.6226 39.6089 21.6515 39.5732 21.6639C39.534 21.6838 39.4831 21.6874 39.4123 21.6874H39.2763L39.0741 22.3798L39.7678 22.3921C40.175 22.3903 40.431 22.1942 40.5688 21.9307L41.005 21.1613H40.998L41.044 21.107C41.3374 20.4568 43.5694 16.5154 43.5694 16.5154ZM36.2477 25.6087H35.9534L37.0426 21.9001H37.404L37.5187 21.5181L37.5298 21.9429C37.5163 22.2055 37.717 22.4384 38.2442 22.3998H38.8539L39.0637 21.6857H38.8343C38.7024 21.6857 38.6412 21.6514 38.6488 21.5779L38.6377 21.1457H37.5087V21.1479C37.1436 21.1558 36.0536 21.184 35.8328 21.2445C35.5658 21.3153 35.2843 21.5237 35.2843 21.5237L35.3949 21.1412H34.3388L34.1187 21.9001L33.0149 25.6654H32.8007L32.5907 26.3744H34.6942L34.6237 26.6108H35.6602L35.729 26.3744H36.0198L36.2477 25.6087ZM35.3847 22.6537C35.2155 22.7019 34.9008 22.848 34.9008 22.848L35.1807 21.9001H36.0198L35.8174 22.5907C35.8174 22.5907 35.5581 22.6064 35.3847 22.6537ZM35.4008 24.0077C35.4008 24.0077 35.1372 24.0418 34.9637 24.0821C34.7928 24.1355 34.4724 24.3035 34.4724 24.3035L34.7615 23.3172H35.6049L35.4008 24.0077ZM34.9306 25.6175H34.0889L34.3329 24.785H35.172L34.9306 25.6175ZM36.9577 23.3172H38.1709L37.9966 23.8984H36.7672L36.5826 24.5339H37.6583L36.8438 25.7145C36.7868 25.8012 36.7356 25.8319 36.6788 25.8563C36.6218 25.8861 36.5469 25.9211 36.4603 25.9211H36.1619L35.9568 26.6171H36.7374C37.1431 26.6171 37.3828 26.427 37.5597 26.1777L38.1183 25.3907L38.2382 26.1898C38.2637 26.3394 38.3682 26.427 38.4389 26.4611C38.517 26.5014 38.5978 26.5707 38.7119 26.581C38.8342 26.5864 38.9226 26.5906 38.9813 26.5906H39.3649L39.5952 25.8117H39.4439C39.357 25.8117 39.2075 25.7967 39.182 25.7687C39.1566 25.7347 39.1566 25.6822 39.1428 25.6025L39.0212 24.8016H38.5229L38.7415 24.5339H39.9685L40.1572 23.8984H39.0212L39.1981 23.3172H40.3307L40.5407 22.6004H37.1642L36.9577 23.3172ZM26.7102 25.7793L26.9934 24.8095H28.1573L28.3699 24.0883H27.205L27.3828 23.4913H28.5212L28.7321 22.7929H25.8837L25.6771 23.4913H26.3243L26.1517 24.0883H25.5028L25.2877 24.8219H25.9346L25.5572 26.1049C25.5063 26.2747 25.5812 26.3395 25.6286 26.4184C25.6771 26.4952 25.7263 26.5461 25.8369 26.575C25.951 26.6012 26.0291 26.6169 26.1353 26.6169H27.4474L27.6812 25.8179L27.0996 25.9001C26.9873 25.9001 26.6762 25.8862 26.7102 25.7793ZM26.8437 21.1368L26.5488 21.6856C26.4856 21.8055 26.4288 21.8799 26.3777 21.9141C26.3326 21.943 26.2434 21.9551 26.1141 21.9551H25.9602L25.7545 22.6572H26.2656C26.5113 22.6572 26.7 22.5644 26.7902 22.518C26.887 22.4647 26.9125 22.4952 26.9874 22.4208L27.16 22.2668H28.7559L28.9677 21.5359H27.7995L28.0034 21.1368H26.8437ZM29.1998 25.7934C29.1726 25.7531 29.1922 25.6821 29.2338 25.5342L29.67 24.0479H31.2218C31.4479 24.0445 31.6112 24.0419 31.7174 24.034C31.8315 24.0217 31.9555 23.9798 32.0907 23.9045C32.2302 23.8256 32.3016 23.7425 32.3619 23.647C32.4292 23.5518 32.5371 23.3434 32.6299 23.0221L33.1782 21.1413L31.5679 21.1509C31.5679 21.1509 31.072 21.2262 30.8537 21.3093C30.6334 21.4021 30.3187 21.6611 30.3187 21.6611L30.4641 21.1455H29.4693L28.0767 25.9001C28.0273 26.0847 27.9942 26.2187 27.9865 26.2991C27.9839 26.3859 28.0928 26.4717 28.1633 26.5364C28.2467 26.6012 28.3699 26.5907 28.4881 26.6012C28.6123 26.6108 28.7891 26.6169 29.0331 26.6169H29.7976L30.0322 25.8013L29.3479 25.8678C29.2747 25.8678 29.2218 25.8275 29.1998 25.7934ZM29.9514 23.0441H31.5814L31.4777 23.3784C31.4632 23.3862 31.4283 23.3618 31.2625 23.382H29.8511L29.9514 23.0441ZM30.2779 21.9228H31.9216L31.8034 22.3255C31.8034 22.3255 31.0287 22.3176 30.9046 22.3412C30.3587 22.4384 30.0398 22.7387 30.0398 22.7387L30.2779 21.9228ZM31.5142 24.4979C31.5007 24.5479 31.4794 24.5783 31.4496 24.6012C31.4165 24.6232 31.3629 24.631 31.2831 24.631H31.0508L31.0645 24.2239H30.0985L30.0593 26.2143C30.0578 26.3579 30.0713 26.441 30.1734 26.5076C30.2755 26.5907 30.59 26.6013 31.0134 26.6013H31.6187L31.8372 25.8562L31.3103 25.886L31.135 25.8966C31.1111 25.886 31.0882 25.8764 31.0628 25.8502C31.0406 25.8275 31.0031 25.8414 31.0092 25.6978L31.0134 25.1876L31.566 25.1641C31.8645 25.1641 31.992 25.0641 32.1008 24.9689C32.2047 24.8777 32.2386 24.7728 32.2778 24.631L32.3705 24.1793H31.6111L31.5142 24.4979Z" fill="#FEFEFE"/>
<rect x="0.5" y="0.5" width="57" height="39" rx="5.5" stroke="#F2F4F7"/>
</svg>
