<svg width="58" height="40" viewBox="0 0 58 40" fill="none" xmlns="http://www.w3.org/2000/svg">
<rect x="0.5" y="0.5" width="57" height="39" rx="5.5" fill="white"/>
<path fill-rule="evenodd" clip-rule="evenodd" d="M24.3157 17.1754H26.1601L26.4566 15.6571H24.6119L24.3157 17.1754ZM24.1244 18.152H25.9692L24.7973 24.1469C24.7118 24.1772 24.4478 24.2838 24.0831 24.2838C23.591 24.2838 23.1396 24.0889 23.1396 23.3979C23.1396 23.2679 23.1543 23.1199 23.1872 22.9517C23.5537 21.081 24.1244 18.152 24.1244 18.152ZM42.4415 18.015C41.2137 18.015 40.7257 18.7457 40.4965 19.1904H40.4748L40.5456 18.1532H38.7226C38.7107 18.3813 38.6318 19.1003 38.5149 19.7204C38.5149 19.7204 38.0939 21.8964 38.0143 22.313C37.9536 22.6313 37.8426 23.1018 37.8426 23.3749C37.8426 23.9563 38.1329 24.284 38.7805 24.284C39.1438 24.284 39.4057 24.1831 39.501 24.1469L40.1106 21.0248C40.2797 20.1628 40.8933 19.5986 41.6229 19.5986C42.2116 19.5986 42.493 20.0348 42.493 20.3915C42.493 20.7018 42.4164 21.0458 42.3571 21.35L42.0949 22.687C42.0637 22.8475 41.9969 23.1558 41.9969 23.3976C41.9969 23.9886 42.3249 24.284 42.9479 24.284C43.288 24.284 43.5036 24.1976 43.6564 24.1469L44.2035 21.3481C44.3221 20.7156 44.3658 20.3825 44.3658 19.9799C44.3658 18.8209 43.6988 18.015 42.4415 18.015ZM34.2475 19.4646C33.2164 19.4646 32.6453 20.5357 32.6453 21.4904C32.6453 22.2956 33.0032 22.8349 33.8168 22.8349C34.7366 22.8349 35.4565 22.0396 35.4565 20.6822C35.4565 20.0612 35.1311 19.4646 34.2475 19.4646ZM33.7036 24.2842C31.7285 24.2842 30.7835 23.0806 30.7835 21.5465C30.7835 19.4416 32.2059 18.015 34.4041 18.015C36.3113 18.015 37.3241 19.1884 37.3241 20.6953C37.3241 22.9535 35.8048 24.2842 33.7036 24.2842ZM26.7961 22.8407C26.754 23.0565 26.7274 23.2076 26.7274 23.3934C26.7274 24.0806 27.1795 24.284 27.6586 24.284C28.0417 24.284 28.2787 24.1775 28.3655 24.1469L29.2524 19.6027L30.6866 19.6025L30.9698 18.152L29.5357 18.1521L29.6054 17.7948C29.7352 17.1248 30.0455 16.8303 30.5823 16.8303C30.9408 16.8303 31.2307 16.895 31.3315 16.9217L31.6014 15.5424C31.4864 15.5129 30.9564 15.381 30.172 15.381C28.922 15.381 28.1032 16.1524 27.861 17.3948L27.7127 18.152H26.779L26.4957 19.6025H27.43C27.43 19.6025 27.0615 21.4814 26.7961 22.8407ZM22.5495 18.0152C21.6236 18.0152 21.1144 18.6684 20.9153 19.1895H20.894L20.9653 18.152H19.1415C19.1254 18.5116 19.0513 19.1197 18.8655 20.0757C18.6772 21.0446 18.4937 22.011 18.3043 22.9516C18.2719 23.1124 18.2574 23.2697 18.2574 23.4028C18.2574 23.8955 18.497 24.2835 19.2049 24.2835C19.5555 24.2835 19.7991 24.191 19.916 24.1469L20.4586 21.3677C20.654 20.3044 21.009 19.6014 22.039 19.6014C22.5075 19.6014 22.9526 19.703 23.0459 19.7308L23.3581 18.1317C23.2907 18.1081 23.0203 18.0152 22.5495 18.0152ZM49.3054 20.5818C49.4042 20.0321 49.0895 19.4646 48.3783 19.4646C47.5099 19.4646 47.1285 20.0675 46.9582 20.5818H49.3054ZM50.1285 22.8126C50.1285 23.6464 49.334 24.2857 47.927 24.2857C45.9825 24.2857 45.0317 23.0549 45.0317 21.5481C45.0317 20.0524 46.0088 18.0166 48.3937 18.0166C49.9661 18.0166 51.1419 18.8104 51.1419 20.6277C51.1419 21.0747 51.0439 21.5606 51.0018 21.7552H46.8221C46.8151 22.1912 47.1768 22.947 48.6297 22.947C49.2772 22.947 50.0103 22.7145 50.1285 22.6553C50.1285 22.7006 50.1285 22.7826 50.1285 22.8126ZM15.9752 20.5818C16.0738 20.0321 15.7591 19.4646 15.0479 19.4646C14.1795 19.4646 13.7983 20.0675 13.6278 20.5818H15.9752ZM16.7983 22.8126C16.7983 23.6464 16.0038 24.2857 14.597 24.2857C12.6524 24.2857 11.7017 23.0549 11.7017 21.5481C11.7017 20.0524 12.6786 18.0166 15.0637 18.0166C16.6361 18.0166 17.8119 18.8104 17.8119 20.6277C17.8119 21.0747 17.7139 21.5606 17.6717 21.7552H13.4921C13.4851 22.1912 13.8466 22.947 15.2995 22.947C15.947 22.947 16.6802 22.7145 16.7983 22.6553C16.7983 22.7006 16.7983 22.7826 16.7983 22.8126ZM5.71387 16.1121H7.56958V22.0728C7.56958 22.9691 8.0086 23.4267 8.71338 23.4267C8.78525 23.4267 8.82763 23.4174 8.8416 23.4139C8.53268 23.889 8.13216 24.2786 7.21253 24.2786C6.2395 24.2786 5.71387 23.5922 5.71387 22.5621V16.1121Z" fill="#1A1919"/>
<path fill-rule="evenodd" clip-rule="evenodd" d="M8.24092 21.2127C8.1403 21.3724 8.08691 21.5572 8.08691 21.7459V22.0827C8.08691 22.687 8.4081 22.9035 8.75878 22.9035C9.11723 22.9035 9.3091 22.6565 9.48514 22.3757C9.7801 21.9055 13.3844 16.1121 13.3844 16.1121H11.4556L8.24092 21.2127Z" fill="#00A3DA"/>
<rect x="0.5" y="0.5" width="57" height="39" rx="5.5" stroke="#F2F4F7"/>
</svg>
