<svg width="58" height="40" viewBox="0 0 58 40" fill="none" xmlns="http://www.w3.org/2000/svg">
<rect x="0.5" y="0.5" width="57" height="39" rx="5.5" fill="white"/>
<path fill-rule="evenodd" clip-rule="evenodd" d="M32.2367 19.1467H34.092C34.6803 19.1248 35.0381 19.0782 35.1668 19.0052C35.3427 18.9055 35.4608 18.7058 35.5195 18.4064C35.5571 18.207 35.5759 17.9107 35.5759 17.517C35.5759 17.0348 35.5386 16.6774 35.4636 16.4439C35.3565 16.1168 35.1002 15.9176 34.6941 15.8453C34.6139 15.8344 34.4216 15.8286 34.1171 15.8286H32.2367V19.1467ZM29.2606 24.7357V13.3334H34.8052C35.5657 13.3334 36.146 13.3974 36.5447 13.5254C37.4567 13.82 38.0685 14.4233 38.3819 15.335C38.5437 15.8135 38.6246 16.5339 38.6246 17.4959C38.6246 18.6525 38.5348 19.4837 38.3574 19.9897C38.0017 20.9904 37.2697 21.5668 36.1643 21.7162C36.0343 21.7386 35.4812 21.7587 34.505 21.7747L34.0109 21.7918H32.2366V24.7357H29.2606ZM14.3171 16.9706H17.0857C17.1035 16.7187 17.1125 16.5303 17.1125 16.4043C17.1125 14.8679 16.5102 13.9329 15.3053 13.5991C14.8117 13.4626 13.9836 13.3937 12.8216 13.3937C12.0835 13.3937 11.4124 13.4215 10.8076 13.4759C10.0806 13.5362 9.48335 13.738 9.01665 14.0817C8.69804 14.3057 8.46717 14.6331 8.32389 15.0644C8.18075 15.4956 8.10912 16.0689 8.10912 16.7838C8.10912 17.7225 8.24166 18.4242 8.50661 18.8881C8.80804 19.4339 9.41212 19.7934 10.3186 19.9683C10.6628 20.029 11.2775 20.0917 12.1623 20.1568C13.2642 20.2333 13.8816 20.2936 14.0143 20.3369C14.3691 20.4465 14.5469 20.7519 14.5469 21.2539C14.5469 21.478 14.5258 21.6612 14.4834 21.8027C14.4036 22.0326 14.2366 22.1987 13.9821 22.3019C13.8391 22.357 13.5076 22.3844 12.9882 22.3844H11.9704C11.6994 22.3783 11.4689 22.327 11.278 22.2292C11.0026 22.0874 10.8646 21.7689 10.8646 21.2738L10.8645 21.192L10.8643 21.0367H8.0957C8.0957 21.9645 8.16157 22.6273 8.29465 23.0253C8.53357 23.7401 9.02724 24.2149 9.77607 24.4492C10.3862 24.6405 11.4668 24.7357 13.0173 24.7357C13.9461 24.7357 14.6367 24.6919 15.0882 24.6042C16.1657 24.3968 16.8581 23.9031 17.1664 23.1214C17.3365 22.6953 17.4214 22.023 17.4214 21.1051C17.4214 20.7068 17.4029 20.3484 17.3656 20.0316C17.3019 19.5021 17.1022 19.0733 16.7672 18.7452C16.3415 18.3246 15.6555 18.0651 14.7092 17.9668C14.4111 17.934 13.6637 17.8763 12.4671 17.7944L11.9088 17.7537C11.6637 17.7374 11.4672 17.6828 11.3184 17.5898C11.1107 17.4588 11.0072 17.1855 11.0072 16.7703C11.0072 16.3118 11.1241 16.014 11.3578 15.877C11.5917 15.7405 12.0708 15.6723 12.7937 15.6723C13.5379 15.6723 13.9927 15.7908 14.1574 16.0276C14.2637 16.1877 14.3171 16.5021 14.3171 16.9706ZM8.1062 26.997L8.52126 26.9538C8.54622 27.0981 8.59693 27.2039 8.67326 27.2717C8.74972 27.3394 8.85275 27.3731 8.98247 27.3731C9.11984 27.3731 9.22327 27.3431 9.29303 27.2831C9.36266 27.2229 9.3974 27.1526 9.3974 27.0721C9.3974 27.0205 9.38278 26.9767 9.35367 26.9403C9.32442 26.904 9.27345 26.8726 9.2006 26.8457C9.1507 26.8281 9.03721 26.7966 8.85999 26.7512C8.6318 26.6931 8.4719 26.6214 8.37987 26.5364C8.25055 26.4168 8.18589 26.271 8.18589 26.099C8.18589 25.9884 8.21634 25.8848 8.27738 25.7885C8.33828 25.6921 8.42629 25.6187 8.54098 25.5683C8.65582 25.518 8.79439 25.4927 8.95672 25.4927C9.2218 25.4927 9.42128 25.5528 9.55529 25.6729C9.68931 25.7931 9.75961 25.9534 9.76631 26.154L9.33878 26.1713C9.32053 26.0593 9.28136 25.9787 9.22126 25.9295C9.1613 25.8804 9.07128 25.8558 8.95122 25.8558C8.82726 25.8558 8.7304 25.8821 8.66024 25.9346C8.61504 25.9682 8.5925 26.0133 8.5925 26.0698C8.5925 26.1214 8.61369 26.1654 8.65595 26.2022C8.70961 26.2486 8.84014 26.2972 9.04754 26.3474C9.2548 26.3978 9.40813 26.4499 9.50754 26.5041C9.60681 26.5582 9.68462 26.6322 9.74083 26.726C9.7969 26.8201 9.82507 26.936 9.82507 27.0741C9.82507 27.1994 9.7914 27.3165 9.72406 27.4258C9.65671 27.5351 9.5616 27.6163 9.43858 27.6694C9.31557 27.7225 9.16223 27.7492 8.97858 27.7492C8.71136 27.7492 8.50611 27.6852 8.36283 27.5571C8.21969 27.429 8.13411 27.2424 8.1062 26.997ZM10.2683 26.1325H10.6749V27.7103H10.2683V26.1325ZM10.2683 25.5315H10.6749V25.9164H10.2683V25.5315ZM12.1661 27.7102H12.5727V26.7277C12.5727 26.6057 12.5652 26.5119 12.5503 26.4465C12.5354 26.3809 12.509 26.3224 12.471 26.2708C12.4331 26.2192 12.3771 26.1767 12.3032 26.1435C12.2293 26.1103 12.1476 26.0936 12.0582 26.0936C11.8557 26.0936 11.6874 26.1838 11.554 26.3643V26.1324H11.1767V27.7102H11.5833V26.9941C11.5833 26.8173 11.5935 26.6963 11.6142 26.6309C11.6347 26.5653 11.6727 26.5127 11.7282 26.473C11.7838 26.4333 11.8464 26.4134 11.9163 26.4134C11.9708 26.4134 12.0175 26.4274 12.0562 26.455C12.095 26.4828 12.1229 26.522 12.1402 26.5721C12.1574 26.6221 12.1661 26.7325 12.1661 26.9032V27.7102ZM13.395 26.8873C13.395 27.0553 13.4262 27.1782 13.4887 27.2561C13.5511 27.3343 13.6281 27.3731 13.7197 27.3731C13.8177 27.3731 13.9006 27.3332 13.9684 27.2532C14.036 27.1733 14.0699 27.0547 14.0699 26.8977C14.0699 26.7339 14.0375 26.6122 13.9727 26.5326C13.9078 26.4532 13.8259 26.4134 13.7268 26.4134C13.6305 26.4134 13.5511 26.4526 13.4887 26.5304C13.4262 26.6086 13.395 26.7274 13.395 26.8873ZM13.0304 27.814L13.4914 27.8659C13.4992 27.9247 13.5171 27.9651 13.545 27.9872C13.5836 28.0187 13.6444 28.0345 13.7273 28.0345C13.8334 28.0345 13.9129 28.0182 13.9661 27.9855C14.0016 27.9637 14.0287 27.9285 14.0471 27.88C14.0596 27.8451 14.0659 27.7814 14.0659 27.6881L14.0671 27.4578C13.9471 27.6261 13.795 27.7102 13.6104 27.7102C13.4045 27.7102 13.2416 27.6206 13.1214 27.4409C13.0271 27.299 12.98 27.1222 12.98 26.9108C12.98 26.6458 13.0418 26.4434 13.1653 26.3034C13.2889 26.1636 13.4426 26.0936 13.6263 26.0936C13.8157 26.0936 13.972 26.1795 14.0951 26.351V26.1324H14.4725V27.5508C14.4725 27.7374 14.4576 27.8768 14.4277 27.9689C14.3979 28.0613 14.356 28.1337 14.3021 28.1862C14.2482 28.2388 14.1763 28.28 14.0863 28.3098C13.9962 28.3395 13.8825 28.3545 13.745 28.3545C13.4851 28.3545 13.3008 28.3083 13.192 28.216C13.0832 28.1237 13.0289 28.0067 13.0289 27.8649C13.0289 27.8509 13.0294 27.8341 13.0304 27.814ZM15.3659 25.5315H14.9593V27.7103H15.3659V25.5315ZM16.7817 26.7895C16.7789 26.6667 16.7484 26.5735 16.6904 26.5094C16.6324 26.4455 16.5618 26.4134 16.4787 26.4134C16.3897 26.4134 16.3162 26.4473 16.2583 26.5147C16.2002 26.582 16.1717 26.6737 16.1727 26.7895H16.7817ZM16.7608 27.2132L17.1632 27.2824C17.1112 27.4344 17.029 27.5503 16.9167 27.6299C16.8044 27.7096 16.6638 27.7493 16.4952 27.7493C16.2281 27.7493 16.0305 27.6592 15.9024 27.4792C15.8011 27.3351 15.7505 27.1532 15.7505 26.9332C15.7505 26.671 15.8169 26.4653 15.95 26.3166C16.0829 26.1679 16.251 26.0936 16.4543 26.0936C16.6827 26.0936 16.8629 26.1716 16.9949 26.3275C17.1269 26.4837 17.1899 26.7226 17.1842 27.0446H16.1656C16.1684 27.1688 16.2014 27.2654 16.2644 27.3345C16.3275 27.4034 16.4061 27.438 16.5003 27.438C16.5643 27.438 16.6182 27.4203 16.6618 27.3848C16.7054 27.3493 16.7385 27.2921 16.7608 27.2132ZM18.5146 25.5315V27.7103H20.1202V27.3428H18.9422V26.7507H19.9987V26.3832H18.9422V25.8991H20.0784V25.5315H18.5146ZM21.5737 27.7102V27.474C21.5177 27.5582 21.4443 27.6252 21.3532 27.6748C21.2622 27.7243 21.1661 27.7492 21.065 27.7492C20.9618 27.7492 20.8695 27.7259 20.7875 27.6792C20.7057 27.6326 20.6464 27.5671 20.6098 27.4828C20.5732 27.3984 20.5549 27.2818 20.5549 27.133V26.1324H20.9615V26.8581C20.9615 27.0803 20.9689 27.2164 20.9839 27.2663C20.9988 27.3167 21.0259 27.3562 21.0654 27.3856C21.1048 27.4148 21.1547 27.4293 21.2153 27.4293C21.2846 27.4293 21.3467 27.4099 21.4014 27.3706C21.4563 27.3315 21.4937 27.2829 21.514 27.2248C21.5341 27.1669 21.5443 27.0248 21.5443 26.7988V26.1324H21.9509V27.7102H21.5737ZM22.4379 27.7102H22.8445V27.2224C22.8445 26.9537 22.8559 26.7771 22.8785 26.6928C22.9012 26.6086 22.9323 26.5503 22.9719 26.518C23.0115 26.4859 23.0596 26.4697 23.1167 26.4697C23.1754 26.4697 23.2393 26.4925 23.3077 26.538L23.4314 26.1727C23.3458 26.12 23.2567 26.0936 23.1644 26.0936C23.0989 26.0936 23.0406 26.111 22.9891 26.1457C22.9376 26.1806 22.8796 26.2509 22.8151 26.3568V26.1324H22.4379V27.7102ZM24.0104 26.9214C24.0104 27.0787 24.0465 27.1989 24.1188 27.2824C24.1911 27.366 24.2802 27.4077 24.3863 27.4077C24.4923 27.4077 24.5812 27.366 24.653 27.2824C24.7248 27.1989 24.7607 27.0776 24.7607 26.9185C24.7607 26.7634 24.7248 26.6439 24.653 26.5605C24.5812 26.4769 24.4923 26.4351 24.3863 26.4351C24.2802 26.4351 24.1911 26.4769 24.1188 26.5605C24.0465 26.6439 24.0104 26.7644 24.0104 26.9214ZM23.5954 26.8989C23.5954 26.7598 23.6285 26.625 23.6949 26.4947C23.7612 26.3646 23.8551 26.2651 23.9768 26.1965C24.0983 26.1279 24.2342 26.0936 24.3842 26.0936C24.6159 26.0936 24.8057 26.1713 24.9538 26.3269C25.1017 26.4826 25.1758 26.6793 25.1758 26.9169C25.1758 27.1565 25.1009 27.3553 24.9515 27.5128C24.8021 27.6704 24.6138 27.7493 24.387 27.7493C24.2467 27.7493 24.1128 27.7163 23.9855 27.6509C23.858 27.5852 23.7612 27.4891 23.6949 27.3622C23.6285 27.2354 23.5954 27.0811 23.5954 26.8989ZM26.9274 26.5216V25.8991H27.1329C27.2864 25.8991 27.3883 25.9041 27.4392 25.914C27.5081 25.927 27.5651 25.9594 27.6102 26.0113C27.6553 26.0632 27.6778 26.129 27.6778 26.2088C27.6778 26.2737 27.6617 26.3306 27.6297 26.3794C27.5976 26.4284 27.5532 26.4643 27.4967 26.4873C27.4401 26.5103 27.328 26.5216 27.1603 26.5216H26.9274ZM26.4999 25.5315V27.7103H26.9274V26.889H27.2054C27.3981 26.889 27.5454 26.8786 27.6472 26.8577C27.7221 26.8408 27.7958 26.8065 27.8682 26.7544C27.9406 26.7024 28.0005 26.6307 28.0474 26.5397C28.0945 26.4483 28.118 26.3359 28.118 26.2022C28.118 26.0287 28.0772 25.8872 27.9955 25.7778C27.9138 25.6682 27.8125 25.597 27.6915 25.5643C27.6128 25.5426 27.4436 25.5315 27.1843 25.5315H26.4999ZM29.3955 26.9539C29.3436 26.9719 29.2616 26.9932 29.1494 27.0181C29.0373 27.0428 28.9639 27.0673 28.9296 27.0911C28.8767 27.13 28.8506 27.1792 28.8506 27.2388C28.8506 27.2976 28.8715 27.3482 28.9136 27.3911C28.9559 27.4339 29.0095 27.4553 29.0749 27.4553C29.1477 27.4553 29.217 27.4304 29.2833 27.3808C29.3321 27.3429 29.3643 27.2967 29.3796 27.2419C29.3901 27.206 29.3955 27.1378 29.3955 27.0373V26.9539ZM28.8506 26.6123L28.4858 26.5432C28.5272 26.3903 28.5983 26.2773 28.6991 26.2038C28.8002 26.1304 28.9501 26.0936 29.1491 26.0936C29.3298 26.0936 29.4645 26.1157 29.5529 26.1597C29.6413 26.2041 29.7037 26.2601 29.7396 26.328C29.7757 26.396 29.7938 26.5209 29.7938 26.7025L29.7897 27.1908C29.7897 27.3297 29.7961 27.4323 29.809 27.4982C29.822 27.5642 29.8463 27.6349 29.8818 27.7102H29.4794C29.4686 27.683 29.4558 27.6425 29.4403 27.5888C29.4336 27.5643 29.4288 27.5483 29.4261 27.5404C29.3569 27.61 29.283 27.6622 29.2042 27.6971C29.1255 27.7318 29.0416 27.7493 28.9523 27.7493C28.7948 27.7493 28.6706 27.705 28.5799 27.6167C28.4892 27.5283 28.4439 27.4166 28.4439 27.2816C28.4439 27.1923 28.4645 27.1127 28.5057 27.0427C28.5471 26.9727 28.6051 26.919 28.6796 26.8818C28.7541 26.8447 28.8616 26.8119 29.0019 26.7841C29.1912 26.7475 29.3224 26.7133 29.3955 26.6815V26.6393C29.3955 26.558 29.3762 26.5 29.3376 26.4653C29.2988 26.4307 29.226 26.4134 29.1186 26.4134C29.0462 26.4134 28.9897 26.4282 28.9491 26.4575C28.9084 26.487 28.8755 26.5386 28.8506 26.6123ZM30.5174 26.1324H30.0857L30.6692 27.7147C30.645 27.8037 30.6103 27.8772 30.5648 27.935C30.5193 27.9926 30.4494 28.0215 30.3546 28.0215C30.3035 28.0215 30.2458 28.0151 30.1821 28.002L30.2199 28.3291C30.2949 28.346 30.3716 28.3544 30.4496 28.3544C30.5266 28.3544 30.5956 28.346 30.6568 28.329C30.718 28.3122 30.7692 28.2884 30.8112 28.2582C30.8531 28.228 30.8902 28.1884 30.9224 28.1399C30.9546 28.0912 30.9886 28.0208 31.0243 27.9284L31.662 26.1324H31.2428L30.8843 27.2526L30.5174 26.1324ZM31.979 26.1324H32.3521V26.348C32.4861 26.1784 32.6456 26.0936 32.8307 26.0936C32.9289 26.0936 33.0143 26.1143 33.0866 26.156C33.1589 26.1977 33.2182 26.2608 33.2643 26.3451C33.3317 26.2608 33.4045 26.1977 33.4823 26.156C33.5604 26.1143 33.6434 26.0936 33.732 26.0936C33.8446 26.0936 33.9399 26.1171 34.0178 26.1644C34.0958 26.2113 34.1541 26.2806 34.1926 26.372C34.2204 26.4394 34.2344 26.5485 34.2344 26.6995V27.7102H33.8277V26.8065C33.8277 26.6497 33.8138 26.5485 33.786 26.5029C33.7485 26.4431 33.6909 26.4134 33.6132 26.4134C33.5565 26.4134 33.5031 26.4312 33.4532 26.4671C33.4033 26.5029 33.3673 26.5552 33.3453 26.6242C33.3232 26.6931 33.3121 26.8021 33.3121 26.951V27.7102H32.9055V26.8439C32.9055 26.6898 32.8983 26.5907 32.8839 26.5459C32.8695 26.5012 32.8472 26.468 32.8169 26.4462C32.7866 26.4245 32.7457 26.4134 32.6938 26.4134C32.6314 26.4134 32.5752 26.4308 32.5253 26.4655C32.4754 26.5003 32.4397 26.5505 32.418 26.6159C32.3964 26.6815 32.3856 26.7901 32.3856 26.942V27.7102H31.979V26.1324ZM35.5436 26.5094C35.6018 26.5735 35.6321 26.6667 35.6351 26.7895H35.026C35.0251 26.6737 35.0535 26.582 35.1116 26.5147C35.1694 26.4473 35.2431 26.4134 35.3319 26.4134C35.4151 26.4134 35.4858 26.4455 35.5436 26.5094ZM36.0166 27.2824L35.6141 27.2132C35.5919 27.2921 35.5589 27.3493 35.515 27.3848C35.4714 27.4203 35.4176 27.438 35.3536 27.438C35.2593 27.438 35.1807 27.4034 35.1178 27.3345C35.0547 27.2654 35.0217 27.1688 35.0188 27.0446H36.0375C36.0433 26.7226 35.9801 26.4837 35.8481 26.3275C35.7161 26.1716 35.5361 26.0936 35.3076 26.0936C35.1042 26.0936 34.9363 26.1679 34.8032 26.3166C34.6704 26.4653 34.6037 26.671 34.6037 26.9332C34.6037 27.1532 34.6543 27.3351 34.7556 27.4792C34.8838 27.6592 35.0814 27.7493 35.3484 27.7493C35.5171 27.7493 35.6576 27.7096 35.77 27.6299C35.8823 27.5503 35.9644 27.4344 36.0166 27.2824ZM37.8471 27.7102H37.4405V26.9032C37.4405 26.7325 37.4317 26.6221 37.4147 26.5721C37.3974 26.522 37.3694 26.4828 37.3306 26.455C37.2918 26.4274 37.2451 26.4134 37.1907 26.4134C37.1209 26.4134 37.0581 26.4333 37.0027 26.473C36.9472 26.5127 36.9092 26.5653 36.8886 26.6309C36.868 26.6963 36.8577 26.8173 36.8577 26.9941V27.7102H36.4511V26.1324H36.8283V26.3643C36.9619 26.1838 37.13 26.0936 37.3326 26.0936C37.4219 26.0936 37.5038 26.1103 37.5776 26.1435C37.6515 26.1767 37.7076 26.2192 37.7455 26.2708C37.7835 26.3224 37.8098 26.3809 37.8247 26.4465C37.8397 26.5119 37.8471 26.6057 37.8471 26.7277V27.7102ZM39.0468 26.4653V26.1324H38.7701V25.5705L38.3635 25.8169V26.1324H38.179V26.4653H38.3635V27.155C38.3635 27.3029 38.3676 27.4012 38.3764 27.4499C38.3868 27.5184 38.4056 27.5727 38.4328 27.6129C38.4602 27.6531 38.503 27.686 38.5612 27.7112C38.6196 27.7365 38.6849 27.7493 38.7577 27.7493C38.8762 27.7493 38.9823 27.7284 39.0761 27.6867L39.0405 27.3633C38.9705 27.39 38.9174 27.4034 38.8804 27.4034C38.8539 27.4034 38.8317 27.3964 38.8131 27.3825C38.7948 27.3686 38.783 27.351 38.7779 27.3296C38.7726 27.3083 38.7701 27.2329 38.7701 27.1037V26.4653H39.0468ZM39.2755 27.2651L39.6821 27.2002C39.6994 27.2809 39.7344 27.342 39.7871 27.3839C39.84 27.4258 39.9138 27.4466 40.0087 27.4466C40.1135 27.4466 40.1922 27.4267 40.245 27.3868C40.2805 27.3587 40.2984 27.3215 40.2984 27.2745C40.2984 27.2427 40.2886 27.2161 40.2692 27.1954C40.2489 27.1753 40.2035 27.1569 40.133 27.1399C39.8044 27.0651 39.5961 26.9969 39.5083 26.9353C39.3865 26.85 39.3258 26.7311 39.3258 26.5794C39.3258 26.4422 39.3782 26.3269 39.4835 26.2337C39.589 26.1403 39.7522 26.0936 39.9734 26.0936C40.1841 26.0936 40.3405 26.1286 40.443 26.1984C40.5453 26.2684 40.6159 26.3718 40.6547 26.5086L40.2731 26.582C40.2566 26.5207 40.2253 26.4736 40.1791 26.4409C40.1328 26.4081 40.067 26.3918 39.9815 26.3918C39.8736 26.3918 39.7962 26.4072 39.7497 26.4383C39.7184 26.4602 39.703 26.4885 39.703 26.5234C39.703 26.5534 39.7164 26.5788 39.7435 26.5999C39.7801 26.6277 39.9069 26.6671 40.1236 26.718C40.3402 26.7689 40.4915 26.8312 40.5775 26.9049C40.6623 26.9796 40.705 27.0837 40.705 27.2172C40.705 27.3626 40.6462 27.4877 40.5291 27.5922C40.4117 27.697 40.2384 27.7493 40.0087 27.7493C39.8004 27.7493 39.6354 27.7057 39.5138 27.6189C39.3923 27.5319 39.3129 27.4142 39.2755 27.2651ZM42.8843 26.0417L43.1797 26.8501H42.5989L42.8843 26.0417ZM43.5035 27.7103H43.9639L43.1107 25.5315H42.661L41.8426 27.7103H42.295L42.4692 27.2175H43.3208L43.5035 27.7103ZM44.6618 27.7102H44.2551V26.1324H44.6324V26.3568C44.6969 26.2509 44.7547 26.1806 44.8064 26.1457C44.8577 26.111 44.9161 26.0936 44.9817 26.0936C45.074 26.0936 45.1629 26.12 45.2487 26.1727L45.125 26.538C45.0564 26.4925 44.9927 26.4697 44.9339 26.4697C44.8768 26.4697 44.8286 26.4859 44.7891 26.518C44.7495 26.5503 44.7184 26.6086 44.6958 26.6928C44.673 26.7771 44.6618 26.9537 44.6618 27.2224V27.7102ZM46.3316 26.5094C46.3896 26.5735 46.42 26.6667 46.423 26.7895H45.8139C45.8128 26.6737 45.8414 26.582 45.8995 26.5147C45.9575 26.4473 46.0308 26.4134 46.1199 26.4134C46.2029 26.4134 46.2735 26.4455 46.3316 26.5094ZM46.8044 27.2824L46.402 27.2132C46.3796 27.2921 46.3466 27.3493 46.303 27.3848C46.2593 27.4203 46.2055 27.438 46.1413 27.438C46.0473 27.438 45.9687 27.4034 45.9055 27.3345C45.8426 27.2654 45.8096 27.1688 45.8066 27.0446H46.8254C46.8311 26.7226 46.7679 26.4837 46.6361 26.3275C46.5039 26.1716 46.3238 26.0936 46.0955 26.0936C45.8922 26.0936 45.724 26.1679 45.5912 26.3166C45.4581 26.4653 45.3916 26.671 45.3916 26.9332C45.3916 27.1532 45.4421 27.3351 45.5434 27.4792C45.6715 27.6592 45.8693 27.7493 46.1364 27.7493C46.305 27.7493 46.4456 27.7096 46.5579 27.6299C46.6702 27.5503 46.7524 27.4344 46.8044 27.2824ZM48.0858 26.9539C48.034 26.9719 47.9519 26.9932 47.8398 27.0181C47.7276 27.0428 47.6544 27.0673 47.6199 27.0911C47.567 27.13 47.5409 27.1792 47.5409 27.2388C47.5409 27.2976 47.5618 27.3482 47.6041 27.3911C47.6462 27.4339 47.6999 27.4553 47.7652 27.4553C47.838 27.4553 47.9074 27.4304 47.9737 27.3808C48.0225 27.3429 48.0547 27.2967 48.07 27.2419C48.0804 27.206 48.0858 27.1378 48.0858 27.0373V26.9539ZM47.5408 26.6123L47.1761 26.5432C47.2174 26.3903 47.2885 26.2773 47.3894 26.2038C47.4904 26.1304 47.6404 26.0936 47.8393 26.0936C48.02 26.0936 48.1547 26.1157 48.2431 26.1597C48.3315 26.2041 48.3939 26.2601 48.4298 26.328C48.4659 26.396 48.484 26.5209 48.484 26.7025L48.4799 27.1908C48.4799 27.3297 48.4863 27.4323 48.4992 27.4982C48.5122 27.5642 48.5365 27.6349 48.5719 27.7102H48.1696C48.1589 27.683 48.1461 27.6425 48.1306 27.5888C48.124 27.5643 48.119 27.5483 48.1163 27.5404C48.0471 27.61 47.9733 27.6622 47.8946 27.6971C47.8158 27.7318 47.7319 27.7493 47.6425 27.7493C47.485 27.7493 47.3608 27.705 47.2701 27.6167C47.1796 27.5283 47.1342 27.4166 47.1342 27.2816C47.1342 27.1923 47.1548 27.1127 47.1961 27.0427C47.2374 26.9727 47.2953 26.919 47.3698 26.8818C47.4444 26.8447 47.5518 26.8119 47.6922 26.7841C47.8814 26.7475 48.0126 26.7133 48.0857 26.6815V26.6393C48.0857 26.558 48.0664 26.5 48.0278 26.4653C47.9892 26.4307 47.9162 26.4134 47.8089 26.4134C47.7364 26.4134 47.6799 26.4282 47.6393 26.4575C47.5988 26.487 47.5658 26.5386 47.5408 26.6123ZM42.9916 15.601L44.386 20.5437H41.6384L42.9916 15.601ZM40.9981 22.7651H44.9771L45.5449 24.7357H48.5592L45.1961 13.3334H40.7069L37.3845 24.7357H40.4635L40.9981 22.7651Z" fill="#10298E"/>
<path fill-rule="evenodd" clip-rule="evenodd" d="M25.153 14.9376C26.3804 14.9376 27.4759 15.5207 28.196 16.4339L28.8375 15.0156C27.8342 14.0378 26.4687 13.4349 24.9626 13.4349C22.6176 13.4349 20.6117 14.8953 19.7884 16.9625H18.5375L17.7988 18.5954H19.4081C19.396 18.7468 19.3882 18.8985 19.3882 19.0531C19.3882 19.2403 19.3976 19.4252 19.4156 19.608H18.6068L17.8683 21.2414H19.8268C20.6735 23.2563 22.6544 24.6709 24.9626 24.6709C26.1258 24.6709 27.2052 24.3115 28.0989 23.6976V21.6958C27.3792 22.5407 26.3265 23.0747 25.153 23.0747C23.7811 23.0747 22.5744 22.3452 21.8718 21.2414H25.9729L26.7114 19.608H21.2684C21.2403 19.4114 21.2253 19.2105 21.2253 19.0059C21.2253 18.8676 21.2323 18.7307 21.2452 18.5954H27.1691L27.9076 16.9625H21.7575C22.4376 15.7521 23.7033 14.9376 25.153 14.9376Z" fill="#FFBE00"/>
<rect x="0.5" y="0.5" width="57" height="39" rx="5.5" stroke="#F2F4F7"/>
</svg>
