<svg width="58" height="40" viewBox="0 0 58 40" fill="none" xmlns="http://www.w3.org/2000/svg">
<rect x="0.5" y="0.5" width="57" height="39" rx="5.5" fill="#FEB4C7"/>
<path fill-rule="evenodd" clip-rule="evenodd" d="M8.78235 25.6327H6.47656V15H8.78235V25.6327ZM14.539 15H12.2832C12.2832 16.9567 11.4331 18.7526 9.95104 19.9276L9.05733 20.6359L12.5201 25.6331H15.3672L12.181 21.0349C13.6913 19.4433 14.539 17.3019 14.539 15ZM18.2167 25.6298H16.0392V15.002H18.2167V25.6298ZM24.7958 18.2781V18.7484C24.2082 18.3242 23.4991 18.0749 22.7342 18.0749C20.7098 18.0749 19.0687 19.8117 19.0687 21.9541C19.0687 24.0966 20.7098 25.8333 22.7342 25.8333C23.4991 25.8333 24.2082 25.584 24.7958 25.1599V25.6298H26.8757V18.2781H24.7958ZM24.7895 21.9542C24.7895 22.9988 23.9457 23.8457 22.9049 23.8457C21.8641 23.8457 21.0204 22.9988 21.0204 21.9542C21.0204 20.9095 21.8641 20.0628 22.9049 20.0628C23.9457 20.0628 24.7895 20.9095 24.7895 21.9542ZM46.7376 18.7484V18.2781H48.8174V25.6298H46.7376V25.1599C46.15 25.584 45.4408 25.8333 44.6758 25.8333C42.6515 25.8333 41.0104 24.0966 41.0104 21.9541C41.0104 19.8117 42.6515 18.0749 44.6758 18.0749C45.4408 18.0749 46.15 18.3242 46.7376 18.7484ZM44.8466 23.8457C45.8875 23.8457 46.7311 22.9988 46.7311 21.9542C46.7311 20.9095 45.8875 20.0628 44.8466 20.0628C43.8058 20.0628 42.9621 20.9095 42.9621 21.9542C42.9621 22.9988 43.8058 23.8457 44.8466 23.8457ZM49.72 24.4036C49.72 23.6407 50.3043 23.0223 51.0251 23.0223C51.7459 23.0223 52.3303 23.6407 52.3303 24.4036C52.3303 25.1663 51.7459 25.7848 51.0251 25.7848C50.3043 25.7848 49.72 25.1663 49.72 24.4036ZM37.3146 18.0804C36.4837 18.0804 35.6975 18.3534 35.1718 19.1065V18.2786H33.1009V25.6298H35.1972V21.7665C35.1972 20.6485 35.9056 20.1011 36.7585 20.1011C37.6725 20.1011 38.198 20.679 38.198 21.7513V25.6298H40.2754V20.9547C40.2754 19.2439 38.9901 18.0804 37.3146 18.0804ZM30.093 18.2783V19.2358C30.51 18.6614 31.2868 18.2787 32.1314 18.2787V20.4179C32.1275 20.4179 32.1236 20.4176 32.1198 20.4174C32.1155 20.4172 32.1112 20.4169 32.1067 20.4169C31.2838 20.4169 30.0978 21.0394 30.0978 22.1974V25.6298H27.9636V18.2783H30.093Z" fill="#17120F"/>
<rect x="0.5" y="0.5" width="57" height="39" rx="5.5" stroke="#F2F4F7"/>
</svg>
