<svg width="58" height="40" viewBox="0 0 58 40" fill="none" xmlns="http://www.w3.org/2000/svg">
<rect x="0.5" y="0.5" width="57" height="39" rx="5.5" fill="#F884A1"/>
<path fill-rule="evenodd" clip-rule="evenodd" d="M32.9739 15.726L34.5403 7.69691C34.7288 6.79615 34.2105 5.88847 33.3422 5.62517C32.373 5.37573 31.397 5.95776 31.1479 6.94166L29.7287 11.9438L28.6099 7.01788C28.5224 6.56057 28.2531 6.15177 27.8695 5.88847C27.4858 5.62517 27.0079 5.5351 26.5569 5.6321C25.6685 5.82611 25.0896 6.89316 25.3117 7.8632L25.9718 13.443C25.3984 12.8545 24.7286 12.6732 23.9525 13.1361L23.8515 13.2054C23.1443 13.7012 23.0003 14.7145 23.4548 15.6374C23.0786 15.6592 22.7109 15.8206 22.4312 16.1155L22.3639 16.1917C21.711 16.8846 21.8389 18.0556 22.6533 18.894L23.315 19.5728C23.3894 22.7106 25.8688 24.9082 28.7922 24.9082C28.8268 24.9082 28.8602 24.9034 28.8918 24.8942C32.8517 24.8535 34.5921 22.4256 34.8903 18.7415C34.9845 17.5775 34.7759 16.7807 34.3384 16.3026C34.096 16.0393 33.8403 15.9146 33.6451 15.8868L32.9739 15.726ZM32.2651 15.5562L33.8268 7.54447C33.9345 7.01788 33.6316 6.49821 33.147 6.34578C32.5816 6.20027 32.0028 6.55364 31.8479 7.1426L30.0373 13.531C29.9835 13.732 29.7816 13.8428 29.5864 13.7874C29.4314 13.7434 29.3315 13.6033 29.324 13.4468L27.8964 7.17031C27.8425 6.90009 27.6877 6.66451 27.4656 6.51207C27.2435 6.35963 26.9675 6.31113 26.705 6.36656C26.2339 6.4705 25.8838 7.12181 26.0252 7.70384L26.0319 7.74541L26.8477 14.6688L27.3609 15.4572C27.585 15.1369 27.9082 14.9374 28.294 14.8475C28.6171 14.7782 28.9469 14.7852 29.2632 14.8406C29.3421 14.8522 29.4022 14.8686 29.4354 14.8778C29.4419 14.8795 29.4473 14.881 29.4517 14.8822L32.2651 15.5562ZM27.0383 16.3079L26.2348 15.0735C26.2075 15.0437 26.1849 15.0093 26.1684 14.9715L25.79 14.3902C25.3256 13.6904 24.8746 13.4479 24.3362 13.7666L24.2621 13.8221C23.8448 14.12 23.791 14.8267 24.2217 15.5058L25.8102 17.9378C26.0929 18.3674 26.6583 18.4783 27.0757 18.1873L27.1564 18.1388C27.268 18.0636 27.3605 17.9603 27.4268 17.8414C27.0278 17.4209 26.9291 16.9009 27.0383 16.3079ZM28.1616 17.5194C28.12 17.4542 28.058 17.402 27.9816 17.373C27.6781 17.0724 27.6661 16.6971 27.8094 16.2056C27.9171 15.8453 28.1257 15.6582 28.4555 15.582C28.6709 15.5335 28.9065 15.5404 29.1354 15.582C29.1611 15.5873 29.1838 15.5916 29.2033 15.5952C29.2347 15.6011 29.2575 15.6054 29.27 15.6097L33.5105 16.6282L33.5912 16.656C33.6585 16.6837 33.7326 16.7391 33.8066 16.8153C34.0893 17.1271 34.2509 17.7161 34.1701 18.6861C33.8941 22.0813 32.3595 24.1877 28.7113 24.153C28.6908 24.153 28.6708 24.1547 28.6513 24.158C26.4401 24.0973 24.5697 22.6111 24.1353 20.4145L24.6793 20.9727C25.3322 21.6171 26.3621 21.6032 26.9948 20.938L27.0688 20.8618C27.571 20.3224 27.6571 19.5279 27.3307 18.8994C27.379 18.8726 27.4264 18.8431 27.4728 18.8109L27.5535 18.7554C27.7365 18.6272 27.8902 18.4619 28.0081 18.2716C28.2538 18.4035 28.5493 18.519 28.8998 18.6168L29.9161 18.8593C29.1623 19.2959 28.6911 20.1065 28.6373 21.3468C28.6238 21.5547 28.7786 21.7279 28.9805 21.7418C29.1825 21.7487 29.3507 21.5963 29.3642 21.3884C29.4181 20.2659 29.8421 19.6631 30.5219 19.3998C30.8854 19.2612 31.2825 19.2335 31.6325 19.2681L31.72 19.282C32.1845 19.3721 32.3325 18.6584 31.8681 18.5475L29.0748 17.9032C28.6716 17.7898 28.3737 17.6638 28.1616 17.5194ZM22.9562 16.6421C23.2356 16.3412 23.6906 16.3049 24.0185 16.5395L25.2045 18.3605C25.5298 18.8496 26.0566 19.1089 26.5892 19.0992C26.8797 19.4621 26.8642 19.999 26.5371 20.3421L26.4698 20.4184C26.1198 20.7856 25.5476 20.7925 25.1909 20.4322L23.1716 18.3743C22.613 17.7992 22.5389 17.0925 22.8889 16.7183L22.9562 16.6421ZM20.2639 31.9411C20.2639 33.0982 19.3888 33.8881 18.2446 33.8881C17.4436 33.8881 16.7571 33.5139 16.333 32.918L17.1205 32.1074C17.3561 32.4192 17.7465 32.7587 18.258 32.7587C18.7359 32.7587 19.0658 32.4677 19.0658 31.9965C19.0658 31.4976 18.6754 31.3729 18.0629 31.1928C16.9388 30.8532 16.4811 30.2504 16.4811 29.4675C16.4811 28.4836 17.208 27.6382 18.3523 27.6382C19.0725 27.6382 19.7388 27.9847 20.035 28.6568L19.086 29.2735C18.9042 28.9686 18.6552 28.7676 18.3186 28.7676C17.9215 28.7676 17.6725 29.0448 17.6725 29.3982C17.6725 29.8208 18.0359 29.9525 18.6148 30.1257C19.5235 30.4029 20.2639 30.8671 20.2639 31.9411ZM20.6742 31.6778C20.6742 32.8904 21.657 33.8881 22.8685 33.8881C24.0801 33.8881 25.0628 32.8904 25.0628 31.6778C25.0628 30.4652 24.0801 29.4675 22.8685 29.4675C21.657 29.4675 20.6742 30.4652 20.6742 31.6778ZM22.8682 32.7795C23.4538 32.7795 23.9183 32.3014 23.9183 31.6778C23.9183 31.0542 23.4538 30.5761 22.8682 30.5761C22.2759 30.5761 21.8182 31.0542 21.8182 31.6778C21.8182 32.3083 22.2826 32.7795 22.8682 32.7795ZM27.8965 27.7145V28.8231C27.257 28.7954 26.7926 29.128 26.7926 29.8624V30.3128C27.0484 30.0357 27.4118 29.8971 27.8628 29.8971V31.0196C27.2301 31.0334 26.7926 31.4492 26.7926 32.0312V33.7773H25.6483V29.7932C25.6483 28.6707 26.3349 27.7145 27.7282 27.7145H27.8965ZM30.3937 33.8881C29.1821 33.8881 28.1994 32.8904 28.1994 31.6778C28.1994 30.4652 29.1821 29.4675 30.3937 29.4675C31.6052 29.4675 32.5879 30.4652 32.5879 31.6778C32.5879 32.8904 31.6052 33.8881 30.3937 33.8881ZM31.4436 31.6778C31.4436 32.3014 30.9859 32.7795 30.3936 32.7795C29.808 32.7795 29.3436 32.3083 29.3436 31.6778C29.3436 31.0542 29.808 30.5761 30.3936 30.5761C30.9792 30.5761 31.4436 31.0542 31.4436 31.6778ZM34.3178 30.0634V29.5853H33.2072V33.7772H34.3514V31.8649C34.3514 31.172 34.7485 30.784 35.4351 30.784V29.5229C34.9168 29.5021 34.5466 29.6823 34.3178 30.0634ZM37.2391 30.6108V31.6362C37.2391 32.3707 37.7035 32.6964 38.3429 32.6756V33.7842H38.1747C36.7746 33.7842 36.0948 32.828 36.0948 31.7055V28.2411H37.2391V28.8993C37.2391 29.4675 37.69 29.8971 38.3093 29.9109V31.0265C37.8516 31.0265 37.4948 30.8879 37.2391 30.6108ZM39.7093 33.8466C40.1266 33.8466 40.4766 33.4932 40.4766 33.0567C40.4766 32.6271 40.1334 32.2668 39.7093 32.2668C39.2853 32.2668 38.942 32.6201 38.942 33.0567C38.942 33.4932 39.2853 33.8466 39.7093 33.8466Z" fill="white"/>
<rect x="0.5" y="0.5" width="57" height="39" rx="5.5" stroke="#F2F4F7"/>
</svg>
