<svg width="58" height="40" viewBox="0 0 58 40" fill="none" xmlns="http://www.w3.org/2000/svg">
<rect x="0.5" y="0.5" width="57" height="39" rx="5.5" fill="white"/>
<path d="M42.4852 12.3967H31.1989L30.051 13.7287L26.3262 18.0506V18.0508L25.1784 19.3826H14.0413L15.1714 18.0338L15.7063 17.3954L16.8363 16.0467H11.7047C10.7671 16.0467 10 16.8574 10 17.8481V21.6493C10 22.6402 10.7671 23.4509 11.7047 23.4509H31.351C32.2886 23.4509 33.5692 22.8488 34.197 22.1128L37.1688 18.6291L42.4852 12.3967Z" fill="#005697"/>
<path d="M44.7532 8.33337C45.6907 8.33337 46.4578 9.14409 46.4578 10.135V13.936C46.4578 14.9268 45.6907 15.7376 44.7532 15.7376H39.6382L40.779 14.399H40.7791L41.3447 13.7353L42.4855 12.3968H31.1993L25.1789 19.3877H13.9727L22.0092 10.0223L22.3133 9.66787C22.9432 8.93387 24.2257 8.33337 25.1632 8.33337H44.7532V8.33337Z" fill="#FBD500"/>
<path fill-rule="evenodd" clip-rule="evenodd" d="M13.8416 29.9125C13.8416 29.6644 13.7848 29.4496 13.6714 29.2682C13.5579 29.0868 13.4086 28.9484 13.2234 28.8529C13.4086 28.7575 13.5521 28.6165 13.6541 28.4304C13.7559 28.2443 13.8069 28.0343 13.8069 27.8005V27.6716C13.8069 27.3851 13.7536 27.1466 13.6472 26.9556C13.5406 26.7647 13.3911 26.6118 13.199 26.4973C13.0068 26.3827 12.7763 26.3005 12.5079 26.2503C12.2391 26.2001 11.9405 26.1752 11.6116 26.1752C11.5005 26.1752 11.3847 26.1775 11.2644 26.1823C11.1438 26.1871 11.0269 26.193 10.9136 26.2001C10.8 26.2073 10.6957 26.2158 10.601 26.2253C10.5059 26.2349 10.4283 26.2445 10.3681 26.2538C10.2338 26.2779 10.1389 26.3207 10.0834 26.3827C10.0278 26.4449 10 26.5571 10 26.7193V31.0725C10 31.2348 10.0289 31.3469 10.0868 31.4089C10.1447 31.4711 10.2431 31.5139 10.3821 31.5378C10.4515 31.5521 10.5349 31.564 10.6321 31.5737C10.7293 31.5832 10.8347 31.5915 10.9482 31.5986C11.0617 31.6058 11.1786 31.6117 11.299 31.6166C11.4195 31.6212 11.5375 31.6238 11.6533 31.6238C11.9544 31.6238 12.238 31.5998 12.5044 31.5521C12.7705 31.5045 13.0021 31.4196 13.199 31.2979C13.3959 31.1763 13.5521 31.0115 13.6679 30.804C13.7836 30.5963 13.8416 30.3349 13.8416 30.0199V29.9125ZM12.6607 27.8577C12.6607 27.9341 12.6492 28.0069 12.6259 28.0761C12.6027 28.1452 12.5646 28.2048 12.5114 28.2552C12.458 28.3052 12.3863 28.3458 12.296 28.3767C12.2057 28.4078 12.0911 28.4232 11.9521 28.4232H11.1742V27.1846C11.1973 27.1846 11.2332 27.1836 11.2818 27.1811C11.3304 27.1787 11.3813 27.1775 11.4346 27.1775H11.702C12.0586 27.1775 12.3076 27.224 12.4488 27.3171C12.59 27.4102 12.6607 27.5545 12.6607 27.7502V27.8577ZM12.4836 30.4566C12.6202 30.3469 12.6886 30.1917 12.6886 29.9913V29.9125C12.6886 29.7406 12.6352 29.5915 12.5287 29.465C12.4221 29.3386 12.23 29.2753 11.9521 29.2753H11.1742V30.6141H11.2956C11.3489 30.6141 11.4044 30.6156 11.4624 30.6178C11.5202 30.6202 11.5758 30.6215 11.6292 30.6215H11.7437C12.1003 30.6215 12.347 30.5665 12.4836 30.4566ZM17.6485 28.86C17.6485 28.5976 17.6103 28.3743 17.5339 28.1905C17.4576 28.0069 17.3498 27.8565 17.2109 27.7395C17.072 27.6226 16.9017 27.5368 16.7002 27.4818C16.4988 27.427 16.2731 27.3994 16.0229 27.3994C15.7913 27.3994 15.5655 27.4162 15.3457 27.4497C15.1255 27.483 14.9507 27.5165 14.8212 27.5498C14.7332 27.5738 14.6892 27.6262 14.6892 27.7072V28.2872C14.6892 28.3351 14.7007 28.3685 14.7239 28.3874C14.747 28.4066 14.777 28.4162 14.8142 28.4162H14.8489C14.9045 28.4113 14.9739 28.4054 15.0573 28.3982C15.1407 28.3911 15.2345 28.3853 15.3388 28.3802C15.4429 28.3756 15.5517 28.3721 15.6652 28.3695C15.7786 28.3672 15.891 28.366 16.0022 28.366C16.1642 28.366 16.2915 28.397 16.3842 28.459C16.4768 28.5212 16.5231 28.6548 16.5231 28.86V29.1178H16.148C15.5505 29.1178 15.1163 29.2145 14.8454 29.4077C14.5745 29.601 14.439 29.9077 14.439 30.3277V30.3924C14.439 30.6261 14.4726 30.8218 14.5397 30.9792C14.6068 31.1368 14.6961 31.2633 14.8072 31.3589C14.9184 31.4542 15.0445 31.5223 15.1858 31.5628C15.3271 31.6033 15.4742 31.6237 15.627 31.6237C15.8354 31.6237 16.0149 31.595 16.1653 31.5378C16.3158 31.4805 16.4582 31.4017 16.5926 31.3015V31.416C16.5926 31.4542 16.6065 31.4877 16.6343 31.5162C16.6621 31.5449 16.6944 31.5592 16.7315 31.5592H17.5096C17.5466 31.5592 17.579 31.5449 17.6069 31.5162C17.6347 31.4877 17.6485 31.4542 17.6485 31.416V28.86ZM16.2766 30.7036C16.3714 30.6726 16.4606 30.6356 16.544 30.5926V29.8051H16.148C16.0276 29.8051 15.9281 29.8158 15.8493 29.8372C15.7705 29.8588 15.7079 29.8911 15.6618 29.934C15.6155 29.9768 15.583 30.0319 15.5645 30.0986C15.5459 30.1655 15.5367 30.2418 15.5367 30.3277V30.3924C15.5367 30.5449 15.5725 30.6427 15.6443 30.6857C15.7162 30.7287 15.8261 30.7501 15.9744 30.7501C16.0808 30.7501 16.1815 30.7348 16.2766 30.7036ZM21.9001 31.4089V29.0246C21.9001 28.8005 21.8828 28.5891 21.848 28.3911C21.8132 28.1932 21.7508 28.0212 21.6605 27.8755C21.5702 27.7299 21.4451 27.6141 21.2853 27.5283C21.1256 27.4424 20.9206 27.3994 20.6705 27.3994C20.4482 27.3994 20.2513 27.4271 20.08 27.4824C19.9086 27.5377 19.728 27.6351 19.5382 27.7746V27.601C19.5382 27.5627 19.5242 27.5289 19.4965 27.5001C19.4687 27.4713 19.4362 27.4567 19.3991 27.4567H18.6212C18.584 27.4567 18.5517 27.471 18.524 27.4997C18.4961 27.5283 18.4823 27.5618 18.4823 27.5999V31.4089C18.4823 31.4471 18.4971 31.4817 18.5274 31.5127C18.5574 31.5437 18.591 31.5592 18.6281 31.5592H19.4687C19.5057 31.5592 19.5382 31.5437 19.5659 31.5128C19.5937 31.4819 19.6076 31.4474 19.6076 31.4092V28.5945C19.728 28.5279 19.8414 28.4732 19.948 28.4303C20.0545 28.3874 20.1586 28.366 20.2606 28.366C20.3671 28.366 20.4539 28.3767 20.5212 28.3982C20.5882 28.4196 20.6403 28.4565 20.6774 28.5091C20.7145 28.5613 20.74 28.6303 20.7538 28.716C20.7677 28.8017 20.7748 28.9066 20.7748 29.0304V31.4092C20.7748 31.4474 20.7886 31.4819 20.8164 31.5128C20.8441 31.5437 20.8764 31.5592 20.9137 31.5592H21.7542C21.7912 31.5592 21.8248 31.5437 21.8549 31.5127C21.8851 31.4817 21.9001 31.4471 21.9001 31.4089ZM25.3179 30.7146V31.3516C25.3179 31.4041 25.3062 31.4411 25.2831 31.4626C25.2599 31.4841 25.2228 31.5019 25.1719 31.5162C25.0747 31.5402 24.9485 31.5639 24.7934 31.588C24.6382 31.6117 24.4564 31.6237 24.248 31.6237C23.7571 31.6237 23.3646 31.4686 23.0706 31.1582C22.7764 30.8481 22.6294 30.3994 22.6294 29.8123V29.2109C22.6294 28.6238 22.7764 28.1751 23.0706 27.8649C23.3646 27.5545 23.7571 27.3994 24.248 27.3994C24.4564 27.3994 24.6382 27.4113 24.7934 27.4351C24.9485 27.4592 25.0747 27.483 25.1719 27.5068C25.2228 27.5211 25.2599 27.5391 25.2831 27.5605C25.3062 27.582 25.3179 27.619 25.3179 27.6715V28.3087C25.3179 28.3469 25.3051 28.3767 25.2797 28.3982C25.2541 28.4196 25.2228 28.4303 25.1859 28.4303H25.1719C25.0422 28.4162 24.9185 28.4042 24.8003 28.3947C24.6822 28.3853 24.5235 28.3802 24.3244 28.3802C24.2457 28.3802 24.1717 28.3935 24.1021 28.4196C24.0326 28.446 23.9725 28.4913 23.9215 28.5557C23.8705 28.6202 23.8301 28.706 23.7999 28.8135C23.7698 28.9208 23.7548 29.0533 23.7548 29.2109V29.8123C23.7548 29.9697 23.7698 30.1022 23.7999 30.2097C23.8301 30.317 23.8705 30.403 23.9215 30.4673C23.9725 30.5319 24.0326 30.5772 24.1021 30.6034C24.1717 30.6297 24.2457 30.6428 24.3244 30.6428C24.5235 30.6428 24.6822 30.638 24.8003 30.6285C24.9185 30.619 25.0422 30.6069 25.1719 30.5927H25.1859C25.2228 30.5927 25.2541 30.6034 25.2797 30.6249C25.3051 30.6465 25.3179 30.6762 25.3179 30.7146ZM29.1737 29.261C29.1737 28.9745 29.1353 28.7168 29.0587 28.4877C28.9821 28.2586 28.8707 28.0642 28.7246 27.9042C28.5785 27.7444 28.3974 27.6202 28.1818 27.5319C27.966 27.4438 27.7164 27.3994 27.4334 27.3994C27.1504 27.3994 26.901 27.4438 26.6851 27.5319C26.4693 27.6202 26.2872 27.7444 26.1387 27.9042C25.9901 28.0642 25.8776 28.2586 25.8012 28.4877C25.7244 28.7168 25.6862 28.9745 25.6862 29.261V29.7622C25.6862 30.0485 25.7244 30.3063 25.8012 30.5354C25.8776 30.7645 25.9901 30.959 26.1387 31.119C26.2872 31.2789 26.4693 31.4029 26.6851 31.4912C26.901 31.5794 27.1504 31.6237 27.4334 31.6237C27.7164 31.6237 27.966 31.5794 28.1818 31.4912C28.3974 31.4029 28.5785 31.2789 28.7246 31.119C28.8707 30.959 28.9821 30.7645 29.0587 30.5354C29.1353 30.3063 29.1737 30.0485 29.1737 29.7622V29.261ZM27.4334 30.6428C27.8432 30.6428 28.0482 30.3493 28.0482 29.7622V29.261C28.0482 28.6786 27.8432 28.3874 27.4334 28.3874C27.2307 28.3874 27.0765 28.4602 26.9706 28.6058C26.8646 28.7515 26.8117 28.9699 26.8117 29.261V29.7622C26.8117 30.0533 26.8646 30.2729 26.9706 30.4208C27.0765 30.5689 27.2307 30.6428 27.4334 30.6428ZM33.3068 31.4089V29.0246C33.3068 28.8005 33.2892 28.5891 33.2547 28.3911C33.22 28.1932 33.1574 28.0212 33.0669 27.8755C32.9766 27.7299 32.8517 27.6141 32.692 27.5283C32.5322 27.4424 32.3272 27.3994 32.0772 27.3994C31.8549 27.3994 31.658 27.4271 31.4866 27.4824C31.3152 27.5377 31.1346 27.6351 30.9448 27.7746V27.601C30.9448 27.5627 30.9309 27.5289 30.903 27.5001C30.8754 27.4713 30.8428 27.4567 30.8059 27.4567H30.0278C29.9907 27.4567 29.9584 27.471 29.9305 27.4997C29.9028 27.5283 29.8889 27.5618 29.8889 27.5999V31.4089C29.8889 31.4471 29.9039 31.4817 29.934 31.5127C29.9642 31.5437 29.9976 31.5592 30.0348 31.5592H30.8754C30.9123 31.5592 30.9448 31.5437 30.9726 31.5128C31.0003 31.4819 31.0143 31.4474 31.0143 31.4092V28.5945C31.1346 28.5279 31.2482 28.4732 31.3546 28.4303C31.4612 28.3874 31.5654 28.366 31.6674 28.366C31.7738 28.366 31.8607 28.3767 31.9277 28.3982C31.9948 28.4196 32.047 28.4565 32.0841 28.5091C32.1212 28.5613 32.1466 28.6303 32.1606 28.716C32.1744 28.8017 32.1813 28.9066 32.1813 29.0304V31.4092C32.1813 31.4474 32.1952 31.4819 32.223 31.5128C32.2509 31.5437 32.2832 31.5592 32.3203 31.5592H33.1608C33.1979 31.5592 33.2315 31.5437 33.2617 31.5127C33.2917 31.4817 33.3068 31.4471 33.3068 31.4089ZM36.3359 30.8708V31.4249C36.3359 31.5053 36.2919 31.5528 36.2039 31.5668C36.0973 31.5858 36.0047 31.5999 35.9261 31.6094C35.8473 31.6189 35.7568 31.6237 35.6551 31.6237C35.4662 31.6237 35.2993 31.6081 35.1543 31.5772C35.0093 31.5461 34.8883 31.4853 34.7916 31.3946C34.6951 31.3039 34.6214 31.1786 34.5708 31.0186C34.5203 30.8588 34.4949 30.6526 34.4949 30.3994V28.3231L33.9392 28.2299C33.902 28.2204 33.8686 28.2026 33.8384 28.1762C33.8083 28.1501 33.7933 28.1178 33.7933 28.0796V27.607C33.7933 27.5689 33.8083 27.5343 33.8384 27.5032C33.8686 27.4723 33.902 27.4567 33.9392 27.4567H34.4949V26.8696C34.4949 26.8313 34.5088 26.8004 34.5363 26.7765C34.5637 26.7527 34.5962 26.736 34.6331 26.7264L35.4754 26.5762H35.496C35.5328 26.5762 35.5628 26.5868 35.5859 26.6082C35.6088 26.6297 35.6204 26.6596 35.6204 26.6977V27.4567H36.19C36.227 27.4567 36.2594 27.4711 36.2873 27.4999C36.3151 27.5288 36.329 27.5627 36.329 27.601V28.1858C36.329 28.2244 36.3151 28.258 36.2873 28.2869C36.2594 28.3157 36.227 28.3301 36.19 28.3301H35.6204V30.4136C35.6204 30.5568 35.6319 30.6488 35.6551 30.6893C35.6782 30.7299 35.743 30.7501 35.8495 30.7501H36.19C36.2873 30.7501 36.3359 30.7904 36.3359 30.8708ZM40.0454 28.86C40.0454 28.5976 40.0073 28.3743 39.9307 28.1905C39.8544 28.0069 39.7468 27.8565 39.6078 27.7395C39.4689 27.6226 39.2987 27.5368 39.0972 27.4818C38.8958 27.427 38.67 27.3994 38.4199 27.3994C38.1881 27.3994 37.9625 27.4162 37.7426 27.4497C37.5225 27.483 37.3477 27.5165 37.2181 27.5498C37.1298 27.5738 37.0861 27.6262 37.0861 27.7072V28.2872C37.0861 28.3351 37.0975 28.3685 37.1207 28.3874C37.144 28.4066 37.174 28.4162 37.2111 28.4162H37.2458C37.3015 28.4113 37.3709 28.4054 37.4543 28.3982C37.5376 28.3911 37.6314 28.3853 37.7356 28.3802C37.8399 28.3756 37.9486 28.3721 38.0622 28.3695C38.1755 28.3672 38.2879 28.366 38.399 28.366C38.5611 28.366 38.6885 28.397 38.7811 28.459C38.8737 28.5212 38.92 28.6548 38.92 28.86V29.1178H38.545C37.9473 29.1178 37.5133 29.2145 37.2424 29.4077C36.9714 29.601 36.836 29.9077 36.836 30.3277V30.3924C36.836 30.6261 36.8695 30.8218 36.9367 30.9792C37.0036 31.1368 37.0931 31.2633 37.2041 31.3589C37.3153 31.4542 37.4414 31.5223 37.5828 31.5628C37.724 31.6033 37.871 31.6237 38.0239 31.6237C38.2324 31.6237 38.4117 31.595 38.5623 31.5378C38.7127 31.4805 38.855 31.4017 38.9896 31.3015V31.416C38.9896 31.4542 39.0034 31.4877 39.0313 31.5162C39.059 31.5449 39.0914 31.5592 39.1285 31.5592H39.9066C39.9435 31.5592 39.976 31.5449 40.0038 31.5162C40.0315 31.4877 40.0454 31.4542 40.0454 31.416V28.86ZM38.6735 30.7036C38.7683 30.6726 38.8576 30.6356 38.9409 30.5926V29.8051H38.545C38.4245 29.8051 38.325 29.8158 38.2462 29.8372C38.1674 29.8588 38.1048 29.8911 38.0587 29.934C38.0122 29.9768 37.9798 30.0319 37.9615 30.0986C37.9428 30.1655 37.9336 30.2418 37.9336 30.3277V30.3924C37.9336 30.5449 37.9694 30.6427 38.0412 30.6857C38.1131 30.7287 38.223 30.7501 38.3713 30.7501C38.4777 30.7501 38.5783 30.7348 38.6735 30.7036ZM43.4633 31.3516V30.7146C43.4633 30.6762 43.4505 30.6465 43.4251 30.6249C43.3995 30.6034 43.3684 30.5927 43.3313 30.5927H43.3175C43.1878 30.6069 43.0639 30.619 42.9457 30.6285C42.8277 30.638 42.669 30.6428 42.47 30.6428C42.3911 30.6428 42.3169 30.6297 42.2477 30.6034C42.1781 30.5772 42.1178 30.5319 42.0669 30.4673C42.016 30.403 41.9755 30.317 41.9455 30.2097C41.9152 30.1022 41.9003 29.9697 41.9003 29.8123V29.2109C41.9003 29.0533 41.9152 28.9208 41.9455 28.8135C41.9755 28.706 42.016 28.6202 42.0669 28.5557C42.1178 28.4913 42.1781 28.446 42.2477 28.4196C42.3169 28.3935 42.3911 28.3802 42.47 28.3802C42.669 28.3802 42.8277 28.3853 42.9457 28.3947C43.0639 28.4042 43.1878 28.4162 43.3175 28.4303H43.3313C43.3684 28.4303 43.3995 28.4196 43.4251 28.3982C43.4505 28.3767 43.4633 28.3469 43.4633 28.3087V27.6715C43.4633 27.619 43.4518 27.582 43.4285 27.5605C43.4052 27.5391 43.3684 27.5211 43.3175 27.5068C43.2202 27.483 43.0939 27.4592 42.9388 27.4351C42.7836 27.4113 42.602 27.3994 42.3935 27.3994C41.9023 27.3994 41.5101 27.5545 41.216 27.8649C40.9218 28.1751 40.7748 28.6238 40.7748 29.2109V29.8123C40.7748 30.3994 40.9218 30.8481 41.216 31.1582C41.5101 31.4686 41.9023 31.6237 42.3935 31.6237C42.602 31.6237 42.7836 31.6117 42.9388 31.588C43.0939 31.5639 43.2202 31.5402 43.3175 31.5162C43.3684 31.5019 43.4052 31.4841 43.4285 31.4626C43.4518 31.4411 43.4633 31.4041 43.4633 31.3516ZM46.4573 30.8708V31.4249C46.4573 31.5053 46.4132 31.5528 46.3253 31.5668C46.2187 31.5858 46.1261 31.5999 46.0475 31.6094C45.9686 31.6189 45.8783 31.6237 45.7766 31.6237C45.5876 31.6237 45.4207 31.6081 45.2757 31.5772C45.1306 31.5461 45.0097 31.4853 44.9132 31.3946C44.8166 31.3039 44.7429 31.1786 44.6922 31.0186C44.6418 30.8588 44.6164 30.6526 44.6164 30.3994V28.3231L44.0607 28.2299C44.0235 28.2204 43.99 28.2026 43.9599 28.1762C43.9297 28.1501 43.9147 28.1178 43.9147 28.0796V27.607C43.9147 27.5689 43.9297 27.5343 43.9599 27.5032C43.99 27.4723 44.0235 27.4567 44.0607 27.4567H44.6164V26.8696C44.6164 26.8313 44.6302 26.8004 44.6578 26.7765C44.6852 26.7527 44.7175 26.736 44.7544 26.7264L45.5967 26.5762H45.6175C45.6543 26.5762 45.6843 26.5868 45.7071 26.6082C45.7303 26.6297 45.7418 26.6596 45.7418 26.6977V27.4567H46.3115C46.3484 27.4567 46.3809 27.4711 46.4087 27.4999C46.4364 27.5288 46.4504 27.5627 46.4504 27.601V28.1858C46.4504 28.2244 46.4364 28.258 46.4087 28.2869C46.3809 28.3157 46.3484 28.3301 46.3115 28.3301H45.7418V30.4136C45.7418 30.5568 45.7534 30.6488 45.7766 30.6893C45.7997 30.7299 45.8644 30.7501 45.9711 30.7501H46.3115C46.4087 30.7501 46.4573 30.7904 46.4573 30.8708Z" fill="#005697"/>
<rect x="0.5" y="0.5" width="57" height="39" rx="5.5" stroke="#F2F4F7"/>
</svg>
