<svg width="58" height="40" viewBox="0 0 58 40" fill="none" xmlns="http://www.w3.org/2000/svg">
<rect x="0.5" y="0.5" width="57" height="39" rx="5.5" fill="white"/>
<path fill-rule="evenodd" clip-rule="evenodd" d="M41.585 31.0348C41.585 31.6218 41.3518 32.1847 40.9367 32.5998C40.5216 33.0149 39.9587 33.2481 39.3717 33.2481H17.2158C16.925 33.2484 16.6369 33.1914 16.3681 33.0803C16.0992 32.9692 15.8549 32.8063 15.6492 32.6007C15.4434 32.3951 15.2801 32.151 15.1687 31.8823C15.0573 31.6136 15 31.3256 15 31.0348V8.87995C15 8.58908 15.0573 8.30106 15.1687 8.03236C15.2801 7.76367 15.4434 7.51956 15.6492 7.314C15.8549 7.10844 16.0992 6.94547 16.3681 6.83438C16.6369 6.7233 16.925 6.6663 17.2158 6.66663H39.3701C39.9571 6.66663 40.5201 6.89982 40.9352 7.31489C41.3503 7.72997 41.5835 8.29294 41.5835 8.87995L41.585 31.0348Z" fill="#EDAA00"/>
<path d="M29.8441 20.2444V15.4842L31.0871 15.1899V15.8132C31.0871 15.8132 31.4085 14.9928 32.155 14.8021C32.3849 14.7443 32.5006 14.779 32.5006 14.779V15.9933C32.2769 15.9963 32.0559 16.0425 31.8497 16.1291C31.3889 16.3107 31.1575 16.7081 31.1575 17.3117V19.94L29.8441 20.2444ZM23.2942 21.7922C23.2942 21.7922 23.093 21.4904 23.093 20.4179V18.0481L22.4531 18.1991V17.2237L23.0935 17.0728V16.0084L24.4149 15.6965V16.7584L25.3486 16.5371V17.5129L24.4149 17.7348V20.1493C24.4149 21.2464 24.7062 21.4572 24.7062 21.4572L23.2942 21.7922ZM25.4864 18.9606C25.4864 18.114 25.6071 17.4968 25.8657 17.023C26.173 16.4606 26.6786 16.0944 27.414 15.9269C28.8632 15.5974 29.3858 16.4556 29.3652 17.6055C29.3587 18.0165 29.3602 18.2172 29.3602 18.2172L26.8068 18.8173V18.8585C26.8068 19.6634 26.9758 20.0442 27.4849 19.9355C27.9246 19.8429 28.0468 19.5673 28.0815 19.2272C28.0875 19.1714 28.0895 19.0321 28.0895 19.0321L29.2862 18.7453C29.2862 18.7453 29.2893 18.8434 29.2862 18.9526C29.2752 19.4098 29.1424 20.5437 27.4799 20.936C25.9054 21.3098 25.4849 20.348 25.4849 18.9606H25.4864ZM27.4653 16.8132C27.0422 16.9093 26.8204 17.3243 26.8114 18.0119L28.0961 17.7061C28.0986 17.6749 28.0986 17.6055 28.0986 17.4988C28.0961 16.9802 27.9356 16.7066 27.4658 16.8132H27.4653ZM36.9705 16.1769C36.9202 14.7272 37.2964 13.5762 38.9137 13.209C39.9459 12.9746 40.3367 13.2422 40.5349 13.5013C40.7256 13.7488 40.799 14.0823 40.799 14.5496V14.6361L39.5324 14.9379V14.7614C39.5324 14.208 39.3815 13.9968 38.9791 14.0974C38.5007 14.2176 38.3075 14.6713 38.3075 15.5748V15.9958C38.3075 16.9138 38.4333 17.3344 38.9841 17.2187C39.463 17.118 39.5284 16.6995 39.5374 16.3313C39.5374 16.2735 39.541 16.0884 39.541 16.0884L40.8056 15.7906V15.9872C40.802 17.1905 40.1677 17.9491 38.9786 18.2257C37.3422 18.61 37.0213 17.6628 36.971 16.1769H36.9705ZM32.5957 18.2061C32.5957 17.1035 33.2426 16.7549 34.2149 16.3529C35.0887 15.9913 35.1073 15.8117 35.1113 15.4978C35.1158 15.2337 34.9936 15.0068 34.558 15.118C34.1581 15.2186 34.0519 15.5094 34.0308 15.7408C34.0235 15.822 34.0208 15.9037 34.0227 15.9852L32.7969 16.2745C32.7886 16.0302 32.8171 15.786 32.8814 15.5501C33.0776 14.8906 33.6596 14.447 34.6626 14.2151C35.9664 13.9133 36.4016 14.4867 36.4036 15.3771V17.4853C36.4036 18.5049 36.5927 18.6538 36.5927 18.6538L35.389 18.939C35.3224 18.7998 35.2682 18.6551 35.227 18.5064C35.227 18.5064 34.9639 19.1699 34.0554 19.3842C33.0997 19.6085 32.5967 19.018 32.5967 18.2066L32.5957 18.2061ZM35.1043 16.701C34.9013 16.8433 34.6869 16.9686 34.4634 17.0758C34.061 17.2725 33.8804 17.5139 33.8804 17.8862C33.8804 18.2086 34.0816 18.4209 34.4438 18.3303C34.8336 18.2328 35.1043 17.8691 35.1043 17.3645V16.701ZM16.3866 25.1288C16.2493 25.1285 16.1145 25.0912 15.9965 25.0207C15.8786 24.9503 15.7818 24.8494 15.7164 24.7286C15.6509 24.6079 15.6193 24.4717 15.6247 24.3344C15.6301 24.1971 15.6725 24.0639 15.7473 23.9487L15.7553 23.9381L15.7699 23.9346L17.5657 23.5105V24.8752L17.5375 24.8818C17.1301 24.9799 16.6432 25.091 16.5426 25.1117C16.491 25.1232 16.4384 25.1289 16.3856 25.1288H16.3866ZM16.3866 26.8748C16.1848 26.8748 15.9912 26.7948 15.8483 26.6523C15.7053 26.5098 15.6247 26.3165 15.624 26.1147C15.6232 25.9674 15.6661 25.8231 15.7473 25.7002L15.7553 25.6866L15.7699 25.6836L17.5657 25.2595V26.6243L17.5375 26.6318C17.1301 26.7294 16.6432 26.8426 16.5426 26.8622C16.4909 26.8723 16.4383 26.8774 16.3856 26.8773L16.3866 26.8748ZM16.3866 28.6238C16.1843 28.6237 15.9904 28.5432 15.8474 28.4001C15.7044 28.257 15.624 28.063 15.624 27.8607C15.6232 27.7134 15.6661 27.5691 15.7473 27.4462L15.7553 27.4321L17.5662 27.0055V28.3703L17.5381 28.3773C17.108 28.4809 16.6296 28.5891 16.5431 28.6087C16.4913 28.6186 16.4388 28.6236 16.3861 28.6238" fill="#231F20"/>
<path d="M16.1753 23.4561L16.1748 15.8207L17.5667 15.4917V23.1266L16.1753 23.4561Z" fill="#231F20"/>
<path d="M19.6426 22.8068C19.6372 22.5826 19.5443 22.3694 19.3839 22.2128C19.2234 22.0561 19.008 21.9684 18.7837 21.9684C18.5595 21.9684 18.3441 22.0561 18.1836 22.2128C18.0231 22.3694 17.9302 22.5826 17.9248 22.8068V29.9437C17.9259 30.5601 18.1711 31.1509 18.6069 31.5868C19.0427 32.0226 19.6334 32.268 20.2498 32.2692C20.8997 32.2692 22.6804 32.2662 22.6804 32.2662V25.9688C22.6807 25.7837 22.6353 25.6014 22.5482 25.4381C22.461 25.2747 22.3349 25.1355 22.1809 25.0327L20.0139 23.5608V26.9029C20.0152 26.928 20.0114 26.953 20.0027 26.9765C19.994 27 19.9807 27.0215 19.9634 27.0397C19.9462 27.0578 19.9254 27.0723 19.9024 27.0822C19.8794 27.0921 19.8546 27.0972 19.8295 27.0972C19.8045 27.0972 19.7797 27.0921 19.7566 27.0822C19.7336 27.0723 19.7129 27.0578 19.6956 27.0397C19.6784 27.0215 19.665 27 19.6563 26.9765C19.6476 26.953 19.6438 26.928 19.6452 26.9029C19.6452 26.8672 19.6406 23.248 19.6406 22.8068H19.6426ZM20.8026 17.4823C20.5395 17.5431 20.2925 17.6599 20.0786 17.8249C19.8647 17.9898 19.6889 18.1989 19.5632 18.438V17.9033L18.3101 18.2001V21.6272C18.5299 21.5405 18.7694 21.5161 19.0021 21.5569C19.2348 21.5976 19.4518 21.7019 19.6291 21.8581V19.6448C19.6291 19.1151 19.8937 18.6915 20.2699 18.6085C20.5541 18.5462 20.7905 18.6478 20.7905 19.1523V22.3812L22.11 22.0714V18.6563C22.11 17.8278 21.7921 17.2478 20.8021 17.4823H20.8026ZM39.9856 12.5954C39.8241 12.5954 39.6662 12.5477 39.5319 12.458C39.3976 12.3684 39.2929 12.241 39.231 12.0918C39.1691 11.9427 39.1528 11.7785 39.1842 11.6202C39.2156 11.4618 39.2933 11.3163 39.4074 11.202C39.5215 11.0878 39.6669 11.0099 39.8253 10.9783C39.9836 10.9467 40.1478 10.9628 40.297 11.0245C40.4462 11.0862 40.5738 11.1907 40.6636 11.3249C40.7534 11.4591 40.8014 11.617 40.8015 11.7784C40.8011 11.9947 40.715 12.2019 40.562 12.3548C40.4091 12.5076 40.2018 12.5936 39.9856 12.5938V12.5954ZM39.9856 11.0641C39.8444 11.0641 39.7064 11.106 39.589 11.1844C39.4717 11.2628 39.3802 11.3743 39.3261 11.5047C39.2721 11.6351 39.2579 11.7786 39.2854 11.917C39.3129 12.0554 39.3809 12.1826 39.4806 12.2825C39.5804 12.3823 39.7076 12.4504 39.846 12.478C39.9844 12.5055 40.1279 12.4915 40.2584 12.4375C40.3888 12.3836 40.5003 12.2922 40.5788 12.1749C40.6573 12.0575 40.6992 11.9196 40.6993 11.7784C40.6991 11.5892 40.6238 11.4077 40.49 11.2738C40.3562 11.1399 40.1748 11.0645 39.9856 11.0641Z" fill="#231F20"/>
<path d="M39.6885 11.293H40.0406C40.1809 11.293 40.2921 11.3629 40.2921 11.5485C40.2921 11.6778 40.2348 11.7774 40.1261 11.7945C40.2267 11.8045 40.277 11.8589 40.2815 11.9992C40.2815 12.0621 40.2846 12.1406 40.2876 12.2004C40.2876 12.2175 40.2919 12.2344 40.3001 12.2493C40.3084 12.2643 40.3204 12.2769 40.3349 12.2859H40.1558C40.1378 12.2601 40.1283 12.2294 40.1286 12.1979C40.1226 12.1381 40.1236 12.0822 40.1216 12.0098C40.1216 11.9011 40.0859 11.8533 39.9762 11.8533H39.8499V12.2859H39.6905L39.6885 11.293ZM39.9747 11.7366C39.9963 11.7386 40.0181 11.7358 40.0386 11.7283C40.059 11.7208 40.0774 11.7089 40.0927 11.6934C40.1079 11.6779 40.1194 11.6592 40.1265 11.6387C40.1336 11.6181 40.1361 11.5963 40.1337 11.5747C40.1337 11.4685 40.0884 11.4132 39.9827 11.4132H39.8499V11.7366H39.9747Z" fill="#231F20"/>
<rect x="0.5" y="0.5" width="57" height="39" rx="5.5" stroke="#F2F4F7"/>
</svg>
