<svg width="58" height="40" viewBox="0 0 58 40" fill="none" xmlns="http://www.w3.org/2000/svg">
<rect x="0.5" y="0.5" width="57" height="39" rx="5.5" fill="white"/>
<path d="M14.7993 14.6638H6.86927C5.83654 14.6638 5 15.5081 5 16.5485V24.5458C5 25.5862 5.83654 26.4305 6.86927 26.4305H14.7993C15.8321 26.4305 16.6675 25.5862 16.6675 24.5458V16.5485C16.6686 15.507 15.8321 14.6638 14.7993 14.6638Z" fill="#1677FF"/>
<path d="M14.6067 22.0527C14.1405 21.8951 13.5134 21.6537 12.8157 21.3991C13.2345 20.664 13.5696 19.8275 13.79 18.9182H11.4898V18.0827H14.3069V17.6165H11.4898V16.2234H10.3403C10.1386 16.2234 10.1386 16.424 10.1386 16.424V17.6154H7.28947V18.0816H10.1386V18.9171H7.78544V19.3833H12.3484C12.182 19.963 11.9571 20.5086 11.6915 21.0035C10.2113 20.5108 8.6308 20.1118 7.63885 20.3576C7.00401 20.5152 6.59511 20.7963 6.35484 21.0916C5.25267 22.444 6.04292 24.4984 8.37069 24.4984C9.74729 24.4984 11.0732 23.7247 12.1004 22.4495C13.6335 23.1924 16.6678 24.4687 16.6678 24.4687V22.6501C16.6689 22.6501 16.2875 22.6192 14.6067 22.0527ZM8.15356 23.7126C6.3383 23.7126 5.80155 22.271 6.69871 21.4818C6.9985 21.2151 7.54517 21.085 7.83614 21.0564C8.91406 20.9495 9.91262 21.3639 11.0908 21.9436C10.2631 23.0325 9.20833 23.7126 8.15356 23.7126Z" fill="white"/>
<path d="M30.335 16.3866C30.335 16.995 30.7802 17.405 31.4008 17.405C32.0213 17.405 32.4665 16.995 32.4665 16.3866C32.4665 15.7892 32.0213 15.3682 31.4008 15.3682C30.7802 15.3682 30.335 15.7892 30.335 16.3866Z" fill="#1677FF"/>
<path d="M29.2108 15.6249H27.3613V24.171H29.2108V15.6249Z" fill="currentColor"/>
<path d="M24.1195 15.9181H21.6374L18.8633 24.1722H20.5727L21.0412 22.5564H23.9795L24.4248 24.1722H26.6137L24.1195 15.9181ZM21.4269 21.2096L22.5269 17.4049H22.5732L23.6147 21.2096H21.4269Z" fill="currentColor"/>
<path d="M32.326 17.8965H30.4766V24.1722H32.326V17.8965Z" fill="currentColor"/>
<path d="M51.656 17.9086L51.6671 17.8965H49.9235L48.8224 21.7133H48.764L47.4998 17.8965H45.4277L47.9208 24.1953L46.8793 26.1153V26.1616H48.5061L51.656 17.9086Z" fill="currentColor"/>
<path d="M36.927 17.7676C36.248 17.7676 35.7212 18.0255 35.1238 18.517V17.8965H33.2744V26.1616H35.1238V24.1127C35.4754 24.2064 35.8028 24.2538 36.2007 24.2538C37.8517 24.2538 39.3385 23.0359 39.3385 20.8702C39.3385 18.9271 38.2617 17.7676 36.927 17.7676ZM35.7554 23.0943C35.5449 23.0943 35.3454 23.0712 35.1227 23.0006V19.606C35.5096 19.3371 35.8248 19.2081 36.2227 19.2081C36.9137 19.2081 37.4637 19.7581 37.4637 20.9297C37.4648 22.4275 36.6569 23.0943 35.7554 23.0943Z" fill="currentColor"/>
<path d="M45.0635 22.6028V19.9807C45.0635 18.5523 44.2204 17.7676 42.7336 17.7676C41.7846 17.7676 41.1299 17.9318 39.9352 18.2944L40.2625 19.7349C41.3514 19.2434 41.8309 19.0329 42.3346 19.0329C42.943 19.0329 43.213 19.466 43.213 20.1339V20.1802C41.0935 20.5781 40.4378 20.8007 40.0289 21.2107C39.7247 21.5149 39.5957 21.9481 39.5957 22.4518C39.5957 23.6575 40.5325 24.3012 41.4099 24.3012C42.0657 24.3012 42.5925 24.0554 43.3067 23.5165L43.4356 24.1722H45.2851L45.0635 22.6028ZM43.2141 22.6502C42.7225 22.9191 42.4415 23.0249 42.1141 23.0249C41.6689 23.0249 41.3878 22.7317 41.3878 22.2644C41.3878 22.0892 41.4231 21.9128 41.5631 21.7728C41.7857 21.5502 42.2189 21.386 43.2141 21.1523V22.6502Z" fill="currentColor"/>
<rect x="0.5" y="0.5" width="57" height="39" rx="5.5" stroke="#F2F4F7"/>
</svg>
