<svg width="58" height="40" viewBox="0 0 58 40" fill="none" xmlns="http://www.w3.org/2000/svg">
<rect x="0.5" y="0.5" width="57" height="39" rx="5.5" fill="white"/>
<path d="M7.29871 18.0131C6.90736 18.0131 6.86876 17.8861 6.86876 16.9598V16.8018C6.86876 15.8723 6.90736 15.7465 7.29871 15.7465H16.2477C16.6404 15.7465 16.679 15.8723 16.679 16.8005V16.9586C16.679 17.8861 16.6398 18.0125 16.2477 18.0125H7.29871V18.0131ZM7.29871 13.9345C6.90736 13.9345 6.86876 13.8081 6.86876 12.8805V12.7225C6.86876 11.7918 6.90736 11.6666 7.29871 11.6666H16.2477C16.6404 11.6666 16.679 11.7931 16.679 12.7225V12.8805C16.679 13.8081 16.6398 13.9345 16.2477 13.9345H7.29871ZM8.63934 26.0471C8.63934 24.512 9.44033 23.668 10.6455 23.668C11.1005 23.668 11.4648 23.7919 11.9205 24.0037C12.0857 24.0821 12.2225 24.0505 12.4391 23.5706L12.5969 23.2444C12.7526 22.8511 12.7641 22.6886 12.5752 22.6014C12.0166 22.296 11.152 22.1032 10.4052 22.1032C8.2771 22.1032 6.66699 23.6775 6.66699 26.0471C6.66699 28.4162 8.2771 29.9905 10.4045 29.9905C11.152 29.9905 12.0363 29.7983 12.5969 29.491C12.7838 29.4056 12.7716 29.2413 12.6172 28.848L12.4615 28.5034C12.2448 28.0229 12.1074 27.9957 11.9408 28.0703C11.4851 28.2834 11.1012 28.4073 10.6455 28.4073C9.44033 28.4073 8.64137 27.5816 8.64137 26.0471H8.64001H8.63934ZM33.9961 29.6276C33.9961 29.8362 33.9121 29.8931 33.2804 29.8931H33.2175C32.5519 29.8931 32.4591 29.8647 32.407 29.7123C32.3721 29.6089 32.3443 29.5035 32.3237 29.3968C31.9716 29.7901 31.5471 30 30.9005 30C29.3324 30 28.3899 28.9251 28.3899 27.1966C28.3899 25.3283 29.4387 24.2218 30.9939 24.2218C31.432 24.2218 31.8355 24.3483 32.147 24.5784V22.1506C32.147 21.9881 32.1673 21.9204 33.0407 21.9204H33.1037C33.9121 21.9204 33.9954 21.9881 33.9954 22.1506V29.6276H33.9961ZM32.1477 25.9416C32.0409 25.8326 31.911 25.7456 31.7662 25.6862C31.6214 25.6267 31.4649 25.5961 31.3067 25.5963C30.6107 25.5963 30.2803 26.1609 30.2803 27.1978C30.2803 27.7921 30.415 28.1696 30.6107 28.3675C30.7867 28.5717 31.0576 28.6375 31.3182 28.6375C31.6399 28.6375 31.8883 28.5635 32.0035 28.4263C32.1057 28.3213 32.147 28.1589 32.147 27.7846V25.9409L32.1483 25.9416H32.1477ZM43.4184 29.6655C43.4184 29.8267 43.3351 29.8931 42.5247 29.8931H42.4624C41.5903 29.8931 41.572 29.8267 41.572 29.6655V22.1506C41.572 21.9881 41.5903 21.9204 42.4617 21.9204H42.524C43.3338 21.9204 43.4177 21.9881 43.4177 22.1506V29.6655H43.4184ZM36.9157 27.6676C37.0186 28.3485 37.475 28.676 38.192 28.676C38.7438 28.676 39.2604 28.5622 39.8644 28.3213C39.9903 28.2739 40.1034 28.3213 40.2368 28.7026L40.3316 28.9163C40.465 29.3095 40.4535 29.3968 40.3099 29.472C39.5922 29.8457 38.8454 29.9987 38.0146 29.9987C36.1783 29.9987 35.0266 28.9555 35.0266 27.1694C35.0266 25.4326 36.0849 24.2218 37.9015 24.2218C39.6985 24.2218 40.6207 25.413 40.6207 27.0632C40.6207 27.6107 40.5699 27.6676 40.362 27.6676H36.9157ZM38.7723 26.6035C38.7438 26.0294 38.4946 25.5287 37.8819 25.5287C37.3504 25.5287 36.9658 25.9017 36.8933 26.6035H38.7723ZM46.2947 27.6676C46.3962 28.3485 46.8539 28.676 47.5716 28.676C48.1187 28.676 48.6401 28.5622 49.242 28.3213C49.3652 28.2739 49.4817 28.3213 49.6157 28.7026L49.7099 28.9163C49.8432 29.3095 49.8324 29.3968 49.6895 29.472C48.9718 29.8457 48.2237 29.9987 47.3922 29.9987C45.5553 29.9987 44.4049 28.9555 44.4049 27.1694C44.4049 25.4326 45.4612 24.2218 47.2785 24.2218C49.0768 24.2218 50.0003 25.413 50.0003 27.0632C50.0003 27.6107 49.9482 27.6676 49.7403 27.6676H46.294H46.2947ZM48.1532 26.6035C48.1194 26.0294 47.8723 25.5287 47.2595 25.5287C46.73 25.5287 46.3441 25.9017 46.2723 26.6035H48.1532ZM25.4351 25.9795C25.3415 25.8642 25.2208 25.7706 25.0822 25.7059C24.9437 25.6412 24.791 25.6072 24.6361 25.6065C23.9401 25.6065 23.609 26.1723 23.609 27.1789C23.609 28.0324 23.8554 28.6665 24.6138 28.6665C24.8954 28.6665 25.1013 28.5995 25.2482 28.4636C25.3823 28.3308 25.4351 28.1475 25.4351 27.7466V25.9795ZM27.3038 29.6276C27.3038 29.8362 27.2219 29.8931 26.5888 29.8931H26.5035C25.84 29.8931 25.7465 29.8647 25.6951 29.7123C25.6594 29.6091 25.6316 29.5037 25.6118 29.3968C25.2597 29.7901 24.8331 30 24.1886 30C22.6834 30 21.7172 28.9428 21.7172 27.2181C21.7172 25.2992 22.9116 24.2218 24.324 24.2218C24.8954 24.2218 25.3924 24.4444 25.6632 24.7605L25.6951 24.5203C25.7039 24.4065 25.737 24.3306 26.4195 24.3306H26.4933C27.2002 24.3306 27.3025 24.3767 27.3025 24.5519V29.6276H27.3038ZM18.6378 22.7089C19.3325 22.7089 19.3745 22.7171 19.3745 22.9283V24.3293H20.5695C20.7348 24.3293 20.7862 24.3578 20.7862 24.8851V24.9628C20.7862 25.4889 20.7348 25.5192 20.5695 25.5192H19.3745V28.0337C19.3745 28.4547 19.4564 28.676 19.8715 28.676C20.0881 28.676 20.2777 28.6375 20.4646 28.5812C20.661 28.511 20.7354 28.5995 20.8695 29.0396L20.9006 29.1452C21.0455 29.6276 21.0029 29.6655 20.818 29.7502C20.4443 29.9133 19.9446 30 19.4781 30C18.0041 30 17.589 29.3095 17.589 28.1083V25.5192H16.893C16.7169 25.5192 16.6729 25.4876 16.6729 24.9628V24.8851C16.6729 24.3578 16.7163 24.3306 16.893 24.3306H17.6716C17.7563 23.8798 17.8998 23.245 17.9939 22.9283C18.0461 22.7455 18.0772 22.7089 18.6378 22.7089ZM14.7757 24.3306C15.5862 24.3306 15.658 24.3957 15.658 24.5601V29.6655C15.658 29.8362 15.5862 29.8931 14.7757 29.8931H14.7229C13.8312 29.8931 13.8109 29.8362 13.8109 29.6655V24.5601C13.8109 24.3957 13.8312 24.3306 14.7229 24.3306H14.7757ZM14.7229 21.8351C15.3079 21.8351 15.7318 22.2568 15.7318 22.736C15.7292 22.8562 15.701 22.9746 15.6489 23.0844C15.5969 23.1943 15.5219 23.2933 15.4285 23.3759C15.2389 23.5434 14.985 23.6345 14.7229 23.6288C14.1447 23.6288 13.7161 23.2071 13.7161 22.736C13.7161 22.2555 14.1447 21.8351 14.7229 21.8351Z" fill="#EE293D"/>
<rect x="0.5" y="0.5" width="57" height="39" rx="5.5" stroke="#F2F4F7"/>
</svg>
