<svg width="58" height="40" viewBox="0 0 58 40" fill="none" xmlns="http://www.w3.org/2000/svg">
<rect x="0.5" y="0.5" width="57" height="39" rx="5.5" fill="white"/>
<path fill-rule="evenodd" clip-rule="evenodd" d="M30.4474 13.5699L27.5688 14.2058V11.8034L30.4474 11.1792V13.5699ZM36.4336 14.9006C35.3097 14.9006 34.5872 15.4424 34.1858 15.8192L34.0367 15.0891H31.5137V28.8207L34.3808 28.1966L34.3923 24.8638C34.8051 25.17 35.4129 25.6057 36.4221 25.6057C38.475 25.6057 40.3443 23.9098 40.3443 20.1766C40.3328 16.7614 38.4406 14.9006 36.4336 14.9006ZM35.7455 23.0148C35.0689 23.0148 34.6675 22.7675 34.3922 22.4613L34.3808 18.0921C34.679 17.7506 35.0918 17.5151 35.7455 17.5151C36.7891 17.5151 37.5116 18.7163 37.5116 20.259C37.5116 21.8371 36.8006 23.0148 35.7455 23.0148ZM49.3814 20.2944C49.3814 17.2795 47.9594 14.9006 45.2414 14.9006C42.5119 14.9006 40.8605 17.2795 40.8605 20.2708C40.8605 23.8156 42.8101 25.6057 45.6084 25.6057C46.9731 25.6057 48.0052 25.2877 48.7851 24.8402V22.4848C48.0052 22.8853 47.1107 23.1326 45.9753 23.1326C44.8629 23.1326 43.8766 22.7322 43.7505 21.3425H49.3585C49.3585 21.2776 49.3626 21.1304 49.3673 20.9606L49.3674 20.9603C49.3738 20.7294 49.3814 20.4572 49.3814 20.2944ZM43.716 19.1756C43.716 17.8448 44.5073 17.2913 45.2298 17.2913C45.9294 17.2913 46.6748 17.8448 46.6748 19.1756H43.716ZM27.5686 15.1009H30.4472V25.4055H27.5686V15.1009ZM24.3004 15.1008L24.4839 15.9723C25.1606 14.7004 26.5023 14.9595 26.8693 15.1008V17.8095C26.5138 17.68 25.367 17.5151 24.6904 18.4219V25.4055H21.8233V15.1008H24.3004ZM18.7496 12.5453L15.9513 13.1577L15.9399 22.5908C15.9399 24.3338 17.2129 25.6174 18.9102 25.6174C19.8506 25.6174 20.5387 25.4408 20.9171 25.2288V22.8381C20.5501 22.9912 18.7381 23.533 18.7381 21.79V17.6093H20.9171V15.1008H18.7381L18.7496 12.5453ZM11.972 17.4562C11.3642 17.4562 10.9972 17.6329 10.9972 18.0922C10.9972 18.5936 11.6288 18.8142 12.4123 19.0879C13.6897 19.534 15.371 20.1213 15.3781 22.2964C15.3781 24.4045 13.7381 25.6175 11.3527 25.6175C10.3664 25.6175 9.28841 25.4173 8.22185 24.9462V22.1434C9.18519 22.6851 10.4008 23.0855 11.3527 23.0855C11.9949 23.0855 12.4537 22.9088 12.4537 22.3671C12.4537 21.8116 11.769 21.5577 10.9424 21.2512C9.68364 20.7844 8.0957 20.1955 8.0957 18.2335C8.0957 16.149 9.64392 14.9007 11.972 14.9007C12.9239 14.9007 13.8643 15.0538 14.8161 15.4424V18.2099C13.9445 17.7271 12.8436 17.4562 11.972 17.4562Z" fill="#6461FC"/>
<rect x="0.5" y="0.5" width="57" height="39" rx="5.5" stroke="#F2F4F7"/>
</svg>
