<svg width="58" height="40" viewBox="0 0 58 40" fill="none" xmlns="http://www.w3.org/2000/svg">
<rect x="0.5" y="0.5" width="57" height="39" rx="5.5" fill="#5A31F4"/>
<path d="M32.1167 18.2896C32.1167 20.7831 30.3685 22.5631 27.9256 22.5631H25.6241C25.5986 22.5631 25.5735 22.5681 25.55 22.5779C25.5266 22.5876 25.5053 22.6019 25.4873 22.6199C25.4694 22.6379 25.4552 22.6593 25.4456 22.6828C25.4359 22.7063 25.431 22.7315 25.4312 22.7569V26.0341C25.4312 26.0854 25.4109 26.1345 25.3747 26.1709C25.3386 26.2072 25.2895 26.2277 25.2383 26.228H23.6278C23.5895 26.2278 23.5521 26.2163 23.5203 26.195C23.4885 26.1737 23.4636 26.1435 23.4489 26.1081C23.4392 26.085 23.4341 26.0602 23.4339 26.0351V14.209C23.4338 14.1836 23.4387 14.1584 23.4484 14.1349C23.458 14.1114 23.4722 14.09 23.4901 14.072C23.508 14.054 23.5293 14.0397 23.5528 14.0299C23.5763 14.0202 23.6014 14.0152 23.6268 14.0152H27.9359C30.3685 14.0124 32.1167 15.7924 32.1167 18.2896ZM30.1082 18.2896C30.1082 16.8561 29.1307 15.8083 27.8048 15.8083H25.6241C25.5986 15.8083 25.5735 15.8133 25.55 15.8231C25.5266 15.8328 25.5053 15.8471 25.4873 15.8651C25.4694 15.8831 25.4552 15.9045 25.4456 15.928C25.4359 15.9515 25.431 15.9767 25.4312 16.0021V20.5659C25.4312 20.617 25.4515 20.6661 25.4877 20.7023C25.5238 20.7384 25.5729 20.7588 25.6241 20.7588H27.8048C29.1307 20.7681 30.1082 19.7194 30.1082 18.2896ZM32.5942 23.9592C32.5775 23.5768 32.6566 23.1962 32.8244 22.8522C32.9922 22.5081 33.2433 22.2114 33.5549 21.9891C34.1832 21.5163 35.1654 21.2719 36.6074 21.2213L38.143 21.167V20.7138C38.143 19.8056 37.5344 19.4217 36.5569 19.4217C35.5793 19.4217 34.9594 19.7681 34.8171 20.3346C34.8055 20.3744 34.781 20.4093 34.7475 20.4337C34.7139 20.4581 34.6732 20.4707 34.6317 20.4694H33.1148C33.0869 20.4702 33.0592 20.4648 33.0336 20.4536C33.0079 20.4424 32.9851 20.4257 32.9667 20.4047C32.9483 20.3837 32.9347 20.3589 32.927 20.332C32.9193 20.3052 32.9175 20.277 32.922 20.2494C33.1467 18.9067 34.2637 17.886 36.6261 17.886C39.1393 17.886 40.0466 19.0565 40.0466 21.2906V26.0341C40.0461 26.0859 40.0252 26.1353 39.9883 26.1716C39.9515 26.208 39.9017 26.2282 39.85 26.228H38.3209C38.2698 26.2278 38.2207 26.2077 38.1842 26.1718C38.1663 26.1538 38.1522 26.1325 38.1425 26.109C38.1329 26.0856 38.128 26.0604 38.128 26.0351V25.6802C38.1286 25.6509 38.1203 25.6221 38.1041 25.5976C38.088 25.5731 38.0648 25.5541 38.0376 25.543C38.0105 25.532 37.9806 25.5294 37.9519 25.5357C37.9233 25.5419 37.8972 25.5568 37.8771 25.5781C37.4183 26.0772 36.6776 26.4377 35.4913 26.4377C33.7459 26.4377 32.5942 25.5295 32.5942 23.9592ZM38.143 22.9311V22.5631L36.1542 22.668C35.1065 22.7213 34.4969 23.1567 34.4969 23.8899C34.4969 24.5528 35.0559 24.9199 36.0325 24.9199C37.3593 24.9199 38.143 24.2036 38.143 22.9311ZM41.5822 29.8123V28.4377C41.5825 28.4089 41.5892 28.3805 41.6017 28.3545C41.6142 28.3286 41.6322 28.3056 41.6545 28.2874C41.6769 28.2692 41.7029 28.2561 41.7309 28.2491C41.7589 28.242 41.788 28.2412 41.8163 28.2467C42.0504 28.2907 42.2892 28.3132 42.528 28.3142C42.9384 28.3341 43.3438 28.2158 43.679 27.9781C44.0143 27.7405 44.2602 27.3972 44.3772 27.0033L44.4765 26.6868C44.4909 26.6443 44.4909 26.5982 44.4765 26.5557L41.2901 18.372C41.2786 18.3423 41.2744 18.3103 41.278 18.2787C41.2816 18.2471 41.2928 18.2168 41.3107 18.1905C41.3285 18.1641 41.3525 18.1425 41.3806 18.1275C41.4086 18.1125 41.4399 18.1045 41.4717 18.1042H43.0167C43.0562 18.1046 43.0946 18.1169 43.127 18.1394C43.1594 18.162 43.1843 18.1937 43.1984 18.2306L45.3623 24.0023C45.3758 24.0406 45.4009 24.0738 45.4341 24.0973C45.4673 24.1208 45.507 24.1334 45.5477 24.1334C45.5883 24.1334 45.628 24.1208 45.6612 24.0973C45.6944 24.0738 45.7195 24.0406 45.7331 24.0023L47.6123 18.2465C47.6253 18.2072 47.6505 18.173 47.6841 18.1488C47.7177 18.1245 47.7581 18.1116 47.7996 18.1117H49.3979C49.43 18.1119 49.4615 18.1198 49.4897 18.1348C49.518 18.1498 49.5423 18.1715 49.5604 18.1979C49.5785 18.2243 49.59 18.2547 49.5938 18.2864C49.5976 18.3182 49.5937 18.3505 49.5824 18.3804L46.1741 27.4686C45.3894 29.581 44.0439 30.1213 42.5626 30.1213C42.2817 30.1288 42.0008 30.0951 41.7292 30.0211C41.6841 30.0092 41.6446 29.9817 41.6177 29.9435C41.5908 29.9053 41.5783 29.8588 41.5822 29.8123ZM13.0845 13.3335C11.0546 13.3191 9.09627 14.0831 7.61246 15.4684C7.54901 15.5265 7.50945 15.6061 7.50149 15.6918C7.49353 15.7775 7.51773 15.8631 7.56939 15.9319L8.48795 17.1866C8.51772 17.2284 8.5563 17.2631 8.60094 17.2884C8.64559 17.3136 8.69524 17.3288 8.74638 17.3328C8.79752 17.3368 8.84893 17.3296 8.89697 17.3116C8.94502 17.2936 8.98854 17.2653 9.02447 17.2287C9.55801 16.6953 10.1925 16.2736 10.8909 15.9882C11.5893 15.7029 12.3376 15.5596 13.092 15.5667C16.2418 15.5667 17.887 17.9375 17.887 20.2784C17.887 22.8234 16.1585 24.6137 13.6744 24.6493C11.7549 24.6493 10.3082 23.3768 10.3082 21.696C10.3102 21.2714 10.4064 20.8526 10.5899 20.4696C10.7733 20.0867 11.0395 19.7492 11.3691 19.4816C11.4388 19.4234 11.4828 19.3401 11.4918 19.2498C11.5007 19.1594 11.4738 19.0691 11.4168 18.9984L10.4515 17.7793C10.4223 17.7424 10.386 17.7118 10.3448 17.6892C10.3035 17.6666 10.2582 17.6524 10.2114 17.6476C10.1646 17.6428 10.1173 17.6475 10.0724 17.6612C10.0274 17.675 9.98566 17.6976 9.94959 17.7278C9.3567 18.2055 8.87826 18.8098 8.54936 19.4964C8.22045 20.1831 8.04941 20.9347 8.0488 21.696C8.0488 24.5894 10.5076 26.8591 13.6575 26.8778H13.6997C17.4394 26.8291 20.1436 24.0594 20.1436 20.2737C20.1436 16.9122 17.6679 13.3335 13.0854 13.3335H13.0845Z" fill="white"/>
<rect x="0.5" y="0.5" width="57" height="39" rx="5.5" stroke="#F2F4F7"/>
</svg>
