<svg width="58" height="40" viewBox="0 0 58 40" fill="none" xmlns="http://www.w3.org/2000/svg">
<rect x="0.5" y="0.5" width="57" height="39" rx="5.5" fill="white"/>
<path fill-rule="evenodd" clip-rule="evenodd" d="M45.4891 23.2469H46.8868H46.888C47.0342 23.2498 47.1557 23.129 47.1611 22.9754V18.9029C47.1611 18.3914 47.1872 17.9294 47.3833 17.4675C47.5179 17.1161 47.8351 16.8796 48.1951 16.8621C49.0891 16.8621 49.0805 17.8919 49.0738 18.701C49.0732 18.7693 49.0726 18.8359 49.0726 18.9003V23.0093C49.0899 23.1412 49.1944 23.2411 49.3209 23.2469H50.731C50.8647 23.2498 50.9798 23.1483 51.0003 23.0093V18.2478C51.0003 17.5158 51.0003 16.4967 50.6341 15.8912C50.2382 15.2388 49.625 15 48.9969 15C48.0287 15 47.4789 15.4932 47.0866 16.528H47.0593V15.3706C47.031 15.2496 46.9295 15.1632 46.8111 15.1592H45.5102C45.3728 15.1556 45.2557 15.2634 45.2409 15.4071V22.9754C45.2426 23.1205 45.3512 23.2393 45.4891 23.2469ZM44.1734 19.2774C44.1734 16.8895 43.0476 15.0104 40.966 15.0104C38.9378 15.0104 37.812 16.8581 37.812 19.1978C37.812 21.5374 38.9241 23.4165 40.966 23.4165C42.9322 23.4165 44.1734 21.5857 44.1734 19.2774ZM39.8799 18.959C39.8799 18.0351 39.9457 16.5554 40.9796 16.5554C41.424 16.5554 41.738 16.7655 41.8957 17.2874C42.0794 17.8916 42.1054 18.6563 42.1054 19.293C42.1054 20.2639 42.0645 21.8558 40.966 21.8558C39.8794 21.8558 39.8797 19.9257 39.8799 18.9896L39.8799 18.959ZM13.652 23.2625H15.0534H15.0547C15.125 23.2642 15.1931 23.2364 15.2439 23.1852C15.2947 23.1341 15.324 23.0637 15.3253 22.9897V18.9799L15.3252 18.9171C15.3247 18.0452 15.3239 16.8921 16.2935 16.8921C17.1898 16.8921 17.1759 17.9052 17.1647 18.7234L17.1647 18.7235C17.1635 18.8118 17.1623 18.8977 17.1623 18.9799V22.9911C17.1647 23.1359 17.273 23.2543 17.4106 23.2625H18.8157C18.8858 23.2639 18.9536 23.2359 19.0041 23.1848C19.0546 23.1336 19.0837 23.0635 19.0851 22.9897V18.9799L19.0849 18.8845C19.0841 18.4597 19.0829 17.8863 19.2166 17.5301C19.3529 17.166 19.6824 16.9223 20.0545 16.9103C20.4604 16.9103 20.7744 17.0539 20.8787 17.5628C20.9319 17.8077 20.925 18.3755 20.9204 18.752V18.752L20.9204 18.7522C20.9193 18.841 20.9184 18.9191 20.9184 18.9799V22.9911C20.9202 23.1362 21.0288 23.2549 21.1666 23.2625H22.568C22.6384 23.2642 22.7065 23.2364 22.7573 23.1852C22.808 23.1341 22.8373 23.0637 22.8386 22.9897V18.2152C22.8386 18.0988 22.8405 17.9798 22.8425 17.8596C22.8539 17.1466 22.8662 16.3878 22.4849 15.8429C22.0227 15.2249 21.2793 14.9169 20.5403 15.0372C19.8013 15.1576 19.1814 15.6875 18.9187 16.4236C18.5252 15.4671 17.963 15.0222 17.099 15.0222C16.2351 15.0222 15.5934 15.4671 15.2533 16.4236H15.2272V15.4358C15.2198 15.295 15.1129 15.1826 14.979 15.1748H13.6719C13.5276 15.1733 13.4085 15.2933 13.4038 15.4449V23.0132C13.4165 23.1494 13.522 23.2554 13.652 23.2625ZM11.213 23.3199C11.1207 23.4041 10.988 23.4182 10.8815 23.3551C10.4844 23.0078 10.3646 22.82 10.1808 22.5316C10.1491 22.482 10.1156 22.4295 10.0784 22.3726C9.30761 23.1973 8.7627 23.4439 7.76597 23.4439C6.58553 23.4439 5.66699 22.6779 5.66699 21.146C5.66699 19.9494 6.28762 19.1365 7.15651 18.7372C7.7981 18.4412 8.65416 18.3493 9.39426 18.2699L9.3943 18.2699C9.5319 18.2551 9.66549 18.2408 9.79295 18.2257V18.0352C9.79295 17.9988 9.79323 17.9617 9.79351 17.9242C9.79596 17.5994 9.7987 17.2377 9.6229 16.9652C9.4516 16.6937 9.12639 16.5828 8.83594 16.5828C8.30095 16.5828 7.82431 16.8712 7.70763 17.4675C7.69284 17.6066 7.59102 17.718 7.45938 17.739L6.11136 17.5837C6.0441 17.5735 5.98372 17.5349 5.94431 17.4767C5.90491 17.4185 5.88991 17.3459 5.90283 17.2757C6.21439 15.5428 7.7039 15.0196 9.03826 15.0196C9.72096 15.0196 10.6122 15.2101 11.1484 15.7529C11.7779 16.3725 11.774 17.1836 11.7697 18.0699C11.7694 18.1431 11.769 18.2168 11.769 18.2909V20.5862C11.769 21.2044 11.9872 21.5119 12.217 21.8357L12.217 21.8358L12.217 21.8358L12.217 21.8358L12.2171 21.8358L12.2171 21.8358C12.2443 21.8743 12.2718 21.9129 12.2991 21.9524C12.3884 22.0829 12.4083 22.246 12.2991 22.3439C12.0123 22.5957 11.5034 23.0602 11.2241 23.3225L11.213 23.3199ZM9.79913 19.7263L9.79918 19.7977C9.79967 20.3405 9.80009 20.8007 9.53723 21.2921C9.3138 21.7071 8.96004 21.9628 8.56532 21.9628C8.02785 21.9628 7.71381 21.5322 7.71381 20.8928C7.71381 19.6375 8.78502 19.4092 9.79913 19.4092V19.7263ZM30.5952 21.8305L30.5953 21.8307C30.6225 21.8691 30.65 21.9077 30.6772 21.9472C30.7716 22.0829 30.7914 22.2421 30.671 22.3321C30.3843 22.584 29.8754 23.0498 29.5961 23.3108C29.5032 23.3938 29.371 23.4073 29.2647 23.3447C28.8658 22.9958 28.7477 22.8108 28.5611 22.5187C28.53 22.4699 28.4969 22.4181 28.4603 22.3621C27.6907 23.1868 27.1421 23.4334 26.1491 23.4334C24.9687 23.4334 24.0501 22.6675 24.0501 21.1368C24.0501 19.939 24.667 19.126 25.5458 18.7267C26.1888 18.4296 27.0497 18.3382 27.792 18.2594C27.9266 18.245 28.0574 18.2312 28.1823 18.2165V18.0299C28.1823 17.9937 28.1826 17.9569 28.1828 17.9195C28.1853 17.5946 28.188 17.2328 28.011 16.9612C27.8447 16.6898 27.5132 16.5776 27.224 16.5776C26.689 16.5776 26.2149 16.866 26.097 17.4623C26.0818 17.6012 25.9801 17.7123 25.8487 17.7337L24.4895 17.5797C24.4218 17.57 24.3609 17.5313 24.3211 17.4727C24.2814 17.4142 24.2665 17.341 24.2798 17.2705C24.5925 15.5363 26.0821 15.0144 27.4164 15.0144C28.0979 15.0144 28.9891 15.2049 29.5266 15.7477C30.1574 16.3641 30.1529 17.1688 30.1481 18.0507C30.1476 18.1284 30.1472 18.2068 30.1472 18.2857V20.5823C30.1472 21.1992 30.3653 21.5065 30.5951 21.8303L30.5952 21.8305ZM26.9509 21.955C27.3444 21.955 27.6994 21.6992 27.9216 21.2856C28.1854 20.7915 28.1851 20.3291 28.1848 19.7795L28.1848 19.721V19.4026C27.1706 19.4026 26.0994 19.6297 26.0994 20.8863C26.0994 21.5244 26.4135 21.955 26.9509 21.955ZM31.8638 15.4188V16.4967C31.8631 16.5706 31.8912 16.6416 31.9416 16.6932C31.9921 16.7447 32.0604 16.7723 32.1307 16.7694H34.5437L31.7769 20.945C31.6506 21.169 31.591 21.4276 31.6056 21.6875V22.7901C31.6056 22.9493 31.7732 23.1307 31.9333 23.0406C33.4593 22.2089 35.274 22.2054 36.8028 23.0315C36.9778 23.1268 37.1429 22.9428 37.1429 22.7836V21.6248C37.1382 21.4477 37.0434 21.2868 36.8946 21.2034C36.0891 20.7271 35.1519 20.5875 34.2656 20.6097L36.6538 17.0265C36.876 16.7055 37.0001 16.5019 37.0001 16.3466V15.4188C37.0009 15.3451 36.9729 15.2743 36.9227 15.2228C36.8726 15.1713 36.8046 15.1436 36.7345 15.1461H32.1257C32.0555 15.142 31.987 15.1693 31.9371 15.2213C31.8872 15.2733 31.8605 15.3451 31.8638 15.4188Z" fill="currentColor"/>
<path fill-rule="evenodd" clip-rule="evenodd" d="M34.1688 28.0749C34.4878 27.241 35.1978 25.3725 34.8602 24.9197H34.8627C34.5266 24.4659 32.6398 24.704 31.7911 24.8111L31.7893 24.8114C31.5311 24.844 31.4914 24.6078 31.7235 24.4369C33.2304 23.3238 35.6993 23.6422 35.986 24.018C36.2728 24.3938 35.9078 26.9957 34.4965 28.238C34.2793 28.4285 34.072 28.3267 34.1688 28.0749ZM24.0289 29.3615C27.3108 29.3615 31.1327 28.2719 33.7654 26.2298V26.2337C34.2011 25.8892 33.8275 25.3829 33.3831 25.5813C30.5094 26.8555 27.4246 27.5207 24.3057 27.5386C19.9787 27.5386 15.7932 26.2911 12.407 24.2203C12.1103 24.0389 11.8894 24.3586 12.1377 24.5922C15.3976 27.6841 19.6383 29.385 24.0289 29.3615Z" fill="#FF9900"/>
<rect x="0.5" y="0.5" width="57" height="39" rx="5.5" stroke="#F2F4F7"/>
</svg>
