<svg width="58" height="40" viewBox="0 0 58 40" fill="none" xmlns="http://www.w3.org/2000/svg">
<rect x="0.5" y="0.5" width="57" height="39" rx="5.5" fill="white"/>
<path d="M13.0401 15.8262C13.5196 15.669 14.0325 15.5837 14.5662 15.5837C16.8955 15.5837 18.8384 17.2068 19.2842 19.3629L22.5849 18.7027C21.8275 15.0382 18.5256 12.2797 14.5662 12.2797C13.6597 12.2797 12.7872 12.4245 11.9727 12.6914L13.0401 15.8262Z" fill="#FECA2F"/>
<path d="M9.11244 26.4462L11.0888 23.8944C10.2066 23.0021 9.64979 21.6994 9.64979 20.2474C9.64979 18.7964 10.2061 17.4937 11.088 16.6021L9.11062 14.0505C7.61162 15.5665 6.66699 17.781 6.66699 20.2474C6.66699 22.715 7.613 24.9303 9.11244 26.4462Z" fill="#1BA7DE"/>
<path d="M19.2852 21.1337C18.8379 23.2895 16.8962 24.9105 14.569 24.9105C14.0351 24.9105 13.5211 24.8249 13.0416 24.6673L11.9727 27.8037C12.7884 28.0719 13.6613 28.2169 14.569 28.2169C18.5248 28.2169 21.8245 25.4603 22.5849 21.7972L19.2852 21.1337Z" fill="#EC412A"/>
<path fill-rule="evenodd" clip-rule="evenodd" d="M38.4664 14.0505V23.1193L40.0938 23.7716L39.3239 25.5603L37.7145 24.9134C37.3527 24.7617 37.1078 24.5305 36.9217 24.2694C36.743 24.0022 36.6106 23.637 36.6106 23.1443V14.0505H38.4664ZM26.1236 20.7907C26.1641 18.1973 28.3726 16.1272 31.0526 16.1669C33.3272 16.2014 35.2118 17.742 35.7068 19.7911L26.9095 23.427C26.3984 22.6715 26.108 21.7627 26.1236 20.7907ZM28.1365 21.1543C28.1245 21.0455 28.116 20.9339 28.1192 20.8214C28.1444 19.2934 29.4447 18.0742 31.0236 18.0995C31.8831 18.1106 32.6462 18.4912 33.1621 19.0802L28.1365 21.1543ZM32.9768 22.838C32.4466 23.3367 31.7276 23.6406 30.9337 23.6297C30.3896 23.6209 29.8854 23.4633 29.4567 23.2008L28.3939 24.8383C29.1218 25.2832 29.98 25.5464 30.9052 25.5603C32.2519 25.5796 33.4794 25.0681 34.372 24.2234L32.9768 22.838ZM45.2396 18.0994C44.9226 18.0994 44.6179 18.149 44.3333 18.2414L43.7001 16.4064C44.1834 16.2504 44.701 16.1656 45.2396 16.1656C47.5901 16.1656 49.5509 17.7802 50.0006 19.9249L48.0403 20.3113C47.7762 19.0491 46.6226 18.0994 45.2396 18.0994ZM42.0211 24.3817L43.3457 22.9333C42.7541 22.4269 42.3816 21.6872 42.3816 20.8628C42.3816 20.0392 42.7541 19.2999 43.3451 18.7938L42.0196 17.3454C41.0147 18.206 40.3815 19.4635 40.3815 20.8628C40.3815 22.2638 41.0152 23.5209 42.0211 24.3817ZM45.2395 23.6271C46.6212 23.6271 47.7746 22.6783 48.0403 21.4179L50 21.806C49.5481 23.9484 47.5879 25.5608 45.2395 25.5608C44.7004 25.5608 44.1822 25.4757 43.6975 25.3189L44.3323 23.4847C44.6174 23.5768 44.9223 23.6271 45.2395 23.6271Z" fill="currentColor"/>
<rect x="0.5" y="0.5" width="57" height="39" rx="5.5" stroke="#F2F4F7"/>
</svg>
