<svg width="58" height="40" viewBox="0 0 58 40" fill="none" xmlns="http://www.w3.org/2000/svg">
<rect x="0.5" y="0.5" width="57" height="39" rx="5.5" fill="white"/>
<path fill-rule="evenodd" clip-rule="evenodd" d="M16.1904 19.2789C16.1904 25.7322 21.303 30.9952 27.6328 30.9952C28.4097 30.9952 29.1866 30.9251 30.0793 30.8447C31.0748 30.755 32.2143 30.6523 33.6583 30.6192C35.8494 30.6192 38.2231 31.4337 40.8402 33.8146C41.0837 34.0652 41.4488 33.7519 41.2054 33.4387C38.5882 30.118 36.2146 29.4915 33.8409 28.9276C30.9194 28.2384 29.3978 26.6094 28.3632 24.7298C28.1806 24.3539 28.0588 24.4165 28.0588 24.9177C27.998 25.6696 28.0588 26.3588 28.1806 27.048H27.8154C23.6767 27.048 20.2683 23.5394 20.2683 19.2789C20.2683 15.0184 23.6767 11.5098 27.8154 11.5098C31.9541 11.5098 35.3625 15.0184 35.3625 19.2789C35.3625 19.5295 35.3625 19.8428 35.3016 20.1561C34.693 20.0307 33.6583 20.0307 32.8671 20.0934C32.5627 20.0934 32.5627 20.2187 32.8062 20.2814C35.2407 20.7826 36.9449 22.3489 37.371 25.231C37.371 25.3563 37.4318 25.3563 37.4927 25.2937C38.4665 23.5394 39.0751 21.4718 39.0751 19.2789C39.0751 12.7629 33.9626 7.5 27.6328 7.5C21.303 7.5 16.1904 12.8256 16.1904 19.2789ZM35.9102 24.1033C36.3362 24.2912 36.5188 24.9178 36.5188 25.231C36.5797 25.7323 36.4579 25.9829 36.2754 25.9829C36.0928 25.9829 35.8493 25.7949 35.6059 25.3563C35.3624 24.9178 35.2407 24.4792 35.3624 24.2286C35.545 24.1033 35.7276 24.0406 35.9102 24.1033ZM33.4148 26.0455C33.6582 26.0455 33.9625 26.1708 34.2669 26.4215C34.7538 26.86 34.9364 27.3613 34.6929 27.7372C34.5712 27.9251 34.2669 28.0505 34.0234 28.0505C33.7191 28.0505 33.4148 27.9251 33.2322 27.7372C32.7453 27.2986 32.6235 26.6721 32.9279 26.2961C32.9887 26.1708 33.1713 26.0455 33.4148 26.0455Z" fill="#F28A1A"/>
<rect x="0.5" y="0.5" width="57" height="39" rx="5.5" stroke="#F2F4F7"/>
</svg>
