<svg width="58" height="40" viewBox="0 0 58 40" fill="none" xmlns="http://www.w3.org/2000/svg">
<rect x="0.5" y="0.5" width="57" height="39" rx="5.5" fill="white"/>
<path fill-rule="evenodd" clip-rule="evenodd" d="M24.1787 17.7602H16.8786H16.7573C17.3148 10.5902 20.2272 8.4213 27.814 8.33411C27.9308 8.33337 28.0444 8.33337 28.1597 8.33337H28.3647C28.4803 8.33337 28.5936 8.33337 28.7107 8.33411C29.6716 8.34512 30.5569 8.38991 31.3728 8.47343C31.3129 8.47544 31.2544 8.47746 31.1885 8.48462C31.1274 8.49068 31.0509 8.49523 30.9605 8.50061C30.0628 8.554 27.799 8.68862 25.7278 11.1908C24.5033 12.6715 24.3819 17.7602 24.3819 17.7602H24.1787ZM23.6386 26.4848C22.7826 27.5553 21.5505 27.4833 21.5332 27.4823V31.833C18.4847 30.6023 17.1106 28.0361 16.7523 23.3042C16.709 22.7341 16.6831 22.233 16.667 21.8178L24.3821 21.8149L24.377 22.2741C24.3679 23.0676 24.3503 24.61 24.3522 24.6614C24.3581 24.8874 24.301 25.6574 23.6386 26.4848ZM33.8153 8.90329C37.6921 9.93578 39.3713 12.5162 39.7722 17.8172C39.897 19.4637 39.8827 20.5604 39.8827 20.5604C39.8827 20.5604 39.8972 21.6577 39.7724 23.304C39.2267 30.5199 36.3175 32.6996 28.7109 32.7871C28.5937 32.7879 27.9309 32.7879 27.8142 32.7871C26.4948 32.7717 25.321 32.6919 24.2722 32.5359C24.2767 32.5358 24.2811 32.5358 24.2856 32.5357C24.3178 32.5354 24.3494 32.5352 24.3821 32.5329C25.7584 32.454 27.6745 31.3925 28.8149 28.9231C29.3131 27.8433 29.4469 25.9156 29.4469 25.9156V21.8158H29.4473V21.8147H33.6136H33.8157V17.7598H33.6136H29.4476C29.4476 17.7598 29.4476 17.7592 29.4473 17.759C29.4473 17.759 29.4454 17.7548 29.444 17.7471L29.4429 17.7418C29.4418 17.7385 29.4409 17.735 29.4399 17.7311C29.4387 17.7263 29.4373 17.7209 29.4352 17.7142C29.435 17.7128 29.4347 17.7111 29.4344 17.7092C29.434 17.7066 29.4335 17.7038 29.4333 17.7014C29.4302 17.6896 29.4274 17.6783 29.4252 17.6627C29.4241 17.6588 29.4235 17.6542 29.4229 17.6496C29.4224 17.6464 29.422 17.6433 29.4214 17.6403C29.4185 17.625 29.4161 17.6096 29.4137 17.5914C29.4119 17.5843 29.4113 17.5754 29.4108 17.5671C29.4106 17.5651 29.4105 17.5632 29.4104 17.5613C29.4074 17.5421 29.4054 17.5237 29.403 17.5017C29.4027 17.4972 29.4026 17.4924 29.4024 17.4876C29.4021 17.4806 29.4019 17.4734 29.4012 17.4668C29.4009 17.4622 29.4006 17.4576 29.4003 17.453C29.3991 17.4342 29.3978 17.4154 29.3975 17.3943C29.3973 17.3881 29.3973 17.3814 29.3973 17.3748C29.3973 17.3682 29.3973 17.3615 29.3972 17.3552C29.3972 17.3461 29.397 17.337 29.3968 17.3278C29.3964 17.3092 29.3961 17.2903 29.3972 17.2699C29.3972 17.2628 29.3976 17.2552 29.3981 17.2474C29.3985 17.2415 29.3988 17.2355 29.399 17.2297C29.3997 17.1972 29.401 17.1649 29.4045 17.1289C29.4049 17.1237 29.4055 17.1182 29.4061 17.1125C29.4067 17.1064 29.4074 17.1002 29.4078 17.0942C29.4113 17.0549 29.4159 17.0153 29.4219 16.9731C29.4223 16.9691 29.4231 16.9649 29.4239 16.9608C29.4247 16.9568 29.4254 16.9528 29.4258 16.949C29.4331 16.9013 29.441 16.8528 29.4515 16.8018C29.4515 16.8007 29.4519 16.799 29.4522 16.7974C29.526 16.4429 29.6842 16.0066 30.0012 15.5123C30.8537 14.186 33.2744 14.2484 33.7386 14.273C33.7745 14.2751 33.7988 14.2768 33.8094 14.2775C33.8131 14.2778 33.8151 14.2779 33.8153 14.2779V8.90329ZM24.1178 32.5105C24.1391 32.511 24.1605 32.5114 24.1821 32.5115C24.1605 32.5114 24.1392 32.511 24.118 32.5105L24.1178 32.5105Z" fill="#659AD2"/>
<rect x="0.5" y="0.5" width="57" height="39" rx="5.5" stroke="#F2F4F7"/>
</svg>
