<svg width="58" height="40" viewBox="0 0 58 40" fill="none" xmlns="http://www.w3.org/2000/svg">
<rect x="0.5" y="0.5" width="57" height="39" rx="5.5" fill="white"/>
<path fill-rule="evenodd" clip-rule="evenodd" d="M10.3019 12.9046C9.29721 12.9063 8.48432 13.6472 8.48236 14.5628V14.5628V25.5712V25.5712C8.48238 25.5784 8.48244 25.5855 8.48256 25.5926C8.48244 25.5855 8.48238 25.5783 8.48236 25.5712M8.5199 25.9052C8.69053 26.6602 9.42279 27.2278 10.3019 27.2293H29.2338V27.2293H10.3019C9.4228 27.2277 8.69054 26.6602 8.5199 25.9052ZM29.2338 12.9047V12.9046H10.3019M10.3019 11.6667H46.5348C48.29 11.667 49.7121 12.9627 49.7127 14.5628V25.5712C49.7121 27.1708 48.29 28.4666 46.5348 28.4671H10.3019C8.54655 28.4666 7.12462 27.1708 7.12402 25.5712V14.5628C7.12462 12.9627 8.54655 11.667 10.3019 11.6667Z" fill="#0F3365"/>
<path fill-rule="evenodd" clip-rule="evenodd" d="M32.3326 23.7705H30.7432V17.8868H32.2091V18.6435H32.2269C32.5447 18.0559 33.2161 17.7903 33.9403 17.7903C35.2122 17.7903 35.9093 18.893 35.9093 19.9069C35.9093 21.1466 35.1764 22.1768 33.8076 22.1768C33.2513 22.1768 32.6507 21.9919 32.3503 21.4929H32.3326V23.7705ZM33.3046 21.0661C33.9048 21.0661 34.2669 20.6075 34.2669 19.9393C34.2669 19.3837 33.9225 18.901 33.3046 18.901C32.7214 18.901 32.3325 19.3679 32.3325 19.9955C32.3325 20.6075 32.7745 21.0661 33.3046 21.0661ZM42.0001 23.7705C42.3271 23.835 42.6536 23.8673 42.9893 23.8673C44.3642 23.8673 44.7484 22.9573 45.1653 21.9697C45.1904 21.9103 45.2156 21.8507 45.2411 21.7909L46.9283 17.8868H45.3386L44.3934 20.6233H44.3758L43.3865 17.8868H41.6738L43.5364 22.1768C43.4223 22.547 43.1219 22.7564 42.7339 22.7564C42.5124 22.7564 42.318 22.7327 42.1065 22.6677L42.0001 23.7705ZM41.4077 22.2166C41.3371 21.8866 41.3191 21.5569 41.3191 21.2267V19.6652C41.3191 18.3854 40.3037 17.9269 39.1291 17.9269C38.4488 17.9269 37.8572 18.015 37.2921 18.2247L37.3182 19.2065C37.7602 18.9814 38.2723 18.8927 38.7842 18.8927C39.3585 18.8927 39.8268 19.0455 39.8355 19.6172C39.6324 19.5847 39.3501 19.5603 39.0939 19.5603C38.246 19.5603 36.7182 19.7138 36.7182 20.9934C36.7182 21.9032 37.5307 22.3137 38.4404 22.3137C39.0939 22.3137 39.5355 22.0799 39.8973 21.5569H39.9146C39.9146 21.6845 39.9239 21.8122 39.9334 21.9414C39.94 22.0322 39.9467 22.1238 39.9503 22.2166H41.4077ZM38.2016 20.8889C38.2016 20.4865 38.6254 20.3336 39.1642 20.3336C39.3332 20.3336 39.4976 20.3416 39.6513 20.3491L39.6513 20.3491C39.7147 20.3522 39.7762 20.3552 39.8355 20.3576C39.8355 20.8483 39.456 21.348 38.855 21.348C38.4842 21.348 38.2016 21.1783 38.2016 20.8889Z" fill="#FFFFFE"/>
<path fill-rule="evenodd" clip-rule="evenodd" d="M16.9279 22.08H18.5175V17.8868H16.9279V22.08ZM16.9279 17.2026H18.5175V16.1401H16.9279V17.2026ZM22.4052 17.7903C22.5904 17.7903 22.7846 17.8144 22.9437 17.8382L22.864 19.0456C22.6877 18.9974 22.5109 18.9974 22.3256 18.9974C21.5838 18.9974 21.1686 19.4885 21.1686 20.3097V22.08H19.5791V17.8868H21.0274V18.6593H21.0449C21.3188 18.1283 21.7163 17.7903 22.4052 17.7903ZM28.3563 19.9877C28.3563 21.3722 27.1993 22.1768 25.6807 22.1768C24.1618 22.1768 23.0048 21.3722 23.0048 19.9877C23.0048 18.595 24.1618 17.7903 25.6807 17.7903C27.1993 17.7903 28.3563 18.595 28.3563 19.9877ZM24.6474 19.9877C24.6474 20.6075 24.9477 21.1626 25.6807 21.1626C26.4137 21.1626 26.714 20.6075 26.714 19.9877C26.714 19.3598 26.4137 18.8045 25.6807 18.8045C24.9477 18.8045 24.6474 19.3598 24.6474 19.9877ZM14.3912 17.8868H15.831V21.5895C15.831 23.3117 14.9126 23.8673 13.058 23.8673C12.2986 23.8673 11.6715 23.7221 11.3005 23.6018L11.3802 22.4587C11.8658 22.6761 12.272 22.8047 12.9344 22.8047C13.853 22.8047 14.3473 22.4105 14.3473 21.5895V21.3637H14.3294C13.9499 21.8553 13.4201 22.08 12.7844 22.08C11.5213 22.08 10.7354 21.2115 10.7354 19.9714C10.7354 18.7237 11.3802 17.7903 12.8107 17.7903C13.4905 17.7903 14.0382 18.1283 14.3739 18.6432H14.3912V17.8868ZM13.2789 18.901C12.6871 18.901 12.378 19.3759 12.378 19.9472C12.378 20.5989 12.802 20.9696 13.2789 20.9696C13.8439 20.9696 14.2944 20.535 14.2944 19.8908C14.2944 19.4237 13.9941 18.901 13.2789 18.901Z" fill="#D8232A"/>
<rect x="0.5" y="0.5" width="57" height="39" rx="5.5" stroke="#F2F4F7"/>
</svg>
