<svg width="58" height="40" viewBox="0 0 58 40" fill="none" xmlns="http://www.w3.org/2000/svg">
<rect x="0.5" y="0.5" width="57" height="39" rx="5.5" fill="white"/>
<path fill-rule="evenodd" clip-rule="evenodd" d="M24.3911 19.9485H22.5428V19.2232C22.5428 18.2799 23.0817 18.01 23.5467 18.01C24.0597 18.01 24.4593 18.2376 24.4593 18.2376L25.0885 16.7996C25.0885 16.7996 24.4506 16.3827 23.2912 16.3827C21.9876 16.3827 20.5044 17.1176 20.5044 19.424V19.9485H17.4103V19.2232C17.4103 18.2799 17.9492 18.01 18.4131 18.01C18.6773 18.01 19.0327 18.0715 19.3267 18.2376L19.9559 16.7996C19.5803 16.5787 18.977 16.3827 18.1586 16.3827C16.855 16.3827 15.3718 17.1176 15.3718 19.424V19.9485H14.1884V21.522H15.3718V27.0811H17.4103V21.522H20.5044V27.0811H22.5428V21.522H24.3911V19.9485ZM9.5085 25.8013C8.97247 25.8013 8.70542 25.5381 8.70542 25.103C8.70542 24.298 9.60648 24.0223 11.2511 23.8484C11.2511 24.9252 10.5229 25.8013 9.5085 25.8013ZM10.2174 19.7389C9.0426 19.7389 7.69005 20.2931 6.95614 20.8782L7.62665 22.2893C8.21551 21.7504 9.16748 21.2903 10.0263 21.2903C10.8418 21.2903 11.2924 21.5631 11.2924 22.1116C11.2924 22.4824 10.9936 22.6688 10.4288 22.7418C8.32118 23.0165 6.66699 23.5977 6.66699 25.223C6.66699 26.5112 7.58438 27.2912 9.01762 27.2912C10.0397 27.2912 10.9504 26.7226 11.3836 25.9723V27.0809H13.2895V22.4363C13.2895 20.5179 11.9562 19.7389 10.2174 19.7389ZM29.3569 19.9485V27.0811H31.3972V23.6449C31.3972 22.0109 32.3857 21.5316 33.0754 21.5316C33.3444 21.5316 33.7075 21.6094 33.9477 21.789L34.3194 19.9033C34.0043 19.7689 33.6748 19.7391 33.4049 19.7391C32.3559 19.7391 31.6969 20.204 31.2618 21.1473V19.9485H29.3569ZM41.4724 20.9919C41.8922 20.3771 42.6981 19.7392 43.7769 19.7392C45.0804 19.7392 46.1592 20.5481 46.1592 22.1514V27.0812H44.1208V22.7959C44.1208 21.8516 43.5521 21.4597 43.0132 21.4597C42.3388 21.4597 41.6645 22.0764 41.6645 23.4098V27.0812H39.6261V22.8103C39.6261 21.8372 39.09 21.4597 38.5069 21.4597C37.8624 21.4597 37.1726 22.0908 37.1726 23.4098V27.0812H35.1313V19.9487H37.0977V21.0274C37.4426 20.3387 38.189 19.7392 39.2678 19.7392C40.2562 19.7392 41.0824 20.1975 41.4724 20.9919ZM27.6446 27.0814H25.6081V19.9488H27.6446V27.0814Z" fill="#060809"/>
<path fill-rule="evenodd" clip-rule="evenodd" d="M37.4896 10C31.9833 10 27.0755 13.8223 25.6826 18.7368H27.6788C28.8421 15.0769 32.7912 11.8646 37.4896 11.8646C43.2004 11.8646 48.1361 16.2123 48.1361 22.9808C48.1361 24.5005 47.9391 25.8704 47.5664 27.0807H49.503L49.5222 27.0144C49.8393 25.7656 50.0006 24.4093 50.0006 22.9808C50.0006 15.4323 44.5001 10 37.4896 10Z" fill="#0FA0EA"/>
<rect x="0.5" y="0.5" width="57" height="39" rx="5.5" stroke="#F2F4F7"/>
</svg>
