<svg width="58" height="40" viewBox="0 0 58 40" fill="none" xmlns="http://www.w3.org/2000/svg">
<rect x="0.5" y="0.5" width="57" height="39" rx="5.5" fill="#1F72CD"/>
<path fill-rule="evenodd" clip-rule="evenodd" d="M10.1593 14.1666L4.85742 26.2445H11.2045L11.9913 24.3188H13.7899L14.5767 26.2445H21.5631V24.7748L22.1856 26.2445H25.7995L26.422 24.7437V26.2445H40.9517L42.7184 24.3688L44.3727 26.2445L51.8355 26.2601L46.5169 20.2393L51.8355 14.1666H44.4885L42.7686 16.0077L41.1664 14.1666H25.3601L24.0028 17.284L22.6136 14.1666H16.2798V15.5864L15.5752 14.1666H10.1593ZM11.3874 15.8817H14.4812L17.998 24.0718V15.8817H21.3872L24.1034 21.754L26.6068 15.8817H29.979V24.5484H27.9271L27.9103 17.7572L24.9188 24.5484H23.0832L20.0749 17.7572V24.5484H15.8536L15.0533 22.6054H10.7297L9.9311 24.5467H7.66936L11.3874 15.8817ZM40.2 15.8817H31.8563V24.5433H40.0708L42.7184 21.6727L45.2703 24.5433H47.938L44.0606 20.2376L47.938 15.8817H45.3861L42.7519 18.7193L40.2 15.8817ZM12.8924 17.3481L11.468 20.8093H14.3153L12.8924 17.3481ZM33.9168 19.2582V17.6761V17.6746H39.1229L41.3946 20.2048L39.0223 22.7488H33.9168V21.0216H38.4686V19.2582H33.9168Z" fill="white"/>
<rect x="0.5" y="0.5" width="57" height="39" rx="5.5" stroke="#F2F4F7"/>
</svg>
