<svg width="58" height="40" viewBox="0 0 58 40" fill="none" xmlns="http://www.w3.org/2000/svg">
<rect x="0.5" y="0.5" width="57" height="39" rx="5.5" fill="white"/>
<path fill-rule="evenodd" clip-rule="evenodd" d="M26.7633 25.88V20.9889H29.2876C30.3221 20.9889 31.1952 20.6423 31.9069 19.9587L32.0777 19.7854C33.3779 18.3701 33.2925 16.1653 31.9069 14.8558C31.2141 14.1626 30.2651 13.7871 29.2876 13.8064H25.2354V25.88H26.7633ZM26.7634 19.5061V15.289H29.3262C29.8767 15.289 30.3987 15.5008 30.7879 15.8859C31.6137 16.6947 31.6327 18.0426 30.8354 18.8803C30.4462 19.2943 29.8957 19.5254 29.3262 19.5061H26.7634ZM39.2049 18.2641C38.5501 17.6576 37.658 17.3495 36.5287 17.3495C35.0767 17.3495 33.9853 17.8887 33.2641 18.9574L34.6117 19.8143C35.1051 19.0825 35.7789 18.7167 36.6331 18.7167C37.174 18.7167 37.696 18.9189 38.104 19.2847C38.5026 19.6313 38.7304 20.132 38.7304 20.6615V21.0178C38.142 20.6904 37.4018 20.5171 36.4907 20.5171C35.4278 20.5171 34.5737 20.7675 33.9379 21.2777C33.302 21.788 32.9794 22.462 32.9794 23.3189C32.9604 24.0988 33.2925 24.8402 33.8809 25.3408C34.4788 25.88 35.238 26.1496 36.1301 26.1496C37.1835 26.1496 38.0186 25.6778 38.6545 24.7342H38.7209V25.88H40.1824V20.7867C40.1824 19.718 39.8597 18.8707 39.2049 18.2641ZM35.0579 24.3588C34.7447 24.1277 34.5549 23.7522 34.5549 23.3478C34.5549 22.8953 34.7637 22.5198 35.1718 22.2213C35.5895 21.9229 36.1115 21.7688 36.7285 21.7688C37.5827 21.7592 38.2471 21.9517 38.7217 22.3369C38.7217 22.9916 38.4654 23.5596 37.9624 24.041C37.5068 24.5032 36.8898 24.7632 36.2444 24.7632C35.8173 24.7728 35.3996 24.6284 35.0579 24.3588ZM43.466 29.5098L48.5717 17.6191H46.9109L44.5479 23.55H44.5194L42.0994 17.6191H40.4386L43.7887 25.3504L41.8906 29.5098H43.466Z" fill="#3C4043"/>
<path d="M21.4884 19.9298C21.4884 19.458 21.4504 18.9863 21.3745 18.5241H14.9307V21.1911H18.6223C18.4705 22.048 17.977 22.8183 17.2557 23.2997V25.0327H19.4575C20.7481 23.8292 21.4884 22.048 21.4884 19.9298Z" fill="#4285F4"/>
<path d="M14.9313 26.7081C16.7724 26.7081 18.3287 26.0919 19.4581 25.0328L17.2563 23.2997C16.6395 23.7233 15.8518 23.964 14.9313 23.964C13.1471 23.964 11.6382 22.7413 11.0972 21.1045H8.8291V22.8953C9.9869 25.235 12.3499 26.7081 14.9313 26.7081Z" fill="#34A853"/>
<path d="M11.0974 21.1045C10.8127 20.2476 10.8127 19.3137 11.0974 18.4472V16.666H8.82893C7.85129 18.6205 7.85129 20.9312 8.82893 22.8857L11.0974 21.1045Z" fill="#FBBC04"/>
<path d="M14.9313 15.5876C15.9087 15.5683 16.8483 15.9438 17.5505 16.6274L19.5055 14.644C18.2623 13.4694 16.63 12.8243 14.9313 12.8436C12.3499 12.8436 9.9869 14.3263 8.8291 16.6659L11.0972 18.4568C11.6382 16.8103 13.1471 15.5876 14.9313 15.5876Z" fill="#EA4335"/>
<rect x="0.5" y="0.5" width="57" height="39" rx="5.5" stroke="#F2F4F7"/>
</svg>
