<svg width="58" height="40" viewBox="0 0 58 40" fill="none" xmlns="http://www.w3.org/2000/svg">
<rect x="0.5" y="0.5" width="57" height="39" rx="5.5" fill="white"/>
<path fill-rule="evenodd" clip-rule="evenodd" d="M16.0072 13.9053C15.515 14.4918 14.7274 14.9544 13.9398 14.8883C13.8414 14.0953 14.227 13.2527 14.6782 12.7323C15.1704 12.1293 16.0319 11.6997 16.7292 11.6667C16.8112 12.4927 16.4913 13.3023 16.0072 13.9053ZM16.7209 15.0452C16.0271 15.005 15.394 15.2553 14.8826 15.4575C14.5535 15.5876 14.2748 15.6978 14.0628 15.6978C13.8249 15.6978 13.5347 15.5817 13.2089 15.4514C12.782 15.2807 12.2939 15.0854 11.7821 15.0948C10.6089 15.1113 9.51778 15.7804 8.91889 16.846C7.68828 18.9772 8.59893 22.1327 9.78852 23.8674C10.371 24.7265 11.0683 25.6682 11.9872 25.6352C12.3914 25.6198 12.6822 25.4956 12.9832 25.367C13.3296 25.219 13.6895 25.0652 14.2515 25.0652C14.794 25.0652 15.1382 25.215 15.4686 25.3587C15.7827 25.4954 16.0844 25.6267 16.5322 25.6187C17.4839 25.6021 18.0828 24.7596 18.6653 23.9005C19.2939 22.9785 19.5701 22.0786 19.612 21.942L19.617 21.9262C19.616 21.9252 19.6082 21.9216 19.5945 21.9153C19.3844 21.8185 17.7783 21.0781 17.7629 19.0929C17.7474 17.4265 19.0368 16.5823 19.2397 16.4494C19.2521 16.4413 19.2604 16.4358 19.2642 16.433C18.4438 15.2104 17.164 15.0783 16.7209 15.0452ZM23.3089 25.5278V12.6497H28.1082C30.5858 12.6497 32.3169 14.3679 32.3169 16.8791C32.3169 19.3903 30.553 21.125 28.0426 21.125H25.2942V25.5278H23.3089ZM25.2941 14.3348H27.583C29.3058 14.3348 30.2903 15.26 30.2903 16.8873C30.2903 18.5146 29.3058 19.4481 27.5748 19.4481H25.2941V14.3348ZM38.872 23.9831C38.347 24.9909 37.1902 25.6269 35.9432 25.6269C34.0973 25.6269 32.8092 24.52 32.8092 22.8514C32.8092 21.1993 34.0562 20.2493 36.3616 20.1089L38.8392 19.9602V19.2498C38.8392 18.2007 38.1583 17.6308 36.9441 17.6308C35.9432 17.6308 35.213 18.1512 35.0653 18.9442H33.2769C33.3343 17.2756 34.8931 16.0613 37.0015 16.0613C39.274 16.0613 40.7508 17.2591 40.7508 19.1177V25.5278H38.913V23.9831H38.872ZM36.4763 24.0987C35.418 24.0987 34.7452 23.5866 34.7452 22.8018C34.7452 21.9923 35.3934 21.5215 36.6322 21.4471L38.8391 21.3067V22.0336C38.8391 23.2396 37.8218 24.0987 36.4763 24.0987ZM46.8463 26.0317C46.0505 28.2868 45.1398 29.0303 43.2037 29.0303C43.056 29.0303 42.5638 29.0138 42.4489 28.9807V27.436C42.572 27.4525 42.8755 27.469 43.0314 27.469C43.9092 27.469 44.4015 27.0973 44.705 26.1308L44.8855 25.5609L41.5218 16.1852H43.5975L45.9356 23.7931H45.9767L48.3148 16.1852H50.333L46.8463 26.0317Z" fill="currentColor"/>
<rect x="0.5" y="0.5" width="57" height="39" rx="5.5" stroke="#F2F4F7"/>
</svg>
