<svg width="58" height="40" viewBox="0 0 58 40" fill="none" xmlns="http://www.w3.org/2000/svg">
<rect x="0.5" y="0.5" width="57" height="39" rx="5.5" fill="white"/>
<path fill-rule="evenodd" clip-rule="evenodd" d="M40.3325 12.9781C44.0202 19.5107 41.7141 27.7957 35.1818 31.4831C28.6496 35.1706 20.3647 32.8641 16.677 26.3315C12.9894 19.7989 15.2955 11.5139 21.8278 7.82646C28.36 4.13901 36.6449 6.44547 40.3325 12.9781ZM28.8656 13.6561C30.8298 13.2924 32.5109 13.459 33.1636 15.1668C33.643 16.4166 33.3163 17.3363 32.5741 18.0127C34.0858 17.959 35.134 18.885 35.5493 20.4856C35.9767 22.8852 34.4006 23.9973 31.9414 24.8335L32.6169 27.2911L31.1311 27.7027L30.4644 25.2782C30.0794 25.3853 29.6837 25.4907 29.2742 25.5961L29.9444 28.0322L28.4601 28.443L27.7813 25.9814L24.7843 26.8033L24.5927 24.9513C24.5927 24.9513 25.6966 24.6627 25.6728 24.6517C26.0931 24.5344 26.122 24.2022 26.0968 24.0067L24.261 17.3379C24.1216 17.0528 23.8296 16.7593 23.2274 16.9256C23.2395 16.9003 22.1484 17.2256 22.1484 17.2256L21.7124 15.6432L24.7068 14.8081L24.0374 12.3735L25.5225 11.9623L26.1793 14.3485C26.5744 14.2298 26.9718 14.1117 27.3621 14.0036L26.7092 11.6328L28.195 11.2212L28.8656 13.6561ZM27.7562 18.974C28.7767 18.7083 30.9972 18.1301 30.5759 16.5974C30.1439 15.0298 28.0332 15.6741 26.9998 15.9896L26.9997 15.9897C26.8826 16.0254 26.7794 16.0569 26.694 16.0805L27.5087 19.0397C27.5791 19.0201 27.6626 18.9984 27.7561 18.974L27.7562 18.974ZM29.1071 23.7163C30.3283 23.3962 32.9991 22.6962 32.5339 21.0078C32.0587 19.2814 29.5199 20.05 28.2812 20.4251C28.1428 20.467 28.0206 20.504 27.9194 20.5321L28.8167 23.7937C28.8994 23.7707 28.997 23.7451 29.1062 23.7165L29.107 23.7163L29.1071 23.7163Z" fill="#8FC258"/>
<rect x="0.5" y="0.5" width="57" height="39" rx="5.5" stroke="#F2F4F7"/>
</svg>
