<svg width="58" height="40" viewBox="0 0 58 40" fill="none" xmlns="http://www.w3.org/2000/svg">
<rect x="0.5" y="0.5" width="57" height="39" rx="5.5" fill="white"/>
<path d="M48.7594 17.4572C49.4448 17.4572 50.0003 16.9017 50.0003 16.2164C50.0003 15.531 49.4448 14.9755 48.7594 14.9755C48.0741 14.9755 47.5186 15.531 47.5186 16.2164C47.5186 16.9017 48.0741 17.4572 48.7594 17.4572Z" fill="#7887E6"/>
<path d="M48.7594 21.342C49.4448 21.342 50.0003 20.7864 50.0003 20.1011C50.0003 19.4158 49.4448 18.8602 48.7594 18.8602C48.0741 18.8602 47.5186 19.4158 47.5186 20.1011C47.5186 20.7864 48.0741 21.342 48.7594 21.342Z" fill="#FF5073"/>
<path fill-rule="evenodd" clip-rule="evenodd" d="M9.82624 18.1939H8.62223V21.1996H6.66699V12.9722H9.82624C11.7103 12.9722 12.6047 14.069 12.6047 15.5234C12.6047 17.2043 11.4119 18.1939 9.82624 18.1939ZM9.53296 14.4026H8.62223V16.7626H9.61185C10.2962 16.7626 10.7464 16.3098 10.7061 15.4951C10.6752 14.8786 10.1504 14.4026 9.53296 14.4026ZM17.9988 21.1988H16.0907H16.0899V20.9286C15.7091 21.1679 15.2109 21.3411 14.7521 21.3411C13.5892 21.3411 12.7051 20.4647 12.7051 19.4211C12.7051 18.3525 13.4614 17.1957 16.0907 17.3826V16.977C16.0907 16.5122 15.6971 16.357 15.2563 16.357C14.6363 16.357 13.9091 16.6314 13.5635 16.7866L13.0387 15.7018C13.6107 15.3442 14.5411 14.9746 15.7211 14.9746C17.1284 14.9746 17.9988 15.5946 17.9988 16.9659V21.1988ZM14.6114 19.3868C14.6114 19.8275 14.9339 20.102 15.4107 20.102C15.7091 20.102 15.9835 19.9948 16.161 19.8636V18.5875C15.0059 18.3963 14.6114 18.8859 14.6114 19.3868ZM36.9783 15.1178V14.8674C36.9783 13.425 37.7887 12.4834 39.3271 12.4834C39.6736 12.4834 39.9712 12.5314 40.2336 12.6026V13.961C40.0792 13.9138 39.8528 13.8778 39.6736 13.8778C39.0887 13.8778 38.8744 14.2594 38.8744 14.7962V15.1178H40.1856V16.4179H38.8744V21.1988H36.9783V16.4179H35.9647V15.1178H36.9783ZM30.4583 15.7027C31.0303 15.3451 31.9607 14.9755 33.1407 14.9755C34.548 14.9755 35.4184 15.5955 35.4175 16.9659V21.1988H33.5095V20.9295C33.1287 21.1688 32.6305 21.342 32.1717 21.342C31.0088 21.342 30.1247 20.4656 30.1247 19.4219C30.1247 18.3534 30.881 17.1965 33.5103 17.3835V16.9779C33.5103 16.5131 33.1167 16.3579 32.6759 16.3579C32.0559 16.3579 31.3287 16.6323 30.9831 16.7875L30.4583 15.7027ZM32.7591 20.102C33.0575 20.102 33.3311 19.9948 33.5103 19.8636H33.5095V18.5875C32.3543 18.3963 31.9599 18.8859 31.9599 19.3868C31.9599 19.8275 32.2823 20.102 32.7591 20.102ZM24.7821 15.1187L21.7009 22.9053H19.8854L20.6881 20.9132L18.1163 15.1187H20.0689L21.5748 18.7522L22.8869 15.1187H24.7821ZM46.2785 18.0653V18.5403V18.5421H42.3252C42.3552 18.8542 42.4349 19.1089 42.555 19.3113C42.5554 19.3117 42.5556 19.3121 42.5559 19.3126C42.5561 19.313 42.5563 19.3134 42.5567 19.3139C42.5764 19.3456 42.597 19.3765 42.6185 19.4056C42.6313 19.4236 42.6442 19.4399 42.6579 19.4571C42.6606 19.4603 42.6632 19.4635 42.6659 19.4668C42.6719 19.4742 42.678 19.4817 42.6845 19.4888C42.7076 19.5162 42.7325 19.5428 42.7582 19.5677L42.7608 19.5703C42.8243 19.6312 42.8955 19.686 42.9743 19.7341C42.975 19.7344 42.9755 19.7346 42.976 19.7348C42.9767 19.735 42.9772 19.7352 42.9778 19.7358C43.0129 19.7572 43.0507 19.7769 43.0893 19.7958C43.097 19.7992 43.1038 19.8027 43.1107 19.8061C43.1339 19.8172 43.1587 19.8275 43.1836 19.837C43.2059 19.8455 43.2281 19.8532 43.2504 19.8609L43.2505 19.861C43.2668 19.8661 43.2839 19.8713 43.3011 19.8764C43.3328 19.885 43.3645 19.8936 43.3971 19.9013C43.4027 19.9026 43.4083 19.9036 43.4138 19.9047C43.4194 19.9058 43.425 19.9069 43.4306 19.9081C43.4623 19.915 43.494 19.9202 43.5266 19.9253C43.536 19.927 43.5446 19.9287 43.5541 19.9296C43.5944 19.9347 43.6355 19.939 43.6767 19.9416C43.6815 19.942 43.6862 19.9422 43.6908 19.9424C43.696 19.9426 43.7013 19.9429 43.7067 19.9433C43.7504 19.9459 43.7942 19.9476 43.8396 19.9476C44.3576 19.9476 44.9356 19.8018 45.5059 19.4785L46.0375 20.6602C45.1963 21.2434 44.1046 21.3428 43.5532 21.3428C41.5739 21.3428 40.3339 20.114 40.3339 18.1947C40.3339 16.3227 41.646 14.9755 43.3388 14.9755C45.0316 14.9755 46.2785 16.2824 46.2785 18.0653ZM44.3524 17.5387C44.2804 16.7283 43.8636 16.3107 43.3388 16.3107C42.814 16.3107 42.3972 16.7275 42.3252 17.5387H44.3524ZM26.8162 19.9587C27.3771 19.9587 27.7106 19.7915 27.7106 19.4579C27.7106 19.1015 27.2553 18.946 26.708 18.7592C25.8831 18.4776 24.8493 18.1246 24.8498 16.905C24.8498 15.6178 25.9938 14.9738 27.4131 14.9738C28.1883 14.9738 28.9515 15.2122 29.4523 15.4626L28.9155 16.7146C28.5339 16.5482 28.0091 16.369 27.5083 16.369C27.0315 16.369 26.745 16.5474 26.745 16.8338C26.745 17.1488 27.1703 17.291 27.6901 17.4648C28.5075 17.738 29.5587 18.0894 29.5587 19.3139C29.5587 20.6259 28.3667 21.3411 26.9834 21.3411C26.2082 21.3411 25.3738 21.1628 24.6586 20.7811L25.2666 19.5531C25.6954 19.7684 26.2442 19.9587 26.8162 19.9587ZM33.6492 25.2722V24.4712H33.3054V24.2466H34.2564L34.2916 24.4712H33.9665V25.2722H33.6492ZM35.3858 25.2722L35.3472 24.5295L35.3206 24.6294C35.2636 24.8437 35.2067 25.0576 35.1465 25.2722H34.8678L34.6672 24.5295L34.6286 25.2722H34.3447C34.3756 24.9317 34.403 24.5879 34.4296 24.2474H34.8284L35.0102 24.9746L35.012 24.9669C35.0697 24.726 35.1266 24.4884 35.1877 24.2474H35.5865L35.6679 25.2722H35.3858ZM6.67557 24.5484V29.1243H7.76296V27.453H8.43271C9.31514 27.453 9.97803 26.9024 9.97803 25.9677C9.97803 25.1581 9.48065 24.5484 8.43271 24.5484H6.67557ZM8.92409 26.0071C8.92409 26.4247 8.67883 26.6571 8.31437 26.6571H7.76381V25.3442H8.31437C8.70541 25.3442 8.92409 25.6161 8.92409 26.0071ZM12.0542 28.7865L12.1142 29.1243V29.1252H13.0824V26.7712C13.0824 26.008 12.5987 25.6632 11.8158 25.6632C11.1589 25.6632 10.6418 25.869 10.3236 26.068L10.6152 26.6717C10.8073 26.5851 11.2121 26.4325 11.5568 26.4325C11.8021 26.4325 12.0207 26.5182 12.0207 26.7772V27.0027C10.6083 26.9761 10.1375 27.4598 10.1375 28.1896C10.1375 28.8662 10.6684 29.2041 11.1923 29.2041C11.6168 29.2041 11.8681 28.9923 12.0542 28.7865ZM11.9352 27.6629C11.9626 27.666 11.9908 27.6692 12.0216 27.6716V28.3808C11.9221 28.4537 11.7695 28.5138 11.604 28.5138C11.339 28.5138 11.1597 28.3611 11.1597 28.1158C11.1597 27.838 11.3587 27.6519 11.7832 27.6519C11.8384 27.6519 11.8855 27.6572 11.9352 27.6629ZM14.1106 30.5633L14.668 29.1243H14.3499C14.2267 28.737 14.1044 28.3497 13.9821 27.9625L13.9821 27.9624L13.9821 27.9623L13.982 27.9623L13.982 27.9622L13.982 27.9622L13.982 27.9622L13.982 27.9621L13.9819 27.962C13.7482 27.2221 13.5146 26.4823 13.2753 25.7421H14.3499L14.9862 28.2488L15.7022 25.7421H16.757C16.4514 26.6256 16.1499 27.5093 15.8492 28.3908L15.849 28.3914L15.8489 28.3916L15.8487 28.3922L15.8484 28.3931C15.6009 29.1187 15.3538 29.8429 15.1054 30.5642H14.1106V30.5633ZM18.6737 24.5484V29.1243H21.5053V28.3354H19.7611V24.5484H18.6737ZM23.7805 29.1243L23.7204 28.7865C23.5343 28.9923 23.2831 29.2041 22.8586 29.2041C22.3346 29.2041 21.8038 28.8662 21.8038 28.1896C21.8038 27.4598 22.2746 26.9761 23.687 27.0027V26.7772C23.687 26.5182 23.4683 26.4325 23.223 26.4325C22.8783 26.4325 22.4735 26.5851 22.2814 26.6717L21.9899 26.068C22.308 25.869 22.8251 25.6632 23.482 25.6632C24.265 25.6632 24.7486 26.008 24.7486 26.7712V29.1252H23.7805V29.1243ZM23.6878 27.6716C23.657 27.6692 23.6288 27.666 23.6014 27.6629C23.5517 27.6572 23.5047 27.6519 23.4494 27.6519C23.0249 27.6519 22.826 27.838 22.826 28.1158C22.826 28.3611 23.0052 28.5138 23.2702 28.5138C23.4357 28.5138 23.5884 28.4537 23.6878 28.3808V27.6716ZM25.6242 28.2025C25.6242 29.0849 26.2545 29.1243 26.5727 29.1243V29.126H27.329V28.416H27.0375C26.8051 28.416 26.679 28.3096 26.679 27.9649V26.4659H27.329V25.743H26.679V24.7345L25.6242 25.0989V25.7421H25.1071V26.465H25.6242V28.2025ZM30.6975 28.8722C30.4857 29.0317 29.9343 29.2041 29.3906 29.2041C28.2895 29.2041 27.6 28.5206 27.6 27.453C27.6 26.4119 28.3298 25.6624 29.2714 25.6624C29.9943 25.6624 30.7104 26.0534 30.7104 27.2472V27.6451H28.708C28.7612 28.2025 29.099 28.428 29.5501 28.428C29.8888 28.428 30.273 28.2891 30.3991 28.2093L30.6975 28.8722ZM29.7362 27.0885C29.7362 26.6306 29.5372 26.405 29.2585 26.405C28.967 26.405 28.7483 26.6374 28.708 27.0885H29.7362ZM31.1417 25.7421V29.1243H32.2025V26.9359C32.3886 26.7498 32.6871 26.6374 32.9658 26.6374C33.0318 26.6374 33.1707 26.6374 33.2308 26.6503V25.6624C32.7737 25.6624 32.3689 25.9411 32.1502 26.3587V25.7421H31.1417Z" fill="#2D2341"/>
<rect x="0.5" y="0.5" width="57" height="39" rx="5.5" stroke="#F2F4F7"/>
</svg>
