<svg width="20" height="20" viewBox="0 0 20 20" fill="none" xmlns="http://www.w3.org/2000/svg">
<path fill-rule="evenodd" clip-rule="evenodd" d="M10 1C14.9709 1 19 5.02909 19 10C19 14.9709 14.9709 19 10 19C5.02909 19 1 14.9709 1 10C1 5.02909 5.02909 1 10 1Z" fill="white"/>
<path d="M5.94718 10.0016L5.95367 12.3814L7.97578 13.5713V14.9646L4.77025 13.0845V9.30568L5.94718 10.0016ZM5.94718 7.62178V9.00856L4.76953 8.31193V6.92515L5.94718 6.22852L7.13059 6.92515L5.94718 7.62178ZM8.82025 6.92515L9.9979 6.22852L11.1813 6.92515L9.9979 7.62178L8.82025 6.92515Z" fill="black"/>
<path d="M6.79688 11.8881V10.4949L7.97452 11.1915V12.5783L6.79688 11.8881ZM8.81899 14.0703L9.99663 14.767L11.18 14.0703V15.4571L9.99663 16.1538L8.81899 15.4571V14.0703ZM12.869 6.92515L14.0466 6.22852L15.23 6.92515V8.31193L14.0466 9.00856V7.62178L12.869 6.92515ZM14.0466 12.3814L14.0531 10.0016L15.2308 9.30496V13.0838L12.0252 14.9639V13.5706L14.0466 12.3814Z" fill="black"/>
<path d="M13.203 11.8874L12.0254 12.5776V11.1908L13.203 10.4941V11.8874Z" fill="black"/>
<path d="M13.2022 8.11328L13.2087 9.50655L11.1808 10.6965V13.082L10.0031 13.7722L8.82548 13.082V10.6965L6.7976 9.50655V8.11328L7.98029 7.41665L9.99591 8.61232L12.0238 7.41665L13.2072 8.11328H13.2022ZM6.79688 5.73419L9.99663 3.84766L13.2022 5.73419L12.0245 6.43083L9.99663 5.23516L7.97452 6.43083L6.79688 5.73419Z" fill="black"/>
</svg>
