<svg
  width="20"
  height="20"
  viewBox="0 0 20 20"
  fill="none"
  xmlns="http://www.w3.org/2000/svg"
>
  <path d="M16.0109 4H4.00293V14H16.0109V4Z" fill="white"></path>
  <path
    fill-rule="evenodd"
    clip-rule="evenodd"
    d="M19.013 10C19.013 14.9706 14.9809 19 10.007 19C5.03309 19 1.00098 14.9706 1.00098 10C1.00098 5.02944 5.03309 1 10.007 1C14.9809 1 19.013 5.02944 19.013 10ZM7.45492 13.5815H5.70711C5.33985 13.5815 5.15843 13.5815 5.04782 13.5108C4.92834 13.4334 4.85534 13.3052 4.84649 13.1637C4.83984 13.0333 4.93056 12.874 5.11198 12.5557L9.42754 4.95395C9.61117 4.63115 9.70408 4.46975 9.82134 4.41005C9.94745 4.34594 10.0979 4.34594 10.224 4.41005C10.3413 4.46975 10.4342 4.63115 10.6178 4.95395L11.505 6.50161L11.5095 6.50951C11.7079 6.85581 11.8084 7.03143 11.8524 7.21574C11.901 7.41694 11.901 7.62919 11.8524 7.83039C11.8081 8.01611 11.7085 8.19299 11.5072 8.54453L9.24035 12.549L9.23449 12.5593C9.03485 12.9084 8.93367 13.0854 8.79345 13.2189C8.64079 13.3649 8.45716 13.4709 8.25582 13.5307C8.07219 13.5815 7.86644 13.5815 7.45492 13.5815ZM11.8687 13.5815H14.3731C14.7426 13.5815 14.9285 13.5815 15.0392 13.5087C15.1586 13.4313 15.2338 13.3008 15.2405 13.1593C15.2469 13.0332 15.1581 12.8801 14.9842 12.5802C14.9782 12.57 14.9722 12.5596 14.9661 12.5491L13.7117 10.4045L13.6974 10.3803C13.5211 10.0824 13.4321 9.93198 13.3178 9.87383C13.1918 9.80971 13.0435 9.80971 12.9174 9.87383C12.8024 9.93352 12.7094 10.0905 12.5258 10.4067L11.2758 12.5513L11.2715 12.5587C11.0885 12.8743 10.9971 13.0321 11.0037 13.1615C11.0125 13.303 11.0855 13.4334 11.205 13.5108C11.3134 13.5815 11.4992 13.5815 11.8687 13.5815Z"
    fill="#B6B6B6"
  ></path>
</svg>
