<svg
  width="20"
  height="20"
  viewBox="0 0 20 20"
  fill="none"
  xmlns="http://www.w3.org/2000/svg"
>
  <path
    d="M11.9547 9.24004L13.2893 6.97557L16.8864 12.5783L16.8881 13.6534L16.8764 6.25462C16.8679 6.07376 16.7718 5.9083 16.6186 5.81074L10.1424 2.08553C9.99091 2.01108 9.79877 2.01187 9.64758 2.08784C9.62716 2.0981 9.60793 2.10921 9.5896 2.12134L9.56705 2.13555L3.28084 5.77837L3.25642 5.78942C3.22506 5.80386 3.19337 5.82218 3.16359 5.8435C3.04443 5.929 2.96525 6.05538 2.93965 6.19715C2.93581 6.21864 2.93299 6.24052 2.93164 6.26257L2.94151 12.2919L6.29209 7.09868C6.71392 6.41004 7.63304 6.18824 8.48624 6.20031L9.48764 6.22676L3.5874 15.6891L4.28292 16.0895L10.2539 6.23635L12.893 6.22676L6.93747 16.3286L9.41929 17.756L9.71582 17.9266C9.84124 17.9776 9.9891 17.9801 10.1156 17.9345L16.6828 14.1287L15.4272 14.8562L11.9547 9.24004ZM12.4639 16.5736L9.95719 12.6393L11.4873 10.0428L14.7794 15.2316L12.4639 16.5736Z"
    fill="#868686"
  ></path>
  <path
    d="M9.95898 12.6395L12.4657 16.5737L14.7812 15.2318L11.4892 10.043L9.95898 12.6395Z"
    fill="#D6D6D6"
  ></path>
  <path
    d="M16.8885 13.6539L16.8868 12.5788L13.2897 6.97607L11.9551 9.24055L15.4276 14.8567L16.6832 14.1292C16.8064 14.0292 16.8809 13.8824 16.8887 13.724L16.8885 13.6539Z"
    fill="#D6D6D6"
  ></path>
  <path
    d="M1.81451 14.6678L3.58756 15.6894L9.4878 6.22711L8.4864 6.20066C7.63321 6.18859 6.71414 6.41039 6.29225 7.09903L2.94167 12.2922L1.81445 14.0242V14.6678H1.81451Z"
    fill="white"
  ></path>
  <path
    d="M12.8933 6.22705L10.2542 6.23664L4.2832 16.0898L6.3702 17.2915L6.93776 16.3289L12.8933 6.22705Z"
    fill="white"
  ></path>
  <path
    d="M18.0004 6.21356C17.9784 5.66163 17.6795 5.15633 17.2114 4.86217L10.6503 1.08908C10.1873 0.855891 9.60877 0.855609 9.14498 1.08891C9.09016 1.11655 2.76442 4.78525 2.76442 4.78525C2.6769 4.82721 2.59259 4.87723 2.51324 4.93396C2.09535 5.23348 1.84062 5.69885 1.81445 6.21018V14.0243L2.94167 12.2924L2.9318 6.26302C2.93316 6.24097 2.93592 6.21931 2.93981 6.19788C2.96524 6.05599 3.04448 5.92944 3.16375 5.84395C3.19353 5.82263 9.62727 2.09855 9.64774 2.08829C9.79899 2.01232 9.99113 2.01153 10.1425 2.08597L16.6187 5.81118C16.772 5.90875 16.868 6.07421 16.8765 6.25507V13.7239C16.8687 13.8823 16.8061 14.0291 16.6829 14.1291L15.4274 14.8567L14.7795 15.2321L12.464 16.574L10.1157 17.9349C9.98921 17.9806 9.84134 17.9781 9.71592 17.927L6.93758 16.329L6.37002 17.2916L8.86684 18.7291C8.9494 18.7761 9.023 18.8177 9.08334 18.8516C9.17684 18.9041 9.24051 18.9391 9.26302 18.95C9.44049 19.0361 9.69579 19.0863 9.92588 19.0863C10.1369 19.0863 10.3425 19.0476 10.5372 18.9713L17.3579 15.0213C17.7494 14.718 17.9797 14.2606 18.0004 13.765V6.21356Z"
    fill="white"
  ></path>
</svg>
