<svg
  width="20"
  height="20"
  viewBox="0 0 20 20"
  fill="none"
  xmlns="http://www.w3.org/2000/svg"
>
  <path
    fill-rule="evenodd"
    clip-rule="evenodd"
    d="M10 1C14.9709 1 19 5.02909 19 10C19 14.9709 14.9709 19 10 19C5.02909 19 1 14.9709 1 10C1 5.02909 5.02909 1 10 1ZM5.94718 10.0009L5.95367 12.3807L7.97578 13.5706V14.9638L4.77025 13.0838V9.30495L5.94718 10.0009ZM5.94718 7.62105V9.00783L4.76953 8.3112V6.92442L5.94718 6.22778L7.13059 6.92442L5.94718 7.62105ZM8.82025 6.92442L9.9979 6.22778L11.1813 6.92442L9.9979 7.62105L8.82025 6.92442ZM6.79688 10.4941V11.8874L7.97452 12.5775V11.1908L6.79688 10.4941ZM9.99663 14.7662L8.81899 14.0696V15.4564L9.99663 16.153L11.18 15.4564V14.0696L9.99663 14.7662ZM14.0466 6.22778L12.869 6.92442L14.0466 7.62105V9.00783L15.23 8.3112V6.92442L14.0466 6.22778ZM14.0531 10.0009L14.0466 12.3807L12.0252 13.5699V14.9631L15.2308 13.0831V9.30423L14.0531 10.0009ZM13.203 11.8872L12.0254 12.5773V11.1905L13.203 10.4939V11.8872ZM13.2087 9.50655L13.2022 8.11328H13.2072L12.0238 7.41665L9.99591 8.61232L7.98029 7.41665L6.7976 8.11328V9.50655L8.82548 10.6965V13.082L10.0031 13.7722L11.1808 13.082V10.6965L13.2087 9.50655ZM9.99663 3.84766L6.79688 5.73419L7.97452 6.43083L9.99663 5.23516L12.0245 6.43083L13.2022 5.73419L9.99663 3.84766Z"
    fill="white"
  ></path>
</svg>
