<svg width="20" height="20" viewBox="0 0 21 20" fill="none" xmlns="http://www.w3.org/2000/svg">
    <path d="M10.5548 18.8328C9.1994 18.8328 7.84397 18.8323 6.48855 18.833C6.23724 18.833 6.00666 18.7692 5.80776 18.6132C5.53139 18.3966 5.39445 18.1096 5.39422 17.7588C5.39354 17.1209 5.39878 16.4829 5.39263 15.8449C5.38716 15.291 5.81436 14.7755 6.45733 14.7678C6.489 14.7673 6.52044 14.7678 6.55211 14.7678C9.09869 14.7678 11.6453 14.7673 14.1919 14.7685C14.5213 14.7685 14.7959 14.65 15.0125 14.4036C15.1887 14.2031 15.2711 13.9653 15.2714 13.6993C15.2718 13.1276 15.2714 12.5559 15.2714 11.9842C15.2714 11.6209 15.2759 11.2576 15.2702 10.8946C15.2625 10.4058 15.6111 9.93634 16.1438 9.84409C16.2087 9.83293 16.2757 9.82975 16.3418 9.82975C16.9831 9.82861 17.6245 9.83225 18.2659 9.82815C18.7377 9.82496 19.1383 10.1215 19.2768 10.5322C19.3124 10.6376 19.3313 10.7456 19.331 10.8574C19.3306 11.9628 19.3324 13.0684 19.3301 14.1738C19.329 14.7455 18.8656 15.2094 18.2921 15.214C17.7865 15.2181 17.2812 15.2153 16.7756 15.2147C16.6088 15.2144 16.4475 15.2431 16.2973 15.3147C15.9159 15.4966 15.7173 15.8016 15.7132 16.2241C15.7084 16.7357 15.7109 17.2475 15.7125 17.7591C15.7134 18.0547 15.6156 18.3098 15.4083 18.521C15.216 18.7171 14.979 18.8159 14.7063 18.8316C14.6653 18.8339 14.6243 18.8332 14.5831 18.8332C13.2402 18.8332 11.8975 18.8332 10.5548 18.8332V18.8328Z" fill="white"/>
    <path d="M10.1069 0.833008C11.4655 0.833008 12.8239 0.833463 14.1825 0.833008C14.4628 0.833008 14.7106 0.918877 14.9189 1.10793C15.149 1.31679 15.2648 1.581 15.2668 1.8894C15.2709 2.53991 15.272 3.19065 15.2668 3.84115C15.2627 4.35568 14.9166 4.77205 14.4176 4.87409C14.3379 4.89049 14.2545 4.89345 14.1727 4.89345C11.6325 4.89436 9.09254 4.89413 6.55234 4.89436C6.4227 4.89436 6.29374 4.89846 6.16729 4.93445C5.70454 5.0661 5.39513 5.47403 5.39445 5.9626C5.39331 6.89121 5.39445 7.8196 5.39605 8.74821C5.3965 8.93225 5.36164 9.10717 5.27187 9.2673C5.06978 9.62808 4.75718 9.82078 4.34547 9.82624C3.69157 9.8349 3.03743 9.83239 2.38353 9.82738C1.89367 9.82351 1.48834 9.51648 1.36895 9.0664C1.34571 8.97894 1.33501 8.88578 1.33501 8.79536C1.33273 7.69911 1.33728 6.60331 1.33204 5.50728C1.32931 4.94128 1.79069 4.44839 2.38216 4.44839C2.87817 4.44839 3.37418 4.44839 3.87019 4.44816C4.40653 4.4477 4.8351 4.08965 4.92943 3.56168C4.93991 3.50314 4.94196 3.44233 4.94196 3.38265C4.94287 2.88999 4.94082 2.39733 4.9431 1.90443C4.94469 1.56574 5.07388 1.28399 5.33703 1.06852C5.53275 0.908399 5.76036 0.833463 6.01236 0.833463C6.74213 0.833008 7.47191 0.833463 8.20191 0.833463C8.8369 0.833463 9.4719 0.833463 10.1071 0.833463L10.1069 0.833008Z" fill="white"/>
    <path d="M12.3932 9.82557C12.3932 10.1508 12.4003 10.4761 12.3916 10.8011C12.3761 11.3812 11.9054 11.852 11.3262 11.8595C10.6757 11.868 10.0248 11.868 9.37431 11.8595C8.81063 11.852 8.34697 11.3972 8.31166 10.8364C8.30938 10.7986 8.30733 10.7608 8.3071 10.723C8.30687 10.1198 8.30778 9.51671 8.30664 8.91358C8.30596 8.59129 8.41259 8.31341 8.64453 8.08769C8.86372 7.87427 9.13074 7.77519 9.434 7.77428C10.0467 7.77246 10.6596 7.77132 11.2722 7.77428C11.8735 7.77724 12.2253 8.17675 12.3403 8.53389C12.3816 8.6619 12.3957 8.79241 12.3955 8.92565C12.3948 9.22562 12.3955 9.5256 12.3955 9.82557C12.3948 9.82557 12.3941 9.82557 12.3934 9.82557H12.3932Z" fill="white"/>
  </svg>