<svg width="21" height="20" viewBox="0 0 21 20" fill="none" xmlns="http://www.w3.org/2000/svg">
    <g clip-path="url(#clip0_3248_302067)">
    <path d="M18.5722 1.66699L11 7.31139L12.4081 3.98496L18.5722 1.66699Z" fill="#FEFEFE"/>
    <path d="M1.75977 1.67383L7.90735 3.98557L9.24441 7.35562L1.75977 1.67383Z" fill="#FEFEFE"/>
    <path d="M15.5239 13.6709L18.8706 13.7351L17.701 17.738L13.6172 16.6053L15.5239 13.6709Z" fill="#FEFEFE"/>
    <path d="M4.79106 13.6709L6.69069 16.6053L2.61371 17.7381L1.45117 13.7351L4.79106 13.6709Z" fill="#FEFEFE"/>
    <path d="M9.06524 6.49707L9.20205 10.9473L5.10938 10.7597L6.2735 8.99046L6.28824 8.97339L9.06524 6.49707Z" fill="#FEFEFE"/>
    <path d="M11.2069 6.44727L14.0263 8.97341L14.0408 8.99034L15.205 10.7596L11.1133 10.9471L11.2069 6.44727Z" fill="#FEFEFE"/>
    <path d="M6.80845 13.6836L9.04318 15.4377L6.44727 16.7003L6.80845 13.6836Z" fill="#FEFEFE"/>
    <path d="M13.5045 13.6836L13.8582 16.7006L11.2695 15.4378L13.5045 13.6836Z" fill="#FEFEFE"/>
    <path d="M11.3281 15.2725L13.955 16.5538L11.5115 17.7238L11.5368 16.9505L11.3281 15.2725Z" fill="white"/>
    <path d="M8.98684 15.2734L8.7863 16.9383L8.80276 17.7232L6.35352 16.5542L8.98684 15.2734Z" fill="white"/>
    <path d="M8.22683 11.5283L8.91328 12.9817L6.57617 12.292L8.22683 11.5283Z" fill="#5E5E5E"/>
    <path d="M12.0867 11.5283L13.7451 12.2918L11.4004 12.9813L12.0867 11.5283Z" fill="#5E5E5E"/>
    <path d="M6.98851 13.6689L6.61072 16.7967L4.58594 13.7373L6.98851 13.6689Z" fill="#E1E1E1"/>
    <path d="M13.3262 13.6689L15.7288 13.7373L13.6964 16.7968L13.3262 13.6689Z" fill="#E1E1E1"/>
    <path d="M15.2668 10.583L13.5183 12.3782L12.1702 11.7576L11.5247 13.1245L11.1016 10.7739L15.2668 10.583Z" fill="#E1E1E1"/>
    <path d="M5.04883 10.583L9.21479 10.7739L8.79166 13.1246L8.14608 11.7578L6.80506 12.3783L5.04883 10.583Z" fill="#E1E1E1"/>
    <path d="M4.92969 10.2148L6.90797 12.2371L6.97653 14.2336L4.92969 10.2148Z" fill="#FEFEFE"/>
    <path d="M15.3864 10.2109L13.3359 14.2369L13.4131 12.2368L15.3864 10.2109Z" fill="#FEFEFE"/>
    <path d="M9.11825 10.3379L9.19787 10.8428L9.39461 12.1004L9.26813 15.9633L8.67012 12.8602L8.66992 12.8281L9.11825 10.3379Z" fill="#FEFEFE"/>
    <path d="M11.1971 10.3311L11.6467 12.8283L11.6465 12.8604L11.047 15.9712L11.0232 15.1931L10.9297 12.0777L11.1971 10.3311Z" fill="#FEFEFE"/>
    <path d="M13.5894 12.1562L13.5224 13.8908L11.4355 15.5288L11.0137 15.2286L11.4866 12.7747L13.5894 12.1562Z" fill="white"/>
    <path d="M6.73047 12.1562L8.82604 12.7747L9.29893 15.2285L8.87705 15.5288L6.79003 13.8907L6.73047 12.1562Z" fill="white"/>
    <path d="M5.95508 16.1709L8.62503 17.4453L8.61372 16.9011L8.83711 16.7036H11.4796L11.7111 16.9005L11.694 17.4443L14.3471 16.1741L13.0561 17.2488L11.495 18.3289H8.81572L7.25568 17.2444L5.95508 16.1709Z" fill="white"/>
    <path d="M11.1358 15.1035L11.5133 15.3721L11.7345 17.1503L11.4144 16.8779H8.89999L8.58594 17.1557L8.7999 15.3723L9.17753 15.1035H11.1358Z" fill="#5E5E5E"/>
    <path d="M18.0729 1.82324L18.9818 4.57029L18.4142 7.34782L18.8184 7.66197L18.2714 8.08237L18.6825 8.40219L18.1381 8.90161L18.4723 9.14541L17.5854 10.1889L13.9478 9.1219L13.9163 9.10487L11.2949 6.8772L18.0729 1.82324Z" fill="#9E9E9E"/>
    <path d="M2.24295 1.82324L9.0209 6.8772L6.39955 9.10487L6.36802 9.1219L2.73036 10.1889L1.84349 9.14541L2.17741 8.90178L1.63333 8.40219L2.04363 8.08272L1.48849 7.66111L1.90795 7.34678L1.33398 4.57039L2.24295 1.82324Z" fill="#9E9E9E"/>
    <path d="M13.7682 8.88867L17.6225 10.0191L18.8748 13.907L15.5712 13.907L13.2949 13.936L14.9503 10.6854L13.7682 8.88867Z" fill="white"/>
    <path d="M6.54487 8.88867L5.36257 10.6854L7.01817 13.936L4.74303 13.907H1.44531L2.69049 10.0192L6.54487 8.88867Z" fill="white"/>
    <path d="M12.5952 3.9668L11.5171 6.90004L11.2883 10.8626L11.2008 12.1046L11.1938 15.2773H9.11813L9.1114 12.1105L9.02358 10.8615L8.79469 6.90004L7.7168 3.9668H12.5952Z" fill="white"/>
    </g>
    <defs>
    <clipPath id="clip0_3248_302067">
    <rect width="17.6471" height="16.6667" fill="white" transform="translate(1.33398 1.66699)"/>
    </clipPath>
    </defs>
  </svg>