<svg width="20" height="20" viewBox="0 0 21 20" fill="none" xmlns="http://www.w3.org/2000/svg">
    <path d="M2.16602 6.75893V1.91478C2.16602 1.77849 2.28357 1.66699 2.42725 1.66699H7.53435C7.67803 1.66699 7.79559 1.77849 7.79559 1.91478V6.75893C7.80865 6.89521 7.69109 7.00672 7.53435 7.00672H2.42725C2.28357 7.00672 2.16602 6.89521 2.16602 6.75893ZM18.5714 1.67938H13.4643C13.3207 1.67938 13.2031 1.79088 13.2031 1.92716V6.77132C13.2031 6.9076 13.3207 7.0191 13.4643 7.0191H18.5714C18.7151 7.0191 18.8327 6.9076 18.8327 6.77132V1.92716C18.8327 1.79088 18.7151 1.67938 18.5714 1.67938ZM7.53435 12.1606H2.42725C2.28357 12.1606 2.16602 12.2721 2.16602 12.4084V17.2525C2.16602 17.3888 2.28357 17.5003 2.42725 17.5003H7.53435C7.69109 17.5003 7.80865 17.3764 7.79559 17.2525V12.4084C7.79559 12.2721 7.67803 12.1606 7.53435 12.1606ZM18.5714 12.1606H13.4643C13.3207 12.1606 13.2031 12.2721 13.2031 12.4084V17.2525C13.2031 17.3888 13.3207 17.5003 13.4643 17.5003H18.5714C18.7151 17.5003 18.8327 17.3888 18.8327 17.2525V12.4084C18.8327 12.2721 18.7151 12.1606 18.5714 12.1606ZM13.3207 12.0367V7.19255C13.3207 7.05627 13.2031 6.94477 13.0594 6.94477H7.95233C7.80865 6.94477 7.69109 7.05627 7.69109 7.19255V12.0367C7.69109 12.173 7.80865 12.2845 7.95233 12.2845H13.0594C13.2031 12.2721 13.3207 12.1606 13.3207 12.0367Z" fill="white"/>
  </svg>