<svg
  width="20"
  height="20"
  viewBox="0 0 20 20"
  fill="none"
  xmlns="http://www.w3.org/2000/svg"
>
  <path
    d="M14.6292 6.63332C14.3003 6.4534 13.8773 6.4534 13.5013 6.63332L10.8695 8.11762L9.08355 9.06218L6.49869 10.5465C6.16971 10.7264 5.74674 10.7264 5.37076 10.5465L3.34987 9.37703C3.02089 9.19711 2.7859 8.83728 2.7859 8.43247V6.18353C2.7859 5.8237 2.97389 5.46386 3.34987 5.23897L5.37076 4.1145C5.69974 3.93458 6.12272 3.93458 6.49869 4.1145L8.51958 5.28395C8.84856 5.46386 9.08355 5.8237 9.08355 6.22851V7.71281L10.8695 6.72327V5.19399C10.8695 4.83416 10.6815 4.47433 10.3055 4.24943L6.54569 2.13543C6.21671 1.95551 5.79373 1.95551 5.41775 2.13543L1.56397 4.29441C1.18799 4.47433 1 4.83416 1 5.19399V9.42201C1 9.78184 1.18799 10.1417 1.56397 10.3666L5.37076 12.4806C5.69974 12.6605 6.12272 12.6605 6.49869 12.4806L9.08355 11.0413L10.8695 10.0517L13.4543 8.61239C13.7833 8.43247 14.2063 8.43247 14.5822 8.61239L16.6031 9.73686C16.9321 9.91678 17.1671 10.2766 17.1671 10.6814V12.9304C17.1671 13.2902 16.9791 13.65 16.6031 13.8749L14.6292 14.9994C14.3003 15.1793 13.8773 15.1793 13.5013 14.9994L11.4804 13.8749C11.1514 13.695 10.9164 13.3352 10.9164 12.9304V11.491L9.13055 12.4806V13.9649C9.13055 14.3247 9.31854 14.6845 9.69452 14.9094L13.5013 17.0234C13.8303 17.2034 14.2533 17.2034 14.6292 17.0234L18.436 14.9094C18.765 14.7295 19 14.3697 19 13.9649V9.69188C19 9.33205 18.812 8.97222 18.436 8.74733L14.6292 6.63332Z"
    fill="#F8F8F8"
  ></path>
</svg>
