<svg width="20" height="20" viewBox="0 0 21 20" fill="none" xmlns="http://www.w3.org/2000/svg">
    <path fill-rule="evenodd" clip-rule="evenodd" d="M19.332 9.83398C19.332 14.8045 15.3026 18.834 10.332 18.834C5.36147 18.834 1.33203 14.8045 1.33203 9.83398C1.33203 4.86342 5.36147 0.833984 10.332 0.833984C15.3026 0.833984 19.332 4.86342 19.332 9.83398ZM13.8273 7.53151C11.8969 5.649 8.76693 5.649 6.83651 7.53151L6.58149 7.78017C6.48494 7.87428 6.48494 8.0269 6.58149 8.121L7.37624 8.89604C7.42451 8.94309 7.50273 8.94309 7.551 8.89604L7.89341 8.56216C9.24016 7.24888 11.4236 7.24888 12.7704 8.56216L13.0901 8.87393C13.1384 8.92099 13.2166 8.92099 13.2649 8.87393L14.0596 8.0989C14.1561 8.00479 14.1561 7.85217 14.0596 7.75807L13.8273 7.53151ZM16.1783 9.8241L15.471 9.13433C15.3744 9.04017 15.2179 9.04017 15.1214 9.13433L12.8577 11.3417C12.8336 11.3653 12.7945 11.3653 12.7703 11.3417L10.5066 9.13428C10.4101 9.04013 10.2536 9.04013 10.1571 9.13428L7.89346 11.3417C7.86932 11.3653 7.83021 11.3653 7.80607 11.3417L5.54236 9.13428C5.44584 9.04017 5.28935 9.04017 5.19282 9.13428L4.48548 9.82405C4.38896 9.91816 4.38896 10.0708 4.48548 10.1649L7.67502 13.2752C7.77156 13.3693 7.92806 13.3693 8.02455 13.2752L10.2882 11.0678C10.3124 11.0442 10.3515 11.0442 10.3756 11.0678L12.6393 13.2752C12.7358 13.3693 12.8923 13.3693 12.9888 13.2752L16.1783 10.1649C16.2748 10.0708 16.2748 9.9182 16.1783 9.8241Z" fill="white"/>
    <path d="M6.83651 7.53151L6.85396 7.54941L6.85396 7.54941L6.83651 7.53151ZM13.8273 7.53151L13.8098 7.54941L13.8273 7.53151ZM6.58149 7.78017L6.59894 7.79808L6.59894 7.79807L6.58149 7.78017ZM6.58149 8.121L6.59894 8.1031L6.59894 8.1031L6.58149 8.121ZM7.37624 8.89604L7.35878 8.91394L7.35879 8.91394L7.37624 8.89604ZM7.551 8.89604L7.56845 8.91394L7.56846 8.91394L7.551 8.89604ZM7.89341 8.56216L7.91086 8.58006L7.91086 8.58006L7.89341 8.56216ZM12.7704 8.56216L12.7878 8.54426L12.7704 8.56216ZM13.0901 8.87393L13.0726 8.89183L13.0726 8.89184L13.0901 8.87393ZM13.2649 8.87393L13.2823 8.89184L13.2823 8.89183L13.2649 8.87393ZM14.0596 8.0989L14.0422 8.08099L14.0422 8.081L14.0596 8.0989ZM14.0596 7.75807L14.0422 7.77597L14.0422 7.77597L14.0596 7.75807ZM15.471 9.13433L15.4535 9.15222L15.4535 9.15222L15.471 9.13433ZM16.1783 9.8241L16.1608 9.842L16.1608 9.842L16.1783 9.8241ZM15.1214 9.13433L15.1389 9.15222L15.1389 9.15222L15.1214 9.13433ZM12.8577 11.3417L12.8403 11.3238L12.8403 11.3238L12.8577 11.3417ZM12.7703 11.3417L12.7878 11.3238L12.7878 11.3238L12.7703 11.3417ZM10.5066 9.13428L10.4892 9.15218V9.15218L10.5066 9.13428ZM10.1571 9.13428L10.1745 9.15218L10.1745 9.15217L10.1571 9.13428ZM7.89346 11.3417L7.876 11.3238L7.876 11.3238L7.89346 11.3417ZM7.80607 11.3417L7.82353 11.3238L7.82353 11.3238L7.80607 11.3417ZM5.54236 9.13428L5.55982 9.11638L5.55981 9.11638L5.54236 9.13428ZM5.19282 9.13428L5.17537 9.11638L5.17537 9.11638L5.19282 9.13428ZM4.48548 9.82405L4.50293 9.84196L4.50293 9.84195L4.48548 9.82405ZM4.48548 10.1649L4.50293 10.147L4.50293 10.147L4.48548 10.1649ZM7.67502 13.2752L7.69247 13.2573L7.69247 13.2573L7.67502 13.2752ZM8.02455 13.2752L8.0071 13.2573L8.00709 13.2573L8.02455 13.2752ZM10.2882 11.0678L10.3057 11.0857L10.3057 11.0857L10.2882 11.0678ZM10.3756 11.0678L10.3581 11.0857L10.3582 11.0857L10.3756 11.0678ZM12.6393 13.2752L12.6567 13.2573L12.6567 13.2573L12.6393 13.2752ZM12.9888 13.2752L12.9714 13.2573L12.9713 13.2573L12.9888 13.2752ZM16.1783 10.1649L16.1608 10.147L16.1608 10.147L16.1783 10.1649ZM10.332 18.859C15.3164 18.859 19.357 14.8184 19.357 9.83398H19.307C19.307 14.7907 15.2888 18.809 10.332 18.809V18.859ZM1.30703 9.83398C1.30703 14.8184 5.34766 18.859 10.332 18.859V18.809C5.37528 18.809 1.35703 14.7907 1.35703 9.83398H1.30703ZM10.332 0.808984C5.34766 0.808984 1.30703 4.84961 1.30703 9.83398H1.35703C1.35703 4.87723 5.37528 0.858984 10.332 0.858984V0.808984ZM19.357 9.83398C19.357 4.84961 15.3164 0.808984 10.332 0.808984V0.858984C15.2888 0.858984 19.307 4.87723 19.307 9.83398H19.357ZM6.85396 7.54941C8.77467 5.67637 11.8891 5.67637 13.8098 7.54941L13.8447 7.51361C11.9046 5.62163 8.75918 5.62163 6.81905 7.51361L6.85396 7.54941ZM6.59894 7.79807L6.85396 7.54941L6.81906 7.51361L6.56403 7.76227L6.59894 7.79807ZM6.59894 8.1031C6.51246 8.01881 6.51246 7.88237 6.59894 7.79808L6.56404 7.76227C6.45743 7.86619 6.45743 8.03499 6.56404 8.1389L6.59894 8.1031ZM7.39369 8.87814L6.59894 8.1031L6.56403 8.1389L7.35878 8.91394L7.39369 8.87814ZM7.53355 8.87814C7.49499 8.91573 7.43225 8.91573 7.39369 8.87814L7.35879 8.91394C7.41677 8.97046 7.51048 8.97046 7.56845 8.91394L7.53355 8.87814ZM7.87596 8.54426L7.53355 8.87814L7.56846 8.91394L7.91086 8.58006L7.87596 8.54426ZM12.7878 8.54426C11.4314 7.22151 9.23242 7.22151 7.87596 8.54426L7.91086 8.58006C9.24791 7.27625 11.4159 7.27625 12.7529 8.58006L12.7878 8.54426ZM13.1075 8.85604L12.7878 8.54426L12.7529 8.58006L13.0726 8.89183L13.1075 8.85604ZM13.2474 8.85603C13.2088 8.89362 13.1461 8.89362 13.1075 8.85603L13.0726 8.89184C13.1306 8.94835 13.2243 8.94835 13.2823 8.89184L13.2474 8.85603ZM14.0422 8.081L13.2474 8.85604L13.2823 8.89183L14.0771 8.11679L14.0422 8.081ZM14.0422 7.77597C14.1286 7.86026 14.1286 7.9967 14.0422 8.08099L14.0771 8.1168C14.1837 8.01288 14.1837 7.84408 14.0771 7.74017L14.0422 7.77597ZM13.8098 7.54941L14.0422 7.77597L14.0771 7.74017L13.8447 7.51361L13.8098 7.54941ZM15.4535 9.15222L16.1608 9.842L16.1957 9.8062L15.4884 9.11643L15.4535 9.15222ZM15.1389 9.15222C15.2257 9.06755 15.3667 9.06754 15.4535 9.15222L15.4884 9.11643C15.3822 9.01281 15.2102 9.0128 15.104 9.11643L15.1389 9.15222ZM12.8752 11.3596L15.1389 9.15222L15.104 9.11643L12.8403 11.3238L12.8752 11.3596ZM12.7529 11.3596C12.7867 11.3927 12.8413 11.3927 12.8752 11.3596L12.8403 11.3238C12.8258 11.3379 12.8022 11.3379 12.7878 11.3238L12.7529 11.3596ZM10.4892 9.15218L12.7529 11.3596L12.7878 11.3238L10.5241 9.11638L10.4892 9.15218ZM10.1745 9.15217C10.2613 9.0675 10.4023 9.06749 10.4892 9.15218L10.5241 9.11638C10.4178 9.01276 10.2458 9.01276 10.1396 9.11639L10.1745 9.15217ZM7.91091 11.3596L10.1745 9.15218L10.1396 9.11638L7.876 11.3238L7.91091 11.3596ZM7.78861 11.3596C7.82246 11.3927 7.87707 11.3927 7.91091 11.3596L7.876 11.3238C7.86157 11.3379 7.83796 11.3379 7.82353 11.3238L7.78861 11.3596ZM5.52491 9.15218L7.78862 11.3596L7.82353 11.3238L5.55982 9.11638L5.52491 9.15218ZM5.21028 9.15218C5.29709 9.06754 5.4381 9.06754 5.52491 9.15218L5.55981 9.11638C5.45358 9.01281 5.2816 9.01281 5.17537 9.11638L5.21028 9.15218ZM4.50293 9.84195L5.21028 9.15218L5.17537 9.11638L4.46802 9.80616L4.50293 9.84195ZM4.50293 10.147C4.41647 10.0627 4.41647 9.92625 4.50293 9.84196L4.46803 9.80615C4.36144 9.91007 4.36144 10.0789 4.46803 10.1828L4.50293 10.147ZM7.69247 13.2573L4.50293 10.147L4.46802 10.1828L7.65757 13.2931L7.69247 13.2573ZM8.00709 13.2573C7.92031 13.342 7.77931 13.342 7.69247 13.2573L7.65757 13.2931C7.76381 13.3967 7.9358 13.3967 8.04201 13.2931L8.00709 13.2573ZM10.2708 11.0499L8.0071 13.2573L8.04201 13.2931L10.3057 11.0857L10.2708 11.0499ZM10.3931 11.0499C10.3592 11.0169 10.3046 11.0169 10.2708 11.0499L10.3057 11.0857C10.3201 11.0716 10.3437 11.0716 10.3581 11.0857L10.3931 11.0499ZM12.6567 13.2573L10.3931 11.0499L10.3582 11.0857L12.6218 13.2931L12.6567 13.2573ZM12.9713 13.2573C12.8846 13.342 12.7436 13.342 12.6567 13.2573L12.6218 13.2931C12.7281 13.3967 12.9001 13.3967 13.0063 13.2931L12.9713 13.2573ZM16.1608 10.147L12.9714 13.2573L13.0063 13.2931L16.1957 10.1828L16.1608 10.147ZM16.1608 9.842C16.2473 9.92629 16.2473 10.0627 16.1608 10.147L16.1957 10.1828C16.3023 10.0789 16.3023 9.91011 16.1957 9.8062L16.1608 9.842Z" fill="white"/>
  </svg>